%TF.GenerationSoftware,KiCad,Pcbnew,7.0.1-0*%
%TF.CreationDate,2023-05-05T03:57:04-04:00*%
%TF.ProjectId,rcc-pico,7263632d-7069-4636-9f2e-6b696361645f,rev?*%
%TF.SameCoordinates,Original*%
%TF.FileFunction,Legend,Top*%
%TF.FilePolarity,Positive*%
%FSLAX46Y46*%
G04 Gerber Fmt 4.6, Leading zero omitted, Abs format (unit mm)*
G04 Created by KiCad (PCBNEW 7.0.1-0) date 2023-05-05 03:57:04*
%MOMM*%
%LPD*%
G01*
G04 APERTURE LIST*
%ADD10C,0.120000*%
%ADD11C,0.575000*%
%ADD12C,0.150000*%
%ADD13C,0.140000*%
%ADD14C,0.250000*%
%ADD15C,0.300000*%
%ADD16C,0.127000*%
G04 APERTURE END LIST*
D10*
X84157275Y-56696573D02*
X83662300Y-56201598D01*
X83662300Y-56201598D02*
X83850862Y-56013036D01*
X83850862Y-56013036D02*
X83921573Y-55989466D01*
X83921573Y-55989466D02*
X83968713Y-55989466D01*
X83968713Y-55989466D02*
X84039424Y-56013036D01*
X84039424Y-56013036D02*
X84110135Y-56083747D01*
X84110135Y-56083747D02*
X84133705Y-56154458D01*
X84133705Y-56154458D02*
X84133705Y-56201598D01*
X84133705Y-56201598D02*
X84110135Y-56272309D01*
X84110135Y-56272309D02*
X83921573Y-56460871D01*
X84110135Y-55753764D02*
X84722961Y-56130887D01*
X84722961Y-56130887D02*
X84463688Y-55683053D01*
X84463688Y-55683053D02*
X84911522Y-55942326D01*
X84911522Y-55942326D02*
X84534399Y-55329500D01*
X85217935Y-55635913D02*
X84722961Y-55140938D01*
X84722961Y-55140938D02*
X85241506Y-55329500D01*
X85241506Y-55329500D02*
X85052944Y-54810955D01*
X85052944Y-54810955D02*
X85547918Y-55305930D01*
D11*
X141637500Y-76930000D02*
G75*
G03*
X141637500Y-76930000I-287500J0D01*
G01*
X143197500Y-45590000D02*
G75*
G03*
X143197500Y-45590000I-287500J0D01*
G01*
X95307500Y-77540000D02*
G75*
G03*
X95307500Y-77540000I-287500J0D01*
G01*
X90097500Y-31090000D02*
G75*
G03*
X90097500Y-31090000I-287500J0D01*
G01*
D12*
X112236904Y-63350238D02*
X112141666Y-63302619D01*
X112141666Y-63302619D02*
X111998809Y-63302619D01*
X111998809Y-63302619D02*
X111855952Y-63350238D01*
X111855952Y-63350238D02*
X111760714Y-63445476D01*
X111760714Y-63445476D02*
X111713095Y-63540714D01*
X111713095Y-63540714D02*
X111665476Y-63731190D01*
X111665476Y-63731190D02*
X111665476Y-63874047D01*
X111665476Y-63874047D02*
X111713095Y-64064523D01*
X111713095Y-64064523D02*
X111760714Y-64159761D01*
X111760714Y-64159761D02*
X111855952Y-64255000D01*
X111855952Y-64255000D02*
X111998809Y-64302619D01*
X111998809Y-64302619D02*
X112094047Y-64302619D01*
X112094047Y-64302619D02*
X112236904Y-64255000D01*
X112236904Y-64255000D02*
X112284523Y-64207380D01*
X112284523Y-64207380D02*
X112284523Y-63874047D01*
X112284523Y-63874047D02*
X112094047Y-63874047D01*
X112713095Y-64302619D02*
X112713095Y-63302619D01*
X112713095Y-63302619D02*
X113284523Y-64302619D01*
X113284523Y-64302619D02*
X113284523Y-63302619D01*
X113760714Y-64302619D02*
X113760714Y-63302619D01*
X113760714Y-63302619D02*
X113998809Y-63302619D01*
X113998809Y-63302619D02*
X114141666Y-63350238D01*
X114141666Y-63350238D02*
X114236904Y-63445476D01*
X114236904Y-63445476D02*
X114284523Y-63540714D01*
X114284523Y-63540714D02*
X114332142Y-63731190D01*
X114332142Y-63731190D02*
X114332142Y-63874047D01*
X114332142Y-63874047D02*
X114284523Y-64064523D01*
X114284523Y-64064523D02*
X114236904Y-64159761D01*
X114236904Y-64159761D02*
X114141666Y-64255000D01*
X114141666Y-64255000D02*
X113998809Y-64302619D01*
X113998809Y-64302619D02*
X113760714Y-64302619D01*
X111956904Y-68590238D02*
X111861666Y-68542619D01*
X111861666Y-68542619D02*
X111718809Y-68542619D01*
X111718809Y-68542619D02*
X111575952Y-68590238D01*
X111575952Y-68590238D02*
X111480714Y-68685476D01*
X111480714Y-68685476D02*
X111433095Y-68780714D01*
X111433095Y-68780714D02*
X111385476Y-68971190D01*
X111385476Y-68971190D02*
X111385476Y-69114047D01*
X111385476Y-69114047D02*
X111433095Y-69304523D01*
X111433095Y-69304523D02*
X111480714Y-69399761D01*
X111480714Y-69399761D02*
X111575952Y-69495000D01*
X111575952Y-69495000D02*
X111718809Y-69542619D01*
X111718809Y-69542619D02*
X111814047Y-69542619D01*
X111814047Y-69542619D02*
X111956904Y-69495000D01*
X111956904Y-69495000D02*
X112004523Y-69447380D01*
X112004523Y-69447380D02*
X112004523Y-69114047D01*
X112004523Y-69114047D02*
X111814047Y-69114047D01*
X112433095Y-69542619D02*
X112433095Y-68542619D01*
X112433095Y-68542619D02*
X112814047Y-68542619D01*
X112814047Y-68542619D02*
X112909285Y-68590238D01*
X112909285Y-68590238D02*
X112956904Y-68637857D01*
X112956904Y-68637857D02*
X113004523Y-68733095D01*
X113004523Y-68733095D02*
X113004523Y-68875952D01*
X113004523Y-68875952D02*
X112956904Y-68971190D01*
X112956904Y-68971190D02*
X112909285Y-69018809D01*
X112909285Y-69018809D02*
X112814047Y-69066428D01*
X112814047Y-69066428D02*
X112433095Y-69066428D01*
X113433095Y-69542619D02*
X113433095Y-68542619D01*
X114099761Y-68542619D02*
X114290237Y-68542619D01*
X114290237Y-68542619D02*
X114385475Y-68590238D01*
X114385475Y-68590238D02*
X114480713Y-68685476D01*
X114480713Y-68685476D02*
X114528332Y-68875952D01*
X114528332Y-68875952D02*
X114528332Y-69209285D01*
X114528332Y-69209285D02*
X114480713Y-69399761D01*
X114480713Y-69399761D02*
X114385475Y-69495000D01*
X114385475Y-69495000D02*
X114290237Y-69542619D01*
X114290237Y-69542619D02*
X114099761Y-69542619D01*
X114099761Y-69542619D02*
X114004523Y-69495000D01*
X114004523Y-69495000D02*
X113909285Y-69399761D01*
X113909285Y-69399761D02*
X113861666Y-69209285D01*
X113861666Y-69209285D02*
X113861666Y-68875952D01*
X113861666Y-68875952D02*
X113909285Y-68685476D01*
X113909285Y-68685476D02*
X114004523Y-68590238D01*
X114004523Y-68590238D02*
X114099761Y-68542619D01*
D10*
X77458011Y-45830887D02*
X77575862Y-45948739D01*
X77410871Y-46019449D02*
X77575862Y-45948739D01*
X77575862Y-45948739D02*
X77646573Y-45783747D01*
X77599432Y-46113730D02*
X77575862Y-45948739D01*
X77575862Y-45948739D02*
X77740854Y-45972309D01*
X78518671Y-45760177D02*
X78235828Y-46043020D01*
X78377250Y-45901598D02*
X77882275Y-45406624D01*
X77882275Y-45406624D02*
X77905845Y-45524475D01*
X77905845Y-45524475D02*
X77905845Y-45618756D01*
X77905845Y-45618756D02*
X77882275Y-45689466D01*
X78471531Y-44817368D02*
X78235829Y-45053070D01*
X78235829Y-45053070D02*
X78447961Y-45312342D01*
X78447961Y-45312342D02*
X78447961Y-45265202D01*
X78447961Y-45265202D02*
X78471531Y-45194491D01*
X78471531Y-45194491D02*
X78589382Y-45076640D01*
X78589382Y-45076640D02*
X78660093Y-45053070D01*
X78660093Y-45053070D02*
X78707233Y-45053070D01*
X78707233Y-45053070D02*
X78777944Y-45076640D01*
X78777944Y-45076640D02*
X78895795Y-45194491D01*
X78895795Y-45194491D02*
X78919365Y-45265202D01*
X78919365Y-45265202D02*
X78919365Y-45312342D01*
X78919365Y-45312342D02*
X78895795Y-45383053D01*
X78895795Y-45383053D02*
X78777944Y-45500904D01*
X78777944Y-45500904D02*
X78707233Y-45524475D01*
X78707233Y-45524475D02*
X78660093Y-45524475D01*
D12*
X108920887Y-71874013D02*
X108920887Y-71806669D01*
X108920887Y-71806669D02*
X108954559Y-71705654D01*
X108954559Y-71705654D02*
X109122917Y-71537295D01*
X109122917Y-71537295D02*
X109223933Y-71503624D01*
X109223933Y-71503624D02*
X109291276Y-71503624D01*
X109291276Y-71503624D02*
X109392291Y-71537295D01*
X109392291Y-71537295D02*
X109459635Y-71604639D01*
X109459635Y-71604639D02*
X109526978Y-71739326D01*
X109526978Y-71739326D02*
X109526978Y-72547448D01*
X109526978Y-72547448D02*
X109964711Y-72109715D01*
X110638146Y-71436280D02*
X110234085Y-71840341D01*
X110436116Y-71638311D02*
X109729009Y-70931204D01*
X109729009Y-70931204D02*
X109762681Y-71099562D01*
X109762681Y-71099562D02*
X109762681Y-71234250D01*
X109762681Y-71234250D02*
X109729009Y-71335265D01*
X121352761Y-29684952D02*
X121218074Y-29819639D01*
X121218074Y-29819639D02*
X121184402Y-29920654D01*
X121184402Y-29920654D02*
X121184402Y-29987998D01*
X121184402Y-29987998D02*
X121218074Y-30156356D01*
X121218074Y-30156356D02*
X121319089Y-30324715D01*
X121319089Y-30324715D02*
X121588463Y-30594089D01*
X121588463Y-30594089D02*
X121689478Y-30627761D01*
X121689478Y-30627761D02*
X121756822Y-30627761D01*
X121756822Y-30627761D02*
X121857837Y-30594089D01*
X121857837Y-30594089D02*
X121992524Y-30459402D01*
X121992524Y-30459402D02*
X122026196Y-30358387D01*
X122026196Y-30358387D02*
X122026196Y-30291043D01*
X122026196Y-30291043D02*
X121992524Y-30190028D01*
X121992524Y-30190028D02*
X121824165Y-30021669D01*
X121824165Y-30021669D02*
X121723150Y-29987998D01*
X121723150Y-29987998D02*
X121655807Y-29987998D01*
X121655807Y-29987998D02*
X121554791Y-30021669D01*
X121554791Y-30021669D02*
X121420104Y-30156356D01*
X121420104Y-30156356D02*
X121386433Y-30257372D01*
X121386433Y-30257372D02*
X121386433Y-30324715D01*
X121386433Y-30324715D02*
X121420104Y-30425730D01*
X137613095Y-83679166D02*
X138375000Y-83679166D01*
X137994047Y-84060119D02*
X137994047Y-83298214D01*
X138898809Y-84060119D02*
X139089285Y-84060119D01*
X139089285Y-84060119D02*
X139184523Y-84012500D01*
X139184523Y-84012500D02*
X139232142Y-83964880D01*
X139232142Y-83964880D02*
X139327380Y-83822023D01*
X139327380Y-83822023D02*
X139374999Y-83631547D01*
X139374999Y-83631547D02*
X139374999Y-83250595D01*
X139374999Y-83250595D02*
X139327380Y-83155357D01*
X139327380Y-83155357D02*
X139279761Y-83107738D01*
X139279761Y-83107738D02*
X139184523Y-83060119D01*
X139184523Y-83060119D02*
X138994047Y-83060119D01*
X138994047Y-83060119D02*
X138898809Y-83107738D01*
X138898809Y-83107738D02*
X138851190Y-83155357D01*
X138851190Y-83155357D02*
X138803571Y-83250595D01*
X138803571Y-83250595D02*
X138803571Y-83488690D01*
X138803571Y-83488690D02*
X138851190Y-83583928D01*
X138851190Y-83583928D02*
X138898809Y-83631547D01*
X138898809Y-83631547D02*
X138994047Y-83679166D01*
X138994047Y-83679166D02*
X139184523Y-83679166D01*
X139184523Y-83679166D02*
X139279761Y-83631547D01*
X139279761Y-83631547D02*
X139327380Y-83583928D01*
X139327380Y-83583928D02*
X139374999Y-83488690D01*
X139660714Y-83060119D02*
X139994047Y-84060119D01*
X139994047Y-84060119D02*
X140327380Y-83060119D01*
D10*
X89093011Y-53595887D02*
X89210862Y-53713739D01*
X89045871Y-53784449D02*
X89210862Y-53713739D01*
X89210862Y-53713739D02*
X89281573Y-53548747D01*
X89234432Y-53878730D02*
X89210862Y-53713739D01*
X89210862Y-53713739D02*
X89375854Y-53737309D01*
X90153671Y-53525177D02*
X89870828Y-53808020D01*
X90012250Y-53666598D02*
X89517275Y-53171624D01*
X89517275Y-53171624D02*
X89540845Y-53289475D01*
X89540845Y-53289475D02*
X89540845Y-53383756D01*
X89540845Y-53383756D02*
X89517275Y-53454466D01*
X89823688Y-52865210D02*
X90153671Y-52535227D01*
X90153671Y-52535227D02*
X90436514Y-53242334D01*
D12*
X117898387Y-74274013D02*
X117898387Y-74206669D01*
X117898387Y-74206669D02*
X117932059Y-74105654D01*
X117932059Y-74105654D02*
X118100417Y-73937295D01*
X118100417Y-73937295D02*
X118201433Y-73903624D01*
X118201433Y-73903624D02*
X118268776Y-73903624D01*
X118268776Y-73903624D02*
X118369791Y-73937295D01*
X118369791Y-73937295D02*
X118437135Y-74004639D01*
X118437135Y-74004639D02*
X118504478Y-74139326D01*
X118504478Y-74139326D02*
X118504478Y-74947448D01*
X118504478Y-74947448D02*
X118942211Y-74509715D01*
X118942211Y-73701593D02*
X118841196Y-73735265D01*
X118841196Y-73735265D02*
X118773852Y-73735265D01*
X118773852Y-73735265D02*
X118672837Y-73701593D01*
X118672837Y-73701593D02*
X118639165Y-73667921D01*
X118639165Y-73667921D02*
X118605494Y-73566906D01*
X118605494Y-73566906D02*
X118605494Y-73499562D01*
X118605494Y-73499562D02*
X118639165Y-73398547D01*
X118639165Y-73398547D02*
X118773852Y-73263860D01*
X118773852Y-73263860D02*
X118874868Y-73230188D01*
X118874868Y-73230188D02*
X118942211Y-73230188D01*
X118942211Y-73230188D02*
X119043226Y-73263860D01*
X119043226Y-73263860D02*
X119076898Y-73297532D01*
X119076898Y-73297532D02*
X119110570Y-73398547D01*
X119110570Y-73398547D02*
X119110570Y-73465891D01*
X119110570Y-73465891D02*
X119076898Y-73566906D01*
X119076898Y-73566906D02*
X118942211Y-73701593D01*
X118942211Y-73701593D02*
X118908539Y-73802608D01*
X118908539Y-73802608D02*
X118908539Y-73869952D01*
X118908539Y-73869952D02*
X118942211Y-73970967D01*
X118942211Y-73970967D02*
X119076898Y-74105654D01*
X119076898Y-74105654D02*
X119177913Y-74139326D01*
X119177913Y-74139326D02*
X119245257Y-74139326D01*
X119245257Y-74139326D02*
X119346272Y-74105654D01*
X119346272Y-74105654D02*
X119480959Y-73970967D01*
X119480959Y-73970967D02*
X119514631Y-73869952D01*
X119514631Y-73869952D02*
X119514631Y-73802608D01*
X119514631Y-73802608D02*
X119480959Y-73701593D01*
X119480959Y-73701593D02*
X119346272Y-73566906D01*
X119346272Y-73566906D02*
X119245257Y-73533234D01*
X119245257Y-73533234D02*
X119177913Y-73533234D01*
X119177913Y-73533234D02*
X119076898Y-73566906D01*
D10*
X126464333Y-68958334D02*
X126464333Y-68525000D01*
X126464333Y-68525000D02*
X126731000Y-68758334D01*
X126731000Y-68758334D02*
X126731000Y-68658334D01*
X126731000Y-68658334D02*
X126764333Y-68591667D01*
X126764333Y-68591667D02*
X126797666Y-68558334D01*
X126797666Y-68558334D02*
X126864333Y-68525000D01*
X126864333Y-68525000D02*
X127031000Y-68525000D01*
X127031000Y-68525000D02*
X127097666Y-68558334D01*
X127097666Y-68558334D02*
X127131000Y-68591667D01*
X127131000Y-68591667D02*
X127164333Y-68658334D01*
X127164333Y-68658334D02*
X127164333Y-68858334D01*
X127164333Y-68858334D02*
X127131000Y-68925000D01*
X127131000Y-68925000D02*
X127097666Y-68958334D01*
X126464333Y-68325000D02*
X127164333Y-68091667D01*
X127164333Y-68091667D02*
X126464333Y-67858333D01*
X126464333Y-67691667D02*
X126464333Y-67258333D01*
X126464333Y-67258333D02*
X126731000Y-67491667D01*
X126731000Y-67491667D02*
X126731000Y-67391667D01*
X126731000Y-67391667D02*
X126764333Y-67325000D01*
X126764333Y-67325000D02*
X126797666Y-67291667D01*
X126797666Y-67291667D02*
X126864333Y-67258333D01*
X126864333Y-67258333D02*
X127031000Y-67258333D01*
X127031000Y-67258333D02*
X127097666Y-67291667D01*
X127097666Y-67291667D02*
X127131000Y-67325000D01*
X127131000Y-67325000D02*
X127164333Y-67391667D01*
X127164333Y-67391667D02*
X127164333Y-67591667D01*
X127164333Y-67591667D02*
X127131000Y-67658333D01*
X127131000Y-67658333D02*
X127097666Y-67691667D01*
X126897666Y-66958333D02*
X126897666Y-66425000D01*
X127031000Y-66558333D02*
X126897666Y-66425000D01*
X126897666Y-66425000D02*
X126764333Y-66558333D01*
X126964333Y-66124999D02*
X126964333Y-65791666D01*
X127164333Y-66191666D02*
X126464333Y-65958333D01*
X126464333Y-65958333D02*
X127164333Y-65724999D01*
X127164333Y-65491666D02*
X126464333Y-65491666D01*
X126464333Y-65491666D02*
X126464333Y-65324999D01*
X126464333Y-65324999D02*
X126497666Y-65224999D01*
X126497666Y-65224999D02*
X126564333Y-65158333D01*
X126564333Y-65158333D02*
X126631000Y-65124999D01*
X126631000Y-65124999D02*
X126764333Y-65091666D01*
X126764333Y-65091666D02*
X126864333Y-65091666D01*
X126864333Y-65091666D02*
X126997666Y-65124999D01*
X126997666Y-65124999D02*
X127064333Y-65158333D01*
X127064333Y-65158333D02*
X127131000Y-65224999D01*
X127131000Y-65224999D02*
X127164333Y-65324999D01*
X127164333Y-65324999D02*
X127164333Y-65491666D01*
X127097666Y-64391666D02*
X127131000Y-64424999D01*
X127131000Y-64424999D02*
X127164333Y-64524999D01*
X127164333Y-64524999D02*
X127164333Y-64591666D01*
X127164333Y-64591666D02*
X127131000Y-64691666D01*
X127131000Y-64691666D02*
X127064333Y-64758333D01*
X127064333Y-64758333D02*
X126997666Y-64791666D01*
X126997666Y-64791666D02*
X126864333Y-64824999D01*
X126864333Y-64824999D02*
X126764333Y-64824999D01*
X126764333Y-64824999D02*
X126631000Y-64791666D01*
X126631000Y-64791666D02*
X126564333Y-64758333D01*
X126564333Y-64758333D02*
X126497666Y-64691666D01*
X126497666Y-64691666D02*
X126464333Y-64591666D01*
X126464333Y-64591666D02*
X126464333Y-64524999D01*
X126464333Y-64524999D02*
X126497666Y-64424999D01*
X126497666Y-64424999D02*
X126531000Y-64391666D01*
X127164333Y-63691666D02*
X126831000Y-63924999D01*
X127164333Y-64091666D02*
X126464333Y-64091666D01*
X126464333Y-64091666D02*
X126464333Y-63824999D01*
X126464333Y-63824999D02*
X126497666Y-63758333D01*
X126497666Y-63758333D02*
X126531000Y-63724999D01*
X126531000Y-63724999D02*
X126597666Y-63691666D01*
X126597666Y-63691666D02*
X126697666Y-63691666D01*
X126697666Y-63691666D02*
X126764333Y-63724999D01*
X126764333Y-63724999D02*
X126797666Y-63758333D01*
X126797666Y-63758333D02*
X126831000Y-63824999D01*
X126831000Y-63824999D02*
X126831000Y-64091666D01*
X126797666Y-63391666D02*
X126797666Y-63158333D01*
X127164333Y-63058333D02*
X127164333Y-63391666D01*
X127164333Y-63391666D02*
X126464333Y-63391666D01*
X126464333Y-63391666D02*
X126464333Y-63058333D01*
X126797666Y-62525000D02*
X126797666Y-62758333D01*
X127164333Y-62758333D02*
X126464333Y-62758333D01*
X126464333Y-62758333D02*
X126464333Y-62425000D01*
D12*
X87730952Y-77277619D02*
X87730952Y-77515714D01*
X87492857Y-77420476D02*
X87730952Y-77515714D01*
X87730952Y-77515714D02*
X87969047Y-77420476D01*
X87588095Y-77706190D02*
X87730952Y-77515714D01*
X87730952Y-77515714D02*
X87873809Y-77706190D01*
X88302381Y-77372857D02*
X88350000Y-77325238D01*
X88350000Y-77325238D02*
X88445238Y-77277619D01*
X88445238Y-77277619D02*
X88683333Y-77277619D01*
X88683333Y-77277619D02*
X88778571Y-77325238D01*
X88778571Y-77325238D02*
X88826190Y-77372857D01*
X88826190Y-77372857D02*
X88873809Y-77468095D01*
X88873809Y-77468095D02*
X88873809Y-77563333D01*
X88873809Y-77563333D02*
X88826190Y-77706190D01*
X88826190Y-77706190D02*
X88254762Y-78277619D01*
X88254762Y-78277619D02*
X88873809Y-78277619D01*
X89445238Y-77706190D02*
X89350000Y-77658571D01*
X89350000Y-77658571D02*
X89302381Y-77610952D01*
X89302381Y-77610952D02*
X89254762Y-77515714D01*
X89254762Y-77515714D02*
X89254762Y-77468095D01*
X89254762Y-77468095D02*
X89302381Y-77372857D01*
X89302381Y-77372857D02*
X89350000Y-77325238D01*
X89350000Y-77325238D02*
X89445238Y-77277619D01*
X89445238Y-77277619D02*
X89635714Y-77277619D01*
X89635714Y-77277619D02*
X89730952Y-77325238D01*
X89730952Y-77325238D02*
X89778571Y-77372857D01*
X89778571Y-77372857D02*
X89826190Y-77468095D01*
X89826190Y-77468095D02*
X89826190Y-77515714D01*
X89826190Y-77515714D02*
X89778571Y-77610952D01*
X89778571Y-77610952D02*
X89730952Y-77658571D01*
X89730952Y-77658571D02*
X89635714Y-77706190D01*
X89635714Y-77706190D02*
X89445238Y-77706190D01*
X89445238Y-77706190D02*
X89350000Y-77753809D01*
X89350000Y-77753809D02*
X89302381Y-77801428D01*
X89302381Y-77801428D02*
X89254762Y-77896666D01*
X89254762Y-77896666D02*
X89254762Y-78087142D01*
X89254762Y-78087142D02*
X89302381Y-78182380D01*
X89302381Y-78182380D02*
X89350000Y-78230000D01*
X89350000Y-78230000D02*
X89445238Y-78277619D01*
X89445238Y-78277619D02*
X89635714Y-78277619D01*
X89635714Y-78277619D02*
X89730952Y-78230000D01*
X89730952Y-78230000D02*
X89778571Y-78182380D01*
X89778571Y-78182380D02*
X89826190Y-78087142D01*
X89826190Y-78087142D02*
X89826190Y-77896666D01*
X89826190Y-77896666D02*
X89778571Y-77801428D01*
X89778571Y-77801428D02*
X89730952Y-77753809D01*
X89730952Y-77753809D02*
X89635714Y-77706190D01*
X99471904Y-37555238D02*
X99376666Y-37507619D01*
X99376666Y-37507619D02*
X99233809Y-37507619D01*
X99233809Y-37507619D02*
X99090952Y-37555238D01*
X99090952Y-37555238D02*
X98995714Y-37650476D01*
X98995714Y-37650476D02*
X98948095Y-37745714D01*
X98948095Y-37745714D02*
X98900476Y-37936190D01*
X98900476Y-37936190D02*
X98900476Y-38079047D01*
X98900476Y-38079047D02*
X98948095Y-38269523D01*
X98948095Y-38269523D02*
X98995714Y-38364761D01*
X98995714Y-38364761D02*
X99090952Y-38460000D01*
X99090952Y-38460000D02*
X99233809Y-38507619D01*
X99233809Y-38507619D02*
X99329047Y-38507619D01*
X99329047Y-38507619D02*
X99471904Y-38460000D01*
X99471904Y-38460000D02*
X99519523Y-38412380D01*
X99519523Y-38412380D02*
X99519523Y-38079047D01*
X99519523Y-38079047D02*
X99329047Y-38079047D01*
X99948095Y-38507619D02*
X99948095Y-37507619D01*
X99948095Y-37507619D02*
X100519523Y-38507619D01*
X100519523Y-38507619D02*
X100519523Y-37507619D01*
X100995714Y-38507619D02*
X100995714Y-37507619D01*
X100995714Y-37507619D02*
X101233809Y-37507619D01*
X101233809Y-37507619D02*
X101376666Y-37555238D01*
X101376666Y-37555238D02*
X101471904Y-37650476D01*
X101471904Y-37650476D02*
X101519523Y-37745714D01*
X101519523Y-37745714D02*
X101567142Y-37936190D01*
X101567142Y-37936190D02*
X101567142Y-38079047D01*
X101567142Y-38079047D02*
X101519523Y-38269523D01*
X101519523Y-38269523D02*
X101471904Y-38364761D01*
X101471904Y-38364761D02*
X101376666Y-38460000D01*
X101376666Y-38460000D02*
X101233809Y-38507619D01*
X101233809Y-38507619D02*
X100995714Y-38507619D01*
X123103387Y-71896513D02*
X123103387Y-71829169D01*
X123103387Y-71829169D02*
X123137059Y-71728154D01*
X123137059Y-71728154D02*
X123305417Y-71559795D01*
X123305417Y-71559795D02*
X123406433Y-71526124D01*
X123406433Y-71526124D02*
X123473776Y-71526124D01*
X123473776Y-71526124D02*
X123574791Y-71559795D01*
X123574791Y-71559795D02*
X123642135Y-71627139D01*
X123642135Y-71627139D02*
X123709478Y-71761826D01*
X123709478Y-71761826D02*
X123709478Y-72569948D01*
X123709478Y-72569948D02*
X124147211Y-72132215D01*
X123675807Y-71189406D02*
X124147211Y-70718001D01*
X124147211Y-70718001D02*
X124551272Y-71728154D01*
X101967211Y-74579715D02*
X101563150Y-74983776D01*
X101765181Y-74781746D02*
X101058074Y-74074639D01*
X101058074Y-74074639D02*
X101091746Y-74242998D01*
X101091746Y-74242998D02*
X101091746Y-74377685D01*
X101091746Y-74377685D02*
X101058074Y-74478700D01*
X101967211Y-73771593D02*
X101866196Y-73805265D01*
X101866196Y-73805265D02*
X101798852Y-73805265D01*
X101798852Y-73805265D02*
X101697837Y-73771593D01*
X101697837Y-73771593D02*
X101664165Y-73737921D01*
X101664165Y-73737921D02*
X101630494Y-73636906D01*
X101630494Y-73636906D02*
X101630494Y-73569562D01*
X101630494Y-73569562D02*
X101664165Y-73468547D01*
X101664165Y-73468547D02*
X101798852Y-73333860D01*
X101798852Y-73333860D02*
X101899868Y-73300188D01*
X101899868Y-73300188D02*
X101967211Y-73300188D01*
X101967211Y-73300188D02*
X102068226Y-73333860D01*
X102068226Y-73333860D02*
X102101898Y-73367532D01*
X102101898Y-73367532D02*
X102135570Y-73468547D01*
X102135570Y-73468547D02*
X102135570Y-73535891D01*
X102135570Y-73535891D02*
X102101898Y-73636906D01*
X102101898Y-73636906D02*
X101967211Y-73771593D01*
X101967211Y-73771593D02*
X101933539Y-73872608D01*
X101933539Y-73872608D02*
X101933539Y-73939952D01*
X101933539Y-73939952D02*
X101967211Y-74040967D01*
X101967211Y-74040967D02*
X102101898Y-74175654D01*
X102101898Y-74175654D02*
X102202913Y-74209326D01*
X102202913Y-74209326D02*
X102270257Y-74209326D01*
X102270257Y-74209326D02*
X102371272Y-74175654D01*
X102371272Y-74175654D02*
X102505959Y-74040967D01*
X102505959Y-74040967D02*
X102539631Y-73939952D01*
X102539631Y-73939952D02*
X102539631Y-73872608D01*
X102539631Y-73872608D02*
X102505959Y-73771593D01*
X102505959Y-73771593D02*
X102371272Y-73636906D01*
X102371272Y-73636906D02*
X102270257Y-73603234D01*
X102270257Y-73603234D02*
X102202913Y-73603234D01*
X102202913Y-73603234D02*
X102101898Y-73636906D01*
X83787448Y-59500730D02*
X84326196Y-58961982D01*
X84326196Y-59500730D02*
X83787448Y-58961982D01*
X84561898Y-57850815D02*
X84225180Y-58187532D01*
X84225180Y-58187532D02*
X84528226Y-58557921D01*
X84528226Y-58557921D02*
X84528226Y-58490578D01*
X84528226Y-58490578D02*
X84561898Y-58389563D01*
X84561898Y-58389563D02*
X84730257Y-58221204D01*
X84730257Y-58221204D02*
X84831272Y-58187532D01*
X84831272Y-58187532D02*
X84898615Y-58187532D01*
X84898615Y-58187532D02*
X84999631Y-58221204D01*
X84999631Y-58221204D02*
X85167989Y-58389563D01*
X85167989Y-58389563D02*
X85201661Y-58490578D01*
X85201661Y-58490578D02*
X85201661Y-58557921D01*
X85201661Y-58557921D02*
X85167989Y-58658937D01*
X85167989Y-58658937D02*
X84999631Y-58827295D01*
X84999631Y-58827295D02*
X84898615Y-58860967D01*
X84898615Y-58860967D02*
X84831272Y-58860967D01*
X84797600Y-57615112D02*
X85740409Y-58086517D01*
X85740409Y-58086517D02*
X85269005Y-57143708D01*
X104112211Y-30594715D02*
X103708150Y-30998776D01*
X103910181Y-30796746D02*
X103203074Y-30089639D01*
X103203074Y-30089639D02*
X103236746Y-30257998D01*
X103236746Y-30257998D02*
X103236746Y-30392685D01*
X103236746Y-30392685D02*
X103203074Y-30493700D01*
X103640807Y-29651906D02*
X104078539Y-29214173D01*
X104078539Y-29214173D02*
X104112211Y-29719250D01*
X104112211Y-29719250D02*
X104213226Y-29618234D01*
X104213226Y-29618234D02*
X104314242Y-29584562D01*
X104314242Y-29584562D02*
X104381585Y-29584562D01*
X104381585Y-29584562D02*
X104482600Y-29618234D01*
X104482600Y-29618234D02*
X104650959Y-29786593D01*
X104650959Y-29786593D02*
X104684631Y-29887608D01*
X104684631Y-29887608D02*
X104684631Y-29954952D01*
X104684631Y-29954952D02*
X104650959Y-30055967D01*
X104650959Y-30055967D02*
X104448929Y-30257998D01*
X104448929Y-30257998D02*
X104347913Y-30291669D01*
X104347913Y-30291669D02*
X104280570Y-30291669D01*
X106270887Y-71844013D02*
X106270887Y-71776669D01*
X106270887Y-71776669D02*
X106304559Y-71675654D01*
X106304559Y-71675654D02*
X106472917Y-71507295D01*
X106472917Y-71507295D02*
X106573933Y-71473624D01*
X106573933Y-71473624D02*
X106641276Y-71473624D01*
X106641276Y-71473624D02*
X106742291Y-71507295D01*
X106742291Y-71507295D02*
X106809635Y-71574639D01*
X106809635Y-71574639D02*
X106876978Y-71709326D01*
X106876978Y-71709326D02*
X106876978Y-72517448D01*
X106876978Y-72517448D02*
X107314711Y-72079715D01*
X107045337Y-70934875D02*
X107112681Y-70867532D01*
X107112681Y-70867532D02*
X107213696Y-70833860D01*
X107213696Y-70833860D02*
X107281039Y-70833860D01*
X107281039Y-70833860D02*
X107382055Y-70867532D01*
X107382055Y-70867532D02*
X107550413Y-70968547D01*
X107550413Y-70968547D02*
X107718772Y-71136906D01*
X107718772Y-71136906D02*
X107819787Y-71305265D01*
X107819787Y-71305265D02*
X107853459Y-71406280D01*
X107853459Y-71406280D02*
X107853459Y-71473624D01*
X107853459Y-71473624D02*
X107819787Y-71574639D01*
X107819787Y-71574639D02*
X107752444Y-71641982D01*
X107752444Y-71641982D02*
X107651429Y-71675654D01*
X107651429Y-71675654D02*
X107584085Y-71675654D01*
X107584085Y-71675654D02*
X107483070Y-71641982D01*
X107483070Y-71641982D02*
X107314711Y-71540967D01*
X107314711Y-71540967D02*
X107146352Y-71372608D01*
X107146352Y-71372608D02*
X107045337Y-71204250D01*
X107045337Y-71204250D02*
X107011665Y-71103234D01*
X107011665Y-71103234D02*
X107011665Y-71035891D01*
X107011665Y-71035891D02*
X107045337Y-70934875D01*
D10*
X91608011Y-53530887D02*
X91725862Y-53648739D01*
X91560871Y-53719449D02*
X91725862Y-53648739D01*
X91725862Y-53648739D02*
X91796573Y-53483747D01*
X91749432Y-53813730D02*
X91725862Y-53648739D01*
X91725862Y-53648739D02*
X91890854Y-53672309D01*
X92668671Y-53460177D02*
X92385828Y-53743020D01*
X92527250Y-53601598D02*
X92032275Y-53106624D01*
X92032275Y-53106624D02*
X92055845Y-53224475D01*
X92055845Y-53224475D02*
X92055845Y-53318756D01*
X92055845Y-53318756D02*
X92032275Y-53389466D01*
X92668671Y-52894491D02*
X92597961Y-52918062D01*
X92597961Y-52918062D02*
X92550820Y-52918062D01*
X92550820Y-52918062D02*
X92480109Y-52894491D01*
X92480109Y-52894491D02*
X92456539Y-52870921D01*
X92456539Y-52870921D02*
X92432969Y-52800210D01*
X92432969Y-52800210D02*
X92432969Y-52753070D01*
X92432969Y-52753070D02*
X92456539Y-52682359D01*
X92456539Y-52682359D02*
X92550820Y-52588078D01*
X92550820Y-52588078D02*
X92621531Y-52564508D01*
X92621531Y-52564508D02*
X92668671Y-52564508D01*
X92668671Y-52564508D02*
X92739382Y-52588078D01*
X92739382Y-52588078D02*
X92762952Y-52611649D01*
X92762952Y-52611649D02*
X92786522Y-52682359D01*
X92786522Y-52682359D02*
X92786522Y-52729500D01*
X92786522Y-52729500D02*
X92762952Y-52800210D01*
X92762952Y-52800210D02*
X92668671Y-52894491D01*
X92668671Y-52894491D02*
X92645101Y-52965202D01*
X92645101Y-52965202D02*
X92645101Y-53012342D01*
X92645101Y-53012342D02*
X92668671Y-53083053D01*
X92668671Y-53083053D02*
X92762952Y-53177334D01*
X92762952Y-53177334D02*
X92833663Y-53200904D01*
X92833663Y-53200904D02*
X92880803Y-53200904D01*
X92880803Y-53200904D02*
X92951514Y-53177334D01*
X92951514Y-53177334D02*
X93045795Y-53083053D01*
X93045795Y-53083053D02*
X93069365Y-53012342D01*
X93069365Y-53012342D02*
X93069365Y-52965202D01*
X93069365Y-52965202D02*
X93045795Y-52894491D01*
X93045795Y-52894491D02*
X92951514Y-52800210D01*
X92951514Y-52800210D02*
X92880803Y-52776640D01*
X92880803Y-52776640D02*
X92833663Y-52776640D01*
X92833663Y-52776640D02*
X92762952Y-52800210D01*
X129691666Y-40014333D02*
X129691666Y-39314333D01*
X129691666Y-39314333D02*
X129958333Y-39314333D01*
X129958333Y-39314333D02*
X130025000Y-39347666D01*
X130025000Y-39347666D02*
X130058333Y-39381000D01*
X130058333Y-39381000D02*
X130091666Y-39447666D01*
X130091666Y-39447666D02*
X130091666Y-39547666D01*
X130091666Y-39547666D02*
X130058333Y-39614333D01*
X130058333Y-39614333D02*
X130025000Y-39647666D01*
X130025000Y-39647666D02*
X129958333Y-39681000D01*
X129958333Y-39681000D02*
X129691666Y-39681000D01*
X130391666Y-40014333D02*
X130391666Y-39314333D01*
X131124999Y-39947666D02*
X131091666Y-39981000D01*
X131091666Y-39981000D02*
X130991666Y-40014333D01*
X130991666Y-40014333D02*
X130924999Y-40014333D01*
X130924999Y-40014333D02*
X130824999Y-39981000D01*
X130824999Y-39981000D02*
X130758333Y-39914333D01*
X130758333Y-39914333D02*
X130724999Y-39847666D01*
X130724999Y-39847666D02*
X130691666Y-39714333D01*
X130691666Y-39714333D02*
X130691666Y-39614333D01*
X130691666Y-39614333D02*
X130724999Y-39481000D01*
X130724999Y-39481000D02*
X130758333Y-39414333D01*
X130758333Y-39414333D02*
X130824999Y-39347666D01*
X130824999Y-39347666D02*
X130924999Y-39314333D01*
X130924999Y-39314333D02*
X130991666Y-39314333D01*
X130991666Y-39314333D02*
X131091666Y-39347666D01*
X131091666Y-39347666D02*
X131124999Y-39381000D01*
X131558333Y-39314333D02*
X131691666Y-39314333D01*
X131691666Y-39314333D02*
X131758333Y-39347666D01*
X131758333Y-39347666D02*
X131824999Y-39414333D01*
X131824999Y-39414333D02*
X131858333Y-39547666D01*
X131858333Y-39547666D02*
X131858333Y-39781000D01*
X131858333Y-39781000D02*
X131824999Y-39914333D01*
X131824999Y-39914333D02*
X131758333Y-39981000D01*
X131758333Y-39981000D02*
X131691666Y-40014333D01*
X131691666Y-40014333D02*
X131558333Y-40014333D01*
X131558333Y-40014333D02*
X131491666Y-39981000D01*
X131491666Y-39981000D02*
X131424999Y-39914333D01*
X131424999Y-39914333D02*
X131391666Y-39781000D01*
X131391666Y-39781000D02*
X131391666Y-39547666D01*
X131391666Y-39547666D02*
X131424999Y-39414333D01*
X131424999Y-39414333D02*
X131491666Y-39347666D01*
X131491666Y-39347666D02*
X131558333Y-39314333D01*
X132824999Y-39314333D02*
X132958332Y-39314333D01*
X132958332Y-39314333D02*
X133024999Y-39347666D01*
X133024999Y-39347666D02*
X133091665Y-39414333D01*
X133091665Y-39414333D02*
X133124999Y-39547666D01*
X133124999Y-39547666D02*
X133124999Y-39781000D01*
X133124999Y-39781000D02*
X133091665Y-39914333D01*
X133091665Y-39914333D02*
X133024999Y-39981000D01*
X133024999Y-39981000D02*
X132958332Y-40014333D01*
X132958332Y-40014333D02*
X132824999Y-40014333D01*
X132824999Y-40014333D02*
X132758332Y-39981000D01*
X132758332Y-39981000D02*
X132691665Y-39914333D01*
X132691665Y-39914333D02*
X132658332Y-39781000D01*
X132658332Y-39781000D02*
X132658332Y-39547666D01*
X132658332Y-39547666D02*
X132691665Y-39414333D01*
X132691665Y-39414333D02*
X132758332Y-39347666D01*
X132758332Y-39347666D02*
X132824999Y-39314333D01*
X133424998Y-40014333D02*
X133424998Y-39314333D01*
X133424998Y-39314333D02*
X133824998Y-40014333D01*
X133824998Y-40014333D02*
X133824998Y-39314333D01*
X109766666Y-45119333D02*
X109766666Y-44419333D01*
X109766666Y-44419333D02*
X110033333Y-44419333D01*
X110033333Y-44419333D02*
X110100000Y-44452666D01*
X110100000Y-44452666D02*
X110133333Y-44486000D01*
X110133333Y-44486000D02*
X110166666Y-44552666D01*
X110166666Y-44552666D02*
X110166666Y-44652666D01*
X110166666Y-44652666D02*
X110133333Y-44719333D01*
X110133333Y-44719333D02*
X110100000Y-44752666D01*
X110100000Y-44752666D02*
X110033333Y-44786000D01*
X110033333Y-44786000D02*
X109766666Y-44786000D01*
X110466666Y-45119333D02*
X110466666Y-44419333D01*
X111199999Y-45052666D02*
X111166666Y-45086000D01*
X111166666Y-45086000D02*
X111066666Y-45119333D01*
X111066666Y-45119333D02*
X110999999Y-45119333D01*
X110999999Y-45119333D02*
X110899999Y-45086000D01*
X110899999Y-45086000D02*
X110833333Y-45019333D01*
X110833333Y-45019333D02*
X110799999Y-44952666D01*
X110799999Y-44952666D02*
X110766666Y-44819333D01*
X110766666Y-44819333D02*
X110766666Y-44719333D01*
X110766666Y-44719333D02*
X110799999Y-44586000D01*
X110799999Y-44586000D02*
X110833333Y-44519333D01*
X110833333Y-44519333D02*
X110899999Y-44452666D01*
X110899999Y-44452666D02*
X110999999Y-44419333D01*
X110999999Y-44419333D02*
X111066666Y-44419333D01*
X111066666Y-44419333D02*
X111166666Y-44452666D01*
X111166666Y-44452666D02*
X111199999Y-44486000D01*
X111633333Y-44419333D02*
X111766666Y-44419333D01*
X111766666Y-44419333D02*
X111833333Y-44452666D01*
X111833333Y-44452666D02*
X111899999Y-44519333D01*
X111899999Y-44519333D02*
X111933333Y-44652666D01*
X111933333Y-44652666D02*
X111933333Y-44886000D01*
X111933333Y-44886000D02*
X111899999Y-45019333D01*
X111899999Y-45019333D02*
X111833333Y-45086000D01*
X111833333Y-45086000D02*
X111766666Y-45119333D01*
X111766666Y-45119333D02*
X111633333Y-45119333D01*
X111633333Y-45119333D02*
X111566666Y-45086000D01*
X111566666Y-45086000D02*
X111499999Y-45019333D01*
X111499999Y-45019333D02*
X111466666Y-44886000D01*
X111466666Y-44886000D02*
X111466666Y-44652666D01*
X111466666Y-44652666D02*
X111499999Y-44519333D01*
X111499999Y-44519333D02*
X111566666Y-44452666D01*
X111566666Y-44452666D02*
X111633333Y-44419333D01*
X113166665Y-45119333D02*
X112933332Y-44786000D01*
X112766665Y-45119333D02*
X112766665Y-44419333D01*
X112766665Y-44419333D02*
X113033332Y-44419333D01*
X113033332Y-44419333D02*
X113099999Y-44452666D01*
X113099999Y-44452666D02*
X113133332Y-44486000D01*
X113133332Y-44486000D02*
X113166665Y-44552666D01*
X113166665Y-44552666D02*
X113166665Y-44652666D01*
X113166665Y-44652666D02*
X113133332Y-44719333D01*
X113133332Y-44719333D02*
X113099999Y-44752666D01*
X113099999Y-44752666D02*
X113033332Y-44786000D01*
X113033332Y-44786000D02*
X112766665Y-44786000D01*
X113433332Y-44919333D02*
X113766665Y-44919333D01*
X113366665Y-45119333D02*
X113599999Y-44419333D01*
X113599999Y-44419333D02*
X113833332Y-45119333D01*
X114299999Y-44752666D02*
X114066665Y-44752666D01*
X114066665Y-45119333D02*
X114066665Y-44419333D01*
X114066665Y-44419333D02*
X114399999Y-44419333D01*
X114566665Y-44419333D02*
X114966665Y-44419333D01*
X114766665Y-45119333D02*
X114766665Y-44419333D01*
X115666665Y-44652666D02*
X115833331Y-45119333D01*
X115833331Y-45119333D02*
X115999998Y-44652666D01*
X116399998Y-44419333D02*
X116466664Y-44419333D01*
X116466664Y-44419333D02*
X116533331Y-44452666D01*
X116533331Y-44452666D02*
X116566664Y-44486000D01*
X116566664Y-44486000D02*
X116599998Y-44552666D01*
X116599998Y-44552666D02*
X116633331Y-44686000D01*
X116633331Y-44686000D02*
X116633331Y-44852666D01*
X116633331Y-44852666D02*
X116599998Y-44986000D01*
X116599998Y-44986000D02*
X116566664Y-45052666D01*
X116566664Y-45052666D02*
X116533331Y-45086000D01*
X116533331Y-45086000D02*
X116466664Y-45119333D01*
X116466664Y-45119333D02*
X116399998Y-45119333D01*
X116399998Y-45119333D02*
X116333331Y-45086000D01*
X116333331Y-45086000D02*
X116299998Y-45052666D01*
X116299998Y-45052666D02*
X116266664Y-44986000D01*
X116266664Y-44986000D02*
X116233331Y-44852666D01*
X116233331Y-44852666D02*
X116233331Y-44686000D01*
X116233331Y-44686000D02*
X116266664Y-44552666D01*
X116266664Y-44552666D02*
X116299998Y-44486000D01*
X116299998Y-44486000D02*
X116333331Y-44452666D01*
X116333331Y-44452666D02*
X116399998Y-44419333D01*
X116933331Y-45052666D02*
X116966665Y-45086000D01*
X116966665Y-45086000D02*
X116933331Y-45119333D01*
X116933331Y-45119333D02*
X116899998Y-45086000D01*
X116899998Y-45086000D02*
X116933331Y-45052666D01*
X116933331Y-45052666D02*
X116933331Y-45119333D01*
X117199998Y-44419333D02*
X117633331Y-44419333D01*
X117633331Y-44419333D02*
X117399998Y-44686000D01*
X117399998Y-44686000D02*
X117499998Y-44686000D01*
X117499998Y-44686000D02*
X117566664Y-44719333D01*
X117566664Y-44719333D02*
X117599998Y-44752666D01*
X117599998Y-44752666D02*
X117633331Y-44819333D01*
X117633331Y-44819333D02*
X117633331Y-44986000D01*
X117633331Y-44986000D02*
X117599998Y-45052666D01*
X117599998Y-45052666D02*
X117566664Y-45086000D01*
X117566664Y-45086000D02*
X117499998Y-45119333D01*
X117499998Y-45119333D02*
X117299998Y-45119333D01*
X117299998Y-45119333D02*
X117233331Y-45086000D01*
X117233331Y-45086000D02*
X117199998Y-45052666D01*
X109966666Y-46687333D02*
X109966666Y-47187333D01*
X109966666Y-47187333D02*
X109933333Y-47287333D01*
X109933333Y-47287333D02*
X109866666Y-47354000D01*
X109866666Y-47354000D02*
X109766666Y-47387333D01*
X109766666Y-47387333D02*
X109700000Y-47387333D01*
X110299999Y-47020666D02*
X110533333Y-47020666D01*
X110633333Y-47387333D02*
X110299999Y-47387333D01*
X110299999Y-47387333D02*
X110299999Y-46687333D01*
X110299999Y-46687333D02*
X110633333Y-46687333D01*
X110899999Y-47187333D02*
X111233332Y-47187333D01*
X110833332Y-47387333D02*
X111066666Y-46687333D01*
X111066666Y-46687333D02*
X111299999Y-47387333D01*
X111533332Y-47387333D02*
X111533332Y-46687333D01*
X111533332Y-46687333D02*
X111933332Y-47387333D01*
X111933332Y-47387333D02*
X111933332Y-46687333D01*
X112266665Y-47387333D02*
X112266665Y-46687333D01*
X112266665Y-46687333D02*
X112666665Y-47387333D01*
X112666665Y-47387333D02*
X112666665Y-46687333D01*
X112999998Y-47020666D02*
X113233332Y-47020666D01*
X113333332Y-47387333D02*
X112999998Y-47387333D01*
X112999998Y-47387333D02*
X112999998Y-46687333D01*
X112999998Y-46687333D02*
X113333332Y-46687333D01*
X113533331Y-46687333D02*
X113933331Y-46687333D01*
X113733331Y-47387333D02*
X113733331Y-46687333D01*
X114066664Y-46687333D02*
X114466664Y-46687333D01*
X114266664Y-47387333D02*
X114266664Y-46687333D01*
X114699997Y-47020666D02*
X114933331Y-47020666D01*
X115033331Y-47387333D02*
X114699997Y-47387333D01*
X114699997Y-47387333D02*
X114699997Y-46687333D01*
X114699997Y-46687333D02*
X115033331Y-46687333D01*
X116266663Y-47320666D02*
X116233330Y-47354000D01*
X116233330Y-47354000D02*
X116133330Y-47387333D01*
X116133330Y-47387333D02*
X116066663Y-47387333D01*
X116066663Y-47387333D02*
X115966663Y-47354000D01*
X115966663Y-47354000D02*
X115899997Y-47287333D01*
X115899997Y-47287333D02*
X115866663Y-47220666D01*
X115866663Y-47220666D02*
X115833330Y-47087333D01*
X115833330Y-47087333D02*
X115833330Y-46987333D01*
X115833330Y-46987333D02*
X115866663Y-46854000D01*
X115866663Y-46854000D02*
X115899997Y-46787333D01*
X115899997Y-46787333D02*
X115966663Y-46720666D01*
X115966663Y-46720666D02*
X116066663Y-46687333D01*
X116066663Y-46687333D02*
X116133330Y-46687333D01*
X116133330Y-46687333D02*
X116233330Y-46720666D01*
X116233330Y-46720666D02*
X116266663Y-46754000D01*
X116566663Y-47387333D02*
X116566663Y-46687333D01*
X117299996Y-47387333D02*
X117066663Y-47054000D01*
X116899996Y-47387333D02*
X116899996Y-46687333D01*
X116899996Y-46687333D02*
X117166663Y-46687333D01*
X117166663Y-46687333D02*
X117233330Y-46720666D01*
X117233330Y-46720666D02*
X117266663Y-46754000D01*
X117266663Y-46754000D02*
X117299996Y-46820666D01*
X117299996Y-46820666D02*
X117299996Y-46920666D01*
X117299996Y-46920666D02*
X117266663Y-46987333D01*
X117266663Y-46987333D02*
X117233330Y-47020666D01*
X117233330Y-47020666D02*
X117166663Y-47054000D01*
X117166663Y-47054000D02*
X116899996Y-47054000D01*
X117999996Y-47320666D02*
X117966663Y-47354000D01*
X117966663Y-47354000D02*
X117866663Y-47387333D01*
X117866663Y-47387333D02*
X117799996Y-47387333D01*
X117799996Y-47387333D02*
X117699996Y-47354000D01*
X117699996Y-47354000D02*
X117633330Y-47287333D01*
X117633330Y-47287333D02*
X117599996Y-47220666D01*
X117599996Y-47220666D02*
X117566663Y-47087333D01*
X117566663Y-47087333D02*
X117566663Y-46987333D01*
X117566663Y-46987333D02*
X117599996Y-46854000D01*
X117599996Y-46854000D02*
X117633330Y-46787333D01*
X117633330Y-46787333D02*
X117699996Y-46720666D01*
X117699996Y-46720666D02*
X117799996Y-46687333D01*
X117799996Y-46687333D02*
X117866663Y-46687333D01*
X117866663Y-46687333D02*
X117966663Y-46720666D01*
X117966663Y-46720666D02*
X117999996Y-46754000D01*
X118299996Y-47020666D02*
X118533330Y-47020666D01*
X118633330Y-47387333D02*
X118299996Y-47387333D01*
X118299996Y-47387333D02*
X118299996Y-46687333D01*
X118299996Y-46687333D02*
X118633330Y-46687333D01*
X110166666Y-48454666D02*
X110133333Y-48488000D01*
X110133333Y-48488000D02*
X110033333Y-48521333D01*
X110033333Y-48521333D02*
X109966666Y-48521333D01*
X109966666Y-48521333D02*
X109866666Y-48488000D01*
X109866666Y-48488000D02*
X109800000Y-48421333D01*
X109800000Y-48421333D02*
X109766666Y-48354666D01*
X109766666Y-48354666D02*
X109733333Y-48221333D01*
X109733333Y-48221333D02*
X109733333Y-48121333D01*
X109733333Y-48121333D02*
X109766666Y-47988000D01*
X109766666Y-47988000D02*
X109800000Y-47921333D01*
X109800000Y-47921333D02*
X109866666Y-47854666D01*
X109866666Y-47854666D02*
X109966666Y-47821333D01*
X109966666Y-47821333D02*
X110033333Y-47821333D01*
X110033333Y-47821333D02*
X110133333Y-47854666D01*
X110133333Y-47854666D02*
X110166666Y-47888000D01*
X110433333Y-48321333D02*
X110766666Y-48321333D01*
X110366666Y-48521333D02*
X110600000Y-47821333D01*
X110600000Y-47821333D02*
X110833333Y-48521333D01*
X110966666Y-47821333D02*
X111366666Y-47821333D01*
X111166666Y-48521333D02*
X111166666Y-47821333D01*
X111599999Y-48521333D02*
X111599999Y-47821333D01*
X111599999Y-48154666D02*
X111999999Y-48154666D01*
X111999999Y-48521333D02*
X111999999Y-47821333D01*
X112333332Y-48154666D02*
X112566666Y-48154666D01*
X112666666Y-48521333D02*
X112333332Y-48521333D01*
X112333332Y-48521333D02*
X112333332Y-47821333D01*
X112333332Y-47821333D02*
X112666666Y-47821333D01*
X113366665Y-48521333D02*
X113133332Y-48188000D01*
X112966665Y-48521333D02*
X112966665Y-47821333D01*
X112966665Y-47821333D02*
X113233332Y-47821333D01*
X113233332Y-47821333D02*
X113299999Y-47854666D01*
X113299999Y-47854666D02*
X113333332Y-47888000D01*
X113333332Y-47888000D02*
X113366665Y-47954666D01*
X113366665Y-47954666D02*
X113366665Y-48054666D01*
X113366665Y-48054666D02*
X113333332Y-48121333D01*
X113333332Y-48121333D02*
X113299999Y-48154666D01*
X113299999Y-48154666D02*
X113233332Y-48188000D01*
X113233332Y-48188000D02*
X112966665Y-48188000D01*
X113666665Y-48521333D02*
X113666665Y-47821333D01*
X113999998Y-48521333D02*
X113999998Y-47821333D01*
X113999998Y-47821333D02*
X114399998Y-48521333D01*
X114399998Y-48521333D02*
X114399998Y-47821333D01*
X114733331Y-48154666D02*
X114966665Y-48154666D01*
X115066665Y-48521333D02*
X114733331Y-48521333D01*
X114733331Y-48521333D02*
X114733331Y-47821333D01*
X114733331Y-47821333D02*
X115066665Y-47821333D01*
X115799997Y-47821333D02*
X116033331Y-48521333D01*
X116033331Y-48521333D02*
X116266664Y-47821333D01*
X116466664Y-48321333D02*
X116799997Y-48321333D01*
X116399997Y-48521333D02*
X116633331Y-47821333D01*
X116633331Y-47821333D02*
X116866664Y-48521333D01*
X117099997Y-48521333D02*
X117099997Y-47821333D01*
X117099997Y-47821333D02*
X117499997Y-48521333D01*
X117499997Y-48521333D02*
X117499997Y-47821333D01*
X118299997Y-47821333D02*
X118466663Y-48521333D01*
X118466663Y-48521333D02*
X118599997Y-48021333D01*
X118599997Y-48021333D02*
X118733330Y-48521333D01*
X118733330Y-48521333D02*
X118899997Y-47821333D01*
X119166663Y-48154666D02*
X119399997Y-48154666D01*
X119499997Y-48521333D02*
X119166663Y-48521333D01*
X119166663Y-48521333D02*
X119166663Y-47821333D01*
X119166663Y-47821333D02*
X119499997Y-47821333D01*
X119766663Y-48488000D02*
X119866663Y-48521333D01*
X119866663Y-48521333D02*
X120033330Y-48521333D01*
X120033330Y-48521333D02*
X120099996Y-48488000D01*
X120099996Y-48488000D02*
X120133330Y-48454666D01*
X120133330Y-48454666D02*
X120166663Y-48388000D01*
X120166663Y-48388000D02*
X120166663Y-48321333D01*
X120166663Y-48321333D02*
X120133330Y-48254666D01*
X120133330Y-48254666D02*
X120099996Y-48221333D01*
X120099996Y-48221333D02*
X120033330Y-48188000D01*
X120033330Y-48188000D02*
X119899996Y-48154666D01*
X119899996Y-48154666D02*
X119833330Y-48121333D01*
X119833330Y-48121333D02*
X119799996Y-48088000D01*
X119799996Y-48088000D02*
X119766663Y-48021333D01*
X119766663Y-48021333D02*
X119766663Y-47954666D01*
X119766663Y-47954666D02*
X119799996Y-47888000D01*
X119799996Y-47888000D02*
X119833330Y-47854666D01*
X119833330Y-47854666D02*
X119899996Y-47821333D01*
X119899996Y-47821333D02*
X120066663Y-47821333D01*
X120066663Y-47821333D02*
X120166663Y-47854666D01*
X120366663Y-47821333D02*
X120766663Y-47821333D01*
X120566663Y-48521333D02*
X120566663Y-47821333D01*
X109766666Y-49655333D02*
X109766666Y-48955333D01*
X109766666Y-48955333D02*
X110000000Y-49455333D01*
X110000000Y-49455333D02*
X110233333Y-48955333D01*
X110233333Y-48955333D02*
X110233333Y-49655333D01*
X110566666Y-49655333D02*
X110566666Y-48955333D01*
X111299999Y-49588666D02*
X111266666Y-49622000D01*
X111266666Y-49622000D02*
X111166666Y-49655333D01*
X111166666Y-49655333D02*
X111099999Y-49655333D01*
X111099999Y-49655333D02*
X110999999Y-49622000D01*
X110999999Y-49622000D02*
X110933333Y-49555333D01*
X110933333Y-49555333D02*
X110899999Y-49488666D01*
X110899999Y-49488666D02*
X110866666Y-49355333D01*
X110866666Y-49355333D02*
X110866666Y-49255333D01*
X110866666Y-49255333D02*
X110899999Y-49122000D01*
X110899999Y-49122000D02*
X110933333Y-49055333D01*
X110933333Y-49055333D02*
X110999999Y-48988666D01*
X110999999Y-48988666D02*
X111099999Y-48955333D01*
X111099999Y-48955333D02*
X111166666Y-48955333D01*
X111166666Y-48955333D02*
X111266666Y-48988666D01*
X111266666Y-48988666D02*
X111299999Y-49022000D01*
X111599999Y-49655333D02*
X111599999Y-48955333D01*
X111599999Y-49288666D02*
X111999999Y-49288666D01*
X111999999Y-49655333D02*
X111999999Y-48955333D01*
X112299999Y-49455333D02*
X112633332Y-49455333D01*
X112233332Y-49655333D02*
X112466666Y-48955333D01*
X112466666Y-48955333D02*
X112699999Y-49655333D01*
X112933332Y-49288666D02*
X113166666Y-49288666D01*
X113266666Y-49655333D02*
X112933332Y-49655333D01*
X112933332Y-49655333D02*
X112933332Y-48955333D01*
X112933332Y-48955333D02*
X113266666Y-48955333D01*
X113899999Y-49655333D02*
X113566665Y-49655333D01*
X113566665Y-49655333D02*
X113566665Y-48955333D01*
X115033332Y-48988666D02*
X114966665Y-48955333D01*
X114966665Y-48955333D02*
X114866665Y-48955333D01*
X114866665Y-48955333D02*
X114766665Y-48988666D01*
X114766665Y-48988666D02*
X114699999Y-49055333D01*
X114699999Y-49055333D02*
X114666665Y-49122000D01*
X114666665Y-49122000D02*
X114633332Y-49255333D01*
X114633332Y-49255333D02*
X114633332Y-49355333D01*
X114633332Y-49355333D02*
X114666665Y-49488666D01*
X114666665Y-49488666D02*
X114699999Y-49555333D01*
X114699999Y-49555333D02*
X114766665Y-49622000D01*
X114766665Y-49622000D02*
X114866665Y-49655333D01*
X114866665Y-49655333D02*
X114933332Y-49655333D01*
X114933332Y-49655333D02*
X115033332Y-49622000D01*
X115033332Y-49622000D02*
X115066665Y-49588666D01*
X115066665Y-49588666D02*
X115066665Y-49355333D01*
X115066665Y-49355333D02*
X114933332Y-49355333D01*
X115366665Y-49655333D02*
X115366665Y-48955333D01*
X116066665Y-48988666D02*
X115999998Y-48955333D01*
X115999998Y-48955333D02*
X115899998Y-48955333D01*
X115899998Y-48955333D02*
X115799998Y-48988666D01*
X115799998Y-48988666D02*
X115733332Y-49055333D01*
X115733332Y-49055333D02*
X115699998Y-49122000D01*
X115699998Y-49122000D02*
X115666665Y-49255333D01*
X115666665Y-49255333D02*
X115666665Y-49355333D01*
X115666665Y-49355333D02*
X115699998Y-49488666D01*
X115699998Y-49488666D02*
X115733332Y-49555333D01*
X115733332Y-49555333D02*
X115799998Y-49622000D01*
X115799998Y-49622000D02*
X115899998Y-49655333D01*
X115899998Y-49655333D02*
X115966665Y-49655333D01*
X115966665Y-49655333D02*
X116066665Y-49622000D01*
X116066665Y-49622000D02*
X116099998Y-49588666D01*
X116099998Y-49588666D02*
X116099998Y-49355333D01*
X116099998Y-49355333D02*
X115966665Y-49355333D01*
X116733332Y-49655333D02*
X116399998Y-49655333D01*
X116399998Y-49655333D02*
X116399998Y-48955333D01*
X116966665Y-49655333D02*
X116966665Y-48955333D01*
X117266665Y-49455333D02*
X117599998Y-49455333D01*
X117199998Y-49655333D02*
X117433332Y-48955333D01*
X117433332Y-48955333D02*
X117666665Y-49655333D01*
X109766666Y-50789333D02*
X109766666Y-50089333D01*
X109766666Y-50089333D02*
X110000000Y-50589333D01*
X110000000Y-50589333D02*
X110233333Y-50089333D01*
X110233333Y-50089333D02*
X110233333Y-50789333D01*
X110533333Y-50589333D02*
X110866666Y-50589333D01*
X110466666Y-50789333D02*
X110700000Y-50089333D01*
X110700000Y-50089333D02*
X110933333Y-50789333D01*
X111300000Y-50456000D02*
X111300000Y-50789333D01*
X111066666Y-50089333D02*
X111300000Y-50456000D01*
X111300000Y-50456000D02*
X111533333Y-50089333D01*
X112266666Y-50156000D02*
X112299999Y-50122666D01*
X112299999Y-50122666D02*
X112366666Y-50089333D01*
X112366666Y-50089333D02*
X112533333Y-50089333D01*
X112533333Y-50089333D02*
X112599999Y-50122666D01*
X112599999Y-50122666D02*
X112633333Y-50156000D01*
X112633333Y-50156000D02*
X112666666Y-50222666D01*
X112666666Y-50222666D02*
X112666666Y-50289333D01*
X112666666Y-50289333D02*
X112633333Y-50389333D01*
X112633333Y-50389333D02*
X112233333Y-50789333D01*
X112233333Y-50789333D02*
X112666666Y-50789333D01*
X113100000Y-50089333D02*
X113166666Y-50089333D01*
X113166666Y-50089333D02*
X113233333Y-50122666D01*
X113233333Y-50122666D02*
X113266666Y-50156000D01*
X113266666Y-50156000D02*
X113300000Y-50222666D01*
X113300000Y-50222666D02*
X113333333Y-50356000D01*
X113333333Y-50356000D02*
X113333333Y-50522666D01*
X113333333Y-50522666D02*
X113300000Y-50656000D01*
X113300000Y-50656000D02*
X113266666Y-50722666D01*
X113266666Y-50722666D02*
X113233333Y-50756000D01*
X113233333Y-50756000D02*
X113166666Y-50789333D01*
X113166666Y-50789333D02*
X113100000Y-50789333D01*
X113100000Y-50789333D02*
X113033333Y-50756000D01*
X113033333Y-50756000D02*
X113000000Y-50722666D01*
X113000000Y-50722666D02*
X112966666Y-50656000D01*
X112966666Y-50656000D02*
X112933333Y-50522666D01*
X112933333Y-50522666D02*
X112933333Y-50356000D01*
X112933333Y-50356000D02*
X112966666Y-50222666D01*
X112966666Y-50222666D02*
X113000000Y-50156000D01*
X113000000Y-50156000D02*
X113033333Y-50122666D01*
X113033333Y-50122666D02*
X113100000Y-50089333D01*
X113600000Y-50156000D02*
X113633333Y-50122666D01*
X113633333Y-50122666D02*
X113700000Y-50089333D01*
X113700000Y-50089333D02*
X113866667Y-50089333D01*
X113866667Y-50089333D02*
X113933333Y-50122666D01*
X113933333Y-50122666D02*
X113966667Y-50156000D01*
X113966667Y-50156000D02*
X114000000Y-50222666D01*
X114000000Y-50222666D02*
X114000000Y-50289333D01*
X114000000Y-50289333D02*
X113966667Y-50389333D01*
X113966667Y-50389333D02*
X113566667Y-50789333D01*
X113566667Y-50789333D02*
X114000000Y-50789333D01*
X114233334Y-50089333D02*
X114666667Y-50089333D01*
X114666667Y-50089333D02*
X114433334Y-50356000D01*
X114433334Y-50356000D02*
X114533334Y-50356000D01*
X114533334Y-50356000D02*
X114600000Y-50389333D01*
X114600000Y-50389333D02*
X114633334Y-50422666D01*
X114633334Y-50422666D02*
X114666667Y-50489333D01*
X114666667Y-50489333D02*
X114666667Y-50656000D01*
X114666667Y-50656000D02*
X114633334Y-50722666D01*
X114633334Y-50722666D02*
X114600000Y-50756000D01*
X114600000Y-50756000D02*
X114533334Y-50789333D01*
X114533334Y-50789333D02*
X114333334Y-50789333D01*
X114333334Y-50789333D02*
X114266667Y-50756000D01*
X114266667Y-50756000D02*
X114233334Y-50722666D01*
D12*
X109154711Y-30492215D02*
X108750650Y-30896276D01*
X108952681Y-30694246D02*
X108245574Y-29987139D01*
X108245574Y-29987139D02*
X108279246Y-30155498D01*
X108279246Y-30155498D02*
X108279246Y-30290185D01*
X108279246Y-30290185D02*
X108245574Y-30391200D01*
X109828146Y-29818780D02*
X109424085Y-30222841D01*
X109626116Y-30020811D02*
X108919009Y-29313704D01*
X108919009Y-29313704D02*
X108952681Y-29482062D01*
X108952681Y-29482062D02*
X108952681Y-29616750D01*
X108952681Y-29616750D02*
X108919009Y-29717765D01*
D10*
X86543011Y-53595887D02*
X86660862Y-53713739D01*
X86495871Y-53784449D02*
X86660862Y-53713739D01*
X86660862Y-53713739D02*
X86731573Y-53548747D01*
X86684432Y-53878730D02*
X86660862Y-53713739D01*
X86660862Y-53713739D02*
X86825854Y-53737309D01*
X87603671Y-53525177D02*
X87320828Y-53808020D01*
X87462250Y-53666598D02*
X86967275Y-53171624D01*
X86967275Y-53171624D02*
X86990845Y-53289475D01*
X86990845Y-53289475D02*
X86990845Y-53383756D01*
X86990845Y-53383756D02*
X86967275Y-53454466D01*
X87532961Y-52605938D02*
X87438680Y-52700219D01*
X87438680Y-52700219D02*
X87415109Y-52770930D01*
X87415109Y-52770930D02*
X87415109Y-52818070D01*
X87415109Y-52818070D02*
X87438680Y-52935921D01*
X87438680Y-52935921D02*
X87509390Y-53053772D01*
X87509390Y-53053772D02*
X87697952Y-53242334D01*
X87697952Y-53242334D02*
X87768663Y-53265904D01*
X87768663Y-53265904D02*
X87815803Y-53265904D01*
X87815803Y-53265904D02*
X87886514Y-53242334D01*
X87886514Y-53242334D02*
X87980795Y-53148053D01*
X87980795Y-53148053D02*
X88004365Y-53077342D01*
X88004365Y-53077342D02*
X88004365Y-53030202D01*
X88004365Y-53030202D02*
X87980795Y-52959491D01*
X87980795Y-52959491D02*
X87862944Y-52841640D01*
X87862944Y-52841640D02*
X87792233Y-52818070D01*
X87792233Y-52818070D02*
X87745093Y-52818070D01*
X87745093Y-52818070D02*
X87674382Y-52841640D01*
X87674382Y-52841640D02*
X87580101Y-52935921D01*
X87580101Y-52935921D02*
X87556531Y-53006632D01*
X87556531Y-53006632D02*
X87556531Y-53053772D01*
X87556531Y-53053772D02*
X87580101Y-53124483D01*
D12*
X99802211Y-31364715D02*
X99398150Y-31768776D01*
X99600181Y-31566746D02*
X98893074Y-30859639D01*
X98893074Y-30859639D02*
X98926746Y-31027998D01*
X98926746Y-31027998D02*
X98926746Y-31162685D01*
X98926746Y-31162685D02*
X98893074Y-31263700D01*
X99936898Y-30287219D02*
X100408303Y-30758624D01*
X99499165Y-30186204D02*
X99835883Y-30859639D01*
X99835883Y-30859639D02*
X100273616Y-30421906D01*
X91132211Y-34744715D02*
X90728150Y-35148776D01*
X90930181Y-34946746D02*
X90223074Y-34239639D01*
X90223074Y-34239639D02*
X90256746Y-34407998D01*
X90256746Y-34407998D02*
X90256746Y-34542685D01*
X90256746Y-34542685D02*
X90223074Y-34643700D01*
X91064868Y-33397845D02*
X90728150Y-33734562D01*
X90728150Y-33734562D02*
X91031196Y-34104952D01*
X91031196Y-34104952D02*
X91031196Y-34037608D01*
X91031196Y-34037608D02*
X91064868Y-33936593D01*
X91064868Y-33936593D02*
X91233226Y-33768234D01*
X91233226Y-33768234D02*
X91334242Y-33734562D01*
X91334242Y-33734562D02*
X91401585Y-33734562D01*
X91401585Y-33734562D02*
X91502600Y-33768234D01*
X91502600Y-33768234D02*
X91670959Y-33936593D01*
X91670959Y-33936593D02*
X91704631Y-34037608D01*
X91704631Y-34037608D02*
X91704631Y-34104952D01*
X91704631Y-34104952D02*
X91670959Y-34205967D01*
X91670959Y-34205967D02*
X91502600Y-34374326D01*
X91502600Y-34374326D02*
X91401585Y-34407998D01*
X91401585Y-34407998D02*
X91334242Y-34407998D01*
X91698564Y-33485620D02*
X92345061Y-32839123D01*
X92021813Y-32839123D02*
X92345061Y-32839123D01*
X92345061Y-32839123D02*
X92345061Y-33162371D01*
X130521666Y-71536904D02*
X130521666Y-70775000D01*
X130902619Y-71155952D02*
X130140714Y-71155952D01*
X130902619Y-70251190D02*
X130902619Y-70060714D01*
X130902619Y-70060714D02*
X130855000Y-69965476D01*
X130855000Y-69965476D02*
X130807380Y-69917857D01*
X130807380Y-69917857D02*
X130664523Y-69822619D01*
X130664523Y-69822619D02*
X130474047Y-69775000D01*
X130474047Y-69775000D02*
X130093095Y-69775000D01*
X130093095Y-69775000D02*
X129997857Y-69822619D01*
X129997857Y-69822619D02*
X129950238Y-69870238D01*
X129950238Y-69870238D02*
X129902619Y-69965476D01*
X129902619Y-69965476D02*
X129902619Y-70155952D01*
X129902619Y-70155952D02*
X129950238Y-70251190D01*
X129950238Y-70251190D02*
X129997857Y-70298809D01*
X129997857Y-70298809D02*
X130093095Y-70346428D01*
X130093095Y-70346428D02*
X130331190Y-70346428D01*
X130331190Y-70346428D02*
X130426428Y-70298809D01*
X130426428Y-70298809D02*
X130474047Y-70251190D01*
X130474047Y-70251190D02*
X130521666Y-70155952D01*
X130521666Y-70155952D02*
X130521666Y-69965476D01*
X130521666Y-69965476D02*
X130474047Y-69870238D01*
X130474047Y-69870238D02*
X130426428Y-69822619D01*
X130426428Y-69822619D02*
X130331190Y-69775000D01*
X129902619Y-69489285D02*
X130902619Y-69155952D01*
X130902619Y-69155952D02*
X129902619Y-68822619D01*
X99022857Y-34857619D02*
X99641904Y-34857619D01*
X99641904Y-34857619D02*
X99308571Y-35238571D01*
X99308571Y-35238571D02*
X99451428Y-35238571D01*
X99451428Y-35238571D02*
X99546666Y-35286190D01*
X99546666Y-35286190D02*
X99594285Y-35333809D01*
X99594285Y-35333809D02*
X99641904Y-35429047D01*
X99641904Y-35429047D02*
X99641904Y-35667142D01*
X99641904Y-35667142D02*
X99594285Y-35762380D01*
X99594285Y-35762380D02*
X99546666Y-35810000D01*
X99546666Y-35810000D02*
X99451428Y-35857619D01*
X99451428Y-35857619D02*
X99165714Y-35857619D01*
X99165714Y-35857619D02*
X99070476Y-35810000D01*
X99070476Y-35810000D02*
X99022857Y-35762380D01*
X99927619Y-34857619D02*
X100260952Y-35857619D01*
X100260952Y-35857619D02*
X100594285Y-34857619D01*
X100832381Y-34857619D02*
X101451428Y-34857619D01*
X101451428Y-34857619D02*
X101118095Y-35238571D01*
X101118095Y-35238571D02*
X101260952Y-35238571D01*
X101260952Y-35238571D02*
X101356190Y-35286190D01*
X101356190Y-35286190D02*
X101403809Y-35333809D01*
X101403809Y-35333809D02*
X101451428Y-35429047D01*
X101451428Y-35429047D02*
X101451428Y-35667142D01*
X101451428Y-35667142D02*
X101403809Y-35762380D01*
X101403809Y-35762380D02*
X101356190Y-35810000D01*
X101356190Y-35810000D02*
X101260952Y-35857619D01*
X101260952Y-35857619D02*
X100975238Y-35857619D01*
X100975238Y-35857619D02*
X100880000Y-35810000D01*
X100880000Y-35810000D02*
X100832381Y-35762380D01*
X116378776Y-30267528D02*
X116277761Y-30301200D01*
X116277761Y-30301200D02*
X116210417Y-30301200D01*
X116210417Y-30301200D02*
X116109402Y-30267528D01*
X116109402Y-30267528D02*
X116075730Y-30233856D01*
X116075730Y-30233856D02*
X116042059Y-30132841D01*
X116042059Y-30132841D02*
X116042059Y-30065498D01*
X116042059Y-30065498D02*
X116075730Y-29964482D01*
X116075730Y-29964482D02*
X116210417Y-29829795D01*
X116210417Y-29829795D02*
X116311433Y-29796124D01*
X116311433Y-29796124D02*
X116378776Y-29796124D01*
X116378776Y-29796124D02*
X116479791Y-29829795D01*
X116479791Y-29829795D02*
X116513463Y-29863467D01*
X116513463Y-29863467D02*
X116547135Y-29964482D01*
X116547135Y-29964482D02*
X116547135Y-30031826D01*
X116547135Y-30031826D02*
X116513463Y-30132841D01*
X116513463Y-30132841D02*
X116378776Y-30267528D01*
X116378776Y-30267528D02*
X116345104Y-30368543D01*
X116345104Y-30368543D02*
X116345104Y-30435887D01*
X116345104Y-30435887D02*
X116378776Y-30536902D01*
X116378776Y-30536902D02*
X116513463Y-30671589D01*
X116513463Y-30671589D02*
X116614478Y-30705261D01*
X116614478Y-30705261D02*
X116681822Y-30705261D01*
X116681822Y-30705261D02*
X116782837Y-30671589D01*
X116782837Y-30671589D02*
X116917524Y-30536902D01*
X116917524Y-30536902D02*
X116951196Y-30435887D01*
X116951196Y-30435887D02*
X116951196Y-30368543D01*
X116951196Y-30368543D02*
X116917524Y-30267528D01*
X116917524Y-30267528D02*
X116782837Y-30132841D01*
X116782837Y-30132841D02*
X116681822Y-30099169D01*
X116681822Y-30099169D02*
X116614478Y-30099169D01*
X116614478Y-30099169D02*
X116513463Y-30132841D01*
X106504711Y-30462215D02*
X106100650Y-30866276D01*
X106302681Y-30664246D02*
X105595574Y-29957139D01*
X105595574Y-29957139D02*
X105629246Y-30125498D01*
X105629246Y-30125498D02*
X105629246Y-30260185D01*
X105629246Y-30260185D02*
X105595574Y-30361200D01*
X106134322Y-29553078D02*
X106134322Y-29485734D01*
X106134322Y-29485734D02*
X106167994Y-29384719D01*
X106167994Y-29384719D02*
X106336352Y-29216360D01*
X106336352Y-29216360D02*
X106437368Y-29182688D01*
X106437368Y-29182688D02*
X106504711Y-29182688D01*
X106504711Y-29182688D02*
X106605726Y-29216360D01*
X106605726Y-29216360D02*
X106673070Y-29283704D01*
X106673070Y-29283704D02*
X106740413Y-29418391D01*
X106740413Y-29418391D02*
X106740413Y-30226513D01*
X106740413Y-30226513D02*
X107178146Y-29788780D01*
X115198387Y-74374013D02*
X115198387Y-74306669D01*
X115198387Y-74306669D02*
X115232059Y-74205654D01*
X115232059Y-74205654D02*
X115400417Y-74037295D01*
X115400417Y-74037295D02*
X115501433Y-74003624D01*
X115501433Y-74003624D02*
X115568776Y-74003624D01*
X115568776Y-74003624D02*
X115669791Y-74037295D01*
X115669791Y-74037295D02*
X115737135Y-74104639D01*
X115737135Y-74104639D02*
X115804478Y-74239326D01*
X115804478Y-74239326D02*
X115804478Y-75047448D01*
X115804478Y-75047448D02*
X116242211Y-74609715D01*
X115871822Y-73700578D02*
X115871822Y-73633234D01*
X115871822Y-73633234D02*
X115905494Y-73532219D01*
X115905494Y-73532219D02*
X116073852Y-73363860D01*
X116073852Y-73363860D02*
X116174868Y-73330188D01*
X116174868Y-73330188D02*
X116242211Y-73330188D01*
X116242211Y-73330188D02*
X116343226Y-73363860D01*
X116343226Y-73363860D02*
X116410570Y-73431204D01*
X116410570Y-73431204D02*
X116477913Y-73565891D01*
X116477913Y-73565891D02*
X116477913Y-74374013D01*
X116477913Y-74374013D02*
X116915646Y-73936280D01*
X99001435Y-31624379D02*
X98354938Y-32270876D01*
X98678186Y-32270876D02*
X98354938Y-32270876D01*
X98354938Y-32270876D02*
X98354938Y-31947628D01*
X111647857Y-65962619D02*
X112266904Y-65962619D01*
X112266904Y-65962619D02*
X111933571Y-66343571D01*
X111933571Y-66343571D02*
X112076428Y-66343571D01*
X112076428Y-66343571D02*
X112171666Y-66391190D01*
X112171666Y-66391190D02*
X112219285Y-66438809D01*
X112219285Y-66438809D02*
X112266904Y-66534047D01*
X112266904Y-66534047D02*
X112266904Y-66772142D01*
X112266904Y-66772142D02*
X112219285Y-66867380D01*
X112219285Y-66867380D02*
X112171666Y-66915000D01*
X112171666Y-66915000D02*
X112076428Y-66962619D01*
X112076428Y-66962619D02*
X111790714Y-66962619D01*
X111790714Y-66962619D02*
X111695476Y-66915000D01*
X111695476Y-66915000D02*
X111647857Y-66867380D01*
X112552619Y-65962619D02*
X112885952Y-66962619D01*
X112885952Y-66962619D02*
X113219285Y-65962619D01*
X113457381Y-65962619D02*
X114076428Y-65962619D01*
X114076428Y-65962619D02*
X113743095Y-66343571D01*
X113743095Y-66343571D02*
X113885952Y-66343571D01*
X113885952Y-66343571D02*
X113981190Y-66391190D01*
X113981190Y-66391190D02*
X114028809Y-66438809D01*
X114028809Y-66438809D02*
X114076428Y-66534047D01*
X114076428Y-66534047D02*
X114076428Y-66772142D01*
X114076428Y-66772142D02*
X114028809Y-66867380D01*
X114028809Y-66867380D02*
X113981190Y-66915000D01*
X113981190Y-66915000D02*
X113885952Y-66962619D01*
X113885952Y-66962619D02*
X113600238Y-66962619D01*
X113600238Y-66962619D02*
X113505000Y-66915000D01*
X113505000Y-66915000D02*
X113457381Y-66867380D01*
X142513095Y-74127619D02*
X142513095Y-73127619D01*
X142513095Y-73127619D02*
X142894047Y-73127619D01*
X142894047Y-73127619D02*
X142989285Y-73175238D01*
X142989285Y-73175238D02*
X143036904Y-73222857D01*
X143036904Y-73222857D02*
X143084523Y-73318095D01*
X143084523Y-73318095D02*
X143084523Y-73460952D01*
X143084523Y-73460952D02*
X143036904Y-73556190D01*
X143036904Y-73556190D02*
X142989285Y-73603809D01*
X142989285Y-73603809D02*
X142894047Y-73651428D01*
X142894047Y-73651428D02*
X142513095Y-73651428D01*
X143703571Y-73127619D02*
X143894047Y-73127619D01*
X143894047Y-73127619D02*
X143989285Y-73175238D01*
X143989285Y-73175238D02*
X144084523Y-73270476D01*
X144084523Y-73270476D02*
X144132142Y-73460952D01*
X144132142Y-73460952D02*
X144132142Y-73794285D01*
X144132142Y-73794285D02*
X144084523Y-73984761D01*
X144084523Y-73984761D02*
X143989285Y-74080000D01*
X143989285Y-74080000D02*
X143894047Y-74127619D01*
X143894047Y-74127619D02*
X143703571Y-74127619D01*
X143703571Y-74127619D02*
X143608333Y-74080000D01*
X143608333Y-74080000D02*
X143513095Y-73984761D01*
X143513095Y-73984761D02*
X143465476Y-73794285D01*
X143465476Y-73794285D02*
X143465476Y-73460952D01*
X143465476Y-73460952D02*
X143513095Y-73270476D01*
X143513095Y-73270476D02*
X143608333Y-73175238D01*
X143608333Y-73175238D02*
X143703571Y-73127619D01*
X144465476Y-73127619D02*
X144703571Y-74127619D01*
X144703571Y-74127619D02*
X144894047Y-73413333D01*
X144894047Y-73413333D02*
X145084523Y-74127619D01*
X145084523Y-74127619D02*
X145322619Y-73127619D01*
X145703571Y-73603809D02*
X146036904Y-73603809D01*
X146179761Y-74127619D02*
X145703571Y-74127619D01*
X145703571Y-74127619D02*
X145703571Y-73127619D01*
X145703571Y-73127619D02*
X146179761Y-73127619D01*
X147179761Y-74127619D02*
X146846428Y-73651428D01*
X146608333Y-74127619D02*
X146608333Y-73127619D01*
X146608333Y-73127619D02*
X146989285Y-73127619D01*
X146989285Y-73127619D02*
X147084523Y-73175238D01*
X147084523Y-73175238D02*
X147132142Y-73222857D01*
X147132142Y-73222857D02*
X147179761Y-73318095D01*
X147179761Y-73318095D02*
X147179761Y-73460952D01*
X147179761Y-73460952D02*
X147132142Y-73556190D01*
X147132142Y-73556190D02*
X147084523Y-73603809D01*
X147084523Y-73603809D02*
X146989285Y-73651428D01*
X146989285Y-73651428D02*
X146608333Y-73651428D01*
X142454711Y-30392215D02*
X142050650Y-30796276D01*
X142252681Y-30594246D02*
X141545574Y-29887139D01*
X141545574Y-29887139D02*
X141579246Y-30055498D01*
X141579246Y-30055498D02*
X141579246Y-30190185D01*
X141579246Y-30190185D02*
X141545574Y-30291200D01*
X123861433Y-29576280D02*
X123524715Y-29912998D01*
X123524715Y-29912998D02*
X123827761Y-30283387D01*
X123827761Y-30283387D02*
X123827761Y-30216043D01*
X123827761Y-30216043D02*
X123861433Y-30115028D01*
X123861433Y-30115028D02*
X124029791Y-29946669D01*
X124029791Y-29946669D02*
X124130807Y-29912998D01*
X124130807Y-29912998D02*
X124198150Y-29912998D01*
X124198150Y-29912998D02*
X124299165Y-29946669D01*
X124299165Y-29946669D02*
X124467524Y-30115028D01*
X124467524Y-30115028D02*
X124501196Y-30216043D01*
X124501196Y-30216043D02*
X124501196Y-30283387D01*
X124501196Y-30283387D02*
X124467524Y-30384402D01*
X124467524Y-30384402D02*
X124299165Y-30552761D01*
X124299165Y-30552761D02*
X124198150Y-30586433D01*
X124198150Y-30586433D02*
X124130807Y-30586433D01*
D10*
X87432105Y-40059050D02*
X87534868Y-40035580D01*
X87534868Y-40035580D02*
X87677278Y-39948993D01*
X87677278Y-39948993D02*
X87716924Y-39885877D01*
X87716924Y-39885877D02*
X87728089Y-39840077D01*
X87728089Y-39840077D02*
X87721936Y-39765796D01*
X87721936Y-39765796D02*
X87687302Y-39708832D01*
X87687302Y-39708832D02*
X87624185Y-39669186D01*
X87624185Y-39669186D02*
X87578386Y-39658021D01*
X87578386Y-39658021D02*
X87504105Y-39664174D01*
X87504105Y-39664174D02*
X87372859Y-39704961D01*
X87372859Y-39704961D02*
X87298578Y-39711114D01*
X87298578Y-39711114D02*
X87252779Y-39699949D01*
X87252779Y-39699949D02*
X87189662Y-39660302D01*
X87189662Y-39660302D02*
X87155028Y-39603338D01*
X87155028Y-39603338D02*
X87148875Y-39529057D01*
X87148875Y-39529057D02*
X87160040Y-39483258D01*
X87160040Y-39483258D02*
X87199686Y-39420141D01*
X87199686Y-39420141D02*
X87342096Y-39333555D01*
X87342096Y-39333555D02*
X87444859Y-39310085D01*
X87719655Y-39377073D02*
X87947511Y-39238534D01*
X87683880Y-39125747D02*
X87995591Y-39638422D01*
X87995591Y-39638422D02*
X88058708Y-39678069D01*
X88058708Y-39678069D02*
X88132989Y-39671916D01*
X88132989Y-39671916D02*
X88189953Y-39637282D01*
X88474773Y-39464109D02*
X88400492Y-39470261D01*
X88400492Y-39470261D02*
X88354692Y-39459097D01*
X88354692Y-39459097D02*
X88291576Y-39419450D01*
X88291576Y-39419450D02*
X88187672Y-39248558D01*
X88187672Y-39248558D02*
X88181519Y-39174277D01*
X88181519Y-39174277D02*
X88192684Y-39128478D01*
X88192684Y-39128478D02*
X88232331Y-39065361D01*
X88232331Y-39065361D02*
X88317776Y-39013409D01*
X88317776Y-39013409D02*
X88392058Y-39007257D01*
X88392058Y-39007257D02*
X88437857Y-39018421D01*
X88437857Y-39018421D02*
X88500973Y-39058068D01*
X88500973Y-39058068D02*
X88604877Y-39228960D01*
X88604877Y-39228960D02*
X88611030Y-39303241D01*
X88611030Y-39303241D02*
X88599865Y-39349040D01*
X88599865Y-39349040D02*
X88560219Y-39412157D01*
X88560219Y-39412157D02*
X88474773Y-39464109D01*
X88930484Y-39187032D02*
X88688042Y-38788284D01*
X88757311Y-38902212D02*
X88751158Y-38827931D01*
X88751158Y-38827931D02*
X88762323Y-38782132D01*
X88762323Y-38782132D02*
X88801969Y-38719015D01*
X88801969Y-38719015D02*
X88858933Y-38684381D01*
X89557087Y-38806051D02*
X89366596Y-38492750D01*
X89366596Y-38492750D02*
X89303480Y-38453103D01*
X89303480Y-38453103D02*
X89229199Y-38459256D01*
X89229199Y-38459256D02*
X89115271Y-38528525D01*
X89115271Y-38528525D02*
X89075624Y-38591642D01*
X89539769Y-38777569D02*
X89500123Y-38840686D01*
X89500123Y-38840686D02*
X89357713Y-38927272D01*
X89357713Y-38927272D02*
X89283432Y-38933425D01*
X89283432Y-38933425D02*
X89220315Y-38893778D01*
X89220315Y-38893778D02*
X89185681Y-38836815D01*
X89185681Y-38836815D02*
X89179528Y-38762533D01*
X89179528Y-38762533D02*
X89219175Y-38699417D01*
X89219175Y-38699417D02*
X89361584Y-38612830D01*
X89361584Y-38612830D02*
X89401231Y-38549714D01*
X89855801Y-38078275D02*
X90150196Y-38562469D01*
X90150196Y-38562469D02*
X90156348Y-38636750D01*
X90156348Y-38636750D02*
X90145184Y-38682549D01*
X90145184Y-38682549D02*
X90105537Y-38745666D01*
X90105537Y-38745666D02*
X90020091Y-38797618D01*
X90020091Y-38797618D02*
X89945810Y-38803770D01*
X90080926Y-38448541D02*
X90041280Y-38511657D01*
X90041280Y-38511657D02*
X89927352Y-38580927D01*
X89927352Y-38580927D02*
X89853071Y-38587079D01*
X89853071Y-38587079D02*
X89807271Y-38575915D01*
X89807271Y-38575915D02*
X89744155Y-38536268D01*
X89744155Y-38536268D02*
X89640251Y-38365376D01*
X89640251Y-38365376D02*
X89634098Y-38291095D01*
X89634098Y-38291095D02*
X89645263Y-38245296D01*
X89645263Y-38245296D02*
X89684910Y-38182179D01*
X89684910Y-38182179D02*
X89798838Y-38112910D01*
X89798838Y-38112910D02*
X89873119Y-38106757D01*
X90593601Y-38136829D02*
X90553955Y-38199946D01*
X90553955Y-38199946D02*
X90440027Y-38269215D01*
X90440027Y-38269215D02*
X90365746Y-38275368D01*
X90365746Y-38275368D02*
X90302629Y-38235721D01*
X90302629Y-38235721D02*
X90164091Y-38007866D01*
X90164091Y-38007866D02*
X90157938Y-37933584D01*
X90157938Y-37933584D02*
X90197585Y-37870468D01*
X90197585Y-37870468D02*
X90311513Y-37801199D01*
X90311513Y-37801199D02*
X90385794Y-37795046D01*
X90385794Y-37795046D02*
X90448910Y-37834693D01*
X90448910Y-37834693D02*
X90483545Y-37891656D01*
X90483545Y-37891656D02*
X90233360Y-38121793D01*
D12*
X78743776Y-48773780D02*
X78642761Y-48807452D01*
X78642761Y-48807452D02*
X78541746Y-48908467D01*
X78541746Y-48908467D02*
X78474402Y-49043154D01*
X78474402Y-49043154D02*
X78474402Y-49177841D01*
X78474402Y-49177841D02*
X78508074Y-49278856D01*
X78508074Y-49278856D02*
X78609089Y-49447215D01*
X78609089Y-49447215D02*
X78710104Y-49548230D01*
X78710104Y-49548230D02*
X78878463Y-49649246D01*
X78878463Y-49649246D02*
X78979478Y-49682917D01*
X78979478Y-49682917D02*
X79114165Y-49682917D01*
X79114165Y-49682917D02*
X79248852Y-49615574D01*
X79248852Y-49615574D02*
X79316196Y-49548230D01*
X79316196Y-49548230D02*
X79383539Y-49413543D01*
X79383539Y-49413543D02*
X79383539Y-49346200D01*
X79383539Y-49346200D02*
X79147837Y-49110498D01*
X79147837Y-49110498D02*
X79013150Y-49245185D01*
X79753929Y-49110498D02*
X79046822Y-48403391D01*
X79046822Y-48403391D02*
X80157990Y-48706437D01*
X80157990Y-48706437D02*
X79450883Y-47999330D01*
X80494707Y-48369719D02*
X79787600Y-47662612D01*
X79787600Y-47662612D02*
X79955959Y-47494254D01*
X79955959Y-47494254D02*
X80090646Y-47426910D01*
X80090646Y-47426910D02*
X80225333Y-47426910D01*
X80225333Y-47426910D02*
X80326348Y-47460582D01*
X80326348Y-47460582D02*
X80494707Y-47561597D01*
X80494707Y-47561597D02*
X80595722Y-47662612D01*
X80595722Y-47662612D02*
X80696738Y-47830971D01*
X80696738Y-47830971D02*
X80730409Y-47931986D01*
X80730409Y-47931986D02*
X80730409Y-48066673D01*
X80730409Y-48066673D02*
X80663066Y-48201360D01*
X80663066Y-48201360D02*
X80494707Y-48369719D01*
X114290494Y-30701433D02*
X114425181Y-30566746D01*
X114425181Y-30566746D02*
X114458852Y-30465730D01*
X114458852Y-30465730D02*
X114458852Y-30398387D01*
X114458852Y-30398387D02*
X114425181Y-30230028D01*
X114425181Y-30230028D02*
X114324165Y-30061669D01*
X114324165Y-30061669D02*
X114054791Y-29792295D01*
X114054791Y-29792295D02*
X113953776Y-29758624D01*
X113953776Y-29758624D02*
X113886433Y-29758624D01*
X113886433Y-29758624D02*
X113785417Y-29792295D01*
X113785417Y-29792295D02*
X113650730Y-29926982D01*
X113650730Y-29926982D02*
X113617059Y-30027998D01*
X113617059Y-30027998D02*
X113617059Y-30095341D01*
X113617059Y-30095341D02*
X113650730Y-30196356D01*
X113650730Y-30196356D02*
X113819089Y-30364715D01*
X113819089Y-30364715D02*
X113920104Y-30398387D01*
X113920104Y-30398387D02*
X113987448Y-30398387D01*
X113987448Y-30398387D02*
X114088463Y-30364715D01*
X114088463Y-30364715D02*
X114223150Y-30230028D01*
X114223150Y-30230028D02*
X114256822Y-30129013D01*
X114256822Y-30129013D02*
X114256822Y-30061669D01*
X114256822Y-30061669D02*
X114223150Y-29960654D01*
X144184402Y-29953311D02*
X144251746Y-29885967D01*
X144251746Y-29885967D02*
X144352761Y-29852295D01*
X144352761Y-29852295D02*
X144420104Y-29852295D01*
X144420104Y-29852295D02*
X144521120Y-29885967D01*
X144521120Y-29885967D02*
X144689478Y-29986982D01*
X144689478Y-29986982D02*
X144857837Y-30155341D01*
X144857837Y-30155341D02*
X144958852Y-30323700D01*
X144958852Y-30323700D02*
X144992524Y-30424715D01*
X144992524Y-30424715D02*
X144992524Y-30492059D01*
X144992524Y-30492059D02*
X144958852Y-30593074D01*
X144958852Y-30593074D02*
X144891509Y-30660417D01*
X144891509Y-30660417D02*
X144790494Y-30694089D01*
X144790494Y-30694089D02*
X144723150Y-30694089D01*
X144723150Y-30694089D02*
X144622135Y-30660417D01*
X144622135Y-30660417D02*
X144453776Y-30559402D01*
X144453776Y-30559402D02*
X144285417Y-30391043D01*
X144285417Y-30391043D02*
X144184402Y-30222685D01*
X144184402Y-30222685D02*
X144150730Y-30121669D01*
X144150730Y-30121669D02*
X144150730Y-30054326D01*
X144150730Y-30054326D02*
X144184402Y-29953311D01*
D10*
X77583011Y-43255887D02*
X77700862Y-43373739D01*
X77535871Y-43444449D02*
X77700862Y-43373739D01*
X77700862Y-43373739D02*
X77771573Y-43208747D01*
X77724432Y-43538730D02*
X77700862Y-43373739D01*
X77700862Y-43373739D02*
X77865854Y-43397309D01*
X78643671Y-43185177D02*
X78360828Y-43468020D01*
X78502250Y-43326598D02*
X78007275Y-42831624D01*
X78007275Y-42831624D02*
X78030845Y-42949475D01*
X78030845Y-42949475D02*
X78030845Y-43043756D01*
X78030845Y-43043756D02*
X78007275Y-43114466D01*
X78737952Y-42430930D02*
X79067935Y-42760913D01*
X78431539Y-42360219D02*
X78667241Y-42831623D01*
X78667241Y-42831623D02*
X78973654Y-42525210D01*
D12*
X143506904Y-83177738D02*
X143411666Y-83130119D01*
X143411666Y-83130119D02*
X143268809Y-83130119D01*
X143268809Y-83130119D02*
X143125952Y-83177738D01*
X143125952Y-83177738D02*
X143030714Y-83272976D01*
X143030714Y-83272976D02*
X142983095Y-83368214D01*
X142983095Y-83368214D02*
X142935476Y-83558690D01*
X142935476Y-83558690D02*
X142935476Y-83701547D01*
X142935476Y-83701547D02*
X142983095Y-83892023D01*
X142983095Y-83892023D02*
X143030714Y-83987261D01*
X143030714Y-83987261D02*
X143125952Y-84082500D01*
X143125952Y-84082500D02*
X143268809Y-84130119D01*
X143268809Y-84130119D02*
X143364047Y-84130119D01*
X143364047Y-84130119D02*
X143506904Y-84082500D01*
X143506904Y-84082500D02*
X143554523Y-84034880D01*
X143554523Y-84034880D02*
X143554523Y-83701547D01*
X143554523Y-83701547D02*
X143364047Y-83701547D01*
X143983095Y-84130119D02*
X143983095Y-83130119D01*
X143983095Y-83130119D02*
X144554523Y-84130119D01*
X144554523Y-84130119D02*
X144554523Y-83130119D01*
X145030714Y-84130119D02*
X145030714Y-83130119D01*
X145030714Y-83130119D02*
X145268809Y-83130119D01*
X145268809Y-83130119D02*
X145411666Y-83177738D01*
X145411666Y-83177738D02*
X145506904Y-83272976D01*
X145506904Y-83272976D02*
X145554523Y-83368214D01*
X145554523Y-83368214D02*
X145602142Y-83558690D01*
X145602142Y-83558690D02*
X145602142Y-83701547D01*
X145602142Y-83701547D02*
X145554523Y-83892023D01*
X145554523Y-83892023D02*
X145506904Y-83987261D01*
X145506904Y-83987261D02*
X145411666Y-84082500D01*
X145411666Y-84082500D02*
X145268809Y-84130119D01*
X145268809Y-84130119D02*
X145030714Y-84130119D01*
X102059523Y-83827619D02*
X101726190Y-83351428D01*
X101488095Y-83827619D02*
X101488095Y-82827619D01*
X101488095Y-82827619D02*
X101869047Y-82827619D01*
X101869047Y-82827619D02*
X101964285Y-82875238D01*
X101964285Y-82875238D02*
X102011904Y-82922857D01*
X102011904Y-82922857D02*
X102059523Y-83018095D01*
X102059523Y-83018095D02*
X102059523Y-83160952D01*
X102059523Y-83160952D02*
X102011904Y-83256190D01*
X102011904Y-83256190D02*
X101964285Y-83303809D01*
X101964285Y-83303809D02*
X101869047Y-83351428D01*
X101869047Y-83351428D02*
X101488095Y-83351428D01*
X102488095Y-83303809D02*
X102821428Y-83303809D01*
X102964285Y-83827619D02*
X102488095Y-83827619D01*
X102488095Y-83827619D02*
X102488095Y-82827619D01*
X102488095Y-82827619D02*
X102964285Y-82827619D01*
X103345238Y-83780000D02*
X103488095Y-83827619D01*
X103488095Y-83827619D02*
X103726190Y-83827619D01*
X103726190Y-83827619D02*
X103821428Y-83780000D01*
X103821428Y-83780000D02*
X103869047Y-83732380D01*
X103869047Y-83732380D02*
X103916666Y-83637142D01*
X103916666Y-83637142D02*
X103916666Y-83541904D01*
X103916666Y-83541904D02*
X103869047Y-83446666D01*
X103869047Y-83446666D02*
X103821428Y-83399047D01*
X103821428Y-83399047D02*
X103726190Y-83351428D01*
X103726190Y-83351428D02*
X103535714Y-83303809D01*
X103535714Y-83303809D02*
X103440476Y-83256190D01*
X103440476Y-83256190D02*
X103392857Y-83208571D01*
X103392857Y-83208571D02*
X103345238Y-83113333D01*
X103345238Y-83113333D02*
X103345238Y-83018095D01*
X103345238Y-83018095D02*
X103392857Y-82922857D01*
X103392857Y-82922857D02*
X103440476Y-82875238D01*
X103440476Y-82875238D02*
X103535714Y-82827619D01*
X103535714Y-82827619D02*
X103773809Y-82827619D01*
X103773809Y-82827619D02*
X103916666Y-82875238D01*
X104345238Y-83303809D02*
X104678571Y-83303809D01*
X104821428Y-83827619D02*
X104345238Y-83827619D01*
X104345238Y-83827619D02*
X104345238Y-82827619D01*
X104345238Y-82827619D02*
X104821428Y-82827619D01*
X105107143Y-82827619D02*
X105678571Y-82827619D01*
X105392857Y-83827619D02*
X105392857Y-82827619D01*
D10*
X84903333Y-40554333D02*
X84903333Y-40721000D01*
X84736667Y-40654333D02*
X84903333Y-40721000D01*
X84903333Y-40721000D02*
X85070000Y-40654333D01*
X84803333Y-40854333D02*
X84903333Y-40721000D01*
X84903333Y-40721000D02*
X85003333Y-40854333D01*
X85336666Y-41254333D02*
X85336666Y-40554333D01*
X85636666Y-40621000D02*
X85669999Y-40587666D01*
X85669999Y-40587666D02*
X85736666Y-40554333D01*
X85736666Y-40554333D02*
X85903333Y-40554333D01*
X85903333Y-40554333D02*
X85969999Y-40587666D01*
X85969999Y-40587666D02*
X86003333Y-40621000D01*
X86003333Y-40621000D02*
X86036666Y-40687666D01*
X86036666Y-40687666D02*
X86036666Y-40754333D01*
X86036666Y-40754333D02*
X86003333Y-40854333D01*
X86003333Y-40854333D02*
X85603333Y-41254333D01*
X85603333Y-41254333D02*
X86036666Y-41254333D01*
X86736666Y-41187666D02*
X86703333Y-41221000D01*
X86703333Y-41221000D02*
X86603333Y-41254333D01*
X86603333Y-41254333D02*
X86536666Y-41254333D01*
X86536666Y-41254333D02*
X86436666Y-41221000D01*
X86436666Y-41221000D02*
X86370000Y-41154333D01*
X86370000Y-41154333D02*
X86336666Y-41087666D01*
X86336666Y-41087666D02*
X86303333Y-40954333D01*
X86303333Y-40954333D02*
X86303333Y-40854333D01*
X86303333Y-40854333D02*
X86336666Y-40721000D01*
X86336666Y-40721000D02*
X86370000Y-40654333D01*
X86370000Y-40654333D02*
X86436666Y-40587666D01*
X86436666Y-40587666D02*
X86536666Y-40554333D01*
X86536666Y-40554333D02*
X86603333Y-40554333D01*
X86603333Y-40554333D02*
X86703333Y-40587666D01*
X86703333Y-40587666D02*
X86736666Y-40621000D01*
X87403333Y-41254333D02*
X87003333Y-41254333D01*
X87203333Y-41254333D02*
X87203333Y-40554333D01*
X87203333Y-40554333D02*
X87136666Y-40654333D01*
X87136666Y-40654333D02*
X87070000Y-40721000D01*
X87070000Y-40721000D02*
X87003333Y-40754333D01*
X88470000Y-40887666D02*
X88570000Y-40921000D01*
X88570000Y-40921000D02*
X88603333Y-40954333D01*
X88603333Y-40954333D02*
X88636666Y-41021000D01*
X88636666Y-41021000D02*
X88636666Y-41121000D01*
X88636666Y-41121000D02*
X88603333Y-41187666D01*
X88603333Y-41187666D02*
X88570000Y-41221000D01*
X88570000Y-41221000D02*
X88503333Y-41254333D01*
X88503333Y-41254333D02*
X88236666Y-41254333D01*
X88236666Y-41254333D02*
X88236666Y-40554333D01*
X88236666Y-40554333D02*
X88470000Y-40554333D01*
X88470000Y-40554333D02*
X88536666Y-40587666D01*
X88536666Y-40587666D02*
X88570000Y-40621000D01*
X88570000Y-40621000D02*
X88603333Y-40687666D01*
X88603333Y-40687666D02*
X88603333Y-40754333D01*
X88603333Y-40754333D02*
X88570000Y-40821000D01*
X88570000Y-40821000D02*
X88536666Y-40854333D01*
X88536666Y-40854333D02*
X88470000Y-40887666D01*
X88470000Y-40887666D02*
X88236666Y-40887666D01*
X89236666Y-40787666D02*
X89236666Y-41254333D01*
X88936666Y-40787666D02*
X88936666Y-41154333D01*
X88936666Y-41154333D02*
X88970000Y-41221000D01*
X88970000Y-41221000D02*
X89036666Y-41254333D01*
X89036666Y-41254333D02*
X89136666Y-41254333D01*
X89136666Y-41254333D02*
X89203333Y-41221000D01*
X89203333Y-41221000D02*
X89236666Y-41187666D01*
X89536666Y-41221000D02*
X89603333Y-41254333D01*
X89603333Y-41254333D02*
X89736666Y-41254333D01*
X89736666Y-41254333D02*
X89803333Y-41221000D01*
X89803333Y-41221000D02*
X89836666Y-41154333D01*
X89836666Y-41154333D02*
X89836666Y-41121000D01*
X89836666Y-41121000D02*
X89803333Y-41054333D01*
X89803333Y-41054333D02*
X89736666Y-41021000D01*
X89736666Y-41021000D02*
X89636666Y-41021000D01*
X89636666Y-41021000D02*
X89569999Y-40987666D01*
X89569999Y-40987666D02*
X89536666Y-40921000D01*
X89536666Y-40921000D02*
X89536666Y-40887666D01*
X89536666Y-40887666D02*
X89569999Y-40821000D01*
X89569999Y-40821000D02*
X89636666Y-40787666D01*
X89636666Y-40787666D02*
X89736666Y-40787666D01*
X89736666Y-40787666D02*
X89803333Y-40821000D01*
D12*
X104774711Y-72209715D02*
X104370650Y-72613776D01*
X104572681Y-72411746D02*
X103865574Y-71704639D01*
X103865574Y-71704639D02*
X103899246Y-71872998D01*
X103899246Y-71872998D02*
X103899246Y-72007685D01*
X103899246Y-72007685D02*
X103865574Y-72108700D01*
X105111429Y-71872998D02*
X105246116Y-71738311D01*
X105246116Y-71738311D02*
X105279787Y-71637295D01*
X105279787Y-71637295D02*
X105279787Y-71569952D01*
X105279787Y-71569952D02*
X105246116Y-71401593D01*
X105246116Y-71401593D02*
X105145100Y-71233234D01*
X105145100Y-71233234D02*
X104875726Y-70963860D01*
X104875726Y-70963860D02*
X104774711Y-70930188D01*
X104774711Y-70930188D02*
X104707368Y-70930188D01*
X104707368Y-70930188D02*
X104606352Y-70963860D01*
X104606352Y-70963860D02*
X104471665Y-71098547D01*
X104471665Y-71098547D02*
X104437994Y-71199562D01*
X104437994Y-71199562D02*
X104437994Y-71266906D01*
X104437994Y-71266906D02*
X104471665Y-71367921D01*
X104471665Y-71367921D02*
X104640024Y-71536280D01*
X104640024Y-71536280D02*
X104741039Y-71569952D01*
X104741039Y-71569952D02*
X104808383Y-71569952D01*
X104808383Y-71569952D02*
X104909398Y-71536280D01*
X104909398Y-71536280D02*
X105044085Y-71401593D01*
X105044085Y-71401593D02*
X105077757Y-71300578D01*
X105077757Y-71300578D02*
X105077757Y-71233234D01*
X105077757Y-71233234D02*
X105044085Y-71132219D01*
X79019478Y-47117604D02*
X79154165Y-47050261D01*
X79154165Y-47050261D02*
X79322524Y-46881902D01*
X79322524Y-46881902D02*
X79356196Y-46780887D01*
X79356196Y-46780887D02*
X79356196Y-46713543D01*
X79356196Y-46713543D02*
X79322524Y-46612528D01*
X79322524Y-46612528D02*
X79255181Y-46545185D01*
X79255181Y-46545185D02*
X79154165Y-46511513D01*
X79154165Y-46511513D02*
X79086822Y-46511513D01*
X79086822Y-46511513D02*
X78985807Y-46545185D01*
X78985807Y-46545185D02*
X78817448Y-46646200D01*
X78817448Y-46646200D02*
X78716433Y-46679872D01*
X78716433Y-46679872D02*
X78649089Y-46679872D01*
X78649089Y-46679872D02*
X78548074Y-46646200D01*
X78548074Y-46646200D02*
X78480730Y-46578856D01*
X78480730Y-46578856D02*
X78447059Y-46477841D01*
X78447059Y-46477841D02*
X78447059Y-46410498D01*
X78447059Y-46410498D02*
X78480730Y-46309482D01*
X78480730Y-46309482D02*
X78649089Y-46141124D01*
X78649089Y-46141124D02*
X78783776Y-46073780D01*
X80096974Y-45972765D02*
X80096974Y-46040108D01*
X80096974Y-46040108D02*
X80029631Y-46174795D01*
X80029631Y-46174795D02*
X79962287Y-46242139D01*
X79962287Y-46242139D02*
X79827600Y-46309482D01*
X79827600Y-46309482D02*
X79692913Y-46309482D01*
X79692913Y-46309482D02*
X79591898Y-46275811D01*
X79591898Y-46275811D02*
X79423539Y-46174795D01*
X79423539Y-46174795D02*
X79322524Y-46073780D01*
X79322524Y-46073780D02*
X79221509Y-45905421D01*
X79221509Y-45905421D02*
X79187837Y-45804406D01*
X79187837Y-45804406D02*
X79187837Y-45669719D01*
X79187837Y-45669719D02*
X79255181Y-45535032D01*
X79255181Y-45535032D02*
X79322524Y-45467688D01*
X79322524Y-45467688D02*
X79457211Y-45400345D01*
X79457211Y-45400345D02*
X79524555Y-45400345D01*
X80804081Y-45400345D02*
X80467364Y-45737062D01*
X80467364Y-45737062D02*
X79760257Y-45029956D01*
X118582372Y-30180341D02*
X119053776Y-29708937D01*
X119053776Y-29708937D02*
X119457837Y-30719089D01*
X99437211Y-74679715D02*
X99033150Y-75083776D01*
X99235181Y-74881746D02*
X98528074Y-74174639D01*
X98528074Y-74174639D02*
X98561746Y-74342998D01*
X98561746Y-74342998D02*
X98561746Y-74477685D01*
X98561746Y-74477685D02*
X98528074Y-74578700D01*
X98965807Y-73736906D02*
X99437211Y-73265501D01*
X99437211Y-73265501D02*
X99841272Y-74275654D01*
X83848776Y-61601280D02*
X83747761Y-61634952D01*
X83747761Y-61634952D02*
X83646746Y-61735967D01*
X83646746Y-61735967D02*
X83579402Y-61870654D01*
X83579402Y-61870654D02*
X83579402Y-62005341D01*
X83579402Y-62005341D02*
X83613074Y-62106356D01*
X83613074Y-62106356D02*
X83714089Y-62274715D01*
X83714089Y-62274715D02*
X83815104Y-62375730D01*
X83815104Y-62375730D02*
X83983463Y-62476746D01*
X83983463Y-62476746D02*
X84084478Y-62510417D01*
X84084478Y-62510417D02*
X84219165Y-62510417D01*
X84219165Y-62510417D02*
X84353852Y-62443074D01*
X84353852Y-62443074D02*
X84421196Y-62375730D01*
X84421196Y-62375730D02*
X84488539Y-62241043D01*
X84488539Y-62241043D02*
X84488539Y-62173700D01*
X84488539Y-62173700D02*
X84252837Y-61937998D01*
X84252837Y-61937998D02*
X84118150Y-62072685D01*
X84858929Y-61937998D02*
X84151822Y-61230891D01*
X84151822Y-61230891D02*
X85262990Y-61533937D01*
X85262990Y-61533937D02*
X84555883Y-60826830D01*
X85599707Y-61197219D02*
X84892600Y-60490112D01*
X84892600Y-60490112D02*
X85060959Y-60321754D01*
X85060959Y-60321754D02*
X85195646Y-60254410D01*
X85195646Y-60254410D02*
X85330333Y-60254410D01*
X85330333Y-60254410D02*
X85431348Y-60288082D01*
X85431348Y-60288082D02*
X85599707Y-60389097D01*
X85599707Y-60389097D02*
X85700722Y-60490112D01*
X85700722Y-60490112D02*
X85801738Y-60658471D01*
X85801738Y-60658471D02*
X85835409Y-60759486D01*
X85835409Y-60759486D02*
X85835409Y-60894173D01*
X85835409Y-60894173D02*
X85768066Y-61028860D01*
X85768066Y-61028860D02*
X85599707Y-61197219D01*
X96677211Y-74599715D02*
X96273150Y-75003776D01*
X96475181Y-74801746D02*
X95768074Y-74094639D01*
X95768074Y-74094639D02*
X95801746Y-74262998D01*
X95801746Y-74262998D02*
X95801746Y-74397685D01*
X95801746Y-74397685D02*
X95768074Y-74498700D01*
X96576196Y-73286517D02*
X96441509Y-73421204D01*
X96441509Y-73421204D02*
X96407837Y-73522219D01*
X96407837Y-73522219D02*
X96407837Y-73589562D01*
X96407837Y-73589562D02*
X96441509Y-73757921D01*
X96441509Y-73757921D02*
X96542524Y-73926280D01*
X96542524Y-73926280D02*
X96811898Y-74195654D01*
X96811898Y-74195654D02*
X96912913Y-74229326D01*
X96912913Y-74229326D02*
X96980257Y-74229326D01*
X96980257Y-74229326D02*
X97081272Y-74195654D01*
X97081272Y-74195654D02*
X97215959Y-74060967D01*
X97215959Y-74060967D02*
X97249631Y-73959952D01*
X97249631Y-73959952D02*
X97249631Y-73892608D01*
X97249631Y-73892608D02*
X97215959Y-73791593D01*
X97215959Y-73791593D02*
X97047600Y-73623234D01*
X97047600Y-73623234D02*
X96946585Y-73589562D01*
X96946585Y-73589562D02*
X96879242Y-73589562D01*
X96879242Y-73589562D02*
X96778226Y-73623234D01*
X96778226Y-73623234D02*
X96643539Y-73757921D01*
X96643539Y-73757921D02*
X96609868Y-73858937D01*
X96609868Y-73858937D02*
X96609868Y-73926280D01*
X96609868Y-73926280D02*
X96643539Y-74027295D01*
X126613463Y-29820654D02*
X127084868Y-30292059D01*
X126175730Y-29719639D02*
X126512448Y-30393074D01*
X126512448Y-30393074D02*
X126950181Y-29955341D01*
D13*
X109053571Y-76339142D02*
X109010714Y-76382000D01*
X109010714Y-76382000D02*
X108882142Y-76424857D01*
X108882142Y-76424857D02*
X108796428Y-76424857D01*
X108796428Y-76424857D02*
X108667857Y-76382000D01*
X108667857Y-76382000D02*
X108582142Y-76296285D01*
X108582142Y-76296285D02*
X108539285Y-76210571D01*
X108539285Y-76210571D02*
X108496428Y-76039142D01*
X108496428Y-76039142D02*
X108496428Y-75910571D01*
X108496428Y-75910571D02*
X108539285Y-75739142D01*
X108539285Y-75739142D02*
X108582142Y-75653428D01*
X108582142Y-75653428D02*
X108667857Y-75567714D01*
X108667857Y-75567714D02*
X108796428Y-75524857D01*
X108796428Y-75524857D02*
X108882142Y-75524857D01*
X108882142Y-75524857D02*
X109010714Y-75567714D01*
X109010714Y-75567714D02*
X109053571Y-75610571D01*
X109567857Y-76424857D02*
X109482142Y-76382000D01*
X109482142Y-76382000D02*
X109439285Y-76339142D01*
X109439285Y-76339142D02*
X109396428Y-76253428D01*
X109396428Y-76253428D02*
X109396428Y-75996285D01*
X109396428Y-75996285D02*
X109439285Y-75910571D01*
X109439285Y-75910571D02*
X109482142Y-75867714D01*
X109482142Y-75867714D02*
X109567857Y-75824857D01*
X109567857Y-75824857D02*
X109696428Y-75824857D01*
X109696428Y-75824857D02*
X109782142Y-75867714D01*
X109782142Y-75867714D02*
X109825000Y-75910571D01*
X109825000Y-75910571D02*
X109867857Y-75996285D01*
X109867857Y-75996285D02*
X109867857Y-76253428D01*
X109867857Y-76253428D02*
X109825000Y-76339142D01*
X109825000Y-76339142D02*
X109782142Y-76382000D01*
X109782142Y-76382000D02*
X109696428Y-76424857D01*
X109696428Y-76424857D02*
X109567857Y-76424857D01*
X110253571Y-75824857D02*
X110253571Y-76424857D01*
X110253571Y-75910571D02*
X110296428Y-75867714D01*
X110296428Y-75867714D02*
X110382143Y-75824857D01*
X110382143Y-75824857D02*
X110510714Y-75824857D01*
X110510714Y-75824857D02*
X110596428Y-75867714D01*
X110596428Y-75867714D02*
X110639286Y-75953428D01*
X110639286Y-75953428D02*
X110639286Y-76424857D01*
X111067857Y-75824857D02*
X111067857Y-76424857D01*
X111067857Y-75910571D02*
X111110714Y-75867714D01*
X111110714Y-75867714D02*
X111196429Y-75824857D01*
X111196429Y-75824857D02*
X111325000Y-75824857D01*
X111325000Y-75824857D02*
X111410714Y-75867714D01*
X111410714Y-75867714D02*
X111453572Y-75953428D01*
X111453572Y-75953428D02*
X111453572Y-76424857D01*
X112225000Y-76382000D02*
X112139286Y-76424857D01*
X112139286Y-76424857D02*
X111967858Y-76424857D01*
X111967858Y-76424857D02*
X111882143Y-76382000D01*
X111882143Y-76382000D02*
X111839286Y-76296285D01*
X111839286Y-76296285D02*
X111839286Y-75953428D01*
X111839286Y-75953428D02*
X111882143Y-75867714D01*
X111882143Y-75867714D02*
X111967858Y-75824857D01*
X111967858Y-75824857D02*
X112139286Y-75824857D01*
X112139286Y-75824857D02*
X112225000Y-75867714D01*
X112225000Y-75867714D02*
X112267858Y-75953428D01*
X112267858Y-75953428D02*
X112267858Y-76039142D01*
X112267858Y-76039142D02*
X111839286Y-76124857D01*
X113039287Y-76382000D02*
X112953572Y-76424857D01*
X112953572Y-76424857D02*
X112782144Y-76424857D01*
X112782144Y-76424857D02*
X112696429Y-76382000D01*
X112696429Y-76382000D02*
X112653572Y-76339142D01*
X112653572Y-76339142D02*
X112610715Y-76253428D01*
X112610715Y-76253428D02*
X112610715Y-75996285D01*
X112610715Y-75996285D02*
X112653572Y-75910571D01*
X112653572Y-75910571D02*
X112696429Y-75867714D01*
X112696429Y-75867714D02*
X112782144Y-75824857D01*
X112782144Y-75824857D02*
X112953572Y-75824857D01*
X112953572Y-75824857D02*
X113039287Y-75867714D01*
X113296430Y-75824857D02*
X113639287Y-75824857D01*
X113425001Y-75524857D02*
X113425001Y-76296285D01*
X113425001Y-76296285D02*
X113467858Y-76382000D01*
X113467858Y-76382000D02*
X113553573Y-76424857D01*
X113553573Y-76424857D02*
X113639287Y-76424857D01*
X114625001Y-76424857D02*
X114625001Y-75524857D01*
X114625001Y-75524857D02*
X114967858Y-75524857D01*
X114967858Y-75524857D02*
X115053573Y-75567714D01*
X115053573Y-75567714D02*
X115096430Y-75610571D01*
X115096430Y-75610571D02*
X115139287Y-75696285D01*
X115139287Y-75696285D02*
X115139287Y-75824857D01*
X115139287Y-75824857D02*
X115096430Y-75910571D01*
X115096430Y-75910571D02*
X115053573Y-75953428D01*
X115053573Y-75953428D02*
X114967858Y-75996285D01*
X114967858Y-75996285D02*
X114625001Y-75996285D01*
X115525001Y-76424857D02*
X115525001Y-75824857D01*
X115525001Y-75524857D02*
X115482144Y-75567714D01*
X115482144Y-75567714D02*
X115525001Y-75610571D01*
X115525001Y-75610571D02*
X115567858Y-75567714D01*
X115567858Y-75567714D02*
X115525001Y-75524857D01*
X115525001Y-75524857D02*
X115525001Y-75610571D01*
X115953572Y-75824857D02*
X115953572Y-76424857D01*
X115953572Y-75910571D02*
X115996429Y-75867714D01*
X115996429Y-75867714D02*
X116082144Y-75824857D01*
X116082144Y-75824857D02*
X116210715Y-75824857D01*
X116210715Y-75824857D02*
X116296429Y-75867714D01*
X116296429Y-75867714D02*
X116339287Y-75953428D01*
X116339287Y-75953428D02*
X116339287Y-76424857D01*
X116725001Y-76382000D02*
X116810715Y-76424857D01*
X116810715Y-76424857D02*
X116982144Y-76424857D01*
X116982144Y-76424857D02*
X117067858Y-76382000D01*
X117067858Y-76382000D02*
X117110715Y-76296285D01*
X117110715Y-76296285D02*
X117110715Y-76253428D01*
X117110715Y-76253428D02*
X117067858Y-76167714D01*
X117067858Y-76167714D02*
X116982144Y-76124857D01*
X116982144Y-76124857D02*
X116853573Y-76124857D01*
X116853573Y-76124857D02*
X116767858Y-76082000D01*
X116767858Y-76082000D02*
X116725001Y-75996285D01*
X116725001Y-75996285D02*
X116725001Y-75953428D01*
X116725001Y-75953428D02*
X116767858Y-75867714D01*
X116767858Y-75867714D02*
X116853573Y-75824857D01*
X116853573Y-75824857D02*
X116982144Y-75824857D01*
X116982144Y-75824857D02*
X117067858Y-75867714D01*
X108410714Y-76982857D02*
X108925000Y-76982857D01*
X108667857Y-77882857D02*
X108667857Y-76982857D01*
X109353571Y-77882857D02*
X109267856Y-77840000D01*
X109267856Y-77840000D02*
X109224999Y-77797142D01*
X109224999Y-77797142D02*
X109182142Y-77711428D01*
X109182142Y-77711428D02*
X109182142Y-77454285D01*
X109182142Y-77454285D02*
X109224999Y-77368571D01*
X109224999Y-77368571D02*
X109267856Y-77325714D01*
X109267856Y-77325714D02*
X109353571Y-77282857D01*
X109353571Y-77282857D02*
X109482142Y-77282857D01*
X109482142Y-77282857D02*
X109567856Y-77325714D01*
X109567856Y-77325714D02*
X109610714Y-77368571D01*
X109610714Y-77368571D02*
X109653571Y-77454285D01*
X109653571Y-77454285D02*
X109653571Y-77711428D01*
X109653571Y-77711428D02*
X109610714Y-77797142D01*
X109610714Y-77797142D02*
X109567856Y-77840000D01*
X109567856Y-77840000D02*
X109482142Y-77882857D01*
X109482142Y-77882857D02*
X109353571Y-77882857D01*
X110724999Y-76982857D02*
X110724999Y-77711428D01*
X110724999Y-77711428D02*
X110767856Y-77797142D01*
X110767856Y-77797142D02*
X110810714Y-77840000D01*
X110810714Y-77840000D02*
X110896428Y-77882857D01*
X110896428Y-77882857D02*
X111067856Y-77882857D01*
X111067856Y-77882857D02*
X111153571Y-77840000D01*
X111153571Y-77840000D02*
X111196428Y-77797142D01*
X111196428Y-77797142D02*
X111239285Y-77711428D01*
X111239285Y-77711428D02*
X111239285Y-76982857D01*
X111624999Y-77840000D02*
X111710713Y-77882857D01*
X111710713Y-77882857D02*
X111882142Y-77882857D01*
X111882142Y-77882857D02*
X111967856Y-77840000D01*
X111967856Y-77840000D02*
X112010713Y-77754285D01*
X112010713Y-77754285D02*
X112010713Y-77711428D01*
X112010713Y-77711428D02*
X111967856Y-77625714D01*
X111967856Y-77625714D02*
X111882142Y-77582857D01*
X111882142Y-77582857D02*
X111753571Y-77582857D01*
X111753571Y-77582857D02*
X111667856Y-77540000D01*
X111667856Y-77540000D02*
X111624999Y-77454285D01*
X111624999Y-77454285D02*
X111624999Y-77411428D01*
X111624999Y-77411428D02*
X111667856Y-77325714D01*
X111667856Y-77325714D02*
X111753571Y-77282857D01*
X111753571Y-77282857D02*
X111882142Y-77282857D01*
X111882142Y-77282857D02*
X111967856Y-77325714D01*
X112739284Y-77840000D02*
X112653570Y-77882857D01*
X112653570Y-77882857D02*
X112482142Y-77882857D01*
X112482142Y-77882857D02*
X112396427Y-77840000D01*
X112396427Y-77840000D02*
X112353570Y-77754285D01*
X112353570Y-77754285D02*
X112353570Y-77411428D01*
X112353570Y-77411428D02*
X112396427Y-77325714D01*
X112396427Y-77325714D02*
X112482142Y-77282857D01*
X112482142Y-77282857D02*
X112653570Y-77282857D01*
X112653570Y-77282857D02*
X112739284Y-77325714D01*
X112739284Y-77325714D02*
X112782142Y-77411428D01*
X112782142Y-77411428D02*
X112782142Y-77497142D01*
X112782142Y-77497142D02*
X112353570Y-77582857D01*
X113982142Y-76982857D02*
X113982142Y-77197142D01*
X113767856Y-77111428D02*
X113982142Y-77197142D01*
X113982142Y-77197142D02*
X114196427Y-77111428D01*
X113853570Y-77368571D02*
X113982142Y-77197142D01*
X113982142Y-77197142D02*
X114110713Y-77368571D01*
X114539284Y-77411428D02*
X114839284Y-77411428D01*
X114967856Y-77882857D02*
X114539284Y-77882857D01*
X114539284Y-77882857D02*
X114539284Y-76982857D01*
X114539284Y-76982857D02*
X114967856Y-76982857D01*
X115267856Y-77882857D02*
X115739285Y-77282857D01*
X115267856Y-77282857D02*
X115739285Y-77882857D01*
X115953570Y-77282857D02*
X116296427Y-77282857D01*
X116082141Y-76982857D02*
X116082141Y-77754285D01*
X116082141Y-77754285D02*
X116124998Y-77840000D01*
X116124998Y-77840000D02*
X116210713Y-77882857D01*
X116210713Y-77882857D02*
X116296427Y-77882857D01*
X116596427Y-77882857D02*
X116596427Y-77282857D01*
X116596427Y-77454285D02*
X116639284Y-77368571D01*
X116639284Y-77368571D02*
X116682142Y-77325714D01*
X116682142Y-77325714D02*
X116767856Y-77282857D01*
X116767856Y-77282857D02*
X116853570Y-77282857D01*
X117539285Y-77882857D02*
X117539285Y-77411428D01*
X117539285Y-77411428D02*
X117496427Y-77325714D01*
X117496427Y-77325714D02*
X117410713Y-77282857D01*
X117410713Y-77282857D02*
X117239285Y-77282857D01*
X117239285Y-77282857D02*
X117153570Y-77325714D01*
X117539285Y-77840000D02*
X117453570Y-77882857D01*
X117453570Y-77882857D02*
X117239285Y-77882857D01*
X117239285Y-77882857D02*
X117153570Y-77840000D01*
X117153570Y-77840000D02*
X117110713Y-77754285D01*
X117110713Y-77754285D02*
X117110713Y-77668571D01*
X117110713Y-77668571D02*
X117153570Y-77582857D01*
X117153570Y-77582857D02*
X117239285Y-77540000D01*
X117239285Y-77540000D02*
X117453570Y-77540000D01*
X117453570Y-77540000D02*
X117539285Y-77497142D01*
X117924999Y-77840000D02*
X118010713Y-77882857D01*
X118010713Y-77882857D02*
X118182142Y-77882857D01*
X118182142Y-77882857D02*
X118267856Y-77840000D01*
X118267856Y-77840000D02*
X118310713Y-77754285D01*
X118310713Y-77754285D02*
X118310713Y-77711428D01*
X118310713Y-77711428D02*
X118267856Y-77625714D01*
X118267856Y-77625714D02*
X118182142Y-77582857D01*
X118182142Y-77582857D02*
X118053571Y-77582857D01*
X118053571Y-77582857D02*
X117967856Y-77540000D01*
X117967856Y-77540000D02*
X117924999Y-77454285D01*
X117924999Y-77454285D02*
X117924999Y-77411428D01*
X117924999Y-77411428D02*
X117967856Y-77325714D01*
X117967856Y-77325714D02*
X118053571Y-77282857D01*
X118053571Y-77282857D02*
X118182142Y-77282857D01*
X118182142Y-77282857D02*
X118267856Y-77325714D01*
X118824999Y-76982857D02*
X118824999Y-77197142D01*
X118610713Y-77111428D02*
X118824999Y-77197142D01*
X118824999Y-77197142D02*
X119039284Y-77111428D01*
X118696427Y-77368571D02*
X118824999Y-77197142D01*
X118824999Y-77197142D02*
X118953570Y-77368571D01*
X109010714Y-79340857D02*
X108496428Y-79340857D01*
X108753571Y-79340857D02*
X108753571Y-78440857D01*
X108753571Y-78440857D02*
X108667857Y-78569428D01*
X108667857Y-78569428D02*
X108582142Y-78655142D01*
X108582142Y-78655142D02*
X108496428Y-78698000D01*
X109782143Y-78740857D02*
X109782143Y-79340857D01*
X109567857Y-78398000D02*
X109353571Y-79040857D01*
X109353571Y-79040857D02*
X109910714Y-79040857D01*
X110982143Y-79340857D02*
X110939286Y-79340857D01*
X110939286Y-79340857D02*
X110853571Y-79298000D01*
X110853571Y-79298000D02*
X110725000Y-79169428D01*
X110725000Y-79169428D02*
X110510714Y-78912285D01*
X110510714Y-78912285D02*
X110425000Y-78783714D01*
X110425000Y-78783714D02*
X110382143Y-78655142D01*
X110382143Y-78655142D02*
X110382143Y-78569428D01*
X110382143Y-78569428D02*
X110425000Y-78483714D01*
X110425000Y-78483714D02*
X110510714Y-78440857D01*
X110510714Y-78440857D02*
X110553571Y-78440857D01*
X110553571Y-78440857D02*
X110639286Y-78483714D01*
X110639286Y-78483714D02*
X110682143Y-78569428D01*
X110682143Y-78569428D02*
X110682143Y-78612285D01*
X110682143Y-78612285D02*
X110639286Y-78698000D01*
X110639286Y-78698000D02*
X110596428Y-78740857D01*
X110596428Y-78740857D02*
X110339286Y-78912285D01*
X110339286Y-78912285D02*
X110296428Y-78955142D01*
X110296428Y-78955142D02*
X110253571Y-79040857D01*
X110253571Y-79040857D02*
X110253571Y-79169428D01*
X110253571Y-79169428D02*
X110296428Y-79255142D01*
X110296428Y-79255142D02*
X110339286Y-79298000D01*
X110339286Y-79298000D02*
X110425000Y-79340857D01*
X110425000Y-79340857D02*
X110553571Y-79340857D01*
X110553571Y-79340857D02*
X110639286Y-79298000D01*
X110639286Y-79298000D02*
X110682143Y-79255142D01*
X110682143Y-79255142D02*
X110810714Y-79083714D01*
X110810714Y-79083714D02*
X110853571Y-78955142D01*
X110853571Y-78955142D02*
X110853571Y-78869428D01*
X111839286Y-79340857D02*
X111325000Y-79340857D01*
X111582143Y-79340857D02*
X111582143Y-78440857D01*
X111582143Y-78440857D02*
X111496429Y-78569428D01*
X111496429Y-78569428D02*
X111410714Y-78655142D01*
X111410714Y-78655142D02*
X111325000Y-78698000D01*
X112653572Y-78440857D02*
X112225000Y-78440857D01*
X112225000Y-78440857D02*
X112182143Y-78869428D01*
X112182143Y-78869428D02*
X112225000Y-78826571D01*
X112225000Y-78826571D02*
X112310715Y-78783714D01*
X112310715Y-78783714D02*
X112525000Y-78783714D01*
X112525000Y-78783714D02*
X112610715Y-78826571D01*
X112610715Y-78826571D02*
X112653572Y-78869428D01*
X112653572Y-78869428D02*
X112696429Y-78955142D01*
X112696429Y-78955142D02*
X112696429Y-79169428D01*
X112696429Y-79169428D02*
X112653572Y-79255142D01*
X112653572Y-79255142D02*
X112610715Y-79298000D01*
X112610715Y-79298000D02*
X112525000Y-79340857D01*
X112525000Y-79340857D02*
X112310715Y-79340857D01*
X112310715Y-79340857D02*
X112225000Y-79298000D01*
X112225000Y-79298000D02*
X112182143Y-79255142D01*
X113082143Y-78998000D02*
X113767858Y-78998000D01*
X113596429Y-79169428D02*
X113767858Y-78998000D01*
X113767858Y-78998000D02*
X113596429Y-78826571D01*
X114196429Y-79340857D02*
X114196429Y-78440857D01*
X114582143Y-78526571D02*
X114625000Y-78483714D01*
X114625000Y-78483714D02*
X114710715Y-78440857D01*
X114710715Y-78440857D02*
X114925000Y-78440857D01*
X114925000Y-78440857D02*
X115010715Y-78483714D01*
X115010715Y-78483714D02*
X115053572Y-78526571D01*
X115053572Y-78526571D02*
X115096429Y-78612285D01*
X115096429Y-78612285D02*
X115096429Y-78698000D01*
X115096429Y-78698000D02*
X115053572Y-78826571D01*
X115053572Y-78826571D02*
X114539286Y-79340857D01*
X114539286Y-79340857D02*
X115096429Y-79340857D01*
X115996429Y-79255142D02*
X115953572Y-79298000D01*
X115953572Y-79298000D02*
X115825000Y-79340857D01*
X115825000Y-79340857D02*
X115739286Y-79340857D01*
X115739286Y-79340857D02*
X115610715Y-79298000D01*
X115610715Y-79298000D02*
X115525000Y-79212285D01*
X115525000Y-79212285D02*
X115482143Y-79126571D01*
X115482143Y-79126571D02*
X115439286Y-78955142D01*
X115439286Y-78955142D02*
X115439286Y-78826571D01*
X115439286Y-78826571D02*
X115482143Y-78655142D01*
X115482143Y-78655142D02*
X115525000Y-78569428D01*
X115525000Y-78569428D02*
X115610715Y-78483714D01*
X115610715Y-78483714D02*
X115739286Y-78440857D01*
X115739286Y-78440857D02*
X115825000Y-78440857D01*
X115825000Y-78440857D02*
X115953572Y-78483714D01*
X115953572Y-78483714D02*
X115996429Y-78526571D01*
X116853572Y-79340857D02*
X116339286Y-79340857D01*
X116596429Y-79340857D02*
X116596429Y-78440857D01*
X116596429Y-78440857D02*
X116510715Y-78569428D01*
X116510715Y-78569428D02*
X116425000Y-78655142D01*
X116425000Y-78655142D02*
X116339286Y-78698000D01*
X118225000Y-78869428D02*
X118353572Y-78912285D01*
X118353572Y-78912285D02*
X118396429Y-78955142D01*
X118396429Y-78955142D02*
X118439286Y-79040857D01*
X118439286Y-79040857D02*
X118439286Y-79169428D01*
X118439286Y-79169428D02*
X118396429Y-79255142D01*
X118396429Y-79255142D02*
X118353572Y-79298000D01*
X118353572Y-79298000D02*
X118267857Y-79340857D01*
X118267857Y-79340857D02*
X117925000Y-79340857D01*
X117925000Y-79340857D02*
X117925000Y-78440857D01*
X117925000Y-78440857D02*
X118225000Y-78440857D01*
X118225000Y-78440857D02*
X118310715Y-78483714D01*
X118310715Y-78483714D02*
X118353572Y-78526571D01*
X118353572Y-78526571D02*
X118396429Y-78612285D01*
X118396429Y-78612285D02*
X118396429Y-78698000D01*
X118396429Y-78698000D02*
X118353572Y-78783714D01*
X118353572Y-78783714D02*
X118310715Y-78826571D01*
X118310715Y-78826571D02*
X118225000Y-78869428D01*
X118225000Y-78869428D02*
X117925000Y-78869428D01*
X119210715Y-78740857D02*
X119210715Y-79340857D01*
X118825000Y-78740857D02*
X118825000Y-79212285D01*
X118825000Y-79212285D02*
X118867857Y-79298000D01*
X118867857Y-79298000D02*
X118953572Y-79340857D01*
X118953572Y-79340857D02*
X119082143Y-79340857D01*
X119082143Y-79340857D02*
X119167857Y-79298000D01*
X119167857Y-79298000D02*
X119210715Y-79255142D01*
X119596429Y-79298000D02*
X119682143Y-79340857D01*
X119682143Y-79340857D02*
X119853572Y-79340857D01*
X119853572Y-79340857D02*
X119939286Y-79298000D01*
X119939286Y-79298000D02*
X119982143Y-79212285D01*
X119982143Y-79212285D02*
X119982143Y-79169428D01*
X119982143Y-79169428D02*
X119939286Y-79083714D01*
X119939286Y-79083714D02*
X119853572Y-79040857D01*
X119853572Y-79040857D02*
X119725001Y-79040857D01*
X119725001Y-79040857D02*
X119639286Y-78998000D01*
X119639286Y-78998000D02*
X119596429Y-78912285D01*
X119596429Y-78912285D02*
X119596429Y-78869428D01*
X119596429Y-78869428D02*
X119639286Y-78783714D01*
X119639286Y-78783714D02*
X119725001Y-78740857D01*
X119725001Y-78740857D02*
X119853572Y-78740857D01*
X119853572Y-78740857D02*
X119939286Y-78783714D01*
X109010714Y-80798857D02*
X108496428Y-80798857D01*
X108753571Y-80798857D02*
X108753571Y-79898857D01*
X108753571Y-79898857D02*
X108667857Y-80027428D01*
X108667857Y-80027428D02*
X108582142Y-80113142D01*
X108582142Y-80113142D02*
X108496428Y-80156000D01*
X109782143Y-79898857D02*
X109610714Y-79898857D01*
X109610714Y-79898857D02*
X109525000Y-79941714D01*
X109525000Y-79941714D02*
X109482143Y-79984571D01*
X109482143Y-79984571D02*
X109396428Y-80113142D01*
X109396428Y-80113142D02*
X109353571Y-80284571D01*
X109353571Y-80284571D02*
X109353571Y-80627428D01*
X109353571Y-80627428D02*
X109396428Y-80713142D01*
X109396428Y-80713142D02*
X109439285Y-80756000D01*
X109439285Y-80756000D02*
X109525000Y-80798857D01*
X109525000Y-80798857D02*
X109696428Y-80798857D01*
X109696428Y-80798857D02*
X109782143Y-80756000D01*
X109782143Y-80756000D02*
X109825000Y-80713142D01*
X109825000Y-80713142D02*
X109867857Y-80627428D01*
X109867857Y-80627428D02*
X109867857Y-80413142D01*
X109867857Y-80413142D02*
X109825000Y-80327428D01*
X109825000Y-80327428D02*
X109782143Y-80284571D01*
X109782143Y-80284571D02*
X109696428Y-80241714D01*
X109696428Y-80241714D02*
X109525000Y-80241714D01*
X109525000Y-80241714D02*
X109439285Y-80284571D01*
X109439285Y-80284571D02*
X109396428Y-80327428D01*
X109396428Y-80327428D02*
X109353571Y-80413142D01*
X110296428Y-80756000D02*
X110296428Y-80798857D01*
X110296428Y-80798857D02*
X110253571Y-80884571D01*
X110253571Y-80884571D02*
X110210714Y-80927428D01*
X111153571Y-80798857D02*
X110639285Y-80798857D01*
X110896428Y-80798857D02*
X110896428Y-79898857D01*
X110896428Y-79898857D02*
X110810714Y-80027428D01*
X110810714Y-80027428D02*
X110724999Y-80113142D01*
X110724999Y-80113142D02*
X110639285Y-80156000D01*
X111453571Y-79898857D02*
X112053571Y-79898857D01*
X112053571Y-79898857D02*
X111667857Y-80798857D01*
X112439285Y-80756000D02*
X112439285Y-80798857D01*
X112439285Y-80798857D02*
X112396428Y-80884571D01*
X112396428Y-80884571D02*
X112353571Y-80927428D01*
X113296428Y-80798857D02*
X112782142Y-80798857D01*
X113039285Y-80798857D02*
X113039285Y-79898857D01*
X113039285Y-79898857D02*
X112953571Y-80027428D01*
X112953571Y-80027428D02*
X112867856Y-80113142D01*
X112867856Y-80113142D02*
X112782142Y-80156000D01*
X113810714Y-80284571D02*
X113724999Y-80241714D01*
X113724999Y-80241714D02*
X113682142Y-80198857D01*
X113682142Y-80198857D02*
X113639285Y-80113142D01*
X113639285Y-80113142D02*
X113639285Y-80070285D01*
X113639285Y-80070285D02*
X113682142Y-79984571D01*
X113682142Y-79984571D02*
X113724999Y-79941714D01*
X113724999Y-79941714D02*
X113810714Y-79898857D01*
X113810714Y-79898857D02*
X113982142Y-79898857D01*
X113982142Y-79898857D02*
X114067857Y-79941714D01*
X114067857Y-79941714D02*
X114110714Y-79984571D01*
X114110714Y-79984571D02*
X114153571Y-80070285D01*
X114153571Y-80070285D02*
X114153571Y-80113142D01*
X114153571Y-80113142D02*
X114110714Y-80198857D01*
X114110714Y-80198857D02*
X114067857Y-80241714D01*
X114067857Y-80241714D02*
X113982142Y-80284571D01*
X113982142Y-80284571D02*
X113810714Y-80284571D01*
X113810714Y-80284571D02*
X113724999Y-80327428D01*
X113724999Y-80327428D02*
X113682142Y-80370285D01*
X113682142Y-80370285D02*
X113639285Y-80456000D01*
X113639285Y-80456000D02*
X113639285Y-80627428D01*
X113639285Y-80627428D02*
X113682142Y-80713142D01*
X113682142Y-80713142D02*
X113724999Y-80756000D01*
X113724999Y-80756000D02*
X113810714Y-80798857D01*
X113810714Y-80798857D02*
X113982142Y-80798857D01*
X113982142Y-80798857D02*
X114067857Y-80756000D01*
X114067857Y-80756000D02*
X114110714Y-80713142D01*
X114110714Y-80713142D02*
X114153571Y-80627428D01*
X114153571Y-80627428D02*
X114153571Y-80456000D01*
X114153571Y-80456000D02*
X114110714Y-80370285D01*
X114110714Y-80370285D02*
X114067857Y-80327428D01*
X114067857Y-80327428D02*
X113982142Y-80284571D01*
X114539285Y-80456000D02*
X115225000Y-80456000D01*
X115053571Y-80627428D02*
X115225000Y-80456000D01*
X115225000Y-80456000D02*
X115053571Y-80284571D01*
X116082143Y-79898857D02*
X115653571Y-79898857D01*
X115653571Y-79898857D02*
X115610714Y-80327428D01*
X115610714Y-80327428D02*
X115653571Y-80284571D01*
X115653571Y-80284571D02*
X115739286Y-80241714D01*
X115739286Y-80241714D02*
X115953571Y-80241714D01*
X115953571Y-80241714D02*
X116039286Y-80284571D01*
X116039286Y-80284571D02*
X116082143Y-80327428D01*
X116082143Y-80327428D02*
X116125000Y-80413142D01*
X116125000Y-80413142D02*
X116125000Y-80627428D01*
X116125000Y-80627428D02*
X116082143Y-80713142D01*
X116082143Y-80713142D02*
X116039286Y-80756000D01*
X116039286Y-80756000D02*
X115953571Y-80798857D01*
X115953571Y-80798857D02*
X115739286Y-80798857D01*
X115739286Y-80798857D02*
X115653571Y-80756000D01*
X115653571Y-80756000D02*
X115610714Y-80713142D01*
X116382143Y-79898857D02*
X116682143Y-80798857D01*
X116682143Y-80798857D02*
X116982143Y-79898857D01*
X117967857Y-80798857D02*
X117967857Y-79898857D01*
X117967857Y-79898857D02*
X118310714Y-79898857D01*
X118310714Y-79898857D02*
X118396429Y-79941714D01*
X118396429Y-79941714D02*
X118439286Y-79984571D01*
X118439286Y-79984571D02*
X118482143Y-80070285D01*
X118482143Y-80070285D02*
X118482143Y-80198857D01*
X118482143Y-80198857D02*
X118439286Y-80284571D01*
X118439286Y-80284571D02*
X118396429Y-80327428D01*
X118396429Y-80327428D02*
X118310714Y-80370285D01*
X118310714Y-80370285D02*
X117967857Y-80370285D01*
X118782143Y-79898857D02*
X118996429Y-80798857D01*
X118996429Y-80798857D02*
X119167857Y-80156000D01*
X119167857Y-80156000D02*
X119339286Y-80798857D01*
X119339286Y-80798857D02*
X119553572Y-79898857D01*
X119896428Y-80798857D02*
X119896428Y-79898857D01*
X119896428Y-79898857D02*
X120196428Y-80541714D01*
X120196428Y-80541714D02*
X120496428Y-79898857D01*
X120496428Y-79898857D02*
X120496428Y-80798857D01*
X108496428Y-81442571D02*
X108539285Y-81399714D01*
X108539285Y-81399714D02*
X108625000Y-81356857D01*
X108625000Y-81356857D02*
X108839285Y-81356857D01*
X108839285Y-81356857D02*
X108925000Y-81399714D01*
X108925000Y-81399714D02*
X108967857Y-81442571D01*
X108967857Y-81442571D02*
X109010714Y-81528285D01*
X109010714Y-81528285D02*
X109010714Y-81614000D01*
X109010714Y-81614000D02*
X108967857Y-81742571D01*
X108967857Y-81742571D02*
X108453571Y-82256857D01*
X108453571Y-82256857D02*
X109010714Y-82256857D01*
X109353571Y-81442571D02*
X109396428Y-81399714D01*
X109396428Y-81399714D02*
X109482143Y-81356857D01*
X109482143Y-81356857D02*
X109696428Y-81356857D01*
X109696428Y-81356857D02*
X109782143Y-81399714D01*
X109782143Y-81399714D02*
X109825000Y-81442571D01*
X109825000Y-81442571D02*
X109867857Y-81528285D01*
X109867857Y-81528285D02*
X109867857Y-81614000D01*
X109867857Y-81614000D02*
X109825000Y-81742571D01*
X109825000Y-81742571D02*
X109310714Y-82256857D01*
X109310714Y-82256857D02*
X109867857Y-82256857D01*
X110253571Y-81914000D02*
X110939286Y-81914000D01*
X110767857Y-82085428D02*
X110939286Y-81914000D01*
X110939286Y-81914000D02*
X110767857Y-81742571D01*
X111667857Y-81785428D02*
X111796429Y-81828285D01*
X111796429Y-81828285D02*
X111839286Y-81871142D01*
X111839286Y-81871142D02*
X111882143Y-81956857D01*
X111882143Y-81956857D02*
X111882143Y-82085428D01*
X111882143Y-82085428D02*
X111839286Y-82171142D01*
X111839286Y-82171142D02*
X111796429Y-82214000D01*
X111796429Y-82214000D02*
X111710714Y-82256857D01*
X111710714Y-82256857D02*
X111367857Y-82256857D01*
X111367857Y-82256857D02*
X111367857Y-81356857D01*
X111367857Y-81356857D02*
X111667857Y-81356857D01*
X111667857Y-81356857D02*
X111753572Y-81399714D01*
X111753572Y-81399714D02*
X111796429Y-81442571D01*
X111796429Y-81442571D02*
X111839286Y-81528285D01*
X111839286Y-81528285D02*
X111839286Y-81614000D01*
X111839286Y-81614000D02*
X111796429Y-81699714D01*
X111796429Y-81699714D02*
X111753572Y-81742571D01*
X111753572Y-81742571D02*
X111667857Y-81785428D01*
X111667857Y-81785428D02*
X111367857Y-81785428D01*
X112653572Y-81656857D02*
X112653572Y-82256857D01*
X112267857Y-81656857D02*
X112267857Y-82128285D01*
X112267857Y-82128285D02*
X112310714Y-82214000D01*
X112310714Y-82214000D02*
X112396429Y-82256857D01*
X112396429Y-82256857D02*
X112525000Y-82256857D01*
X112525000Y-82256857D02*
X112610714Y-82214000D01*
X112610714Y-82214000D02*
X112653572Y-82171142D01*
X112953572Y-81656857D02*
X113296429Y-81656857D01*
X113082143Y-81356857D02*
X113082143Y-82128285D01*
X113082143Y-82128285D02*
X113125000Y-82214000D01*
X113125000Y-82214000D02*
X113210715Y-82256857D01*
X113210715Y-82256857D02*
X113296429Y-82256857D01*
X113467858Y-81656857D02*
X113810715Y-81656857D01*
X113596429Y-81356857D02*
X113596429Y-82128285D01*
X113596429Y-82128285D02*
X113639286Y-82214000D01*
X113639286Y-82214000D02*
X113725001Y-82256857D01*
X113725001Y-82256857D02*
X113810715Y-82256857D01*
X114239287Y-82256857D02*
X114153572Y-82214000D01*
X114153572Y-82214000D02*
X114110715Y-82171142D01*
X114110715Y-82171142D02*
X114067858Y-82085428D01*
X114067858Y-82085428D02*
X114067858Y-81828285D01*
X114067858Y-81828285D02*
X114110715Y-81742571D01*
X114110715Y-81742571D02*
X114153572Y-81699714D01*
X114153572Y-81699714D02*
X114239287Y-81656857D01*
X114239287Y-81656857D02*
X114367858Y-81656857D01*
X114367858Y-81656857D02*
X114453572Y-81699714D01*
X114453572Y-81699714D02*
X114496430Y-81742571D01*
X114496430Y-81742571D02*
X114539287Y-81828285D01*
X114539287Y-81828285D02*
X114539287Y-82085428D01*
X114539287Y-82085428D02*
X114496430Y-82171142D01*
X114496430Y-82171142D02*
X114453572Y-82214000D01*
X114453572Y-82214000D02*
X114367858Y-82256857D01*
X114367858Y-82256857D02*
X114239287Y-82256857D01*
X114925001Y-81656857D02*
X114925001Y-82256857D01*
X114925001Y-81742571D02*
X114967858Y-81699714D01*
X114967858Y-81699714D02*
X115053573Y-81656857D01*
X115053573Y-81656857D02*
X115182144Y-81656857D01*
X115182144Y-81656857D02*
X115267858Y-81699714D01*
X115267858Y-81699714D02*
X115310716Y-81785428D01*
X115310716Y-81785428D02*
X115310716Y-82256857D01*
X108496428Y-82900571D02*
X108539285Y-82857714D01*
X108539285Y-82857714D02*
X108625000Y-82814857D01*
X108625000Y-82814857D02*
X108839285Y-82814857D01*
X108839285Y-82814857D02*
X108925000Y-82857714D01*
X108925000Y-82857714D02*
X108967857Y-82900571D01*
X108967857Y-82900571D02*
X109010714Y-82986285D01*
X109010714Y-82986285D02*
X109010714Y-83072000D01*
X109010714Y-83072000D02*
X108967857Y-83200571D01*
X108967857Y-83200571D02*
X108453571Y-83714857D01*
X108453571Y-83714857D02*
X109010714Y-83714857D01*
X109525000Y-83200571D02*
X109439285Y-83157714D01*
X109439285Y-83157714D02*
X109396428Y-83114857D01*
X109396428Y-83114857D02*
X109353571Y-83029142D01*
X109353571Y-83029142D02*
X109353571Y-82986285D01*
X109353571Y-82986285D02*
X109396428Y-82900571D01*
X109396428Y-82900571D02*
X109439285Y-82857714D01*
X109439285Y-82857714D02*
X109525000Y-82814857D01*
X109525000Y-82814857D02*
X109696428Y-82814857D01*
X109696428Y-82814857D02*
X109782143Y-82857714D01*
X109782143Y-82857714D02*
X109825000Y-82900571D01*
X109825000Y-82900571D02*
X109867857Y-82986285D01*
X109867857Y-82986285D02*
X109867857Y-83029142D01*
X109867857Y-83029142D02*
X109825000Y-83114857D01*
X109825000Y-83114857D02*
X109782143Y-83157714D01*
X109782143Y-83157714D02*
X109696428Y-83200571D01*
X109696428Y-83200571D02*
X109525000Y-83200571D01*
X109525000Y-83200571D02*
X109439285Y-83243428D01*
X109439285Y-83243428D02*
X109396428Y-83286285D01*
X109396428Y-83286285D02*
X109353571Y-83372000D01*
X109353571Y-83372000D02*
X109353571Y-83543428D01*
X109353571Y-83543428D02*
X109396428Y-83629142D01*
X109396428Y-83629142D02*
X109439285Y-83672000D01*
X109439285Y-83672000D02*
X109525000Y-83714857D01*
X109525000Y-83714857D02*
X109696428Y-83714857D01*
X109696428Y-83714857D02*
X109782143Y-83672000D01*
X109782143Y-83672000D02*
X109825000Y-83629142D01*
X109825000Y-83629142D02*
X109867857Y-83543428D01*
X109867857Y-83543428D02*
X109867857Y-83372000D01*
X109867857Y-83372000D02*
X109825000Y-83286285D01*
X109825000Y-83286285D02*
X109782143Y-83243428D01*
X109782143Y-83243428D02*
X109696428Y-83200571D01*
X110253571Y-83372000D02*
X110939286Y-83372000D01*
X110767857Y-83543428D02*
X110939286Y-83372000D01*
X110939286Y-83372000D02*
X110767857Y-83200571D01*
X111367857Y-83714857D02*
X111367857Y-82814857D01*
X111367857Y-82814857D02*
X111710714Y-82814857D01*
X111710714Y-82814857D02*
X111796429Y-82857714D01*
X111796429Y-82857714D02*
X111839286Y-82900571D01*
X111839286Y-82900571D02*
X111882143Y-82986285D01*
X111882143Y-82986285D02*
X111882143Y-83114857D01*
X111882143Y-83114857D02*
X111839286Y-83200571D01*
X111839286Y-83200571D02*
X111796429Y-83243428D01*
X111796429Y-83243428D02*
X111710714Y-83286285D01*
X111710714Y-83286285D02*
X111367857Y-83286285D01*
X112396429Y-83714857D02*
X112310714Y-83672000D01*
X112310714Y-83672000D02*
X112267857Y-83629142D01*
X112267857Y-83629142D02*
X112225000Y-83543428D01*
X112225000Y-83543428D02*
X112225000Y-83286285D01*
X112225000Y-83286285D02*
X112267857Y-83200571D01*
X112267857Y-83200571D02*
X112310714Y-83157714D01*
X112310714Y-83157714D02*
X112396429Y-83114857D01*
X112396429Y-83114857D02*
X112525000Y-83114857D01*
X112525000Y-83114857D02*
X112610714Y-83157714D01*
X112610714Y-83157714D02*
X112653572Y-83200571D01*
X112653572Y-83200571D02*
X112696429Y-83286285D01*
X112696429Y-83286285D02*
X112696429Y-83543428D01*
X112696429Y-83543428D02*
X112653572Y-83629142D01*
X112653572Y-83629142D02*
X112610714Y-83672000D01*
X112610714Y-83672000D02*
X112525000Y-83714857D01*
X112525000Y-83714857D02*
X112396429Y-83714857D01*
X112953572Y-83114857D02*
X113296429Y-83114857D01*
X113082143Y-82814857D02*
X113082143Y-83586285D01*
X113082143Y-83586285D02*
X113125000Y-83672000D01*
X113125000Y-83672000D02*
X113210715Y-83714857D01*
X113210715Y-83714857D02*
X113296429Y-83714857D01*
X113939286Y-83672000D02*
X113853572Y-83714857D01*
X113853572Y-83714857D02*
X113682144Y-83714857D01*
X113682144Y-83714857D02*
X113596429Y-83672000D01*
X113596429Y-83672000D02*
X113553572Y-83586285D01*
X113553572Y-83586285D02*
X113553572Y-83243428D01*
X113553572Y-83243428D02*
X113596429Y-83157714D01*
X113596429Y-83157714D02*
X113682144Y-83114857D01*
X113682144Y-83114857D02*
X113853572Y-83114857D01*
X113853572Y-83114857D02*
X113939286Y-83157714D01*
X113939286Y-83157714D02*
X113982144Y-83243428D01*
X113982144Y-83243428D02*
X113982144Y-83329142D01*
X113982144Y-83329142D02*
X113553572Y-83414857D01*
X114367858Y-83114857D02*
X114367858Y-83714857D01*
X114367858Y-83200571D02*
X114410715Y-83157714D01*
X114410715Y-83157714D02*
X114496430Y-83114857D01*
X114496430Y-83114857D02*
X114625001Y-83114857D01*
X114625001Y-83114857D02*
X114710715Y-83157714D01*
X114710715Y-83157714D02*
X114753573Y-83243428D01*
X114753573Y-83243428D02*
X114753573Y-83714857D01*
X115053573Y-83114857D02*
X115396430Y-83114857D01*
X115182144Y-82814857D02*
X115182144Y-83586285D01*
X115182144Y-83586285D02*
X115225001Y-83672000D01*
X115225001Y-83672000D02*
X115310716Y-83714857D01*
X115310716Y-83714857D02*
X115396430Y-83714857D01*
X115696430Y-83714857D02*
X115696430Y-83114857D01*
X115696430Y-82814857D02*
X115653573Y-82857714D01*
X115653573Y-82857714D02*
X115696430Y-82900571D01*
X115696430Y-82900571D02*
X115739287Y-82857714D01*
X115739287Y-82857714D02*
X115696430Y-82814857D01*
X115696430Y-82814857D02*
X115696430Y-82900571D01*
X116253573Y-83714857D02*
X116167858Y-83672000D01*
X116167858Y-83672000D02*
X116125001Y-83629142D01*
X116125001Y-83629142D02*
X116082144Y-83543428D01*
X116082144Y-83543428D02*
X116082144Y-83286285D01*
X116082144Y-83286285D02*
X116125001Y-83200571D01*
X116125001Y-83200571D02*
X116167858Y-83157714D01*
X116167858Y-83157714D02*
X116253573Y-83114857D01*
X116253573Y-83114857D02*
X116382144Y-83114857D01*
X116382144Y-83114857D02*
X116467858Y-83157714D01*
X116467858Y-83157714D02*
X116510716Y-83200571D01*
X116510716Y-83200571D02*
X116553573Y-83286285D01*
X116553573Y-83286285D02*
X116553573Y-83543428D01*
X116553573Y-83543428D02*
X116510716Y-83629142D01*
X116510716Y-83629142D02*
X116467858Y-83672000D01*
X116467858Y-83672000D02*
X116382144Y-83714857D01*
X116382144Y-83714857D02*
X116253573Y-83714857D01*
X116939287Y-83714857D02*
X116939287Y-83114857D01*
X116939287Y-83200571D02*
X116982144Y-83157714D01*
X116982144Y-83157714D02*
X117067859Y-83114857D01*
X117067859Y-83114857D02*
X117196430Y-83114857D01*
X117196430Y-83114857D02*
X117282144Y-83157714D01*
X117282144Y-83157714D02*
X117325002Y-83243428D01*
X117325002Y-83243428D02*
X117325002Y-83714857D01*
X117325002Y-83243428D02*
X117367859Y-83157714D01*
X117367859Y-83157714D02*
X117453573Y-83114857D01*
X117453573Y-83114857D02*
X117582144Y-83114857D01*
X117582144Y-83114857D02*
X117667859Y-83157714D01*
X117667859Y-83157714D02*
X117710716Y-83243428D01*
X117710716Y-83243428D02*
X117710716Y-83714857D01*
X118482144Y-83672000D02*
X118396430Y-83714857D01*
X118396430Y-83714857D02*
X118225002Y-83714857D01*
X118225002Y-83714857D02*
X118139287Y-83672000D01*
X118139287Y-83672000D02*
X118096430Y-83586285D01*
X118096430Y-83586285D02*
X118096430Y-83243428D01*
X118096430Y-83243428D02*
X118139287Y-83157714D01*
X118139287Y-83157714D02*
X118225002Y-83114857D01*
X118225002Y-83114857D02*
X118396430Y-83114857D01*
X118396430Y-83114857D02*
X118482144Y-83157714D01*
X118482144Y-83157714D02*
X118525002Y-83243428D01*
X118525002Y-83243428D02*
X118525002Y-83329142D01*
X118525002Y-83329142D02*
X118096430Y-83414857D01*
X118782145Y-83114857D02*
X119125002Y-83114857D01*
X118910716Y-82814857D02*
X118910716Y-83586285D01*
X118910716Y-83586285D02*
X118953573Y-83672000D01*
X118953573Y-83672000D02*
X119039288Y-83714857D01*
X119039288Y-83714857D02*
X119125002Y-83714857D01*
X119767859Y-83672000D02*
X119682145Y-83714857D01*
X119682145Y-83714857D02*
X119510717Y-83714857D01*
X119510717Y-83714857D02*
X119425002Y-83672000D01*
X119425002Y-83672000D02*
X119382145Y-83586285D01*
X119382145Y-83586285D02*
X119382145Y-83243428D01*
X119382145Y-83243428D02*
X119425002Y-83157714D01*
X119425002Y-83157714D02*
X119510717Y-83114857D01*
X119510717Y-83114857D02*
X119682145Y-83114857D01*
X119682145Y-83114857D02*
X119767859Y-83157714D01*
X119767859Y-83157714D02*
X119810717Y-83243428D01*
X119810717Y-83243428D02*
X119810717Y-83329142D01*
X119810717Y-83329142D02*
X119382145Y-83414857D01*
X120196431Y-83714857D02*
X120196431Y-83114857D01*
X120196431Y-83286285D02*
X120239288Y-83200571D01*
X120239288Y-83200571D02*
X120282146Y-83157714D01*
X120282146Y-83157714D02*
X120367860Y-83114857D01*
X120367860Y-83114857D02*
X120453574Y-83114857D01*
D12*
X79099478Y-44637604D02*
X79234165Y-44570261D01*
X79234165Y-44570261D02*
X79402524Y-44401902D01*
X79402524Y-44401902D02*
X79436196Y-44300887D01*
X79436196Y-44300887D02*
X79436196Y-44233543D01*
X79436196Y-44233543D02*
X79402524Y-44132528D01*
X79402524Y-44132528D02*
X79335181Y-44065185D01*
X79335181Y-44065185D02*
X79234165Y-44031513D01*
X79234165Y-44031513D02*
X79166822Y-44031513D01*
X79166822Y-44031513D02*
X79065807Y-44065185D01*
X79065807Y-44065185D02*
X78897448Y-44166200D01*
X78897448Y-44166200D02*
X78796433Y-44199872D01*
X78796433Y-44199872D02*
X78729089Y-44199872D01*
X78729089Y-44199872D02*
X78628074Y-44166200D01*
X78628074Y-44166200D02*
X78560730Y-44098856D01*
X78560730Y-44098856D02*
X78527059Y-43997841D01*
X78527059Y-43997841D02*
X78527059Y-43930498D01*
X78527059Y-43930498D02*
X78560730Y-43829482D01*
X78560730Y-43829482D02*
X78729089Y-43661124D01*
X78729089Y-43661124D02*
X78863776Y-43593780D01*
X79840257Y-43964169D02*
X79133150Y-43257062D01*
X79133150Y-43257062D02*
X79301509Y-43088704D01*
X79301509Y-43088704D02*
X79436196Y-43021360D01*
X79436196Y-43021360D02*
X79570883Y-43021360D01*
X79570883Y-43021360D02*
X79671898Y-43055032D01*
X79671898Y-43055032D02*
X79840257Y-43156047D01*
X79840257Y-43156047D02*
X79941272Y-43257062D01*
X79941272Y-43257062D02*
X80042287Y-43425421D01*
X80042287Y-43425421D02*
X80075959Y-43526437D01*
X80075959Y-43526437D02*
X80075959Y-43661124D01*
X80075959Y-43661124D02*
X80008616Y-43795811D01*
X80008616Y-43795811D02*
X79840257Y-43964169D01*
X80311661Y-43088704D02*
X80648379Y-42751986D01*
X80446348Y-43358078D02*
X79974944Y-42415269D01*
X79974944Y-42415269D02*
X80917753Y-42886673D01*
X126852619Y-82536904D02*
X125852619Y-82536904D01*
X125852619Y-82536904D02*
X126566904Y-82203571D01*
X126566904Y-82203571D02*
X125852619Y-81870238D01*
X125852619Y-81870238D02*
X126852619Y-81870238D01*
X125852619Y-81536904D02*
X125852619Y-80965476D01*
X126852619Y-81251190D02*
X125852619Y-81251190D01*
X126852619Y-80060714D02*
X126376428Y-80394047D01*
X126852619Y-80632142D02*
X125852619Y-80632142D01*
X125852619Y-80632142D02*
X125852619Y-80251190D01*
X125852619Y-80251190D02*
X125900238Y-80155952D01*
X125900238Y-80155952D02*
X125947857Y-80108333D01*
X125947857Y-80108333D02*
X126043095Y-80060714D01*
X126043095Y-80060714D02*
X126185952Y-80060714D01*
X126185952Y-80060714D02*
X126281190Y-80108333D01*
X126281190Y-80108333D02*
X126328809Y-80155952D01*
X126328809Y-80155952D02*
X126376428Y-80251190D01*
X126376428Y-80251190D02*
X126376428Y-80632142D01*
X126852619Y-79632142D02*
X125852619Y-79632142D01*
X125852619Y-79632142D02*
X125852619Y-79251190D01*
X125852619Y-79251190D02*
X125900238Y-79155952D01*
X125900238Y-79155952D02*
X125947857Y-79108333D01*
X125947857Y-79108333D02*
X126043095Y-79060714D01*
X126043095Y-79060714D02*
X126185952Y-79060714D01*
X126185952Y-79060714D02*
X126281190Y-79108333D01*
X126281190Y-79108333D02*
X126328809Y-79155952D01*
X126328809Y-79155952D02*
X126376428Y-79251190D01*
X126376428Y-79251190D02*
X126376428Y-79632142D01*
X125852619Y-78727380D02*
X126852619Y-78489285D01*
X126852619Y-78489285D02*
X126138333Y-78298809D01*
X126138333Y-78298809D02*
X126852619Y-78108333D01*
X126852619Y-78108333D02*
X125852619Y-77870238D01*
X126852619Y-76917857D02*
X126376428Y-77251190D01*
X126852619Y-77489285D02*
X125852619Y-77489285D01*
X125852619Y-77489285D02*
X125852619Y-77108333D01*
X125852619Y-77108333D02*
X125900238Y-77013095D01*
X125900238Y-77013095D02*
X125947857Y-76965476D01*
X125947857Y-76965476D02*
X126043095Y-76917857D01*
X126043095Y-76917857D02*
X126185952Y-76917857D01*
X126185952Y-76917857D02*
X126281190Y-76965476D01*
X126281190Y-76965476D02*
X126328809Y-77013095D01*
X126328809Y-77013095D02*
X126376428Y-77108333D01*
X126376428Y-77108333D02*
X126376428Y-77489285D01*
X99201904Y-32505238D02*
X99106666Y-32457619D01*
X99106666Y-32457619D02*
X98963809Y-32457619D01*
X98963809Y-32457619D02*
X98820952Y-32505238D01*
X98820952Y-32505238D02*
X98725714Y-32600476D01*
X98725714Y-32600476D02*
X98678095Y-32695714D01*
X98678095Y-32695714D02*
X98630476Y-32886190D01*
X98630476Y-32886190D02*
X98630476Y-33029047D01*
X98630476Y-33029047D02*
X98678095Y-33219523D01*
X98678095Y-33219523D02*
X98725714Y-33314761D01*
X98725714Y-33314761D02*
X98820952Y-33410000D01*
X98820952Y-33410000D02*
X98963809Y-33457619D01*
X98963809Y-33457619D02*
X99059047Y-33457619D01*
X99059047Y-33457619D02*
X99201904Y-33410000D01*
X99201904Y-33410000D02*
X99249523Y-33362380D01*
X99249523Y-33362380D02*
X99249523Y-33029047D01*
X99249523Y-33029047D02*
X99059047Y-33029047D01*
X99678095Y-33457619D02*
X99678095Y-32457619D01*
X99678095Y-32457619D02*
X100059047Y-32457619D01*
X100059047Y-32457619D02*
X100154285Y-32505238D01*
X100154285Y-32505238D02*
X100201904Y-32552857D01*
X100201904Y-32552857D02*
X100249523Y-32648095D01*
X100249523Y-32648095D02*
X100249523Y-32790952D01*
X100249523Y-32790952D02*
X100201904Y-32886190D01*
X100201904Y-32886190D02*
X100154285Y-32933809D01*
X100154285Y-32933809D02*
X100059047Y-32981428D01*
X100059047Y-32981428D02*
X99678095Y-32981428D01*
X100678095Y-33457619D02*
X100678095Y-32457619D01*
X101344761Y-32457619D02*
X101535237Y-32457619D01*
X101535237Y-32457619D02*
X101630475Y-32505238D01*
X101630475Y-32505238D02*
X101725713Y-32600476D01*
X101725713Y-32600476D02*
X101773332Y-32790952D01*
X101773332Y-32790952D02*
X101773332Y-33124285D01*
X101773332Y-33124285D02*
X101725713Y-33314761D01*
X101725713Y-33314761D02*
X101630475Y-33410000D01*
X101630475Y-33410000D02*
X101535237Y-33457619D01*
X101535237Y-33457619D02*
X101344761Y-33457619D01*
X101344761Y-33457619D02*
X101249523Y-33410000D01*
X101249523Y-33410000D02*
X101154285Y-33314761D01*
X101154285Y-33314761D02*
X101106666Y-33124285D01*
X101106666Y-33124285D02*
X101106666Y-32790952D01*
X101106666Y-32790952D02*
X101154285Y-32600476D01*
X101154285Y-32600476D02*
X101249523Y-32505238D01*
X101249523Y-32505238D02*
X101344761Y-32457619D01*
X78930952Y-61277619D02*
X78930952Y-61515714D01*
X78692857Y-61420476D02*
X78930952Y-61515714D01*
X78930952Y-61515714D02*
X79169047Y-61420476D01*
X78788095Y-61706190D02*
X78930952Y-61515714D01*
X78930952Y-61515714D02*
X79073809Y-61706190D01*
X79502381Y-61372857D02*
X79550000Y-61325238D01*
X79550000Y-61325238D02*
X79645238Y-61277619D01*
X79645238Y-61277619D02*
X79883333Y-61277619D01*
X79883333Y-61277619D02*
X79978571Y-61325238D01*
X79978571Y-61325238D02*
X80026190Y-61372857D01*
X80026190Y-61372857D02*
X80073809Y-61468095D01*
X80073809Y-61468095D02*
X80073809Y-61563333D01*
X80073809Y-61563333D02*
X80026190Y-61706190D01*
X80026190Y-61706190D02*
X79454762Y-62277619D01*
X79454762Y-62277619D02*
X80073809Y-62277619D01*
X80454762Y-61372857D02*
X80502381Y-61325238D01*
X80502381Y-61325238D02*
X80597619Y-61277619D01*
X80597619Y-61277619D02*
X80835714Y-61277619D01*
X80835714Y-61277619D02*
X80930952Y-61325238D01*
X80930952Y-61325238D02*
X80978571Y-61372857D01*
X80978571Y-61372857D02*
X81026190Y-61468095D01*
X81026190Y-61468095D02*
X81026190Y-61563333D01*
X81026190Y-61563333D02*
X80978571Y-61706190D01*
X80978571Y-61706190D02*
X80407143Y-62277619D01*
X80407143Y-62277619D02*
X81026190Y-62277619D01*
X120553387Y-71846513D02*
X120553387Y-71779169D01*
X120553387Y-71779169D02*
X120587059Y-71678154D01*
X120587059Y-71678154D02*
X120755417Y-71509795D01*
X120755417Y-71509795D02*
X120856433Y-71476124D01*
X120856433Y-71476124D02*
X120923776Y-71476124D01*
X120923776Y-71476124D02*
X121024791Y-71509795D01*
X121024791Y-71509795D02*
X121092135Y-71577139D01*
X121092135Y-71577139D02*
X121159478Y-71711826D01*
X121159478Y-71711826D02*
X121159478Y-72519948D01*
X121159478Y-72519948D02*
X121597211Y-72082215D01*
X121496196Y-70769017D02*
X121361509Y-70903704D01*
X121361509Y-70903704D02*
X121327837Y-71004719D01*
X121327837Y-71004719D02*
X121327837Y-71072062D01*
X121327837Y-71072062D02*
X121361509Y-71240421D01*
X121361509Y-71240421D02*
X121462524Y-71408780D01*
X121462524Y-71408780D02*
X121731898Y-71678154D01*
X121731898Y-71678154D02*
X121832913Y-71711826D01*
X121832913Y-71711826D02*
X121900257Y-71711826D01*
X121900257Y-71711826D02*
X122001272Y-71678154D01*
X122001272Y-71678154D02*
X122135959Y-71543467D01*
X122135959Y-71543467D02*
X122169631Y-71442452D01*
X122169631Y-71442452D02*
X122169631Y-71375108D01*
X122169631Y-71375108D02*
X122135959Y-71274093D01*
X122135959Y-71274093D02*
X121967600Y-71105734D01*
X121967600Y-71105734D02*
X121866585Y-71072062D01*
X121866585Y-71072062D02*
X121799242Y-71072062D01*
X121799242Y-71072062D02*
X121698226Y-71105734D01*
X121698226Y-71105734D02*
X121563539Y-71240421D01*
X121563539Y-71240421D02*
X121529868Y-71341437D01*
X121529868Y-71341437D02*
X121529868Y-71408780D01*
X121529868Y-71408780D02*
X121563539Y-71509795D01*
X138760887Y-30126513D02*
X138760887Y-30059169D01*
X138760887Y-30059169D02*
X138794559Y-29958154D01*
X138794559Y-29958154D02*
X138962917Y-29789795D01*
X138962917Y-29789795D02*
X139063933Y-29756124D01*
X139063933Y-29756124D02*
X139131276Y-29756124D01*
X139131276Y-29756124D02*
X139232291Y-29789795D01*
X139232291Y-29789795D02*
X139299635Y-29857139D01*
X139299635Y-29857139D02*
X139366978Y-29991826D01*
X139366978Y-29991826D02*
X139366978Y-30799948D01*
X139366978Y-30799948D02*
X139804711Y-30362215D01*
D10*
X88706668Y-83527666D02*
X88673335Y-83561000D01*
X88673335Y-83561000D02*
X88573335Y-83594333D01*
X88573335Y-83594333D02*
X88506668Y-83594333D01*
X88506668Y-83594333D02*
X88406668Y-83561000D01*
X88406668Y-83561000D02*
X88340002Y-83494333D01*
X88340002Y-83494333D02*
X88306668Y-83427666D01*
X88306668Y-83427666D02*
X88273335Y-83294333D01*
X88273335Y-83294333D02*
X88273335Y-83194333D01*
X88273335Y-83194333D02*
X88306668Y-83061000D01*
X88306668Y-83061000D02*
X88340002Y-82994333D01*
X88340002Y-82994333D02*
X88406668Y-82927666D01*
X88406668Y-82927666D02*
X88506668Y-82894333D01*
X88506668Y-82894333D02*
X88573335Y-82894333D01*
X88573335Y-82894333D02*
X88673335Y-82927666D01*
X88673335Y-82927666D02*
X88706668Y-82961000D01*
X89106668Y-83594333D02*
X89040002Y-83561000D01*
X89040002Y-83561000D02*
X89006668Y-83527666D01*
X89006668Y-83527666D02*
X88973335Y-83461000D01*
X88973335Y-83461000D02*
X88973335Y-83261000D01*
X88973335Y-83261000D02*
X89006668Y-83194333D01*
X89006668Y-83194333D02*
X89040002Y-83161000D01*
X89040002Y-83161000D02*
X89106668Y-83127666D01*
X89106668Y-83127666D02*
X89206668Y-83127666D01*
X89206668Y-83127666D02*
X89273335Y-83161000D01*
X89273335Y-83161000D02*
X89306668Y-83194333D01*
X89306668Y-83194333D02*
X89340002Y-83261000D01*
X89340002Y-83261000D02*
X89340002Y-83461000D01*
X89340002Y-83461000D02*
X89306668Y-83527666D01*
X89306668Y-83527666D02*
X89273335Y-83561000D01*
X89273335Y-83561000D02*
X89206668Y-83594333D01*
X89206668Y-83594333D02*
X89106668Y-83594333D01*
X89640001Y-83127666D02*
X89640001Y-83594333D01*
X89640001Y-83194333D02*
X89673335Y-83161000D01*
X89673335Y-83161000D02*
X89740001Y-83127666D01*
X89740001Y-83127666D02*
X89840001Y-83127666D01*
X89840001Y-83127666D02*
X89906668Y-83161000D01*
X89906668Y-83161000D02*
X89940001Y-83227666D01*
X89940001Y-83227666D02*
X89940001Y-83594333D01*
X90273334Y-83127666D02*
X90273334Y-83594333D01*
X90273334Y-83194333D02*
X90306668Y-83161000D01*
X90306668Y-83161000D02*
X90373334Y-83127666D01*
X90373334Y-83127666D02*
X90473334Y-83127666D01*
X90473334Y-83127666D02*
X90540001Y-83161000D01*
X90540001Y-83161000D02*
X90573334Y-83227666D01*
X90573334Y-83227666D02*
X90573334Y-83594333D01*
X91173334Y-83561000D02*
X91106667Y-83594333D01*
X91106667Y-83594333D02*
X90973334Y-83594333D01*
X90973334Y-83594333D02*
X90906667Y-83561000D01*
X90906667Y-83561000D02*
X90873334Y-83494333D01*
X90873334Y-83494333D02*
X90873334Y-83227666D01*
X90873334Y-83227666D02*
X90906667Y-83161000D01*
X90906667Y-83161000D02*
X90973334Y-83127666D01*
X90973334Y-83127666D02*
X91106667Y-83127666D01*
X91106667Y-83127666D02*
X91173334Y-83161000D01*
X91173334Y-83161000D02*
X91206667Y-83227666D01*
X91206667Y-83227666D02*
X91206667Y-83294333D01*
X91206667Y-83294333D02*
X90873334Y-83361000D01*
X91806667Y-83561000D02*
X91740001Y-83594333D01*
X91740001Y-83594333D02*
X91606667Y-83594333D01*
X91606667Y-83594333D02*
X91540001Y-83561000D01*
X91540001Y-83561000D02*
X91506667Y-83527666D01*
X91506667Y-83527666D02*
X91473334Y-83461000D01*
X91473334Y-83461000D02*
X91473334Y-83261000D01*
X91473334Y-83261000D02*
X91506667Y-83194333D01*
X91506667Y-83194333D02*
X91540001Y-83161000D01*
X91540001Y-83161000D02*
X91606667Y-83127666D01*
X91606667Y-83127666D02*
X91740001Y-83127666D01*
X91740001Y-83127666D02*
X91806667Y-83161000D01*
X92006667Y-83127666D02*
X92273334Y-83127666D01*
X92106667Y-82894333D02*
X92106667Y-83494333D01*
X92106667Y-83494333D02*
X92140001Y-83561000D01*
X92140001Y-83561000D02*
X92206667Y-83594333D01*
X92206667Y-83594333D02*
X92273334Y-83594333D01*
X92606667Y-83594333D02*
X92540001Y-83561000D01*
X92540001Y-83561000D02*
X92506667Y-83527666D01*
X92506667Y-83527666D02*
X92473334Y-83461000D01*
X92473334Y-83461000D02*
X92473334Y-83261000D01*
X92473334Y-83261000D02*
X92506667Y-83194333D01*
X92506667Y-83194333D02*
X92540001Y-83161000D01*
X92540001Y-83161000D02*
X92606667Y-83127666D01*
X92606667Y-83127666D02*
X92706667Y-83127666D01*
X92706667Y-83127666D02*
X92773334Y-83161000D01*
X92773334Y-83161000D02*
X92806667Y-83194333D01*
X92806667Y-83194333D02*
X92840001Y-83261000D01*
X92840001Y-83261000D02*
X92840001Y-83461000D01*
X92840001Y-83461000D02*
X92806667Y-83527666D01*
X92806667Y-83527666D02*
X92773334Y-83561000D01*
X92773334Y-83561000D02*
X92706667Y-83594333D01*
X92706667Y-83594333D02*
X92606667Y-83594333D01*
X93140000Y-83594333D02*
X93140000Y-83127666D01*
X93140000Y-83261000D02*
X93173334Y-83194333D01*
X93173334Y-83194333D02*
X93206667Y-83161000D01*
X93206667Y-83161000D02*
X93273334Y-83127666D01*
X93273334Y-83127666D02*
X93340000Y-83127666D01*
X94073333Y-83561000D02*
X94173333Y-83594333D01*
X94173333Y-83594333D02*
X94340000Y-83594333D01*
X94340000Y-83594333D02*
X94406666Y-83561000D01*
X94406666Y-83561000D02*
X94440000Y-83527666D01*
X94440000Y-83527666D02*
X94473333Y-83461000D01*
X94473333Y-83461000D02*
X94473333Y-83394333D01*
X94473333Y-83394333D02*
X94440000Y-83327666D01*
X94440000Y-83327666D02*
X94406666Y-83294333D01*
X94406666Y-83294333D02*
X94340000Y-83261000D01*
X94340000Y-83261000D02*
X94206666Y-83227666D01*
X94206666Y-83227666D02*
X94140000Y-83194333D01*
X94140000Y-83194333D02*
X94106666Y-83161000D01*
X94106666Y-83161000D02*
X94073333Y-83094333D01*
X94073333Y-83094333D02*
X94073333Y-83027666D01*
X94073333Y-83027666D02*
X94106666Y-82961000D01*
X94106666Y-82961000D02*
X94140000Y-82927666D01*
X94140000Y-82927666D02*
X94206666Y-82894333D01*
X94206666Y-82894333D02*
X94373333Y-82894333D01*
X94373333Y-82894333D02*
X94473333Y-82927666D01*
X94673333Y-83127666D02*
X94940000Y-83127666D01*
X94773333Y-82894333D02*
X94773333Y-83494333D01*
X94773333Y-83494333D02*
X94806667Y-83561000D01*
X94806667Y-83561000D02*
X94873333Y-83594333D01*
X94873333Y-83594333D02*
X94940000Y-83594333D01*
X95273333Y-83594333D02*
X95206667Y-83561000D01*
X95206667Y-83561000D02*
X95173333Y-83527666D01*
X95173333Y-83527666D02*
X95140000Y-83461000D01*
X95140000Y-83461000D02*
X95140000Y-83261000D01*
X95140000Y-83261000D02*
X95173333Y-83194333D01*
X95173333Y-83194333D02*
X95206667Y-83161000D01*
X95206667Y-83161000D02*
X95273333Y-83127666D01*
X95273333Y-83127666D02*
X95373333Y-83127666D01*
X95373333Y-83127666D02*
X95440000Y-83161000D01*
X95440000Y-83161000D02*
X95473333Y-83194333D01*
X95473333Y-83194333D02*
X95506667Y-83261000D01*
X95506667Y-83261000D02*
X95506667Y-83461000D01*
X95506667Y-83461000D02*
X95473333Y-83527666D01*
X95473333Y-83527666D02*
X95440000Y-83561000D01*
X95440000Y-83561000D02*
X95373333Y-83594333D01*
X95373333Y-83594333D02*
X95273333Y-83594333D01*
X95806666Y-83594333D02*
X95806666Y-83127666D01*
X95806666Y-83261000D02*
X95840000Y-83194333D01*
X95840000Y-83194333D02*
X95873333Y-83161000D01*
X95873333Y-83161000D02*
X95940000Y-83127666D01*
X95940000Y-83127666D02*
X96006666Y-83127666D01*
X96539999Y-83594333D02*
X96539999Y-83227666D01*
X96539999Y-83227666D02*
X96506666Y-83161000D01*
X96506666Y-83161000D02*
X96439999Y-83127666D01*
X96439999Y-83127666D02*
X96306666Y-83127666D01*
X96306666Y-83127666D02*
X96239999Y-83161000D01*
X96539999Y-83561000D02*
X96473333Y-83594333D01*
X96473333Y-83594333D02*
X96306666Y-83594333D01*
X96306666Y-83594333D02*
X96239999Y-83561000D01*
X96239999Y-83561000D02*
X96206666Y-83494333D01*
X96206666Y-83494333D02*
X96206666Y-83427666D01*
X96206666Y-83427666D02*
X96239999Y-83361000D01*
X96239999Y-83361000D02*
X96306666Y-83327666D01*
X96306666Y-83327666D02*
X96473333Y-83327666D01*
X96473333Y-83327666D02*
X96539999Y-83294333D01*
X97173332Y-83127666D02*
X97173332Y-83694333D01*
X97173332Y-83694333D02*
X97139999Y-83761000D01*
X97139999Y-83761000D02*
X97106666Y-83794333D01*
X97106666Y-83794333D02*
X97039999Y-83827666D01*
X97039999Y-83827666D02*
X96939999Y-83827666D01*
X96939999Y-83827666D02*
X96873332Y-83794333D01*
X97173332Y-83561000D02*
X97106666Y-83594333D01*
X97106666Y-83594333D02*
X96973332Y-83594333D01*
X96973332Y-83594333D02*
X96906666Y-83561000D01*
X96906666Y-83561000D02*
X96873332Y-83527666D01*
X96873332Y-83527666D02*
X96839999Y-83461000D01*
X96839999Y-83461000D02*
X96839999Y-83261000D01*
X96839999Y-83261000D02*
X96873332Y-83194333D01*
X96873332Y-83194333D02*
X96906666Y-83161000D01*
X96906666Y-83161000D02*
X96973332Y-83127666D01*
X96973332Y-83127666D02*
X97106666Y-83127666D01*
X97106666Y-83127666D02*
X97173332Y-83161000D01*
X97773332Y-83561000D02*
X97706665Y-83594333D01*
X97706665Y-83594333D02*
X97573332Y-83594333D01*
X97573332Y-83594333D02*
X97506665Y-83561000D01*
X97506665Y-83561000D02*
X97473332Y-83494333D01*
X97473332Y-83494333D02*
X97473332Y-83227666D01*
X97473332Y-83227666D02*
X97506665Y-83161000D01*
X97506665Y-83161000D02*
X97573332Y-83127666D01*
X97573332Y-83127666D02*
X97706665Y-83127666D01*
X97706665Y-83127666D02*
X97773332Y-83161000D01*
X97773332Y-83161000D02*
X97806665Y-83227666D01*
X97806665Y-83227666D02*
X97806665Y-83294333D01*
X97806665Y-83294333D02*
X97473332Y-83361000D01*
D12*
X78552372Y-51547841D02*
X78990104Y-51110108D01*
X78990104Y-51110108D02*
X79023776Y-51615185D01*
X79023776Y-51615185D02*
X79124791Y-51514169D01*
X79124791Y-51514169D02*
X79225807Y-51480498D01*
X79225807Y-51480498D02*
X79293150Y-51480498D01*
X79293150Y-51480498D02*
X79394165Y-51514169D01*
X79394165Y-51514169D02*
X79562524Y-51682528D01*
X79562524Y-51682528D02*
X79596196Y-51783543D01*
X79596196Y-51783543D02*
X79596196Y-51850887D01*
X79596196Y-51850887D02*
X79562524Y-51951902D01*
X79562524Y-51951902D02*
X79360494Y-52153933D01*
X79360494Y-52153933D02*
X79259478Y-52187604D01*
X79259478Y-52187604D02*
X79192135Y-52187604D01*
X79192135Y-50908078D02*
X80134944Y-51379482D01*
X80134944Y-51379482D02*
X79663539Y-50436673D01*
X79831898Y-50268314D02*
X80269631Y-49830582D01*
X80269631Y-49830582D02*
X80303303Y-50335658D01*
X80303303Y-50335658D02*
X80404318Y-50234643D01*
X80404318Y-50234643D02*
X80505333Y-50200971D01*
X80505333Y-50200971D02*
X80572677Y-50200971D01*
X80572677Y-50200971D02*
X80673692Y-50234643D01*
X80673692Y-50234643D02*
X80842051Y-50403001D01*
X80842051Y-50403001D02*
X80875723Y-50504017D01*
X80875723Y-50504017D02*
X80875723Y-50571360D01*
X80875723Y-50571360D02*
X80842051Y-50672375D01*
X80842051Y-50672375D02*
X80640020Y-50874406D01*
X80640020Y-50874406D02*
X80539005Y-50908078D01*
X80539005Y-50908078D02*
X80471662Y-50908078D01*
X111852211Y-30384715D02*
X111448150Y-30788776D01*
X111650181Y-30586746D02*
X110943074Y-29879639D01*
X110943074Y-29879639D02*
X110976746Y-30047998D01*
X110976746Y-30047998D02*
X110976746Y-30182685D01*
X110976746Y-30182685D02*
X110943074Y-30283700D01*
X111582837Y-29239875D02*
X111650181Y-29172532D01*
X111650181Y-29172532D02*
X111751196Y-29138860D01*
X111751196Y-29138860D02*
X111818539Y-29138860D01*
X111818539Y-29138860D02*
X111919555Y-29172532D01*
X111919555Y-29172532D02*
X112087913Y-29273547D01*
X112087913Y-29273547D02*
X112256272Y-29441906D01*
X112256272Y-29441906D02*
X112357287Y-29610265D01*
X112357287Y-29610265D02*
X112390959Y-29711280D01*
X112390959Y-29711280D02*
X112390959Y-29778624D01*
X112390959Y-29778624D02*
X112357287Y-29879639D01*
X112357287Y-29879639D02*
X112289944Y-29946982D01*
X112289944Y-29946982D02*
X112188929Y-29980654D01*
X112188929Y-29980654D02*
X112121585Y-29980654D01*
X112121585Y-29980654D02*
X112020570Y-29946982D01*
X112020570Y-29946982D02*
X111852211Y-29845967D01*
X111852211Y-29845967D02*
X111683852Y-29677608D01*
X111683852Y-29677608D02*
X111582837Y-29509250D01*
X111582837Y-29509250D02*
X111549165Y-29408234D01*
X111549165Y-29408234D02*
X111549165Y-29340891D01*
X111549165Y-29340891D02*
X111582837Y-29239875D01*
X136119872Y-30222841D02*
X136557604Y-29785108D01*
X136557604Y-29785108D02*
X136591276Y-30290185D01*
X136591276Y-30290185D02*
X136692291Y-30189169D01*
X136692291Y-30189169D02*
X136793307Y-30155498D01*
X136793307Y-30155498D02*
X136860650Y-30155498D01*
X136860650Y-30155498D02*
X136961665Y-30189169D01*
X136961665Y-30189169D02*
X137130024Y-30357528D01*
X137130024Y-30357528D02*
X137163696Y-30458543D01*
X137163696Y-30458543D02*
X137163696Y-30525887D01*
X137163696Y-30525887D02*
X137130024Y-30626902D01*
X137130024Y-30626902D02*
X136927994Y-30828933D01*
X136927994Y-30828933D02*
X136826978Y-30862604D01*
X136826978Y-30862604D02*
X136759635Y-30862604D01*
%TO.C,D3*%
X131661905Y-77587619D02*
X131661905Y-76587619D01*
X131661905Y-76587619D02*
X131900000Y-76587619D01*
X131900000Y-76587619D02*
X132042857Y-76635238D01*
X132042857Y-76635238D02*
X132138095Y-76730476D01*
X132138095Y-76730476D02*
X132185714Y-76825714D01*
X132185714Y-76825714D02*
X132233333Y-77016190D01*
X132233333Y-77016190D02*
X132233333Y-77159047D01*
X132233333Y-77159047D02*
X132185714Y-77349523D01*
X132185714Y-77349523D02*
X132138095Y-77444761D01*
X132138095Y-77444761D02*
X132042857Y-77540000D01*
X132042857Y-77540000D02*
X131900000Y-77587619D01*
X131900000Y-77587619D02*
X131661905Y-77587619D01*
X132566667Y-76587619D02*
X133185714Y-76587619D01*
X133185714Y-76587619D02*
X132852381Y-76968571D01*
X132852381Y-76968571D02*
X132995238Y-76968571D01*
X132995238Y-76968571D02*
X133090476Y-77016190D01*
X133090476Y-77016190D02*
X133138095Y-77063809D01*
X133138095Y-77063809D02*
X133185714Y-77159047D01*
X133185714Y-77159047D02*
X133185714Y-77397142D01*
X133185714Y-77397142D02*
X133138095Y-77492380D01*
X133138095Y-77492380D02*
X133090476Y-77540000D01*
X133090476Y-77540000D02*
X132995238Y-77587619D01*
X132995238Y-77587619D02*
X132709524Y-77587619D01*
X132709524Y-77587619D02*
X132614286Y-77540000D01*
X132614286Y-77540000D02*
X132566667Y-77492380D01*
%TO.C,U1*%
X127738095Y-47412619D02*
X127738095Y-48222142D01*
X127738095Y-48222142D02*
X127785714Y-48317380D01*
X127785714Y-48317380D02*
X127833333Y-48365000D01*
X127833333Y-48365000D02*
X127928571Y-48412619D01*
X127928571Y-48412619D02*
X128119047Y-48412619D01*
X128119047Y-48412619D02*
X128214285Y-48365000D01*
X128214285Y-48365000D02*
X128261904Y-48317380D01*
X128261904Y-48317380D02*
X128309523Y-48222142D01*
X128309523Y-48222142D02*
X128309523Y-47412619D01*
X129309523Y-48412619D02*
X128738095Y-48412619D01*
X129023809Y-48412619D02*
X129023809Y-47412619D01*
X129023809Y-47412619D02*
X128928571Y-47555476D01*
X128928571Y-47555476D02*
X128833333Y-47650714D01*
X128833333Y-47650714D02*
X128738095Y-47698333D01*
%TO.C,R1*%
X127237619Y-46691666D02*
X126761428Y-47024999D01*
X127237619Y-47263094D02*
X126237619Y-47263094D01*
X126237619Y-47263094D02*
X126237619Y-46882142D01*
X126237619Y-46882142D02*
X126285238Y-46786904D01*
X126285238Y-46786904D02*
X126332857Y-46739285D01*
X126332857Y-46739285D02*
X126428095Y-46691666D01*
X126428095Y-46691666D02*
X126570952Y-46691666D01*
X126570952Y-46691666D02*
X126666190Y-46739285D01*
X126666190Y-46739285D02*
X126713809Y-46786904D01*
X126713809Y-46786904D02*
X126761428Y-46882142D01*
X126761428Y-46882142D02*
X126761428Y-47263094D01*
X127237619Y-45739285D02*
X127237619Y-46310713D01*
X127237619Y-46024999D02*
X126237619Y-46024999D01*
X126237619Y-46024999D02*
X126380476Y-46120237D01*
X126380476Y-46120237D02*
X126475714Y-46215475D01*
X126475714Y-46215475D02*
X126523333Y-46310713D01*
%TO.C,TP1*%
X80713095Y-72762619D02*
X81284523Y-72762619D01*
X80998809Y-73762619D02*
X80998809Y-72762619D01*
X81617857Y-73762619D02*
X81617857Y-72762619D01*
X81617857Y-72762619D02*
X81998809Y-72762619D01*
X81998809Y-72762619D02*
X82094047Y-72810238D01*
X82094047Y-72810238D02*
X82141666Y-72857857D01*
X82141666Y-72857857D02*
X82189285Y-72953095D01*
X82189285Y-72953095D02*
X82189285Y-73095952D01*
X82189285Y-73095952D02*
X82141666Y-73191190D01*
X82141666Y-73191190D02*
X82094047Y-73238809D01*
X82094047Y-73238809D02*
X81998809Y-73286428D01*
X81998809Y-73286428D02*
X81617857Y-73286428D01*
X83141666Y-73762619D02*
X82570238Y-73762619D01*
X82855952Y-73762619D02*
X82855952Y-72762619D01*
X82855952Y-72762619D02*
X82760714Y-72905476D01*
X82760714Y-72905476D02*
X82665476Y-73000714D01*
X82665476Y-73000714D02*
X82570238Y-73048333D01*
%TO.C,Q3*%
X99104761Y-53677857D02*
X99009523Y-53630238D01*
X99009523Y-53630238D02*
X98914285Y-53535000D01*
X98914285Y-53535000D02*
X98771428Y-53392142D01*
X98771428Y-53392142D02*
X98676190Y-53344523D01*
X98676190Y-53344523D02*
X98580952Y-53344523D01*
X98628571Y-53582619D02*
X98533333Y-53535000D01*
X98533333Y-53535000D02*
X98438095Y-53439761D01*
X98438095Y-53439761D02*
X98390476Y-53249285D01*
X98390476Y-53249285D02*
X98390476Y-52915952D01*
X98390476Y-52915952D02*
X98438095Y-52725476D01*
X98438095Y-52725476D02*
X98533333Y-52630238D01*
X98533333Y-52630238D02*
X98628571Y-52582619D01*
X98628571Y-52582619D02*
X98819047Y-52582619D01*
X98819047Y-52582619D02*
X98914285Y-52630238D01*
X98914285Y-52630238D02*
X99009523Y-52725476D01*
X99009523Y-52725476D02*
X99057142Y-52915952D01*
X99057142Y-52915952D02*
X99057142Y-53249285D01*
X99057142Y-53249285D02*
X99009523Y-53439761D01*
X99009523Y-53439761D02*
X98914285Y-53535000D01*
X98914285Y-53535000D02*
X98819047Y-53582619D01*
X98819047Y-53582619D02*
X98628571Y-53582619D01*
X99390476Y-52582619D02*
X100009523Y-52582619D01*
X100009523Y-52582619D02*
X99676190Y-52963571D01*
X99676190Y-52963571D02*
X99819047Y-52963571D01*
X99819047Y-52963571D02*
X99914285Y-53011190D01*
X99914285Y-53011190D02*
X99961904Y-53058809D01*
X99961904Y-53058809D02*
X100009523Y-53154047D01*
X100009523Y-53154047D02*
X100009523Y-53392142D01*
X100009523Y-53392142D02*
X99961904Y-53487380D01*
X99961904Y-53487380D02*
X99914285Y-53535000D01*
X99914285Y-53535000D02*
X99819047Y-53582619D01*
X99819047Y-53582619D02*
X99533333Y-53582619D01*
X99533333Y-53582619D02*
X99438095Y-53535000D01*
X99438095Y-53535000D02*
X99390476Y-53487380D01*
%TO.C,D1*%
X132611905Y-37362619D02*
X132611905Y-36362619D01*
X132611905Y-36362619D02*
X132850000Y-36362619D01*
X132850000Y-36362619D02*
X132992857Y-36410238D01*
X132992857Y-36410238D02*
X133088095Y-36505476D01*
X133088095Y-36505476D02*
X133135714Y-36600714D01*
X133135714Y-36600714D02*
X133183333Y-36791190D01*
X133183333Y-36791190D02*
X133183333Y-36934047D01*
X133183333Y-36934047D02*
X133135714Y-37124523D01*
X133135714Y-37124523D02*
X133088095Y-37219761D01*
X133088095Y-37219761D02*
X132992857Y-37315000D01*
X132992857Y-37315000D02*
X132850000Y-37362619D01*
X132850000Y-37362619D02*
X132611905Y-37362619D01*
X134135714Y-37362619D02*
X133564286Y-37362619D01*
X133850000Y-37362619D02*
X133850000Y-36362619D01*
X133850000Y-36362619D02*
X133754762Y-36505476D01*
X133754762Y-36505476D02*
X133659524Y-36600714D01*
X133659524Y-36600714D02*
X133564286Y-36648333D01*
%TO.C,C2*%
X139382380Y-54391666D02*
X139430000Y-54439285D01*
X139430000Y-54439285D02*
X139477619Y-54582142D01*
X139477619Y-54582142D02*
X139477619Y-54677380D01*
X139477619Y-54677380D02*
X139430000Y-54820237D01*
X139430000Y-54820237D02*
X139334761Y-54915475D01*
X139334761Y-54915475D02*
X139239523Y-54963094D01*
X139239523Y-54963094D02*
X139049047Y-55010713D01*
X139049047Y-55010713D02*
X138906190Y-55010713D01*
X138906190Y-55010713D02*
X138715714Y-54963094D01*
X138715714Y-54963094D02*
X138620476Y-54915475D01*
X138620476Y-54915475D02*
X138525238Y-54820237D01*
X138525238Y-54820237D02*
X138477619Y-54677380D01*
X138477619Y-54677380D02*
X138477619Y-54582142D01*
X138477619Y-54582142D02*
X138525238Y-54439285D01*
X138525238Y-54439285D02*
X138572857Y-54391666D01*
X138572857Y-54010713D02*
X138525238Y-53963094D01*
X138525238Y-53963094D02*
X138477619Y-53867856D01*
X138477619Y-53867856D02*
X138477619Y-53629761D01*
X138477619Y-53629761D02*
X138525238Y-53534523D01*
X138525238Y-53534523D02*
X138572857Y-53486904D01*
X138572857Y-53486904D02*
X138668095Y-53439285D01*
X138668095Y-53439285D02*
X138763333Y-53439285D01*
X138763333Y-53439285D02*
X138906190Y-53486904D01*
X138906190Y-53486904D02*
X139477619Y-54058332D01*
X139477619Y-54058332D02*
X139477619Y-53439285D01*
%TO.C,C9*%
X108557505Y-45114166D02*
X108605125Y-45161785D01*
X108605125Y-45161785D02*
X108652744Y-45304642D01*
X108652744Y-45304642D02*
X108652744Y-45399880D01*
X108652744Y-45399880D02*
X108605125Y-45542737D01*
X108605125Y-45542737D02*
X108509886Y-45637975D01*
X108509886Y-45637975D02*
X108414648Y-45685594D01*
X108414648Y-45685594D02*
X108224172Y-45733213D01*
X108224172Y-45733213D02*
X108081315Y-45733213D01*
X108081315Y-45733213D02*
X107890839Y-45685594D01*
X107890839Y-45685594D02*
X107795601Y-45637975D01*
X107795601Y-45637975D02*
X107700363Y-45542737D01*
X107700363Y-45542737D02*
X107652744Y-45399880D01*
X107652744Y-45399880D02*
X107652744Y-45304642D01*
X107652744Y-45304642D02*
X107700363Y-45161785D01*
X107700363Y-45161785D02*
X107747982Y-45114166D01*
X108652744Y-44637975D02*
X108652744Y-44447499D01*
X108652744Y-44447499D02*
X108605125Y-44352261D01*
X108605125Y-44352261D02*
X108557505Y-44304642D01*
X108557505Y-44304642D02*
X108414648Y-44209404D01*
X108414648Y-44209404D02*
X108224172Y-44161785D01*
X108224172Y-44161785D02*
X107843220Y-44161785D01*
X107843220Y-44161785D02*
X107747982Y-44209404D01*
X107747982Y-44209404D02*
X107700363Y-44257023D01*
X107700363Y-44257023D02*
X107652744Y-44352261D01*
X107652744Y-44352261D02*
X107652744Y-44542737D01*
X107652744Y-44542737D02*
X107700363Y-44637975D01*
X107700363Y-44637975D02*
X107747982Y-44685594D01*
X107747982Y-44685594D02*
X107843220Y-44733213D01*
X107843220Y-44733213D02*
X108081315Y-44733213D01*
X108081315Y-44733213D02*
X108176553Y-44685594D01*
X108176553Y-44685594D02*
X108224172Y-44637975D01*
X108224172Y-44637975D02*
X108271791Y-44542737D01*
X108271791Y-44542737D02*
X108271791Y-44352261D01*
X108271791Y-44352261D02*
X108224172Y-44257023D01*
X108224172Y-44257023D02*
X108176553Y-44209404D01*
X108176553Y-44209404D02*
X108081315Y-44161785D01*
%TO.C,U2*%
X101363095Y-43712619D02*
X101363095Y-44522142D01*
X101363095Y-44522142D02*
X101410714Y-44617380D01*
X101410714Y-44617380D02*
X101458333Y-44665000D01*
X101458333Y-44665000D02*
X101553571Y-44712619D01*
X101553571Y-44712619D02*
X101744047Y-44712619D01*
X101744047Y-44712619D02*
X101839285Y-44665000D01*
X101839285Y-44665000D02*
X101886904Y-44617380D01*
X101886904Y-44617380D02*
X101934523Y-44522142D01*
X101934523Y-44522142D02*
X101934523Y-43712619D01*
X102363095Y-43807857D02*
X102410714Y-43760238D01*
X102410714Y-43760238D02*
X102505952Y-43712619D01*
X102505952Y-43712619D02*
X102744047Y-43712619D01*
X102744047Y-43712619D02*
X102839285Y-43760238D01*
X102839285Y-43760238D02*
X102886904Y-43807857D01*
X102886904Y-43807857D02*
X102934523Y-43903095D01*
X102934523Y-43903095D02*
X102934523Y-43998333D01*
X102934523Y-43998333D02*
X102886904Y-44141190D01*
X102886904Y-44141190D02*
X102315476Y-44712619D01*
X102315476Y-44712619D02*
X102934523Y-44712619D01*
X99900000Y-44012619D02*
X99900000Y-44250714D01*
X99661905Y-44155476D02*
X99900000Y-44250714D01*
X99900000Y-44250714D02*
X100138095Y-44155476D01*
X99757143Y-44441190D02*
X99900000Y-44250714D01*
X99900000Y-44250714D02*
X100042857Y-44441190D01*
%TO.C,R4*%
X134387619Y-83366666D02*
X133911428Y-83699999D01*
X134387619Y-83938094D02*
X133387619Y-83938094D01*
X133387619Y-83938094D02*
X133387619Y-83557142D01*
X133387619Y-83557142D02*
X133435238Y-83461904D01*
X133435238Y-83461904D02*
X133482857Y-83414285D01*
X133482857Y-83414285D02*
X133578095Y-83366666D01*
X133578095Y-83366666D02*
X133720952Y-83366666D01*
X133720952Y-83366666D02*
X133816190Y-83414285D01*
X133816190Y-83414285D02*
X133863809Y-83461904D01*
X133863809Y-83461904D02*
X133911428Y-83557142D01*
X133911428Y-83557142D02*
X133911428Y-83938094D01*
X133720952Y-82509523D02*
X134387619Y-82509523D01*
X133340000Y-82747618D02*
X134054285Y-82985713D01*
X134054285Y-82985713D02*
X134054285Y-82366666D01*
%TO.C,R6*%
X107723333Y-51832619D02*
X107390000Y-51356428D01*
X107151905Y-51832619D02*
X107151905Y-50832619D01*
X107151905Y-50832619D02*
X107532857Y-50832619D01*
X107532857Y-50832619D02*
X107628095Y-50880238D01*
X107628095Y-50880238D02*
X107675714Y-50927857D01*
X107675714Y-50927857D02*
X107723333Y-51023095D01*
X107723333Y-51023095D02*
X107723333Y-51165952D01*
X107723333Y-51165952D02*
X107675714Y-51261190D01*
X107675714Y-51261190D02*
X107628095Y-51308809D01*
X107628095Y-51308809D02*
X107532857Y-51356428D01*
X107532857Y-51356428D02*
X107151905Y-51356428D01*
X108580476Y-50832619D02*
X108390000Y-50832619D01*
X108390000Y-50832619D02*
X108294762Y-50880238D01*
X108294762Y-50880238D02*
X108247143Y-50927857D01*
X108247143Y-50927857D02*
X108151905Y-51070714D01*
X108151905Y-51070714D02*
X108104286Y-51261190D01*
X108104286Y-51261190D02*
X108104286Y-51642142D01*
X108104286Y-51642142D02*
X108151905Y-51737380D01*
X108151905Y-51737380D02*
X108199524Y-51785000D01*
X108199524Y-51785000D02*
X108294762Y-51832619D01*
X108294762Y-51832619D02*
X108485238Y-51832619D01*
X108485238Y-51832619D02*
X108580476Y-51785000D01*
X108580476Y-51785000D02*
X108628095Y-51737380D01*
X108628095Y-51737380D02*
X108675714Y-51642142D01*
X108675714Y-51642142D02*
X108675714Y-51404047D01*
X108675714Y-51404047D02*
X108628095Y-51308809D01*
X108628095Y-51308809D02*
X108580476Y-51261190D01*
X108580476Y-51261190D02*
X108485238Y-51213571D01*
X108485238Y-51213571D02*
X108294762Y-51213571D01*
X108294762Y-51213571D02*
X108199524Y-51261190D01*
X108199524Y-51261190D02*
X108151905Y-51308809D01*
X108151905Y-51308809D02*
X108104286Y-51404047D01*
%TO.C,C5*%
X127583333Y-72617380D02*
X127535714Y-72665000D01*
X127535714Y-72665000D02*
X127392857Y-72712619D01*
X127392857Y-72712619D02*
X127297619Y-72712619D01*
X127297619Y-72712619D02*
X127154762Y-72665000D01*
X127154762Y-72665000D02*
X127059524Y-72569761D01*
X127059524Y-72569761D02*
X127011905Y-72474523D01*
X127011905Y-72474523D02*
X126964286Y-72284047D01*
X126964286Y-72284047D02*
X126964286Y-72141190D01*
X126964286Y-72141190D02*
X127011905Y-71950714D01*
X127011905Y-71950714D02*
X127059524Y-71855476D01*
X127059524Y-71855476D02*
X127154762Y-71760238D01*
X127154762Y-71760238D02*
X127297619Y-71712619D01*
X127297619Y-71712619D02*
X127392857Y-71712619D01*
X127392857Y-71712619D02*
X127535714Y-71760238D01*
X127535714Y-71760238D02*
X127583333Y-71807857D01*
X128488095Y-71712619D02*
X128011905Y-71712619D01*
X128011905Y-71712619D02*
X127964286Y-72188809D01*
X127964286Y-72188809D02*
X128011905Y-72141190D01*
X128011905Y-72141190D02*
X128107143Y-72093571D01*
X128107143Y-72093571D02*
X128345238Y-72093571D01*
X128345238Y-72093571D02*
X128440476Y-72141190D01*
X128440476Y-72141190D02*
X128488095Y-72188809D01*
X128488095Y-72188809D02*
X128535714Y-72284047D01*
X128535714Y-72284047D02*
X128535714Y-72522142D01*
X128535714Y-72522142D02*
X128488095Y-72617380D01*
X128488095Y-72617380D02*
X128440476Y-72665000D01*
X128440476Y-72665000D02*
X128345238Y-72712619D01*
X128345238Y-72712619D02*
X128107143Y-72712619D01*
X128107143Y-72712619D02*
X128011905Y-72665000D01*
X128011905Y-72665000D02*
X127964286Y-72617380D01*
%TO.C,R2*%
X124283333Y-51292619D02*
X123950000Y-50816428D01*
X123711905Y-51292619D02*
X123711905Y-50292619D01*
X123711905Y-50292619D02*
X124092857Y-50292619D01*
X124092857Y-50292619D02*
X124188095Y-50340238D01*
X124188095Y-50340238D02*
X124235714Y-50387857D01*
X124235714Y-50387857D02*
X124283333Y-50483095D01*
X124283333Y-50483095D02*
X124283333Y-50625952D01*
X124283333Y-50625952D02*
X124235714Y-50721190D01*
X124235714Y-50721190D02*
X124188095Y-50768809D01*
X124188095Y-50768809D02*
X124092857Y-50816428D01*
X124092857Y-50816428D02*
X123711905Y-50816428D01*
X124664286Y-50387857D02*
X124711905Y-50340238D01*
X124711905Y-50340238D02*
X124807143Y-50292619D01*
X124807143Y-50292619D02*
X125045238Y-50292619D01*
X125045238Y-50292619D02*
X125140476Y-50340238D01*
X125140476Y-50340238D02*
X125188095Y-50387857D01*
X125188095Y-50387857D02*
X125235714Y-50483095D01*
X125235714Y-50483095D02*
X125235714Y-50578333D01*
X125235714Y-50578333D02*
X125188095Y-50721190D01*
X125188095Y-50721190D02*
X124616667Y-51292619D01*
X124616667Y-51292619D02*
X125235714Y-51292619D01*
%TO.C,R10*%
X95767142Y-52012619D02*
X95433809Y-51536428D01*
X95195714Y-52012619D02*
X95195714Y-51012619D01*
X95195714Y-51012619D02*
X95576666Y-51012619D01*
X95576666Y-51012619D02*
X95671904Y-51060238D01*
X95671904Y-51060238D02*
X95719523Y-51107857D01*
X95719523Y-51107857D02*
X95767142Y-51203095D01*
X95767142Y-51203095D02*
X95767142Y-51345952D01*
X95767142Y-51345952D02*
X95719523Y-51441190D01*
X95719523Y-51441190D02*
X95671904Y-51488809D01*
X95671904Y-51488809D02*
X95576666Y-51536428D01*
X95576666Y-51536428D02*
X95195714Y-51536428D01*
X96719523Y-52012619D02*
X96148095Y-52012619D01*
X96433809Y-52012619D02*
X96433809Y-51012619D01*
X96433809Y-51012619D02*
X96338571Y-51155476D01*
X96338571Y-51155476D02*
X96243333Y-51250714D01*
X96243333Y-51250714D02*
X96148095Y-51298333D01*
X97338571Y-51012619D02*
X97433809Y-51012619D01*
X97433809Y-51012619D02*
X97529047Y-51060238D01*
X97529047Y-51060238D02*
X97576666Y-51107857D01*
X97576666Y-51107857D02*
X97624285Y-51203095D01*
X97624285Y-51203095D02*
X97671904Y-51393571D01*
X97671904Y-51393571D02*
X97671904Y-51631666D01*
X97671904Y-51631666D02*
X97624285Y-51822142D01*
X97624285Y-51822142D02*
X97576666Y-51917380D01*
X97576666Y-51917380D02*
X97529047Y-51965000D01*
X97529047Y-51965000D02*
X97433809Y-52012619D01*
X97433809Y-52012619D02*
X97338571Y-52012619D01*
X97338571Y-52012619D02*
X97243333Y-51965000D01*
X97243333Y-51965000D02*
X97195714Y-51917380D01*
X97195714Y-51917380D02*
X97148095Y-51822142D01*
X97148095Y-51822142D02*
X97100476Y-51631666D01*
X97100476Y-51631666D02*
X97100476Y-51393571D01*
X97100476Y-51393571D02*
X97148095Y-51203095D01*
X97148095Y-51203095D02*
X97195714Y-51107857D01*
X97195714Y-51107857D02*
X97243333Y-51060238D01*
X97243333Y-51060238D02*
X97338571Y-51012619D01*
%TO.C,R8*%
X101843333Y-52142619D02*
X101510000Y-51666428D01*
X101271905Y-52142619D02*
X101271905Y-51142619D01*
X101271905Y-51142619D02*
X101652857Y-51142619D01*
X101652857Y-51142619D02*
X101748095Y-51190238D01*
X101748095Y-51190238D02*
X101795714Y-51237857D01*
X101795714Y-51237857D02*
X101843333Y-51333095D01*
X101843333Y-51333095D02*
X101843333Y-51475952D01*
X101843333Y-51475952D02*
X101795714Y-51571190D01*
X101795714Y-51571190D02*
X101748095Y-51618809D01*
X101748095Y-51618809D02*
X101652857Y-51666428D01*
X101652857Y-51666428D02*
X101271905Y-51666428D01*
X102414762Y-51571190D02*
X102319524Y-51523571D01*
X102319524Y-51523571D02*
X102271905Y-51475952D01*
X102271905Y-51475952D02*
X102224286Y-51380714D01*
X102224286Y-51380714D02*
X102224286Y-51333095D01*
X102224286Y-51333095D02*
X102271905Y-51237857D01*
X102271905Y-51237857D02*
X102319524Y-51190238D01*
X102319524Y-51190238D02*
X102414762Y-51142619D01*
X102414762Y-51142619D02*
X102605238Y-51142619D01*
X102605238Y-51142619D02*
X102700476Y-51190238D01*
X102700476Y-51190238D02*
X102748095Y-51237857D01*
X102748095Y-51237857D02*
X102795714Y-51333095D01*
X102795714Y-51333095D02*
X102795714Y-51380714D01*
X102795714Y-51380714D02*
X102748095Y-51475952D01*
X102748095Y-51475952D02*
X102700476Y-51523571D01*
X102700476Y-51523571D02*
X102605238Y-51571190D01*
X102605238Y-51571190D02*
X102414762Y-51571190D01*
X102414762Y-51571190D02*
X102319524Y-51618809D01*
X102319524Y-51618809D02*
X102271905Y-51666428D01*
X102271905Y-51666428D02*
X102224286Y-51761666D01*
X102224286Y-51761666D02*
X102224286Y-51952142D01*
X102224286Y-51952142D02*
X102271905Y-52047380D01*
X102271905Y-52047380D02*
X102319524Y-52095000D01*
X102319524Y-52095000D02*
X102414762Y-52142619D01*
X102414762Y-52142619D02*
X102605238Y-52142619D01*
X102605238Y-52142619D02*
X102700476Y-52095000D01*
X102700476Y-52095000D02*
X102748095Y-52047380D01*
X102748095Y-52047380D02*
X102795714Y-51952142D01*
X102795714Y-51952142D02*
X102795714Y-51761666D01*
X102795714Y-51761666D02*
X102748095Y-51666428D01*
X102748095Y-51666428D02*
X102700476Y-51618809D01*
X102700476Y-51618809D02*
X102605238Y-51571190D01*
%TO.C,Q1*%
X110604761Y-53647857D02*
X110509523Y-53600238D01*
X110509523Y-53600238D02*
X110414285Y-53505000D01*
X110414285Y-53505000D02*
X110271428Y-53362142D01*
X110271428Y-53362142D02*
X110176190Y-53314523D01*
X110176190Y-53314523D02*
X110080952Y-53314523D01*
X110128571Y-53552619D02*
X110033333Y-53505000D01*
X110033333Y-53505000D02*
X109938095Y-53409761D01*
X109938095Y-53409761D02*
X109890476Y-53219285D01*
X109890476Y-53219285D02*
X109890476Y-52885952D01*
X109890476Y-52885952D02*
X109938095Y-52695476D01*
X109938095Y-52695476D02*
X110033333Y-52600238D01*
X110033333Y-52600238D02*
X110128571Y-52552619D01*
X110128571Y-52552619D02*
X110319047Y-52552619D01*
X110319047Y-52552619D02*
X110414285Y-52600238D01*
X110414285Y-52600238D02*
X110509523Y-52695476D01*
X110509523Y-52695476D02*
X110557142Y-52885952D01*
X110557142Y-52885952D02*
X110557142Y-53219285D01*
X110557142Y-53219285D02*
X110509523Y-53409761D01*
X110509523Y-53409761D02*
X110414285Y-53505000D01*
X110414285Y-53505000D02*
X110319047Y-53552619D01*
X110319047Y-53552619D02*
X110128571Y-53552619D01*
X111509523Y-53552619D02*
X110938095Y-53552619D01*
X111223809Y-53552619D02*
X111223809Y-52552619D01*
X111223809Y-52552619D02*
X111128571Y-52695476D01*
X111128571Y-52695476D02*
X111033333Y-52790714D01*
X111033333Y-52790714D02*
X110938095Y-52838333D01*
%TO.C,C1*%
X130058333Y-46217380D02*
X130010714Y-46265000D01*
X130010714Y-46265000D02*
X129867857Y-46312619D01*
X129867857Y-46312619D02*
X129772619Y-46312619D01*
X129772619Y-46312619D02*
X129629762Y-46265000D01*
X129629762Y-46265000D02*
X129534524Y-46169761D01*
X129534524Y-46169761D02*
X129486905Y-46074523D01*
X129486905Y-46074523D02*
X129439286Y-45884047D01*
X129439286Y-45884047D02*
X129439286Y-45741190D01*
X129439286Y-45741190D02*
X129486905Y-45550714D01*
X129486905Y-45550714D02*
X129534524Y-45455476D01*
X129534524Y-45455476D02*
X129629762Y-45360238D01*
X129629762Y-45360238D02*
X129772619Y-45312619D01*
X129772619Y-45312619D02*
X129867857Y-45312619D01*
X129867857Y-45312619D02*
X130010714Y-45360238D01*
X130010714Y-45360238D02*
X130058333Y-45407857D01*
X131010714Y-46312619D02*
X130439286Y-46312619D01*
X130725000Y-46312619D02*
X130725000Y-45312619D01*
X130725000Y-45312619D02*
X130629762Y-45455476D01*
X130629762Y-45455476D02*
X130534524Y-45550714D01*
X130534524Y-45550714D02*
X130439286Y-45598333D01*
%TO.C,C7*%
X143258333Y-57317380D02*
X143210714Y-57365000D01*
X143210714Y-57365000D02*
X143067857Y-57412619D01*
X143067857Y-57412619D02*
X142972619Y-57412619D01*
X142972619Y-57412619D02*
X142829762Y-57365000D01*
X142829762Y-57365000D02*
X142734524Y-57269761D01*
X142734524Y-57269761D02*
X142686905Y-57174523D01*
X142686905Y-57174523D02*
X142639286Y-56984047D01*
X142639286Y-56984047D02*
X142639286Y-56841190D01*
X142639286Y-56841190D02*
X142686905Y-56650714D01*
X142686905Y-56650714D02*
X142734524Y-56555476D01*
X142734524Y-56555476D02*
X142829762Y-56460238D01*
X142829762Y-56460238D02*
X142972619Y-56412619D01*
X142972619Y-56412619D02*
X143067857Y-56412619D01*
X143067857Y-56412619D02*
X143210714Y-56460238D01*
X143210714Y-56460238D02*
X143258333Y-56507857D01*
X143591667Y-56412619D02*
X144258333Y-56412619D01*
X144258333Y-56412619D02*
X143829762Y-57412619D01*
%TO.C,R7*%
X103573333Y-58712619D02*
X103240000Y-58236428D01*
X103001905Y-58712619D02*
X103001905Y-57712619D01*
X103001905Y-57712619D02*
X103382857Y-57712619D01*
X103382857Y-57712619D02*
X103478095Y-57760238D01*
X103478095Y-57760238D02*
X103525714Y-57807857D01*
X103525714Y-57807857D02*
X103573333Y-57903095D01*
X103573333Y-57903095D02*
X103573333Y-58045952D01*
X103573333Y-58045952D02*
X103525714Y-58141190D01*
X103525714Y-58141190D02*
X103478095Y-58188809D01*
X103478095Y-58188809D02*
X103382857Y-58236428D01*
X103382857Y-58236428D02*
X103001905Y-58236428D01*
X103906667Y-57712619D02*
X104573333Y-57712619D01*
X104573333Y-57712619D02*
X104144762Y-58712619D01*
%TO.C,R3*%
X129883333Y-37437619D02*
X129550000Y-36961428D01*
X129311905Y-37437619D02*
X129311905Y-36437619D01*
X129311905Y-36437619D02*
X129692857Y-36437619D01*
X129692857Y-36437619D02*
X129788095Y-36485238D01*
X129788095Y-36485238D02*
X129835714Y-36532857D01*
X129835714Y-36532857D02*
X129883333Y-36628095D01*
X129883333Y-36628095D02*
X129883333Y-36770952D01*
X129883333Y-36770952D02*
X129835714Y-36866190D01*
X129835714Y-36866190D02*
X129788095Y-36913809D01*
X129788095Y-36913809D02*
X129692857Y-36961428D01*
X129692857Y-36961428D02*
X129311905Y-36961428D01*
X130216667Y-36437619D02*
X130835714Y-36437619D01*
X130835714Y-36437619D02*
X130502381Y-36818571D01*
X130502381Y-36818571D02*
X130645238Y-36818571D01*
X130645238Y-36818571D02*
X130740476Y-36866190D01*
X130740476Y-36866190D02*
X130788095Y-36913809D01*
X130788095Y-36913809D02*
X130835714Y-37009047D01*
X130835714Y-37009047D02*
X130835714Y-37247142D01*
X130835714Y-37247142D02*
X130788095Y-37342380D01*
X130788095Y-37342380D02*
X130740476Y-37390000D01*
X130740476Y-37390000D02*
X130645238Y-37437619D01*
X130645238Y-37437619D02*
X130359524Y-37437619D01*
X130359524Y-37437619D02*
X130264286Y-37390000D01*
X130264286Y-37390000D02*
X130216667Y-37342380D01*
%TO.C,C4*%
X128233333Y-55317380D02*
X128185714Y-55365000D01*
X128185714Y-55365000D02*
X128042857Y-55412619D01*
X128042857Y-55412619D02*
X127947619Y-55412619D01*
X127947619Y-55412619D02*
X127804762Y-55365000D01*
X127804762Y-55365000D02*
X127709524Y-55269761D01*
X127709524Y-55269761D02*
X127661905Y-55174523D01*
X127661905Y-55174523D02*
X127614286Y-54984047D01*
X127614286Y-54984047D02*
X127614286Y-54841190D01*
X127614286Y-54841190D02*
X127661905Y-54650714D01*
X127661905Y-54650714D02*
X127709524Y-54555476D01*
X127709524Y-54555476D02*
X127804762Y-54460238D01*
X127804762Y-54460238D02*
X127947619Y-54412619D01*
X127947619Y-54412619D02*
X128042857Y-54412619D01*
X128042857Y-54412619D02*
X128185714Y-54460238D01*
X128185714Y-54460238D02*
X128233333Y-54507857D01*
X129090476Y-54745952D02*
X129090476Y-55412619D01*
X128852381Y-54365000D02*
X128614286Y-55079285D01*
X128614286Y-55079285D02*
X129233333Y-55079285D01*
%TO.C,Q2*%
X104794761Y-53657857D02*
X104699523Y-53610238D01*
X104699523Y-53610238D02*
X104604285Y-53515000D01*
X104604285Y-53515000D02*
X104461428Y-53372142D01*
X104461428Y-53372142D02*
X104366190Y-53324523D01*
X104366190Y-53324523D02*
X104270952Y-53324523D01*
X104318571Y-53562619D02*
X104223333Y-53515000D01*
X104223333Y-53515000D02*
X104128095Y-53419761D01*
X104128095Y-53419761D02*
X104080476Y-53229285D01*
X104080476Y-53229285D02*
X104080476Y-52895952D01*
X104080476Y-52895952D02*
X104128095Y-52705476D01*
X104128095Y-52705476D02*
X104223333Y-52610238D01*
X104223333Y-52610238D02*
X104318571Y-52562619D01*
X104318571Y-52562619D02*
X104509047Y-52562619D01*
X104509047Y-52562619D02*
X104604285Y-52610238D01*
X104604285Y-52610238D02*
X104699523Y-52705476D01*
X104699523Y-52705476D02*
X104747142Y-52895952D01*
X104747142Y-52895952D02*
X104747142Y-53229285D01*
X104747142Y-53229285D02*
X104699523Y-53419761D01*
X104699523Y-53419761D02*
X104604285Y-53515000D01*
X104604285Y-53515000D02*
X104509047Y-53562619D01*
X104509047Y-53562619D02*
X104318571Y-53562619D01*
X105128095Y-52657857D02*
X105175714Y-52610238D01*
X105175714Y-52610238D02*
X105270952Y-52562619D01*
X105270952Y-52562619D02*
X105509047Y-52562619D01*
X105509047Y-52562619D02*
X105604285Y-52610238D01*
X105604285Y-52610238D02*
X105651904Y-52657857D01*
X105651904Y-52657857D02*
X105699523Y-52753095D01*
X105699523Y-52753095D02*
X105699523Y-52848333D01*
X105699523Y-52848333D02*
X105651904Y-52991190D01*
X105651904Y-52991190D02*
X105080476Y-53562619D01*
X105080476Y-53562619D02*
X105699523Y-53562619D01*
%TO.C,R9*%
X97833333Y-58672619D02*
X97500000Y-58196428D01*
X97261905Y-58672619D02*
X97261905Y-57672619D01*
X97261905Y-57672619D02*
X97642857Y-57672619D01*
X97642857Y-57672619D02*
X97738095Y-57720238D01*
X97738095Y-57720238D02*
X97785714Y-57767857D01*
X97785714Y-57767857D02*
X97833333Y-57863095D01*
X97833333Y-57863095D02*
X97833333Y-58005952D01*
X97833333Y-58005952D02*
X97785714Y-58101190D01*
X97785714Y-58101190D02*
X97738095Y-58148809D01*
X97738095Y-58148809D02*
X97642857Y-58196428D01*
X97642857Y-58196428D02*
X97261905Y-58196428D01*
X98309524Y-58672619D02*
X98500000Y-58672619D01*
X98500000Y-58672619D02*
X98595238Y-58625000D01*
X98595238Y-58625000D02*
X98642857Y-58577380D01*
X98642857Y-58577380D02*
X98738095Y-58434523D01*
X98738095Y-58434523D02*
X98785714Y-58244047D01*
X98785714Y-58244047D02*
X98785714Y-57863095D01*
X98785714Y-57863095D02*
X98738095Y-57767857D01*
X98738095Y-57767857D02*
X98690476Y-57720238D01*
X98690476Y-57720238D02*
X98595238Y-57672619D01*
X98595238Y-57672619D02*
X98404762Y-57672619D01*
X98404762Y-57672619D02*
X98309524Y-57720238D01*
X98309524Y-57720238D02*
X98261905Y-57767857D01*
X98261905Y-57767857D02*
X98214286Y-57863095D01*
X98214286Y-57863095D02*
X98214286Y-58101190D01*
X98214286Y-58101190D02*
X98261905Y-58196428D01*
X98261905Y-58196428D02*
X98309524Y-58244047D01*
X98309524Y-58244047D02*
X98404762Y-58291666D01*
X98404762Y-58291666D02*
X98595238Y-58291666D01*
X98595238Y-58291666D02*
X98690476Y-58244047D01*
X98690476Y-58244047D02*
X98738095Y-58196428D01*
X98738095Y-58196428D02*
X98785714Y-58101190D01*
%TO.C,L1*%
X139187380Y-48695833D02*
X139187380Y-48219643D01*
X139187380Y-48219643D02*
X140187380Y-48219643D01*
X139187380Y-49552976D02*
X139187380Y-48981548D01*
X139187380Y-49267262D02*
X140187380Y-49267262D01*
X140187380Y-49267262D02*
X140044523Y-49172024D01*
X140044523Y-49172024D02*
X139949285Y-49076786D01*
X139949285Y-49076786D02*
X139901666Y-48981548D01*
%TO.C,C6*%
X122312380Y-46691666D02*
X122360000Y-46739285D01*
X122360000Y-46739285D02*
X122407619Y-46882142D01*
X122407619Y-46882142D02*
X122407619Y-46977380D01*
X122407619Y-46977380D02*
X122360000Y-47120237D01*
X122360000Y-47120237D02*
X122264761Y-47215475D01*
X122264761Y-47215475D02*
X122169523Y-47263094D01*
X122169523Y-47263094D02*
X121979047Y-47310713D01*
X121979047Y-47310713D02*
X121836190Y-47310713D01*
X121836190Y-47310713D02*
X121645714Y-47263094D01*
X121645714Y-47263094D02*
X121550476Y-47215475D01*
X121550476Y-47215475D02*
X121455238Y-47120237D01*
X121455238Y-47120237D02*
X121407619Y-46977380D01*
X121407619Y-46977380D02*
X121407619Y-46882142D01*
X121407619Y-46882142D02*
X121455238Y-46739285D01*
X121455238Y-46739285D02*
X121502857Y-46691666D01*
X121407619Y-45834523D02*
X121407619Y-46024999D01*
X121407619Y-46024999D02*
X121455238Y-46120237D01*
X121455238Y-46120237D02*
X121502857Y-46167856D01*
X121502857Y-46167856D02*
X121645714Y-46263094D01*
X121645714Y-46263094D02*
X121836190Y-46310713D01*
X121836190Y-46310713D02*
X122217142Y-46310713D01*
X122217142Y-46310713D02*
X122312380Y-46263094D01*
X122312380Y-46263094D02*
X122360000Y-46215475D01*
X122360000Y-46215475D02*
X122407619Y-46120237D01*
X122407619Y-46120237D02*
X122407619Y-45929761D01*
X122407619Y-45929761D02*
X122360000Y-45834523D01*
X122360000Y-45834523D02*
X122312380Y-45786904D01*
X122312380Y-45786904D02*
X122217142Y-45739285D01*
X122217142Y-45739285D02*
X121979047Y-45739285D01*
X121979047Y-45739285D02*
X121883809Y-45786904D01*
X121883809Y-45786904D02*
X121836190Y-45834523D01*
X121836190Y-45834523D02*
X121788571Y-45929761D01*
X121788571Y-45929761D02*
X121788571Y-46120237D01*
X121788571Y-46120237D02*
X121836190Y-46215475D01*
X121836190Y-46215475D02*
X121883809Y-46263094D01*
X121883809Y-46263094D02*
X121979047Y-46310713D01*
%TO.C,C3*%
X133617380Y-54391666D02*
X133665000Y-54439285D01*
X133665000Y-54439285D02*
X133712619Y-54582142D01*
X133712619Y-54582142D02*
X133712619Y-54677380D01*
X133712619Y-54677380D02*
X133665000Y-54820237D01*
X133665000Y-54820237D02*
X133569761Y-54915475D01*
X133569761Y-54915475D02*
X133474523Y-54963094D01*
X133474523Y-54963094D02*
X133284047Y-55010713D01*
X133284047Y-55010713D02*
X133141190Y-55010713D01*
X133141190Y-55010713D02*
X132950714Y-54963094D01*
X132950714Y-54963094D02*
X132855476Y-54915475D01*
X132855476Y-54915475D02*
X132760238Y-54820237D01*
X132760238Y-54820237D02*
X132712619Y-54677380D01*
X132712619Y-54677380D02*
X132712619Y-54582142D01*
X132712619Y-54582142D02*
X132760238Y-54439285D01*
X132760238Y-54439285D02*
X132807857Y-54391666D01*
X132712619Y-54058332D02*
X132712619Y-53439285D01*
X132712619Y-53439285D02*
X133093571Y-53772618D01*
X133093571Y-53772618D02*
X133093571Y-53629761D01*
X133093571Y-53629761D02*
X133141190Y-53534523D01*
X133141190Y-53534523D02*
X133188809Y-53486904D01*
X133188809Y-53486904D02*
X133284047Y-53439285D01*
X133284047Y-53439285D02*
X133522142Y-53439285D01*
X133522142Y-53439285D02*
X133617380Y-53486904D01*
X133617380Y-53486904D02*
X133665000Y-53534523D01*
X133665000Y-53534523D02*
X133712619Y-53629761D01*
X133712619Y-53629761D02*
X133712619Y-53915475D01*
X133712619Y-53915475D02*
X133665000Y-54010713D01*
X133665000Y-54010713D02*
X133617380Y-54058332D01*
%TO.C,D2*%
X134337619Y-79413094D02*
X133337619Y-79413094D01*
X133337619Y-79413094D02*
X133337619Y-79174999D01*
X133337619Y-79174999D02*
X133385238Y-79032142D01*
X133385238Y-79032142D02*
X133480476Y-78936904D01*
X133480476Y-78936904D02*
X133575714Y-78889285D01*
X133575714Y-78889285D02*
X133766190Y-78841666D01*
X133766190Y-78841666D02*
X133909047Y-78841666D01*
X133909047Y-78841666D02*
X134099523Y-78889285D01*
X134099523Y-78889285D02*
X134194761Y-78936904D01*
X134194761Y-78936904D02*
X134290000Y-79032142D01*
X134290000Y-79032142D02*
X134337619Y-79174999D01*
X134337619Y-79174999D02*
X134337619Y-79413094D01*
X133432857Y-78460713D02*
X133385238Y-78413094D01*
X133385238Y-78413094D02*
X133337619Y-78317856D01*
X133337619Y-78317856D02*
X133337619Y-78079761D01*
X133337619Y-78079761D02*
X133385238Y-77984523D01*
X133385238Y-77984523D02*
X133432857Y-77936904D01*
X133432857Y-77936904D02*
X133528095Y-77889285D01*
X133528095Y-77889285D02*
X133623333Y-77889285D01*
X133623333Y-77889285D02*
X133766190Y-77936904D01*
X133766190Y-77936904D02*
X134337619Y-78508332D01*
X134337619Y-78508332D02*
X134337619Y-77889285D01*
D14*
%TO.C,U3*%
X117514285Y-55118928D02*
X117514285Y-53618928D01*
X117514285Y-53618928D02*
X118085714Y-53618928D01*
X118085714Y-53618928D02*
X118228571Y-53690357D01*
X118228571Y-53690357D02*
X118300000Y-53761785D01*
X118300000Y-53761785D02*
X118371428Y-53904642D01*
X118371428Y-53904642D02*
X118371428Y-54118928D01*
X118371428Y-54118928D02*
X118300000Y-54261785D01*
X118300000Y-54261785D02*
X118228571Y-54333214D01*
X118228571Y-54333214D02*
X118085714Y-54404642D01*
X118085714Y-54404642D02*
X117514285Y-54404642D01*
X119014285Y-55118928D02*
X119014285Y-53618928D01*
X120585714Y-54976071D02*
X120514286Y-55047500D01*
X120514286Y-55047500D02*
X120300000Y-55118928D01*
X120300000Y-55118928D02*
X120157143Y-55118928D01*
X120157143Y-55118928D02*
X119942857Y-55047500D01*
X119942857Y-55047500D02*
X119800000Y-54904642D01*
X119800000Y-54904642D02*
X119728571Y-54761785D01*
X119728571Y-54761785D02*
X119657143Y-54476071D01*
X119657143Y-54476071D02*
X119657143Y-54261785D01*
X119657143Y-54261785D02*
X119728571Y-53976071D01*
X119728571Y-53976071D02*
X119800000Y-53833214D01*
X119800000Y-53833214D02*
X119942857Y-53690357D01*
X119942857Y-53690357D02*
X120157143Y-53618928D01*
X120157143Y-53618928D02*
X120300000Y-53618928D01*
X120300000Y-53618928D02*
X120514286Y-53690357D01*
X120514286Y-53690357D02*
X120585714Y-53761785D01*
X121514286Y-53618928D02*
X121800000Y-53618928D01*
X121800000Y-53618928D02*
X121942857Y-53690357D01*
X121942857Y-53690357D02*
X122085714Y-53833214D01*
X122085714Y-53833214D02*
X122157143Y-54118928D01*
X122157143Y-54118928D02*
X122157143Y-54618928D01*
X122157143Y-54618928D02*
X122085714Y-54904642D01*
X122085714Y-54904642D02*
X121942857Y-55047500D01*
X121942857Y-55047500D02*
X121800000Y-55118928D01*
X121800000Y-55118928D02*
X121514286Y-55118928D01*
X121514286Y-55118928D02*
X121371429Y-55047500D01*
X121371429Y-55047500D02*
X121228571Y-54904642D01*
X121228571Y-54904642D02*
X121157143Y-54618928D01*
X121157143Y-54618928D02*
X121157143Y-54118928D01*
X121157143Y-54118928D02*
X121228571Y-53833214D01*
X121228571Y-53833214D02*
X121371429Y-53690357D01*
X121371429Y-53690357D02*
X121514286Y-53618928D01*
D15*
X144314761Y-48466190D02*
X142695714Y-48466190D01*
X142695714Y-48466190D02*
X142505238Y-48561428D01*
X142505238Y-48561428D02*
X142410000Y-48656666D01*
X142410000Y-48656666D02*
X142314761Y-48847142D01*
X142314761Y-48847142D02*
X142314761Y-49228095D01*
X142314761Y-49228095D02*
X142410000Y-49418571D01*
X142410000Y-49418571D02*
X142505238Y-49513809D01*
X142505238Y-49513809D02*
X142695714Y-49609047D01*
X142695714Y-49609047D02*
X144314761Y-49609047D01*
X142410000Y-50466190D02*
X142314761Y-50751904D01*
X142314761Y-50751904D02*
X142314761Y-51228095D01*
X142314761Y-51228095D02*
X142410000Y-51418571D01*
X142410000Y-51418571D02*
X142505238Y-51513809D01*
X142505238Y-51513809D02*
X142695714Y-51609047D01*
X142695714Y-51609047D02*
X142886190Y-51609047D01*
X142886190Y-51609047D02*
X143076666Y-51513809D01*
X143076666Y-51513809D02*
X143171904Y-51418571D01*
X143171904Y-51418571D02*
X143267142Y-51228095D01*
X143267142Y-51228095D02*
X143362380Y-50847142D01*
X143362380Y-50847142D02*
X143457619Y-50656666D01*
X143457619Y-50656666D02*
X143552857Y-50561428D01*
X143552857Y-50561428D02*
X143743333Y-50466190D01*
X143743333Y-50466190D02*
X143933809Y-50466190D01*
X143933809Y-50466190D02*
X144124285Y-50561428D01*
X144124285Y-50561428D02*
X144219523Y-50656666D01*
X144219523Y-50656666D02*
X144314761Y-50847142D01*
X144314761Y-50847142D02*
X144314761Y-51323333D01*
X144314761Y-51323333D02*
X144219523Y-51609047D01*
X143362380Y-53132857D02*
X143267142Y-53418571D01*
X143267142Y-53418571D02*
X143171904Y-53513809D01*
X143171904Y-53513809D02*
X142981428Y-53609047D01*
X142981428Y-53609047D02*
X142695714Y-53609047D01*
X142695714Y-53609047D02*
X142505238Y-53513809D01*
X142505238Y-53513809D02*
X142410000Y-53418571D01*
X142410000Y-53418571D02*
X142314761Y-53228095D01*
X142314761Y-53228095D02*
X142314761Y-52466190D01*
X142314761Y-52466190D02*
X144314761Y-52466190D01*
X144314761Y-52466190D02*
X144314761Y-53132857D01*
X144314761Y-53132857D02*
X144219523Y-53323333D01*
X144219523Y-53323333D02*
X144124285Y-53418571D01*
X144124285Y-53418571D02*
X143933809Y-53513809D01*
X143933809Y-53513809D02*
X143743333Y-53513809D01*
X143743333Y-53513809D02*
X143552857Y-53418571D01*
X143552857Y-53418571D02*
X143457619Y-53323333D01*
X143457619Y-53323333D02*
X143362380Y-53132857D01*
X143362380Y-53132857D02*
X143362380Y-52466190D01*
D12*
%TO.C,C8*%
X96417380Y-45166666D02*
X96465000Y-45214285D01*
X96465000Y-45214285D02*
X96512619Y-45357142D01*
X96512619Y-45357142D02*
X96512619Y-45452380D01*
X96512619Y-45452380D02*
X96465000Y-45595237D01*
X96465000Y-45595237D02*
X96369761Y-45690475D01*
X96369761Y-45690475D02*
X96274523Y-45738094D01*
X96274523Y-45738094D02*
X96084047Y-45785713D01*
X96084047Y-45785713D02*
X95941190Y-45785713D01*
X95941190Y-45785713D02*
X95750714Y-45738094D01*
X95750714Y-45738094D02*
X95655476Y-45690475D01*
X95655476Y-45690475D02*
X95560238Y-45595237D01*
X95560238Y-45595237D02*
X95512619Y-45452380D01*
X95512619Y-45452380D02*
X95512619Y-45357142D01*
X95512619Y-45357142D02*
X95560238Y-45214285D01*
X95560238Y-45214285D02*
X95607857Y-45166666D01*
X95941190Y-44595237D02*
X95893571Y-44690475D01*
X95893571Y-44690475D02*
X95845952Y-44738094D01*
X95845952Y-44738094D02*
X95750714Y-44785713D01*
X95750714Y-44785713D02*
X95703095Y-44785713D01*
X95703095Y-44785713D02*
X95607857Y-44738094D01*
X95607857Y-44738094D02*
X95560238Y-44690475D01*
X95560238Y-44690475D02*
X95512619Y-44595237D01*
X95512619Y-44595237D02*
X95512619Y-44404761D01*
X95512619Y-44404761D02*
X95560238Y-44309523D01*
X95560238Y-44309523D02*
X95607857Y-44261904D01*
X95607857Y-44261904D02*
X95703095Y-44214285D01*
X95703095Y-44214285D02*
X95750714Y-44214285D01*
X95750714Y-44214285D02*
X95845952Y-44261904D01*
X95845952Y-44261904D02*
X95893571Y-44309523D01*
X95893571Y-44309523D02*
X95941190Y-44404761D01*
X95941190Y-44404761D02*
X95941190Y-44595237D01*
X95941190Y-44595237D02*
X95988809Y-44690475D01*
X95988809Y-44690475D02*
X96036428Y-44738094D01*
X96036428Y-44738094D02*
X96131666Y-44785713D01*
X96131666Y-44785713D02*
X96322142Y-44785713D01*
X96322142Y-44785713D02*
X96417380Y-44738094D01*
X96417380Y-44738094D02*
X96465000Y-44690475D01*
X96465000Y-44690475D02*
X96512619Y-44595237D01*
X96512619Y-44595237D02*
X96512619Y-44404761D01*
X96512619Y-44404761D02*
X96465000Y-44309523D01*
X96465000Y-44309523D02*
X96417380Y-44261904D01*
X96417380Y-44261904D02*
X96322142Y-44214285D01*
X96322142Y-44214285D02*
X96131666Y-44214285D01*
X96131666Y-44214285D02*
X96036428Y-44261904D01*
X96036428Y-44261904D02*
X95988809Y-44309523D01*
X95988809Y-44309523D02*
X95941190Y-44404761D01*
%TO.C,R5*%
X109393333Y-58652619D02*
X109060000Y-58176428D01*
X108821905Y-58652619D02*
X108821905Y-57652619D01*
X108821905Y-57652619D02*
X109202857Y-57652619D01*
X109202857Y-57652619D02*
X109298095Y-57700238D01*
X109298095Y-57700238D02*
X109345714Y-57747857D01*
X109345714Y-57747857D02*
X109393333Y-57843095D01*
X109393333Y-57843095D02*
X109393333Y-57985952D01*
X109393333Y-57985952D02*
X109345714Y-58081190D01*
X109345714Y-58081190D02*
X109298095Y-58128809D01*
X109298095Y-58128809D02*
X109202857Y-58176428D01*
X109202857Y-58176428D02*
X108821905Y-58176428D01*
X110298095Y-57652619D02*
X109821905Y-57652619D01*
X109821905Y-57652619D02*
X109774286Y-58128809D01*
X109774286Y-58128809D02*
X109821905Y-58081190D01*
X109821905Y-58081190D02*
X109917143Y-58033571D01*
X109917143Y-58033571D02*
X110155238Y-58033571D01*
X110155238Y-58033571D02*
X110250476Y-58081190D01*
X110250476Y-58081190D02*
X110298095Y-58128809D01*
X110298095Y-58128809D02*
X110345714Y-58224047D01*
X110345714Y-58224047D02*
X110345714Y-58462142D01*
X110345714Y-58462142D02*
X110298095Y-58557380D01*
X110298095Y-58557380D02*
X110250476Y-58605000D01*
X110250476Y-58605000D02*
X110155238Y-58652619D01*
X110155238Y-58652619D02*
X109917143Y-58652619D01*
X109917143Y-58652619D02*
X109821905Y-58605000D01*
X109821905Y-58605000D02*
X109774286Y-58557380D01*
D16*
%TO.C,R11*%
X83925000Y-63275000D02*
X93925000Y-63275000D01*
X83925000Y-65975000D02*
X83925000Y-63275000D01*
X83925000Y-71575000D02*
X83925000Y-75275000D01*
X83925000Y-75275000D02*
X85125000Y-75275000D01*
X93925000Y-63275000D02*
X93925000Y-65975000D01*
X93925000Y-71575000D02*
X93925000Y-75275000D01*
X93925000Y-75275000D02*
X92725000Y-75275000D01*
%TO.C,J3*%
X142000000Y-72375000D02*
X142000000Y-63675000D01*
X142000000Y-63675000D02*
X140200000Y-63675000D01*
X135250000Y-63675000D02*
X131300000Y-63675000D01*
X131300000Y-72375000D02*
X142000000Y-72375000D01*
X131300000Y-68375000D02*
X131300000Y-72375000D01*
X131300000Y-63675000D02*
X131300000Y-64875000D01*
D10*
%TO.C,J16*%
X130200000Y-67912500D02*
X127550000Y-67912500D01*
X127550000Y-67912500D02*
X127550000Y-62762500D01*
X127550000Y-62762500D02*
X130200000Y-62762500D01*
X130200000Y-62762500D02*
X130200000Y-67912500D01*
D12*
%TO.C,D3*%
X131650000Y-74650000D02*
X132000000Y-74650000D01*
X132000000Y-74175000D02*
X132850000Y-74625000D01*
X132000000Y-75075000D02*
X132000000Y-74175000D01*
X132850000Y-74625000D02*
X132025000Y-75075000D01*
X132900000Y-75050000D02*
X132900000Y-74200000D01*
X132950000Y-74650000D02*
X133125000Y-74650000D01*
D15*
X135987500Y-73150000D02*
X131487500Y-73150000D01*
X135987500Y-76125000D02*
X135987500Y-73150000D01*
X135987500Y-76175000D02*
X131487500Y-76175000D01*
D10*
%TO.C,U1*%
X128500000Y-48790000D02*
X126700000Y-48790000D01*
X128500000Y-48790000D02*
X129300000Y-48790000D01*
X128500000Y-51910000D02*
X127700000Y-51910000D01*
X128500000Y-51910000D02*
X129300000Y-51910000D01*
%TO.C,J8*%
X136425000Y-82125000D02*
X146725000Y-82125000D01*
X136387200Y-82625000D02*
X146725000Y-82625000D01*
X146725000Y-82625000D02*
X146725000Y-74776400D01*
X146725000Y-74776400D02*
X136387200Y-74776400D01*
X136387200Y-74776400D02*
X136387200Y-82625000D01*
%TO.C,R1*%
X124727500Y-46762258D02*
X124727500Y-46287742D01*
X125772500Y-46762258D02*
X125772500Y-46287742D01*
%TO.C,J17*%
X95520000Y-62692500D02*
X110760000Y-62692500D01*
X95520000Y-72852500D02*
X95520000Y-62692500D01*
X103140000Y-70312500D02*
X103140000Y-72852500D01*
X103140000Y-72852500D02*
X95520000Y-72852500D01*
X110760000Y-62692500D02*
X110760000Y-70312500D01*
X110760000Y-70312500D02*
X103140000Y-70312500D01*
%TO.C,TP1*%
X79745000Y-69620000D02*
X81075000Y-69620000D01*
X79745000Y-70950000D02*
X79745000Y-69620000D01*
X79745000Y-72220000D02*
X79745000Y-72280000D01*
X79745000Y-72220000D02*
X82405000Y-72220000D01*
X79745000Y-72280000D02*
X82405000Y-72280000D01*
X82405000Y-72220000D02*
X82405000Y-72280000D01*
%TO.C,Q3*%
X99050000Y-54065000D02*
X97375000Y-54065000D01*
X99050000Y-54065000D02*
X99700000Y-54065000D01*
X99050000Y-57185000D02*
X98400000Y-57185000D01*
X99050000Y-57185000D02*
X99700000Y-57185000D01*
%TO.C,D1*%
X131990000Y-37615000D02*
X131990000Y-39085000D01*
X131990000Y-39085000D02*
X134275000Y-39085000D01*
X134275000Y-37615000D02*
X131990000Y-37615000D01*
%TO.C,J5*%
X145845000Y-31485000D02*
X135535000Y-31485000D01*
X135535000Y-31485000D02*
X135535000Y-39175000D01*
X135535000Y-39175000D02*
X145845000Y-39175000D01*
X145845000Y-39175000D02*
X145845000Y-31485000D01*
%TO.C,C2*%
X138070000Y-53963748D02*
X138070000Y-54486252D01*
X136600000Y-53963748D02*
X136600000Y-54486252D01*
%TO.C,SW1*%
X100305000Y-80350000D02*
X100305000Y-78150000D01*
X100775000Y-82320000D02*
X105975000Y-82320000D01*
X101375000Y-76080000D02*
X105775000Y-76080000D01*
X106545000Y-78150000D02*
X106545000Y-80350000D01*
X104839214Y-79200000D02*
G75*
G03*
X104839214Y-79200000I-1414214J0D01*
G01*
%TO.C,C9*%
X106180125Y-45113080D02*
X106180125Y-44831920D01*
X107200125Y-45113080D02*
X107200125Y-44831920D01*
%TO.C,SW2*%
X78920000Y-53990000D02*
X81120000Y-53990000D01*
X76950000Y-54460000D02*
X76950000Y-59660000D01*
X83190000Y-55060000D02*
X83190000Y-59460000D01*
X81120000Y-60230000D02*
X78920000Y-60230000D01*
X81484214Y-57110000D02*
G75*
G03*
X81484214Y-57110000I-1414214J0D01*
G01*
%TO.C,J4*%
X114965000Y-62772500D02*
X125125000Y-62772500D01*
X114965000Y-72932500D02*
X114965000Y-62772500D01*
X120045000Y-70392500D02*
X120045000Y-72932500D01*
X120045000Y-72932500D02*
X114965000Y-72932500D01*
X125125000Y-62772500D02*
X125125000Y-70392500D01*
X125125000Y-70392500D02*
X120045000Y-70392500D01*
%TO.C,U2*%
X99994225Y-44997800D02*
X99994225Y-45160360D01*
X99994225Y-50194640D02*
X99994225Y-50357200D01*
X99994225Y-50357200D02*
X104236025Y-50357200D01*
X104236025Y-44997800D02*
X99994225Y-44997800D01*
X104236025Y-45160360D02*
X104236025Y-44997800D01*
X104236025Y-50357200D02*
X104236025Y-50194640D01*
%TO.C,R4*%
X135772500Y-82225242D02*
X135772500Y-82699758D01*
X134727500Y-82225242D02*
X134727500Y-82699758D01*
%TO.C,R6*%
X107357500Y-53857258D02*
X107357500Y-53382742D01*
X108402500Y-53857258D02*
X108402500Y-53382742D01*
%TO.C,C5*%
X128510000Y-74911252D02*
X128510000Y-74388748D01*
X127040000Y-74911252D02*
X127040000Y-74388748D01*
%TO.C,R2*%
X124687258Y-49922500D02*
X124212742Y-49922500D01*
X124687258Y-48877500D02*
X124212742Y-48877500D01*
%TO.C,R10*%
X95707500Y-54047258D02*
X95707500Y-53572742D01*
X96752500Y-54047258D02*
X96752500Y-53572742D01*
%TO.C,R8*%
X101487500Y-54067258D02*
X101487500Y-53592742D01*
X102532500Y-54067258D02*
X102532500Y-53592742D01*
%TO.C,Q1*%
X110650000Y-54052500D02*
X108975000Y-54052500D01*
X110650000Y-54052500D02*
X111300000Y-54052500D01*
X110650000Y-57172500D02*
X110000000Y-57172500D01*
X110650000Y-57172500D02*
X111300000Y-57172500D01*
%TO.C,J12*%
X88110000Y-41625000D02*
X93330000Y-41625000D01*
X88130000Y-51905000D02*
X93330000Y-51905000D01*
X88130000Y-51955000D02*
X88130000Y-41625000D01*
X93330000Y-41625000D02*
X93330000Y-51905000D01*
D16*
%TO.C,SW-on/off1*%
X142725000Y-71850000D02*
X143475000Y-71850000D01*
X146175000Y-71850000D02*
X147025000Y-71850000D01*
X147025000Y-71850000D02*
X147025000Y-63250000D01*
X142725000Y-63250000D02*
X142725000Y-71850000D01*
X143475000Y-63250000D02*
X142725000Y-63250000D01*
X147025000Y-63250000D02*
X146275000Y-63250000D01*
D10*
%TO.C,C1*%
X129890000Y-47607836D02*
X129890000Y-47392164D01*
X130610000Y-47607836D02*
X130610000Y-47392164D01*
%TO.C,C7*%
X143532836Y-58485000D02*
X143317164Y-58485000D01*
X143532836Y-57765000D02*
X143317164Y-57765000D01*
%TO.C,J11*%
X81470000Y-41620000D02*
X86690000Y-41620000D01*
X81490000Y-51900000D02*
X86690000Y-51900000D01*
X81490000Y-51950000D02*
X81490000Y-41620000D01*
X86690000Y-41620000D02*
X86690000Y-51900000D01*
%TO.C,R7*%
X101477500Y-57627258D02*
X101477500Y-57152742D01*
X102522500Y-57627258D02*
X102522500Y-57152742D01*
%TO.C,R3*%
X130262258Y-38872500D02*
X129787742Y-38872500D01*
X130262258Y-37827500D02*
X129787742Y-37827500D01*
%TO.C,J14*%
X81764894Y-33403360D02*
X86143996Y-30740825D01*
X86143996Y-30740825D02*
X90105328Y-37256073D01*
X90105328Y-37256073D02*
X85726227Y-39918608D01*
X85726227Y-39918608D02*
X81764894Y-33403360D01*
%TO.C,C4*%
X128138748Y-52490000D02*
X128661252Y-52490000D01*
X128138748Y-53960000D02*
X128661252Y-53960000D01*
%TO.C,Q2*%
X104900000Y-54065000D02*
X103225000Y-54065000D01*
X104900000Y-54065000D02*
X105550000Y-54065000D01*
X104900000Y-57185000D02*
X104250000Y-57185000D01*
X104900000Y-57185000D02*
X105550000Y-57185000D01*
%TO.C,J13*%
X93775000Y-61785000D02*
X86000000Y-61785000D01*
X86000000Y-61785000D02*
X86000000Y-54085000D01*
X86000000Y-54085000D02*
X93775000Y-54085000D01*
X93775000Y-54085000D02*
X93775000Y-61785000D01*
%TO.C,R9*%
X95727500Y-57537258D02*
X95727500Y-57062742D01*
X96772500Y-57537258D02*
X96772500Y-57062742D01*
%TO.C,J1*%
X98100000Y-79890000D02*
X87900000Y-79890000D01*
X87900000Y-79890000D02*
X87900000Y-82490000D01*
X87900000Y-82490000D02*
X98100000Y-82490000D01*
X98100000Y-82490000D02*
X98100000Y-79890000D01*
%TO.C,L1*%
X131275000Y-45375000D02*
X138575000Y-45375000D01*
X138575000Y-45375000D02*
X138575000Y-51975000D01*
X138575000Y-51975000D02*
X131275000Y-51975000D01*
X131275000Y-51975000D02*
X131275000Y-45375000D01*
%TO.C,C6*%
X122865000Y-46665580D02*
X122865000Y-46384420D01*
X123885000Y-46665580D02*
X123885000Y-46384420D01*
%TO.C,C3*%
X135735000Y-53988748D02*
X135735000Y-54511252D01*
X134265000Y-53988748D02*
X134265000Y-54511252D01*
%TO.C,D2*%
X134515000Y-80747500D02*
X135985000Y-80747500D01*
X135985000Y-80747500D02*
X135985000Y-78462500D01*
X134515000Y-78462500D02*
X134515000Y-80747500D01*
%TO.C,U3*%
X123341276Y-50995576D02*
X119741276Y-52895576D01*
X119741276Y-48995576D01*
X123341276Y-50995576D01*
G36*
X123341276Y-50995576D02*
G01*
X119741276Y-52895576D01*
X119741276Y-48995576D01*
X123341276Y-50995576D01*
G37*
X119741276Y-50395576D02*
X115816276Y-50395576D01*
X115816276Y-50395576D02*
X115816276Y-51595576D01*
X115816276Y-51595576D02*
X119741276Y-51595576D01*
X119741276Y-51595576D02*
X119741276Y-50395576D01*
G36*
X119741276Y-50395576D02*
G01*
X115816276Y-50395576D01*
X115816276Y-51595576D01*
X119741276Y-51595576D01*
X119741276Y-50395576D01*
G37*
X145790000Y-40565000D02*
X94815000Y-40565000D01*
X94815000Y-40565000D02*
X94815000Y-61515000D01*
X94815000Y-61515000D02*
X145790000Y-61515000D01*
X145790000Y-61515000D02*
X145790000Y-40565000D01*
X145740000Y-61490000D02*
X145440000Y-61490000D01*
X141115000Y-54640000D02*
X145777500Y-54640000D01*
X141115000Y-48265000D02*
X141115000Y-54640000D01*
%TO.C,J10*%
X92635000Y-29015000D02*
X97855000Y-29015000D01*
X92655000Y-39295000D02*
X97855000Y-39295000D01*
X92655000Y-39345000D02*
X92655000Y-29015000D01*
X97855000Y-29015000D02*
X97855000Y-39295000D01*
%TO.C,C8*%
X96915000Y-45090580D02*
X96915000Y-44809420D01*
X97935000Y-45090580D02*
X97935000Y-44809420D01*
%TO.C,J7*%
X102262200Y-39228600D02*
X128068600Y-39228600D01*
X128068600Y-39228600D02*
X128068600Y-31380000D01*
X128068600Y-31380000D02*
X102262200Y-31380000D01*
X102262200Y-31380000D02*
X102262200Y-39228600D01*
D16*
%TO.C,SW-on/off2*%
X121225000Y-83100000D02*
X121975000Y-83100000D01*
X124675000Y-83100000D02*
X125525000Y-83100000D01*
X125525000Y-83100000D02*
X125525000Y-74500000D01*
X121225000Y-74500000D02*
X121225000Y-83100000D01*
X121975000Y-74500000D02*
X121225000Y-74500000D01*
X125525000Y-74500000D02*
X124775000Y-74500000D01*
D10*
%TO.C,R5*%
X107327500Y-57547258D02*
X107327500Y-57072742D01*
X108372500Y-57547258D02*
X108372500Y-57072742D01*
%TD*%
M02*
