%TF.GenerationSoftware,KiCad,Pcbnew,7.0.1-0*%
%TF.CreationDate,2023-05-05T03:57:04-04:00*%
%TF.ProjectId,rcc-pico,7263632d-7069-4636-9f2e-6b696361645f,rev?*%
%TF.SameCoordinates,Original*%
%TF.FileFunction,Copper,L2,Bot*%
%TF.FilePolarity,Positive*%
%FSLAX46Y46*%
G04 Gerber Fmt 4.6, Leading zero omitted, Abs format (unit mm)*
G04 Created by KiCad (PCBNEW 7.0.1-0) date 2023-05-05 03:57:04*
%MOMM*%
%LPD*%
G01*
G04 APERTURE LIST*
G04 Aperture macros list*
%AMHorizOval*
0 Thick line with rounded ends*
0 $1 width*
0 $2 $3 position (X,Y) of the first rounded end (center of the circle)*
0 $4 $5 position (X,Y) of the second rounded end (center of the circle)*
0 Add line between two ends*
20,1,$1,$2,$3,$4,$5,0*
0 Add two circle primitives to create the rounded ends*
1,1,$1,$2,$3*
1,1,$1,$4,$5*%
G04 Aperture macros list end*
%TA.AperFunction,ComponentPad*%
%ADD10R,1.508000X1.508000*%
%TD*%
%TA.AperFunction,ComponentPad*%
%ADD11C,1.508000*%
%TD*%
%TA.AperFunction,ComponentPad*%
%ADD12O,2.300000X4.600000*%
%TD*%
%TA.AperFunction,ComponentPad*%
%ADD13O,2.000000X4.000000*%
%TD*%
%TA.AperFunction,ComponentPad*%
%ADD14O,4.500000X2.250000*%
%TD*%
%TA.AperFunction,ComponentPad*%
%ADD15C,1.700000*%
%TD*%
%TA.AperFunction,ComponentPad*%
%ADD16O,1.700000X1.700000*%
%TD*%
%TA.AperFunction,ComponentPad*%
%ADD17C,2.000000*%
%TD*%
%TA.AperFunction,ComponentPad*%
%ADD18C,5.700000*%
%TD*%
%TA.AperFunction,ComponentPad*%
%ADD19R,1.700000X1.700000*%
%TD*%
%TA.AperFunction,ComponentPad*%
%ADD20R,1.308000X1.308000*%
%TD*%
%TA.AperFunction,ComponentPad*%
%ADD21C,1.308000*%
%TD*%
%TA.AperFunction,ComponentPad*%
%ADD22R,1.800000X1.800000*%
%TD*%
%TA.AperFunction,ComponentPad*%
%ADD23HorizOval,1.700000X0.000000X0.000000X0.000000X0.000000X0*%
%TD*%
%TA.AperFunction,ViaPad*%
%ADD24C,0.800000*%
%TD*%
%TA.AperFunction,Conductor*%
%ADD25C,0.250000*%
%TD*%
%TA.AperFunction,Conductor*%
%ADD26C,0.750000*%
%TD*%
G04 APERTURE END LIST*
D10*
%TO.P,R11,1*%
%TO.N,GND*%
X86425000Y-75775000D03*
D11*
%TO.P,R11,2*%
%TO.N,/POT_signal*%
X88925000Y-75775000D03*
%TO.P,R11,3*%
%TO.N,+3.3V*%
X91425000Y-75775000D03*
D12*
%TO.P,R11,S1*%
%TO.N,N/C*%
X84525000Y-68775000D03*
%TO.P,R11,S2*%
X93325000Y-68775000D03*
%TD*%
D13*
%TO.P,J3,3*%
%TO.N,GND*%
X134900000Y-69225000D03*
%TO.P,J3,2*%
X132200000Y-66625000D03*
D14*
%TO.P,J3,1*%
%TO.N,Net-(D3-A)*%
X137700000Y-63675000D03*
%TD*%
D15*
%TO.P,J16,1,Pin_1*%
%TO.N,/adcref_3v3*%
X128875000Y-64062500D03*
D16*
%TO.P,J16,2,Pin_2*%
%TO.N,+3.3V*%
X128875000Y-66602500D03*
%TD*%
D17*
%TO.P,J8,1,Pin_1*%
%TO.N,/MTRPWR*%
X139125000Y-79625000D03*
%TO.P,J8,2,Pin_2*%
%TO.N,GND*%
X144125000Y-79625000D03*
%TD*%
D18*
%TO.P,H4,1,1*%
%TO.N,unconnected-(H4-Pad1)*%
X131825000Y-32800000D03*
%TD*%
D19*
%TO.P,J17,1,Pin_1*%
%TO.N,GND*%
X96790000Y-63962500D03*
%TO.P,J17,2,Pin_2*%
X99330000Y-63962500D03*
%TO.P,J17,3,Pin_3*%
X101870000Y-63962500D03*
D16*
%TO.P,J17,4,Pin_4*%
%TO.N,+3.3V*%
X96790000Y-66502500D03*
%TO.P,J17,5,5*%
X99330000Y-66502500D03*
%TO.P,J17,6,6*%
X101870000Y-66502500D03*
D15*
%TO.P,J17,7,7*%
%TO.N,/GPIO16*%
X96790000Y-69042500D03*
%TO.P,J17,8,8*%
%TO.N,/GPIO17*%
X99330000Y-69042500D03*
%TO.P,J17,9,9*%
%TO.N,/GPIO18*%
X101870000Y-69042500D03*
%TO.P,J17,10,10*%
%TO.N,/3V3_PWM_3*%
X96790000Y-71582500D03*
%TO.P,J17,11,11*%
%TO.N,/3V3_PWM_2*%
X99330000Y-71582500D03*
%TO.P,J17,12,12*%
%TO.N,/3V3_PWM_1*%
X101870000Y-71582500D03*
D19*
%TO.P,J17,21,Pin_1*%
%TO.N,GND*%
X104410000Y-63962500D03*
%TO.P,J17,22,Pin_2*%
X106950000Y-63962500D03*
%TO.P,J17,23,Pin_3*%
X109490000Y-63962500D03*
D16*
%TO.P,J17,24,Pin_4*%
%TO.N,+3.3V*%
X104410000Y-66502500D03*
%TO.P,J17,25,5*%
X106950000Y-66502500D03*
%TO.P,J17,26,6*%
X109490000Y-66502500D03*
D15*
%TO.P,J17,27,7*%
%TO.N,/GPIO19*%
X104410000Y-69042500D03*
%TO.P,J17,28,8*%
%TO.N,/GPIO20*%
X106950000Y-69042500D03*
%TO.P,J17,29,9*%
%TO.N,/GPIO21*%
X109490000Y-69042500D03*
%TD*%
D19*
%TO.P,TP1,1,1*%
%TO.N,GND*%
X81075000Y-70950000D03*
%TD*%
D15*
%TO.P,J5,1*%
%TO.N,/GPIO0*%
X144550000Y-32810000D03*
D16*
%TO.P,J5,2*%
%TO.N,/GPIO1*%
X142010000Y-32810000D03*
D15*
%TO.P,J5,3*%
%TO.N,/GPIO2*%
X139470000Y-32810000D03*
%TO.P,J5,4*%
%TO.N,/GPIO3*%
X136930000Y-32810000D03*
%TO.P,J5,5*%
%TO.N,+3.3V*%
X144550000Y-35350000D03*
D16*
%TO.P,J5,6*%
X142010000Y-35350000D03*
D15*
%TO.P,J5,7*%
X139470000Y-35350000D03*
%TO.P,J5,8*%
X136930000Y-35350000D03*
D19*
%TO.P,J5,9*%
%TO.N,GND*%
X144550000Y-37890000D03*
%TO.P,J5,10*%
X142010000Y-37890000D03*
%TO.P,J5,11*%
X139470000Y-37890000D03*
%TO.P,J5,12*%
X136930000Y-37890000D03*
%TD*%
D15*
%TO.P,SW1,1,1*%
%TO.N,/run*%
X100175000Y-76950000D03*
X106675000Y-76950000D03*
%TO.P,SW1,2,2*%
%TO.N,GND*%
X100175000Y-81450000D03*
X106675000Y-81450000D03*
%TD*%
%TO.P,SW2,1,1*%
%TO.N,/extra_button*%
X82320000Y-53860000D03*
X82320000Y-60360000D03*
%TO.P,SW2,2,2*%
%TO.N,GND*%
X77820000Y-53860000D03*
X77820000Y-60360000D03*
%TD*%
%TO.P,J4,1,Pin_1*%
%TO.N,/POT_signal*%
X118775000Y-71662500D03*
D16*
%TO.P,J4,2,Pin_2*%
%TO.N,/extra_button*%
X116235000Y-71662500D03*
%TO.P,J4,3,Pin_3*%
%TO.N,/GPIO28*%
X118775000Y-69122500D03*
%TO.P,J4,4,Pin_4*%
%TO.N,/GPIO22*%
X116235000Y-69122500D03*
D15*
%TO.P,J4,5,5*%
%TO.N,+3.3V*%
X118775000Y-66582500D03*
%TO.P,J4,6,6*%
X116235000Y-66582500D03*
D19*
%TO.P,J4,7,7*%
%TO.N,GND*%
X118775000Y-64042500D03*
%TO.P,J4,8,8*%
X116235000Y-64042500D03*
%TO.P,J4,21,Pin_1*%
X121315000Y-64042500D03*
%TO.P,J4,22,Pin_2*%
X123855000Y-64042500D03*
D15*
%TO.P,J4,23,Pin_3*%
%TO.N,+3.3V*%
X121315000Y-66582500D03*
%TO.P,J4,24,Pin_4*%
X123855000Y-66582500D03*
D16*
%TO.P,J4,25,5*%
%TO.N,/GPIO26*%
X121315000Y-69122500D03*
%TO.P,J4,26,6*%
%TO.N,/GPIO27*%
X123855000Y-69122500D03*
%TD*%
D18*
%TO.P,H3,1,1*%
%TO.N,unconnected-(H3-Pad1)*%
X130550000Y-81075000D03*
%TD*%
D15*
%TO.P,J12,1,Pin_1*%
%TO.N,/SDA*%
X89460000Y-42955000D03*
D16*
%TO.P,J12,2,Pin_2*%
X92000000Y-42955000D03*
%TO.P,J12,3,Pin_3*%
%TO.N,/SCL*%
X89460000Y-45495000D03*
%TO.P,J12,4,Pin_4*%
X92000000Y-45495000D03*
D19*
%TO.P,J12,5,Pin_5*%
%TO.N,GND*%
X89460000Y-48035000D03*
%TO.P,J12,6,Pin_6*%
X92000000Y-48035000D03*
D16*
%TO.P,J12,7,Pin_7*%
%TO.N,+3.3V*%
X89460000Y-50575000D03*
%TO.P,J12,8,Pin_8*%
X92000000Y-50575000D03*
%TD*%
D20*
%TO.P,SW-on/off1,1,A*%
%TO.N,Net-(D3-K)*%
X144875000Y-69550000D03*
D21*
%TO.P,SW-on/off1,2,B*%
%TO.N,+9V*%
X144875000Y-67550000D03*
%TO.P,SW-on/off1,3*%
%TO.N,N/C*%
X144875000Y-65550000D03*
D22*
%TO.P,SW-on/off1,NC*%
X144875000Y-71650000D03*
X144875000Y-63250000D03*
%TD*%
D18*
%TO.P,H2,1,1*%
%TO.N,unconnected-(H2-Pad1)*%
X79775000Y-37950000D03*
%TD*%
%TO.P,H1,1,1*%
%TO.N,unconnected-(H1-Pad1)*%
X79800000Y-65925000D03*
%TD*%
D15*
%TO.P,J11,1,Pin_1*%
%TO.N,/SDA*%
X82820000Y-42950000D03*
D16*
%TO.P,J11,2,Pin_2*%
X85360000Y-42950000D03*
%TO.P,J11,3,Pin_3*%
%TO.N,/SCL*%
X82820000Y-45490000D03*
%TO.P,J11,4,Pin_4*%
X85360000Y-45490000D03*
D19*
%TO.P,J11,5,Pin_5*%
%TO.N,GND*%
X82820000Y-48030000D03*
%TO.P,J11,6,Pin_6*%
X85360000Y-48030000D03*
D16*
%TO.P,J11,7,Pin_7*%
%TO.N,+3.3V*%
X82820000Y-50570000D03*
%TO.P,J11,8,Pin_8*%
X85360000Y-50570000D03*
%TD*%
D15*
%TO.P,J14,1,Pin_1*%
%TO.N,unconnected-(J14-Pin_1-Pad1)*%
X88319157Y-36820651D03*
D23*
%TO.P,J14,2,Pin_2*%
%TO.N,unconnected-(J14-Pin_2-Pad2)*%
X86148832Y-38140230D03*
%TO.P,J14,3,Pin_3*%
%TO.N,unconnected-(J14-Pin_3-Pad3)*%
X86999578Y-34650326D03*
%TO.P,J14,4,Pin_4*%
%TO.N,unconnected-(J14-Pin_4-Pad4)*%
X84829253Y-35969904D03*
%TO.P,J14,5,Pin_5*%
%TO.N,unconnected-(J14-Pin_5-Pad5)*%
X85680000Y-32480000D03*
%TO.P,J14,6,Pin_6*%
%TO.N,unconnected-(J14-Pin_6-Pad6)*%
X83509674Y-33799579D03*
%TD*%
D19*
%TO.P,J13,1,Pin_1*%
%TO.N,GND*%
X92440000Y-60420000D03*
%TO.P,J13,2,Pin_2*%
X89900000Y-60420000D03*
%TO.P,J13,3,Pin_3*%
X87360000Y-60420000D03*
D16*
%TO.P,J13,4,Pin_4*%
%TO.N,+5V*%
X92440000Y-57880000D03*
%TO.P,J13,5,5*%
X89900000Y-57880000D03*
%TO.P,J13,6,6*%
X87360000Y-57880000D03*
D15*
%TO.P,J13,7,7*%
%TO.N,/5V_PWM_1*%
X92440000Y-55340000D03*
%TO.P,J13,8,8*%
%TO.N,/5V_PWM_2*%
X89900000Y-55340000D03*
%TO.P,J13,9,9*%
%TO.N,/5V_PWM_3*%
X87360000Y-55340000D03*
%TD*%
%TO.P,J1,1,Pin_1*%
%TO.N,unconnected-(J1-Pin_1-Pad1)*%
X96800000Y-81190000D03*
D16*
%TO.P,J1,2,Pin_2*%
%TO.N,unconnected-(J1-Pin_2-Pad2)*%
X94260000Y-81190000D03*
%TO.P,J1,3,Pin_3*%
%TO.N,unconnected-(J1-Pin_3-Pad3)*%
X91720000Y-81190000D03*
%TO.P,J1,4,Pin_4*%
%TO.N,unconnected-(J1-Pin_4-Pad4)*%
X89180000Y-81190000D03*
%TD*%
%TO.P,U3,40,VBUS*%
%TO.N,unconnected-(U3-VBUS-Pad40)*%
X144370000Y-59880000D03*
%TO.P,U3,39,VSYS*%
%TO.N,+5V*%
X141830000Y-59880000D03*
D19*
%TO.P,U3,38,GND*%
%TO.N,GND*%
X139290000Y-59880000D03*
D16*
%TO.P,U3,37,3V3_EN*%
%TO.N,unconnected-(U3-3V3_EN-Pad37)*%
X136750000Y-59880000D03*
%TO.P,U3,36,3V3*%
%TO.N,unconnected-(U3-3V3-Pad36)*%
X134210000Y-59880000D03*
%TO.P,U3,35,ADC_VREF*%
%TO.N,/adcref_3v3*%
X131670000Y-59880000D03*
%TO.P,U3,34,GPIO28_ADC2*%
%TO.N,/GPIO28*%
X129130000Y-59880000D03*
D19*
%TO.P,U3,33,AGND*%
%TO.N,GND*%
X126590000Y-59880000D03*
D16*
%TO.P,U3,32,GPIO27_ADC1*%
%TO.N,/GPIO27*%
X124050000Y-59880000D03*
%TO.P,U3,31,GPIO26_ADC0*%
%TO.N,/GPIO26*%
X121510000Y-59880000D03*
%TO.P,U3,30,RUN*%
%TO.N,/run*%
X118970000Y-59880000D03*
%TO.P,U3,29,GPIO22*%
%TO.N,/GPIO22*%
X116430000Y-59880000D03*
D19*
%TO.P,U3,28,GND*%
%TO.N,GND*%
X113890000Y-59880000D03*
D16*
%TO.P,U3,27,GPIO21*%
%TO.N,/GPIO21*%
X111350000Y-59880000D03*
%TO.P,U3,26,GPIO20*%
%TO.N,/GPIO20*%
X108810000Y-59880000D03*
%TO.P,U3,25,GPIO19*%
%TO.N,/GPIO19*%
X106270000Y-59880000D03*
%TO.P,U3,24,GPIO18*%
%TO.N,/GPIO18*%
X103730000Y-59880000D03*
D19*
%TO.P,U3,23,GND*%
%TO.N,GND*%
X101190000Y-59880000D03*
D16*
%TO.P,U3,22,GPIO17*%
%TO.N,/GPIO17*%
X98650000Y-59880000D03*
%TO.P,U3,21,GPIO16*%
%TO.N,/GPIO16*%
X96110000Y-59880000D03*
%TO.P,U3,20,GPIO15*%
%TO.N,/GPIO15*%
X96110000Y-42100000D03*
%TO.P,U3,19,GPIO14*%
%TO.N,/GPIO14*%
X98650000Y-42100000D03*
D19*
%TO.P,U3,18,GND*%
%TO.N,GND*%
X101190000Y-42100000D03*
D16*
%TO.P,U3,17,GPIO13*%
%TO.N,/GPIO13*%
X103730000Y-42100000D03*
%TO.P,U3,16,GPIO12*%
%TO.N,/GPIO12*%
X106270000Y-42100000D03*
%TO.P,U3,15,GPIO11*%
%TO.N,/GPIO11*%
X108810000Y-42100000D03*
%TO.P,U3,14,GPIO10*%
%TO.N,/GPIO10*%
X111350000Y-42100000D03*
D19*
%TO.P,U3,13,GND*%
%TO.N,GND*%
X113890000Y-42100000D03*
D16*
%TO.P,U3,12,GPIO9*%
%TO.N,/GPIO9*%
X116430000Y-42100000D03*
%TO.P,U3,11,GPIO8*%
%TO.N,/GPIO8*%
X118970000Y-42100000D03*
%TO.P,U3,10,GPIO7*%
%TO.N,/GPIO7*%
X121510000Y-42100000D03*
%TO.P,U3,9,GPIO6*%
%TO.N,/GPIO6*%
X124050000Y-42100000D03*
D19*
%TO.P,U3,8,GND*%
%TO.N,GND*%
X126590000Y-42100000D03*
D16*
%TO.P,U3,7,GPIO5*%
%TO.N,/GPIO5*%
X129130000Y-42100000D03*
%TO.P,U3,6,GPIO4*%
%TO.N,/GPIO4*%
X131670000Y-42100000D03*
%TO.P,U3,5,GPIO3*%
%TO.N,/GPIO3*%
X134210000Y-42100000D03*
%TO.P,U3,4,GPIO2*%
%TO.N,/GPIO2*%
X136750000Y-42100000D03*
D19*
%TO.P,U3,3,GND*%
%TO.N,GND*%
X139290000Y-42100000D03*
D16*
%TO.P,U3,2,GPIO1*%
%TO.N,/GPIO1*%
X141830000Y-42100000D03*
%TO.P,U3,1,GPIO0*%
%TO.N,/GPIO0*%
X144370000Y-42100000D03*
%TD*%
D15*
%TO.P,J10,1,Pin_1*%
%TO.N,/SCL*%
X93985000Y-30345000D03*
D16*
%TO.P,J10,2,Pin_2*%
%TO.N,/SDA*%
X96525000Y-30345000D03*
%TO.P,J10,3,Pin_3*%
%TO.N,/GPIO15*%
X93985000Y-32885000D03*
%TO.P,J10,4,Pin_4*%
%TO.N,/GPIO14*%
X96525000Y-32885000D03*
D15*
%TO.P,J10,5,Pin_5*%
%TO.N,+3.3V*%
X93985000Y-35425000D03*
%TO.P,J10,6,Pin_6*%
X96525000Y-35425000D03*
D19*
%TO.P,J10,7,Pin_7*%
%TO.N,GND*%
X93985000Y-37965000D03*
%TO.P,J10,8,Pin_8*%
X96525000Y-37965000D03*
%TD*%
D15*
%TO.P,J7,1*%
%TO.N,/GPIO4*%
X126720000Y-32710000D03*
D16*
%TO.P,J7,2*%
%TO.N,/GPIO5*%
X124180000Y-32710000D03*
%TO.P,J7,3*%
%TO.N,/GPIO6*%
X121640000Y-32710000D03*
%TO.P,J7,4*%
%TO.N,/GPIO7*%
X119100000Y-32710000D03*
%TO.P,J7,5*%
%TO.N,/GPIO8*%
X116560000Y-32710000D03*
%TO.P,J7,6*%
%TO.N,/GPIO9*%
X114020000Y-32710000D03*
%TO.P,J7,7*%
%TO.N,/GPIO10*%
X111480000Y-32710000D03*
%TO.P,J7,8*%
%TO.N,/GPIO11*%
X108940000Y-32710000D03*
%TO.P,J7,9*%
%TO.N,/GPIO12*%
X106400000Y-32710000D03*
%TO.P,J7,10*%
%TO.N,/GPIO13*%
X103860000Y-32710000D03*
%TO.P,J7,11*%
%TO.N,+3.3V*%
X126720000Y-35250000D03*
%TO.P,J7,12*%
X124180000Y-35250000D03*
%TO.P,J7,13*%
X121640000Y-35250000D03*
%TO.P,J7,14*%
X119100000Y-35250000D03*
%TO.P,J7,15*%
X116560000Y-35250000D03*
%TO.P,J7,16*%
X114020000Y-35250000D03*
%TO.P,J7,17*%
X111480000Y-35250000D03*
%TO.P,J7,18*%
X108940000Y-35250000D03*
%TO.P,J7,19*%
X106400000Y-35250000D03*
%TO.P,J7,20*%
X103860000Y-35250000D03*
D19*
%TO.P,J7,21*%
%TO.N,GND*%
X126710000Y-37790000D03*
%TO.P,J7,22*%
X124170000Y-37790000D03*
%TO.P,J7,23*%
X121630000Y-37790000D03*
%TO.P,J7,24*%
X119090000Y-37790000D03*
%TO.P,J7,25*%
X116550000Y-37790000D03*
%TO.P,J7,26*%
X114010000Y-37790000D03*
%TO.P,J7,27*%
X111470000Y-37790000D03*
%TO.P,J7,28*%
X108930000Y-37790000D03*
%TO.P,J7,29*%
X106390000Y-37790000D03*
%TO.P,J7,30*%
X103850000Y-37790000D03*
%TD*%
D20*
%TO.P,SW-on/off2,1,A*%
%TO.N,/MTRPWR*%
X123375000Y-80800000D03*
D21*
%TO.P,SW-on/off2,2,B*%
%TO.N,+9V*%
X123375000Y-78800000D03*
%TO.P,SW-on/off2,3*%
%TO.N,N/C*%
X123375000Y-76800000D03*
D22*
%TO.P,SW-on/off2,NC*%
X123375000Y-82900000D03*
X123375000Y-74700000D03*
%TD*%
D24*
%TO.N,GND*%
X138769000Y-74090000D03*
X139785000Y-74090000D03*
X140875000Y-73075000D03*
X140875000Y-74095000D03*
X139785000Y-73070000D03*
X138769000Y-73070000D03*
%TO.N,/run*%
X114775000Y-70100000D03*
%TO.N,GND*%
X126450000Y-83450000D03*
X127450000Y-83450000D03*
%TO.N,+9V*%
X139025000Y-58200000D03*
%TO.N,GND*%
X128524000Y-47498000D03*
X126610000Y-47990000D03*
X101346000Y-49530000D03*
X102870000Y-45720000D03*
X132480000Y-53094000D03*
X127590000Y-46984000D03*
X132480000Y-54110000D03*
X124140000Y-50730000D03*
X110030000Y-55580000D03*
X134874000Y-47244000D03*
X125025000Y-57600000D03*
X131455000Y-55200000D03*
X125984000Y-50800000D03*
X118025000Y-57600000D03*
X121025000Y-57600000D03*
X131460000Y-53094000D03*
X125060000Y-52296000D03*
X101346000Y-46990000D03*
X124140000Y-51746000D03*
X130556000Y-53594000D03*
X130556000Y-52578000D03*
X134874000Y-50292000D03*
X126610000Y-45958000D03*
X130551000Y-54684000D03*
X116025000Y-57600000D03*
X102870000Y-49530000D03*
X101346000Y-45720000D03*
X134874000Y-48260000D03*
X117025000Y-57600000D03*
X122025000Y-57600000D03*
X124140000Y-52762000D03*
X126610000Y-46974000D03*
X102870000Y-46990000D03*
X103910000Y-55600000D03*
X125984000Y-51816000D03*
X128524000Y-48514000D03*
X119025000Y-57600000D03*
X128524000Y-46482000D03*
X127590000Y-48000000D03*
X125060000Y-51280000D03*
X101346000Y-48260000D03*
X124025000Y-57600000D03*
X120025000Y-57600000D03*
X132475000Y-55200000D03*
X125060000Y-53312000D03*
X134874000Y-51308000D03*
X134874000Y-49276000D03*
X127590000Y-45968000D03*
X98100000Y-55660000D03*
X102870000Y-48260000D03*
X131460000Y-54110000D03*
X125984000Y-52832000D03*
X123025000Y-57600000D03*
%TO.N,+5V*%
X95149500Y-57845183D03*
%TO.N,/3V3_PWM_1*%
X111600000Y-56625000D03*
%TO.N,/3V3_PWM_2*%
X103160000Y-53084500D03*
X105840000Y-54630000D03*
X105860000Y-56630000D03*
%TO.N,/3V3_PWM_3*%
X99016250Y-57480500D03*
X99987500Y-54800000D03*
X97420000Y-53084500D03*
%TO.N,/5V_PWM_1*%
X107155190Y-55305963D03*
X93425250Y-52150250D03*
%TO.N,/5V_PWM_2*%
X101430000Y-55670000D03*
%TO.N,/5V_PWM_3*%
X95149500Y-56394500D03*
%TD*%
D25*
%TO.N,/adcref_3v3*%
X129155000Y-64057500D02*
X131440000Y-61772500D01*
X131440000Y-61772500D02*
X131440000Y-59862500D01*
%TO.N,/5V_PWM_2*%
X101430000Y-55217195D02*
X98572305Y-52359500D01*
X93260000Y-54050000D02*
X91190000Y-54050000D01*
X98572305Y-52359500D02*
X94950500Y-52359500D01*
X94950500Y-52359500D02*
X93260000Y-54050000D01*
X101430000Y-55670000D02*
X101430000Y-55217195D01*
X91190000Y-54050000D02*
X89900000Y-55340000D01*
%TO.N,+5V*%
X92440000Y-57880000D02*
X95114683Y-57880000D01*
X95114683Y-57880000D02*
X95149500Y-57845183D01*
%TO.N,/5V_PWM_1*%
X93425250Y-52150250D02*
X94045500Y-51530000D01*
X104270000Y-51530000D02*
X107155190Y-54415190D01*
X107155190Y-54415190D02*
X107155190Y-55305963D01*
X94045500Y-51530000D02*
X104270000Y-51530000D01*
%TO.N,/run*%
X114775000Y-70100000D02*
X114775000Y-62875000D01*
X114775000Y-62875000D02*
X115175000Y-62475000D01*
X115175000Y-62475000D02*
X115175000Y-59250000D01*
X115175000Y-59250000D02*
X115825000Y-58600000D01*
X115825000Y-58600000D02*
X117690000Y-58600000D01*
X117690000Y-58600000D02*
X118970000Y-59880000D01*
D26*
%TO.N,+9V*%
X139025000Y-58200000D02*
X139100000Y-58125000D01*
X139100000Y-58125000D02*
X145125000Y-58125000D01*
X145125000Y-58125000D02*
X146375000Y-59375000D01*
X146375000Y-59375000D02*
X146375000Y-65927500D01*
X146375000Y-65927500D02*
X144777500Y-67525000D01*
D25*
%TO.N,/SCL*%
X91925000Y-32238604D02*
X91925000Y-41368299D01*
X91900000Y-32213604D02*
X91925000Y-32238604D01*
X91925000Y-41368299D02*
X90750000Y-42543299D01*
X93933604Y-30180000D02*
X91900000Y-32213604D01*
X90750000Y-42543299D02*
X90750000Y-45495000D01*
X90750000Y-45495000D02*
X92000000Y-45495000D01*
%TO.N,/GPIO22*%
X116235000Y-69122500D02*
X117410000Y-67947500D01*
X117410000Y-67947500D02*
X117410000Y-60860000D01*
X117410000Y-60860000D02*
X116430000Y-59880000D01*
%TO.N,/POT_signal*%
X116365000Y-73907500D02*
X90792500Y-73907500D01*
X90792500Y-73907500D02*
X88925000Y-75775000D01*
%TO.N,/extra_button*%
X114550000Y-73182500D02*
X114532500Y-73200000D01*
X114532500Y-73200000D02*
X94475000Y-73200000D01*
X94475000Y-73200000D02*
X82320000Y-61045000D01*
%TO.N,/GPIO27*%
X122700000Y-61230000D02*
X124050000Y-59880000D01*
X122700000Y-61230000D02*
X122700000Y-61800000D01*
X122700000Y-61800000D02*
X122680000Y-61820000D01*
X122680000Y-61820000D02*
X122680000Y-67947500D01*
X122680000Y-67947500D02*
X123855000Y-69122500D01*
%TO.N,/GPIO26*%
X119950000Y-61440000D02*
X121510000Y-59880000D01*
X119950000Y-61440000D02*
X119950000Y-67757500D01*
X119950000Y-67757500D02*
X121315000Y-69122500D01*
%TO.N,/3V3_PWM_1*%
X111650000Y-56575000D02*
X111600000Y-56625000D01*
X112575000Y-57475000D02*
X112575000Y-67619201D01*
X111650000Y-56550000D02*
X111650000Y-56575000D01*
X111650000Y-56550000D02*
X112575000Y-57475000D01*
X112575000Y-67619201D02*
X108611701Y-71582500D01*
X108611701Y-71582500D02*
X101870000Y-71582500D01*
%TO.N,/3V3_PWM_2*%
X105840000Y-54630000D02*
X105840000Y-54610000D01*
X100505000Y-62735000D02*
X100505000Y-70407500D01*
X102555000Y-60685000D02*
X100505000Y-62735000D01*
X104314500Y-53084500D02*
X103160000Y-53084500D01*
X100505000Y-70407500D02*
X99330000Y-71582500D01*
X105860000Y-56630000D02*
X103785000Y-58705000D01*
X105840000Y-54610000D02*
X104314500Y-53084500D01*
X103785000Y-58705000D02*
X103243299Y-58705000D01*
X103243299Y-58705000D02*
X102555000Y-59393299D01*
X102555000Y-59393299D02*
X102555000Y-60685000D01*
%TO.N,/GPIO0*%
X143375000Y-41105000D02*
X143375000Y-33985000D01*
X143375000Y-33985000D02*
X144550000Y-32810000D01*
X144370000Y-42100000D02*
X143375000Y-41105000D01*
%TO.N,/GPIO1*%
X140750000Y-34070000D02*
X142010000Y-32810000D01*
X140750000Y-41020000D02*
X140750000Y-34070000D01*
X141830000Y-42100000D02*
X140750000Y-41020000D01*
%TO.N,/GPIO2*%
X136750000Y-42100000D02*
X138295000Y-40555000D01*
X138295000Y-33985000D02*
X139470000Y-32810000D01*
X138295000Y-40555000D02*
X138295000Y-33985000D01*
%TO.N,/GPIO3*%
X135575000Y-40735000D02*
X135575000Y-34165000D01*
X135575000Y-34165000D02*
X136930000Y-32810000D01*
X134210000Y-42100000D02*
X135575000Y-40735000D01*
%TO.N,/GPIO4*%
X131670000Y-37660000D02*
X126720000Y-32710000D01*
X131670000Y-42100000D02*
X131670000Y-37660000D01*
%TO.N,/GPIO5*%
X128670000Y-41920000D02*
X125355000Y-38605000D01*
X125355000Y-33885000D02*
X124180000Y-32710000D01*
X125355000Y-38605000D02*
X125355000Y-33885000D01*
%TO.N,/GPIO6*%
X122995000Y-34065000D02*
X121640000Y-32710000D01*
X122995000Y-41045000D02*
X122995000Y-34065000D01*
X124050000Y-42100000D02*
X122995000Y-41045000D01*
%TO.N,/GPIO7*%
X120455000Y-41045000D02*
X120455000Y-34065000D01*
X121510000Y-42100000D02*
X120455000Y-41045000D01*
X120455000Y-34065000D02*
X119100000Y-32710000D01*
%TO.N,/GPIO8*%
X118970000Y-42100000D02*
X117725000Y-40855000D01*
X117735000Y-36740000D02*
X117735000Y-33885000D01*
X117725000Y-36750000D02*
X117735000Y-36740000D01*
X117725000Y-40855000D02*
X117725000Y-36750000D01*
X117735000Y-33885000D02*
X116560000Y-32710000D01*
%TO.N,/GPIO9*%
X115195000Y-40865000D02*
X115195000Y-33885000D01*
X116430000Y-42100000D02*
X115195000Y-40865000D01*
X115195000Y-33885000D02*
X114020000Y-32710000D01*
%TO.N,/GPIO10*%
X111350000Y-42100000D02*
X110295000Y-41045000D01*
X110295000Y-41045000D02*
X110295000Y-33895000D01*
X110295000Y-33895000D02*
X111480000Y-32710000D01*
%TO.N,/GPIO11*%
X107755000Y-33895000D02*
X108940000Y-32710000D01*
X108810000Y-42100000D02*
X107755000Y-41045000D01*
X107755000Y-41045000D02*
X107755000Y-33895000D01*
%TO.N,/GPIO12*%
X105215000Y-33895000D02*
X106400000Y-32710000D01*
X105215000Y-41045000D02*
X105215000Y-33895000D01*
X106270000Y-42100000D02*
X105215000Y-41045000D01*
%TO.N,/GPIO13*%
X102675000Y-33895000D02*
X103860000Y-32710000D01*
X102675000Y-41045000D02*
X102675000Y-33895000D01*
X103730000Y-42100000D02*
X102675000Y-41045000D01*
%TO.N,/GPIO14*%
X97950000Y-34140000D02*
X96530000Y-32720000D01*
X98650000Y-42100000D02*
X97950000Y-41400000D01*
X97950000Y-41400000D02*
X97950000Y-34140000D01*
%TO.N,/GPIO15*%
X95260000Y-41250000D02*
X95260000Y-33990000D01*
X96110000Y-42100000D02*
X95260000Y-41250000D01*
X95260000Y-33990000D02*
X93990000Y-32720000D01*
%TO.N,/GPIO16*%
X96790000Y-69042500D02*
X95615000Y-67867500D01*
X95615000Y-67867500D02*
X95615000Y-60375000D01*
%TO.N,/GPIO17*%
X99330000Y-69042500D02*
X98155000Y-67867500D01*
X98155000Y-67867500D02*
X98155000Y-60375000D01*
%TO.N,/GPIO18*%
X103730000Y-59880000D02*
X103730000Y-62195000D01*
X103730000Y-62195000D02*
X103045000Y-62880000D01*
X103045000Y-62880000D02*
X103045000Y-67867500D01*
X103045000Y-67867500D02*
X101870000Y-69042500D01*
%TO.N,/GPIO19*%
X105585000Y-67867500D02*
X104410000Y-69042500D01*
X105585000Y-60565000D02*
X105585000Y-67867500D01*
X106270000Y-59880000D02*
X105585000Y-60565000D01*
%TO.N,/GPIO20*%
X108315000Y-60375000D02*
X108315000Y-67677500D01*
X108315000Y-67677500D02*
X106950000Y-69042500D01*
%TO.N,/GPIO21*%
X111350000Y-59880000D02*
X111350000Y-67182500D01*
X111350000Y-67182500D02*
X109490000Y-69042500D01*
%TO.N,/GPIO28*%
X125270000Y-63492500D02*
X128900000Y-59862500D01*
X120720000Y-70507500D02*
X124545000Y-70507500D01*
X125270000Y-69782500D02*
X125270000Y-63492500D01*
X119335000Y-69122500D02*
X120720000Y-70507500D01*
X124545000Y-70507500D02*
X125270000Y-69782500D01*
%TO.N,/3V3_PWM_3*%
X99987500Y-54777500D02*
X98294500Y-53084500D01*
X94800000Y-59125000D02*
X94800000Y-69592500D01*
X99987500Y-54800000D02*
X99987500Y-54777500D01*
X97876750Y-58620000D02*
X95305000Y-58620000D01*
X98294500Y-53084500D02*
X97420000Y-53084500D01*
X95305000Y-58620000D02*
X94800000Y-59125000D01*
X94800000Y-69592500D02*
X96790000Y-71582500D01*
X99016250Y-57480500D02*
X97876750Y-58620000D01*
%TO.N,/5V_PWM_3*%
X94954000Y-56590000D02*
X88610000Y-56590000D01*
X95149500Y-56394500D02*
X94954000Y-56590000D01*
X88610000Y-56590000D02*
X87360000Y-55340000D01*
%TO.N,/SCL*%
X82820000Y-45490000D02*
X91995000Y-45490000D01*
%TO.N,/SDA*%
X93400000Y-31675000D02*
X92425000Y-32650000D01*
X92425000Y-32650000D02*
X92425000Y-42530000D01*
X96530000Y-30180000D02*
X95035000Y-31675000D01*
X95035000Y-31675000D02*
X93400000Y-31675000D01*
%TO.N,/POT_signal*%
X118775000Y-71497500D02*
X116365000Y-73907500D01*
%TO.N,/extra_button*%
X116235000Y-71497500D02*
X114550000Y-73182500D01*
X82320000Y-60360000D02*
X82320000Y-53860000D01*
%TD*%
%TA.AperFunction,Conductor*%
%TO.N,GND*%
G36*
X96713000Y-37731613D02*
G01*
X96758387Y-37777000D01*
X96775000Y-37839000D01*
X96775000Y-39315000D01*
X97192500Y-39315000D01*
X97254500Y-39331613D01*
X97299887Y-39377000D01*
X97316500Y-39439000D01*
X97316500Y-41087011D01*
X97302516Y-41144217D01*
X97263717Y-41188520D01*
X97208855Y-41209928D01*
X97150304Y-41203611D01*
X97101271Y-41170994D01*
X97033242Y-41097096D01*
X97033241Y-41097095D01*
X97033240Y-41097094D01*
X96855576Y-40958811D01*
X96657574Y-40851658D01*
X96657573Y-40851657D01*
X96657572Y-40851657D01*
X96444636Y-40778556D01*
X96222569Y-40741500D01*
X96017500Y-40741500D01*
X95955500Y-40724887D01*
X95910113Y-40679500D01*
X95893500Y-40617500D01*
X95893500Y-39439000D01*
X95910113Y-39377000D01*
X95955500Y-39331613D01*
X96017500Y-39315000D01*
X96275000Y-39315000D01*
X96275000Y-38215000D01*
X96017500Y-38215000D01*
X95955500Y-38198387D01*
X95910113Y-38153000D01*
X95893500Y-38091000D01*
X95893500Y-37839000D01*
X95910113Y-37777000D01*
X95955500Y-37731613D01*
X96017500Y-37715000D01*
X96651000Y-37715000D01*
X96713000Y-37731613D01*
G37*
%TD.AperFunction*%
%TA.AperFunction,Conductor*%
G36*
X128293819Y-35179723D02*
G01*
X131000181Y-37886085D01*
X131027061Y-37926313D01*
X131036500Y-37973766D01*
X131036500Y-40824271D01*
X131019023Y-40887745D01*
X130971517Y-40933325D01*
X130941517Y-40949561D01*
X130924424Y-40958811D01*
X130746760Y-41097094D01*
X130594279Y-41262730D01*
X130503809Y-41401205D01*
X130459017Y-41442438D01*
X130400000Y-41457383D01*
X130340983Y-41442438D01*
X130296191Y-41401205D01*
X130246118Y-41324563D01*
X130205722Y-41262732D01*
X130053240Y-41097094D01*
X129875576Y-40958811D01*
X129677574Y-40851658D01*
X129677573Y-40851657D01*
X129677572Y-40851657D01*
X129464636Y-40778556D01*
X129242569Y-40741500D01*
X129017431Y-40741500D01*
X128795363Y-40778556D01*
X128592461Y-40848213D01*
X128524249Y-40851741D01*
X128464517Y-40818613D01*
X126997586Y-39351681D01*
X126967336Y-39302318D01*
X126962794Y-39244602D01*
X126984949Y-39191115D01*
X127028972Y-39153515D01*
X127085267Y-39140000D01*
X127607824Y-39140000D01*
X127667375Y-39133597D01*
X127802089Y-39083352D01*
X127917188Y-38997188D01*
X128003352Y-38882089D01*
X128053597Y-38747375D01*
X128060000Y-38687824D01*
X128060000Y-38040000D01*
X126112500Y-38040000D01*
X126050500Y-38023387D01*
X126005113Y-37978000D01*
X125988500Y-37916000D01*
X125988500Y-37664000D01*
X126005113Y-37602000D01*
X126050500Y-37556613D01*
X126112500Y-37540000D01*
X128060000Y-37540000D01*
X128060000Y-36892176D01*
X128053597Y-36832624D01*
X128003352Y-36697910D01*
X127917188Y-36582811D01*
X127802088Y-36496647D01*
X127689632Y-36454703D01*
X127640097Y-36420687D01*
X127612370Y-36367377D01*
X127612963Y-36307290D01*
X127641737Y-36254537D01*
X127643234Y-36252910D01*
X127643240Y-36252906D01*
X127795722Y-36087268D01*
X127918860Y-35898791D01*
X128009296Y-35692616D01*
X128064564Y-35474368D01*
X128082562Y-35257159D01*
X128107503Y-35192257D01*
X128163460Y-35150980D01*
X128232837Y-35146313D01*
X128293819Y-35179723D01*
G37*
%TD.AperFunction*%
%TA.AperFunction,Conductor*%
G36*
X124659500Y-37556613D02*
G01*
X124704887Y-37602000D01*
X124721500Y-37664000D01*
X124721500Y-37916000D01*
X124704887Y-37978000D01*
X124659500Y-38023387D01*
X124597500Y-38040000D01*
X124420000Y-38040000D01*
X124420000Y-39140000D01*
X124942734Y-39140000D01*
X124990187Y-39149439D01*
X125030415Y-39176319D01*
X126392414Y-40538319D01*
X126422664Y-40587682D01*
X126427206Y-40645398D01*
X126405051Y-40698885D01*
X126361028Y-40736485D01*
X126304733Y-40750000D01*
X125692176Y-40750000D01*
X125632624Y-40756402D01*
X125497910Y-40806647D01*
X125382811Y-40892811D01*
X125296647Y-41007911D01*
X125250319Y-41132122D01*
X125214367Y-41183335D01*
X125157986Y-41210473D01*
X125095532Y-41206625D01*
X125042908Y-41172772D01*
X124973240Y-41097094D01*
X124960630Y-41087279D01*
X124795576Y-40958811D01*
X124597574Y-40851658D01*
X124597573Y-40851657D01*
X124597572Y-40851657D01*
X124384636Y-40778556D01*
X124162569Y-40741500D01*
X123937431Y-40741500D01*
X123772907Y-40768953D01*
X123719582Y-40766196D01*
X123672359Y-40741267D01*
X123639998Y-40698791D01*
X123628500Y-40646645D01*
X123628500Y-39264000D01*
X123645113Y-39202000D01*
X123690500Y-39156613D01*
X123752500Y-39140000D01*
X123920000Y-39140000D01*
X123920000Y-38040000D01*
X123752500Y-38040000D01*
X123690500Y-38023387D01*
X123645113Y-37978000D01*
X123628500Y-37916000D01*
X123628500Y-37664000D01*
X123645113Y-37602000D01*
X123690500Y-37556613D01*
X123752500Y-37540000D01*
X124597500Y-37540000D01*
X124659500Y-37556613D01*
G37*
%TD.AperFunction*%
%TA.AperFunction,Conductor*%
G36*
X142679500Y-37656613D02*
G01*
X142724887Y-37702000D01*
X142741500Y-37764000D01*
X142741500Y-38016000D01*
X142724887Y-38078000D01*
X142679500Y-38123387D01*
X142617500Y-38140000D01*
X142260000Y-38140000D01*
X142260000Y-39240000D01*
X142617500Y-39240000D01*
X142679500Y-39256613D01*
X142724887Y-39302000D01*
X142741500Y-39364000D01*
X142741500Y-40840506D01*
X142725312Y-40901765D01*
X142680974Y-40947029D01*
X142620063Y-40964480D01*
X142558483Y-40949561D01*
X142553804Y-40947029D01*
X142377574Y-40851658D01*
X142377573Y-40851657D01*
X142377572Y-40851657D01*
X142164636Y-40778556D01*
X141942569Y-40741500D01*
X141717431Y-40741500D01*
X141527909Y-40773125D01*
X141474582Y-40770367D01*
X141427359Y-40745438D01*
X141394998Y-40702962D01*
X141383500Y-40650816D01*
X141383500Y-39364000D01*
X141400113Y-39302000D01*
X141445500Y-39256613D01*
X141507500Y-39240000D01*
X141760000Y-39240000D01*
X141760000Y-38140000D01*
X141507500Y-38140000D01*
X141445500Y-38123387D01*
X141400113Y-38078000D01*
X141383500Y-38016000D01*
X141383500Y-37764000D01*
X141400113Y-37702000D01*
X141445500Y-37656613D01*
X141507500Y-37640000D01*
X142617500Y-37640000D01*
X142679500Y-37656613D01*
G37*
%TD.AperFunction*%
%TA.AperFunction,Conductor*%
G36*
X122299500Y-37556613D02*
G01*
X122344887Y-37602000D01*
X122361500Y-37664000D01*
X122361500Y-37916000D01*
X122344887Y-37978000D01*
X122299500Y-38023387D01*
X122237500Y-38040000D01*
X121880000Y-38040000D01*
X121880000Y-39140000D01*
X122237500Y-39140000D01*
X122299500Y-39156613D01*
X122344887Y-39202000D01*
X122361500Y-39264000D01*
X122361500Y-40808036D01*
X122345312Y-40869295D01*
X122300974Y-40914559D01*
X122240063Y-40932010D01*
X122178485Y-40917091D01*
X122057574Y-40851658D01*
X122057570Y-40851656D01*
X122057569Y-40851656D01*
X121844636Y-40778556D01*
X121622569Y-40741500D01*
X121397431Y-40741500D01*
X121232907Y-40768953D01*
X121179582Y-40766196D01*
X121132359Y-40741267D01*
X121099998Y-40698791D01*
X121088500Y-40646645D01*
X121088500Y-39264000D01*
X121105113Y-39202000D01*
X121150500Y-39156613D01*
X121212500Y-39140000D01*
X121380000Y-39140000D01*
X121380000Y-38040000D01*
X121212500Y-38040000D01*
X121150500Y-38023387D01*
X121105113Y-37978000D01*
X121088500Y-37916000D01*
X121088500Y-37664000D01*
X121105113Y-37602000D01*
X121150500Y-37556613D01*
X121212500Y-37540000D01*
X122237500Y-37540000D01*
X122299500Y-37556613D01*
G37*
%TD.AperFunction*%
%TA.AperFunction,Conductor*%
G36*
X119759500Y-37556613D02*
G01*
X119804887Y-37602000D01*
X119821500Y-37664000D01*
X119821500Y-37916000D01*
X119804887Y-37978000D01*
X119759500Y-38023387D01*
X119697500Y-38040000D01*
X119340000Y-38040000D01*
X119340000Y-39140000D01*
X119697500Y-39140000D01*
X119759500Y-39156613D01*
X119804887Y-39202000D01*
X119821500Y-39264000D01*
X119821500Y-40808036D01*
X119805312Y-40869295D01*
X119760974Y-40914559D01*
X119700063Y-40932010D01*
X119638485Y-40917091D01*
X119517574Y-40851658D01*
X119517570Y-40851656D01*
X119517569Y-40851656D01*
X119304636Y-40778556D01*
X119082569Y-40741500D01*
X118857431Y-40741500D01*
X118625230Y-40780247D01*
X118624769Y-40777490D01*
X118572686Y-40780181D01*
X118512959Y-40747054D01*
X118394819Y-40628914D01*
X118367939Y-40588686D01*
X118358500Y-40541233D01*
X118358500Y-39264000D01*
X118375113Y-39202000D01*
X118420500Y-39156613D01*
X118482500Y-39140000D01*
X118840000Y-39140000D01*
X118840000Y-38040000D01*
X118482500Y-38040000D01*
X118420500Y-38023387D01*
X118375113Y-37978000D01*
X118358500Y-37916000D01*
X118358500Y-37664000D01*
X118375113Y-37602000D01*
X118420500Y-37556613D01*
X118482500Y-37540000D01*
X119697500Y-37540000D01*
X119759500Y-37556613D01*
G37*
%TD.AperFunction*%
%TA.AperFunction,Conductor*%
G36*
X109599500Y-37556613D02*
G01*
X109644887Y-37602000D01*
X109661500Y-37664000D01*
X109661500Y-37916000D01*
X109644887Y-37978000D01*
X109599500Y-38023387D01*
X109537500Y-38040000D01*
X109180000Y-38040000D01*
X109180000Y-39140000D01*
X109537500Y-39140000D01*
X109599500Y-39156613D01*
X109644887Y-39202000D01*
X109661500Y-39264000D01*
X109661500Y-40808036D01*
X109645312Y-40869295D01*
X109600974Y-40914559D01*
X109540063Y-40932010D01*
X109478485Y-40917091D01*
X109357574Y-40851658D01*
X109357570Y-40851656D01*
X109357569Y-40851656D01*
X109144636Y-40778556D01*
X108922569Y-40741500D01*
X108697431Y-40741500D01*
X108532907Y-40768953D01*
X108479582Y-40766196D01*
X108432359Y-40741267D01*
X108399998Y-40698791D01*
X108388500Y-40646645D01*
X108388500Y-39264000D01*
X108405113Y-39202000D01*
X108450500Y-39156613D01*
X108512500Y-39140000D01*
X108680000Y-39140000D01*
X108680000Y-38040000D01*
X108512500Y-38040000D01*
X108450500Y-38023387D01*
X108405113Y-37978000D01*
X108388500Y-37916000D01*
X108388500Y-37664000D01*
X108405113Y-37602000D01*
X108450500Y-37556613D01*
X108512500Y-37540000D01*
X109537500Y-37540000D01*
X109599500Y-37556613D01*
G37*
%TD.AperFunction*%
%TA.AperFunction,Conductor*%
G36*
X107059500Y-37556613D02*
G01*
X107104887Y-37602000D01*
X107121500Y-37664000D01*
X107121500Y-37916000D01*
X107104887Y-37978000D01*
X107059500Y-38023387D01*
X106997500Y-38040000D01*
X106640000Y-38040000D01*
X106640000Y-39140000D01*
X106997500Y-39140000D01*
X107059500Y-39156613D01*
X107104887Y-39202000D01*
X107121500Y-39264000D01*
X107121500Y-40808036D01*
X107105312Y-40869295D01*
X107060974Y-40914559D01*
X107000063Y-40932010D01*
X106938485Y-40917091D01*
X106817574Y-40851658D01*
X106817570Y-40851656D01*
X106817569Y-40851656D01*
X106604636Y-40778556D01*
X106382569Y-40741500D01*
X106157431Y-40741500D01*
X105992907Y-40768953D01*
X105939582Y-40766196D01*
X105892359Y-40741267D01*
X105859998Y-40698791D01*
X105848500Y-40646645D01*
X105848500Y-39264000D01*
X105865113Y-39202000D01*
X105910500Y-39156613D01*
X105972500Y-39140000D01*
X106140000Y-39140000D01*
X106140000Y-38040000D01*
X105972500Y-38040000D01*
X105910500Y-38023387D01*
X105865113Y-37978000D01*
X105848500Y-37916000D01*
X105848500Y-37664000D01*
X105865113Y-37602000D01*
X105910500Y-37556613D01*
X105972500Y-37540000D01*
X106997500Y-37540000D01*
X107059500Y-37556613D01*
G37*
%TD.AperFunction*%
%TA.AperFunction,Conductor*%
G36*
X104519500Y-37556613D02*
G01*
X104564887Y-37602000D01*
X104581500Y-37664000D01*
X104581500Y-37916000D01*
X104564887Y-37978000D01*
X104519500Y-38023387D01*
X104457500Y-38040000D01*
X104100000Y-38040000D01*
X104100000Y-39140000D01*
X104457500Y-39140000D01*
X104519500Y-39156613D01*
X104564887Y-39202000D01*
X104581500Y-39264000D01*
X104581500Y-40808036D01*
X104565312Y-40869295D01*
X104520974Y-40914559D01*
X104460063Y-40932010D01*
X104398485Y-40917091D01*
X104277574Y-40851658D01*
X104277570Y-40851656D01*
X104277569Y-40851656D01*
X104064636Y-40778556D01*
X103842569Y-40741500D01*
X103617431Y-40741500D01*
X103452907Y-40768953D01*
X103399582Y-40766196D01*
X103352359Y-40741267D01*
X103319998Y-40698791D01*
X103308500Y-40646645D01*
X103308500Y-39264000D01*
X103325113Y-39202000D01*
X103370500Y-39156613D01*
X103432500Y-39140000D01*
X103600000Y-39140000D01*
X103600000Y-37664000D01*
X103616613Y-37602000D01*
X103662000Y-37556613D01*
X103724000Y-37540000D01*
X104457500Y-37540000D01*
X104519500Y-37556613D01*
G37*
%TD.AperFunction*%
%TA.AperFunction,Conductor*%
G36*
X117029500Y-37556613D02*
G01*
X117074887Y-37602000D01*
X117091500Y-37664000D01*
X117091500Y-37916000D01*
X117074887Y-37978000D01*
X117029500Y-38023387D01*
X116967500Y-38040000D01*
X116800000Y-38040000D01*
X116800000Y-39140000D01*
X116967500Y-39140000D01*
X117029500Y-39156613D01*
X117074887Y-39202000D01*
X117091500Y-39264000D01*
X117091500Y-40717096D01*
X117077751Y-40773847D01*
X117039553Y-40818013D01*
X116985378Y-40839800D01*
X116927237Y-40834377D01*
X116764636Y-40778556D01*
X116542569Y-40741500D01*
X116317431Y-40741500D01*
X116085230Y-40780247D01*
X116084769Y-40777490D01*
X116032686Y-40780181D01*
X115972959Y-40747054D01*
X115864819Y-40638914D01*
X115837939Y-40598686D01*
X115828500Y-40551233D01*
X115828500Y-39264000D01*
X115845113Y-39202000D01*
X115890500Y-39156613D01*
X115952500Y-39140000D01*
X116300000Y-39140000D01*
X116300000Y-38040000D01*
X115952500Y-38040000D01*
X115890500Y-38023387D01*
X115845113Y-37978000D01*
X115828500Y-37916000D01*
X115828500Y-37664000D01*
X115845113Y-37602000D01*
X115890500Y-37556613D01*
X115952500Y-37540000D01*
X116967500Y-37540000D01*
X117029500Y-37556613D01*
G37*
%TD.AperFunction*%
%TA.AperFunction,Conductor*%
G36*
X137599500Y-37656613D02*
G01*
X137644887Y-37702000D01*
X137661500Y-37764000D01*
X137661500Y-38016000D01*
X137644887Y-38078000D01*
X137599500Y-38123387D01*
X137537500Y-38140000D01*
X137180000Y-38140000D01*
X137180000Y-39240000D01*
X137537500Y-39240000D01*
X137599500Y-39256613D01*
X137644887Y-39302000D01*
X137661500Y-39364000D01*
X137661500Y-40241234D01*
X137652061Y-40288687D01*
X137625181Y-40328914D01*
X137485408Y-40468687D01*
X137207040Y-40747054D01*
X137147308Y-40780182D01*
X137095230Y-40777488D01*
X137094770Y-40780247D01*
X136862569Y-40741500D01*
X136637431Y-40741500D01*
X136415363Y-40778556D01*
X136372763Y-40793181D01*
X136314623Y-40798605D01*
X136260447Y-40776817D01*
X136222249Y-40732651D01*
X136208500Y-40675900D01*
X136208500Y-39364000D01*
X136225113Y-39302000D01*
X136270500Y-39256613D01*
X136332500Y-39240000D01*
X136680000Y-39240000D01*
X136680000Y-37764000D01*
X136696613Y-37702000D01*
X136742000Y-37656613D01*
X136804000Y-37640000D01*
X137537500Y-37640000D01*
X137599500Y-37656613D01*
G37*
%TD.AperFunction*%
%TA.AperFunction,Conductor*%
G36*
X144622991Y-28626149D02*
G01*
X144657737Y-28643963D01*
X145125698Y-28986500D01*
X147219857Y-30519378D01*
X147279052Y-30562707D01*
X147316480Y-30606834D01*
X147329810Y-30663139D01*
X147245517Y-58697071D01*
X147231867Y-58753258D01*
X147194222Y-58797147D01*
X147140769Y-58819195D01*
X147083129Y-58814606D01*
X147033837Y-58784379D01*
X147018390Y-58768932D01*
X147013921Y-58764223D01*
X146969434Y-58714815D01*
X146958451Y-58706835D01*
X146943657Y-58694199D01*
X145805798Y-57556340D01*
X145793159Y-57541542D01*
X145790949Y-57538500D01*
X145785185Y-57530566D01*
X145735775Y-57486077D01*
X145731066Y-57481608D01*
X145716988Y-57467530D01*
X145716986Y-57467528D01*
X145701490Y-57454979D01*
X145696581Y-57450787D01*
X145647169Y-57406296D01*
X145647168Y-57406295D01*
X145635409Y-57399506D01*
X145619381Y-57388490D01*
X145608839Y-57379953D01*
X145608837Y-57379952D01*
X145608836Y-57379951D01*
X145549603Y-57349770D01*
X145543914Y-57346681D01*
X145486331Y-57313436D01*
X145486332Y-57313436D01*
X145486328Y-57313434D01*
X145473426Y-57309242D01*
X145455454Y-57301798D01*
X145443361Y-57295637D01*
X145379140Y-57278428D01*
X145372918Y-57276585D01*
X145309702Y-57256045D01*
X145296209Y-57254627D01*
X145277084Y-57251083D01*
X145263970Y-57247569D01*
X145197575Y-57244089D01*
X145191112Y-57243580D01*
X145171312Y-57241500D01*
X145171306Y-57241500D01*
X145151397Y-57241500D01*
X145144907Y-57241330D01*
X145078507Y-57237850D01*
X145078506Y-57237850D01*
X145065103Y-57239973D01*
X145045705Y-57241500D01*
X139179295Y-57241500D01*
X139159896Y-57239973D01*
X139146493Y-57237850D01*
X139080093Y-57241330D01*
X139073603Y-57241500D01*
X139053688Y-57241500D01*
X139033888Y-57243580D01*
X139027425Y-57244089D01*
X138961026Y-57247570D01*
X138947912Y-57251083D01*
X138928796Y-57254626D01*
X138915298Y-57256045D01*
X138852087Y-57276584D01*
X138845864Y-57278427D01*
X138781636Y-57295637D01*
X138769536Y-57301802D01*
X138751576Y-57309241D01*
X138738670Y-57313435D01*
X138681099Y-57346673D01*
X138675397Y-57349769D01*
X138616158Y-57379953D01*
X138608000Y-57386559D01*
X138580414Y-57403464D01*
X138568249Y-57408880D01*
X138413748Y-57521133D01*
X138285957Y-57663058D01*
X138190472Y-57828443D01*
X138131458Y-58010070D01*
X138111496Y-58199999D01*
X138131458Y-58389929D01*
X138168448Y-58503771D01*
X138173898Y-58554463D01*
X138158490Y-58603063D01*
X138124829Y-58641355D01*
X138082812Y-58672809D01*
X137996647Y-58787911D01*
X137950319Y-58912122D01*
X137914367Y-58963335D01*
X137857986Y-58990473D01*
X137795532Y-58986625D01*
X137742908Y-58952772D01*
X137673240Y-58877094D01*
X137618160Y-58834223D01*
X137495576Y-58738811D01*
X137297574Y-58631658D01*
X137297573Y-58631657D01*
X137297572Y-58631657D01*
X137084636Y-58558556D01*
X136862569Y-58521500D01*
X136637431Y-58521500D01*
X136415363Y-58558556D01*
X136202427Y-58631657D01*
X136004424Y-58738811D01*
X135826760Y-58877094D01*
X135674279Y-59042730D01*
X135583809Y-59181205D01*
X135539017Y-59222438D01*
X135480000Y-59237383D01*
X135420983Y-59222438D01*
X135376191Y-59181205D01*
X135313195Y-59084783D01*
X135285722Y-59042732D01*
X135133240Y-58877094D01*
X134955576Y-58738811D01*
X134757574Y-58631658D01*
X134757573Y-58631657D01*
X134757572Y-58631657D01*
X134544636Y-58558556D01*
X134322569Y-58521500D01*
X134097431Y-58521500D01*
X133875363Y-58558556D01*
X133662427Y-58631657D01*
X133464424Y-58738811D01*
X133286760Y-58877094D01*
X133134279Y-59042730D01*
X133043809Y-59181205D01*
X132999017Y-59222438D01*
X132940000Y-59237383D01*
X132880983Y-59222438D01*
X132836191Y-59181205D01*
X132773195Y-59084783D01*
X132745722Y-59042732D01*
X132593240Y-58877094D01*
X132415576Y-58738811D01*
X132217574Y-58631658D01*
X132217573Y-58631657D01*
X132217572Y-58631657D01*
X132004636Y-58558556D01*
X131782569Y-58521500D01*
X131557431Y-58521500D01*
X131335363Y-58558556D01*
X131122427Y-58631657D01*
X130924424Y-58738811D01*
X130746760Y-58877094D01*
X130594279Y-59042730D01*
X130503809Y-59181205D01*
X130459017Y-59222438D01*
X130400000Y-59237383D01*
X130340983Y-59222438D01*
X130296191Y-59181205D01*
X130233195Y-59084783D01*
X130205722Y-59042732D01*
X130053240Y-58877094D01*
X129875576Y-58738811D01*
X129677574Y-58631658D01*
X129677573Y-58631657D01*
X129677572Y-58631657D01*
X129464636Y-58558556D01*
X129242569Y-58521500D01*
X129017431Y-58521500D01*
X128795363Y-58558556D01*
X128582427Y-58631657D01*
X128384424Y-58738811D01*
X128206759Y-58877094D01*
X128137090Y-58952773D01*
X128084466Y-58986626D01*
X128022012Y-58990473D01*
X127965631Y-58963335D01*
X127929680Y-58912121D01*
X127883352Y-58787911D01*
X127797188Y-58672811D01*
X127682089Y-58586647D01*
X127547375Y-58536402D01*
X127487824Y-58530000D01*
X126840000Y-58530000D01*
X126840000Y-60006000D01*
X126823387Y-60068000D01*
X126778000Y-60113387D01*
X126716000Y-60130000D01*
X126464000Y-60130000D01*
X126402000Y-60113387D01*
X126356613Y-60068000D01*
X126340000Y-60006000D01*
X126340000Y-58530000D01*
X125692176Y-58530000D01*
X125632624Y-58536402D01*
X125497910Y-58586647D01*
X125382811Y-58672811D01*
X125296647Y-58787911D01*
X125250319Y-58912122D01*
X125214367Y-58963335D01*
X125157986Y-58990473D01*
X125095532Y-58986625D01*
X125042908Y-58952772D01*
X124973240Y-58877094D01*
X124918160Y-58834223D01*
X124795576Y-58738811D01*
X124597574Y-58631658D01*
X124597573Y-58631657D01*
X124597572Y-58631657D01*
X124384636Y-58558556D01*
X124162569Y-58521500D01*
X123937431Y-58521500D01*
X123715363Y-58558556D01*
X123502427Y-58631657D01*
X123304424Y-58738811D01*
X123126760Y-58877094D01*
X122974279Y-59042730D01*
X122883809Y-59181205D01*
X122839017Y-59222438D01*
X122780000Y-59237383D01*
X122720983Y-59222438D01*
X122676191Y-59181205D01*
X122613195Y-59084783D01*
X122585722Y-59042732D01*
X122433240Y-58877094D01*
X122255576Y-58738811D01*
X122057574Y-58631658D01*
X122057573Y-58631657D01*
X122057572Y-58631657D01*
X121844636Y-58558556D01*
X121622569Y-58521500D01*
X121397431Y-58521500D01*
X121175363Y-58558556D01*
X120962427Y-58631657D01*
X120764424Y-58738811D01*
X120586760Y-58877094D01*
X120434279Y-59042730D01*
X120343809Y-59181205D01*
X120299017Y-59222438D01*
X120240000Y-59237383D01*
X120180983Y-59222438D01*
X120136191Y-59181205D01*
X120073195Y-59084783D01*
X120045722Y-59042732D01*
X119893240Y-58877094D01*
X119715576Y-58738811D01*
X119517574Y-58631658D01*
X119517573Y-58631657D01*
X119517572Y-58631657D01*
X119304636Y-58558556D01*
X119082569Y-58521500D01*
X118857431Y-58521500D01*
X118625230Y-58560247D01*
X118624769Y-58557490D01*
X118572686Y-58560181D01*
X118512959Y-58527054D01*
X118197088Y-58211183D01*
X118184044Y-58194901D01*
X118132348Y-58146356D01*
X118129551Y-58143645D01*
X118109773Y-58123867D01*
X118106495Y-58121324D01*
X118097622Y-58113745D01*
X118065321Y-58083414D01*
X118047433Y-58073580D01*
X118031169Y-58062896D01*
X118015040Y-58050385D01*
X117974377Y-58032789D01*
X117963883Y-58027648D01*
X117925062Y-58006305D01*
X117913386Y-58003307D01*
X117905284Y-58001227D01*
X117886879Y-57994926D01*
X117868145Y-57986819D01*
X117868143Y-57986818D01*
X117868142Y-57986818D01*
X117824383Y-57979887D01*
X117812943Y-57977518D01*
X117770031Y-57966500D01*
X117770030Y-57966500D01*
X117749616Y-57966500D01*
X117730217Y-57964973D01*
X117710058Y-57961780D01*
X117710057Y-57961780D01*
X117683420Y-57964298D01*
X117665943Y-57965950D01*
X117654274Y-57966500D01*
X115908633Y-57966500D01*
X115887890Y-57964210D01*
X115816969Y-57966439D01*
X115813074Y-57966500D01*
X115785141Y-57966500D01*
X115781037Y-57967018D01*
X115769405Y-57967933D01*
X115725110Y-57969325D01*
X115705501Y-57975022D01*
X115686461Y-57978965D01*
X115666205Y-57981525D01*
X115625005Y-57997836D01*
X115613961Y-58001617D01*
X115571410Y-58013981D01*
X115571407Y-58013982D01*
X115553827Y-58024377D01*
X115536370Y-58032930D01*
X115517378Y-58040449D01*
X115481534Y-58066491D01*
X115471777Y-58072901D01*
X115433638Y-58095457D01*
X115419200Y-58109895D01*
X115404411Y-58122525D01*
X115387894Y-58134525D01*
X115359644Y-58168673D01*
X115351783Y-58177311D01*
X115009565Y-58519528D01*
X114948243Y-58553013D01*
X114878552Y-58548029D01*
X114847379Y-58536402D01*
X114787824Y-58530000D01*
X114140000Y-58530000D01*
X114140000Y-61230000D01*
X114417500Y-61230000D01*
X114479500Y-61246613D01*
X114524887Y-61292000D01*
X114541500Y-61354000D01*
X114541500Y-62161232D01*
X114532061Y-62208685D01*
X114505181Y-62248914D01*
X114386177Y-62367916D01*
X114369898Y-62380958D01*
X114321339Y-62432668D01*
X114318633Y-62435461D01*
X114298861Y-62455233D01*
X114296321Y-62458508D01*
X114288752Y-62467369D01*
X114258414Y-62499677D01*
X114248582Y-62517563D01*
X114237901Y-62533823D01*
X114225385Y-62549959D01*
X114207786Y-62590628D01*
X114202648Y-62601117D01*
X114181303Y-62639943D01*
X114176226Y-62659718D01*
X114169925Y-62678123D01*
X114161818Y-62696856D01*
X114154888Y-62740610D01*
X114152520Y-62752046D01*
X114141500Y-62794970D01*
X114141500Y-62815384D01*
X114139973Y-62834783D01*
X114136780Y-62854941D01*
X114140950Y-62899057D01*
X114141500Y-62910726D01*
X114141500Y-69398243D01*
X114133264Y-69442681D01*
X114109651Y-69481212D01*
X114077958Y-69516412D01*
X114035957Y-69563058D01*
X113940472Y-69728443D01*
X113881458Y-69910070D01*
X113861496Y-70099999D01*
X113881458Y-70289929D01*
X113940472Y-70471556D01*
X114035957Y-70636941D01*
X114065355Y-70669591D01*
X114163747Y-70778866D01*
X114235425Y-70830943D01*
X114318248Y-70891118D01*
X114492714Y-70968795D01*
X114679511Y-71008500D01*
X114848629Y-71008500D01*
X114907646Y-71023445D01*
X114952437Y-71064678D01*
X114972205Y-71122259D01*
X114962185Y-71182309D01*
X114945705Y-71219879D01*
X114890435Y-71438136D01*
X114871843Y-71662500D01*
X114890226Y-71884341D01*
X114883074Y-71937259D01*
X114854331Y-71982262D01*
X114306414Y-72530181D01*
X114266186Y-72557061D01*
X114218733Y-72566500D01*
X103078990Y-72566500D01*
X103015516Y-72549023D01*
X102969935Y-72501518D01*
X102955096Y-72437376D01*
X102975181Y-72374679D01*
X103042147Y-72272179D01*
X103086938Y-72230945D01*
X103145956Y-72216000D01*
X108528068Y-72216000D01*
X108548809Y-72218289D01*
X108551606Y-72218201D01*
X108551610Y-72218202D01*
X108619718Y-72216060D01*
X108623614Y-72216000D01*
X108651555Y-72216000D01*
X108651557Y-72216000D01*
X108655657Y-72215481D01*
X108667307Y-72214564D01*
X108711590Y-72213173D01*
X108731199Y-72207475D01*
X108750232Y-72203533D01*
X108770498Y-72200974D01*
X108811707Y-72184657D01*
X108822738Y-72180880D01*
X108865294Y-72168518D01*
X108882861Y-72158128D01*
X108900333Y-72149568D01*
X108919318Y-72142052D01*
X108955176Y-72115998D01*
X108964924Y-72109596D01*
X109003063Y-72087042D01*
X109017501Y-72072603D01*
X109032289Y-72059972D01*
X109048808Y-72047972D01*
X109077060Y-72013819D01*
X109084904Y-72005199D01*
X112963816Y-68126287D01*
X112980097Y-68113245D01*
X112982014Y-68111203D01*
X112982018Y-68111201D01*
X113028706Y-68061480D01*
X113031323Y-68058780D01*
X113051134Y-68038971D01*
X113053672Y-68035698D01*
X113061241Y-68026835D01*
X113091586Y-67994522D01*
X113101422Y-67976628D01*
X113112102Y-67960369D01*
X113124613Y-67944242D01*
X113142211Y-67903573D01*
X113147341Y-67893101D01*
X113168695Y-67854261D01*
X113173772Y-67834483D01*
X113180072Y-67816083D01*
X113188181Y-67797346D01*
X113195112Y-67753577D01*
X113197478Y-67742154D01*
X113208500Y-67699231D01*
X113208500Y-67678817D01*
X113210027Y-67659418D01*
X113210102Y-67658941D01*
X113213220Y-67639258D01*
X113209050Y-67595144D01*
X113208500Y-67583475D01*
X113208500Y-61354000D01*
X113225113Y-61292000D01*
X113270500Y-61246613D01*
X113332500Y-61230000D01*
X113640000Y-61230000D01*
X113640000Y-58530000D01*
X113332500Y-58530000D01*
X113270500Y-58513387D01*
X113225113Y-58468000D01*
X113208500Y-58406000D01*
X113208500Y-57558634D01*
X113210789Y-57537891D01*
X113210701Y-57535095D01*
X113210702Y-57535092D01*
X113208560Y-57466969D01*
X113208500Y-57463075D01*
X113208500Y-57435147D01*
X113208500Y-57435144D01*
X113207982Y-57431047D01*
X113207065Y-57419398D01*
X113206962Y-57416118D01*
X113205674Y-57375111D01*
X113199977Y-57355501D01*
X113196033Y-57336460D01*
X113193474Y-57316203D01*
X113177161Y-57275002D01*
X113173386Y-57263975D01*
X113161019Y-57221407D01*
X113150622Y-57203828D01*
X113142064Y-57186357D01*
X113134552Y-57167384D01*
X113134552Y-57167383D01*
X113108505Y-57131532D01*
X113102098Y-57121778D01*
X113100952Y-57119841D01*
X113094508Y-57108944D01*
X113079543Y-57083639D01*
X113079542Y-57083638D01*
X113065101Y-57069197D01*
X113052472Y-57054410D01*
X113040472Y-57037893D01*
X113006324Y-57009643D01*
X112997685Y-57001781D01*
X112531939Y-56536034D01*
X112507699Y-56501736D01*
X112496300Y-56461318D01*
X112493542Y-56435072D01*
X112460079Y-56332083D01*
X112434527Y-56253443D01*
X112339042Y-56088058D01*
X112249661Y-55988791D01*
X112211253Y-55946134D01*
X112114901Y-55876130D01*
X112056751Y-55833881D01*
X111882285Y-55756204D01*
X111695489Y-55716500D01*
X111695487Y-55716500D01*
X111504513Y-55716500D01*
X111504511Y-55716500D01*
X111317714Y-55756204D01*
X111143248Y-55833881D01*
X110988748Y-55946133D01*
X110860957Y-56088058D01*
X110765472Y-56253443D01*
X110706458Y-56435070D01*
X110686496Y-56625000D01*
X110706458Y-56814929D01*
X110765472Y-56996556D01*
X110860957Y-57161941D01*
X110890355Y-57194591D01*
X110988747Y-57303866D01*
X111111970Y-57393393D01*
X111143248Y-57416118D01*
X111317714Y-57493795D01*
X111504511Y-57533500D01*
X111686234Y-57533500D01*
X111733687Y-57542939D01*
X111773915Y-57569819D01*
X111905181Y-57701085D01*
X111932061Y-57741313D01*
X111941500Y-57788766D01*
X111941500Y-58473065D01*
X111927751Y-58529816D01*
X111889553Y-58573982D01*
X111835378Y-58595770D01*
X111777237Y-58590346D01*
X111684636Y-58558556D01*
X111462569Y-58521500D01*
X111237431Y-58521500D01*
X111015363Y-58558556D01*
X110802427Y-58631657D01*
X110604424Y-58738811D01*
X110426760Y-58877094D01*
X110274279Y-59042730D01*
X110183809Y-59181205D01*
X110139017Y-59222438D01*
X110080000Y-59237383D01*
X110020983Y-59222438D01*
X109976191Y-59181205D01*
X109913195Y-59084783D01*
X109885722Y-59042732D01*
X109733240Y-58877094D01*
X109555576Y-58738811D01*
X109357574Y-58631658D01*
X109357573Y-58631657D01*
X109357572Y-58631657D01*
X109144636Y-58558556D01*
X108922569Y-58521500D01*
X108697431Y-58521500D01*
X108475363Y-58558556D01*
X108262427Y-58631657D01*
X108064424Y-58738811D01*
X107886760Y-58877094D01*
X107734279Y-59042730D01*
X107643809Y-59181205D01*
X107599017Y-59222438D01*
X107540000Y-59237383D01*
X107480983Y-59222438D01*
X107436191Y-59181205D01*
X107373195Y-59084783D01*
X107345722Y-59042732D01*
X107193240Y-58877094D01*
X107015576Y-58738811D01*
X106817574Y-58631658D01*
X106817573Y-58631657D01*
X106817572Y-58631657D01*
X106604636Y-58558556D01*
X106382569Y-58521500D01*
X106157431Y-58521500D01*
X105935363Y-58558556D01*
X105722427Y-58631657D01*
X105524424Y-58738811D01*
X105346760Y-58877094D01*
X105194279Y-59042730D01*
X105103809Y-59181205D01*
X105059017Y-59222438D01*
X105000000Y-59237383D01*
X104940983Y-59222438D01*
X104896191Y-59181205D01*
X104805718Y-59042726D01*
X104664593Y-58889425D01*
X104635208Y-58834223D01*
X104636501Y-58771701D01*
X104668139Y-58717763D01*
X105811084Y-57574819D01*
X105851313Y-57547939D01*
X105898766Y-57538500D01*
X105955489Y-57538500D01*
X106142285Y-57498795D01*
X106142286Y-57498794D01*
X106142288Y-57498794D01*
X106316752Y-57421118D01*
X106471253Y-57308866D01*
X106599040Y-57166944D01*
X106601929Y-57161941D01*
X106694527Y-57001556D01*
X106734967Y-56877094D01*
X106753542Y-56819928D01*
X106773504Y-56630000D01*
X106753542Y-56440072D01*
X106718454Y-56332083D01*
X106715095Y-56267984D01*
X106744235Y-56210793D01*
X106798067Y-56175834D01*
X106862166Y-56172475D01*
X107059702Y-56214463D01*
X107059703Y-56214463D01*
X107250677Y-56214463D01*
X107250679Y-56214463D01*
X107437475Y-56174758D01*
X107437476Y-56174757D01*
X107437478Y-56174757D01*
X107611942Y-56097081D01*
X107766443Y-55984829D01*
X107894230Y-55842907D01*
X107896555Y-55838881D01*
X107989717Y-55677519D01*
X108004073Y-55633335D01*
X108048732Y-55495891D01*
X108068694Y-55305963D01*
X108048732Y-55116035D01*
X107999203Y-54963602D01*
X107989717Y-54934406D01*
X107894232Y-54769021D01*
X107871681Y-54743976D01*
X107820538Y-54687175D01*
X107796926Y-54648644D01*
X107788690Y-54604206D01*
X107788690Y-54498823D01*
X107790979Y-54478080D01*
X107790891Y-54475284D01*
X107790892Y-54475281D01*
X107788750Y-54407158D01*
X107788690Y-54403264D01*
X107788690Y-54375337D01*
X107788690Y-54375334D01*
X107788172Y-54371237D01*
X107787255Y-54359588D01*
X107785864Y-54315301D01*
X107780164Y-54295684D01*
X107776223Y-54276654D01*
X107773664Y-54256393D01*
X107757353Y-54215197D01*
X107753571Y-54204150D01*
X107741208Y-54161598D01*
X107741208Y-54161597D01*
X107730812Y-54144019D01*
X107722259Y-54126561D01*
X107714742Y-54107573D01*
X107688693Y-54071720D01*
X107682289Y-54061970D01*
X107659732Y-54023828D01*
X107645297Y-54009393D01*
X107632659Y-53994596D01*
X107631499Y-53993000D01*
X107620662Y-53978083D01*
X107590699Y-53953295D01*
X107586514Y-53949833D01*
X107577875Y-53941971D01*
X104777088Y-51141183D01*
X104764044Y-51124901D01*
X104712348Y-51076356D01*
X104709551Y-51073645D01*
X104689773Y-51053867D01*
X104686495Y-51051324D01*
X104677622Y-51043745D01*
X104645321Y-51013414D01*
X104627433Y-51003580D01*
X104611169Y-50992896D01*
X104595040Y-50980385D01*
X104554377Y-50962789D01*
X104543883Y-50957648D01*
X104505062Y-50936305D01*
X104493386Y-50933307D01*
X104485284Y-50931227D01*
X104466879Y-50924926D01*
X104448145Y-50916819D01*
X104448143Y-50916818D01*
X104448142Y-50916818D01*
X104404383Y-50909887D01*
X104392943Y-50907518D01*
X104350031Y-50896500D01*
X104350030Y-50896500D01*
X104329616Y-50896500D01*
X104310217Y-50894973D01*
X104290058Y-50891780D01*
X104290057Y-50891780D01*
X104263420Y-50894298D01*
X104245943Y-50895950D01*
X104234274Y-50896500D01*
X94129133Y-50896500D01*
X94108390Y-50894210D01*
X94037469Y-50896439D01*
X94033574Y-50896500D01*
X94005641Y-50896500D01*
X94001537Y-50897018D01*
X93989905Y-50897933D01*
X93945610Y-50899325D01*
X93926001Y-50905022D01*
X93906961Y-50908965D01*
X93886705Y-50911525D01*
X93845505Y-50927836D01*
X93834461Y-50931617D01*
X93791910Y-50943981D01*
X93791907Y-50943982D01*
X93774327Y-50954377D01*
X93756870Y-50962930D01*
X93737878Y-50970449D01*
X93702034Y-50996491D01*
X93692277Y-51002901D01*
X93654138Y-51025457D01*
X93639700Y-51039895D01*
X93624911Y-51052525D01*
X93608391Y-51064527D01*
X93580147Y-51098668D01*
X93572288Y-51107305D01*
X93474165Y-51205430D01*
X93433936Y-51232311D01*
X93386483Y-51241750D01*
X93380778Y-51241750D01*
X93321761Y-51226805D01*
X93276970Y-51185572D01*
X93257202Y-51127990D01*
X93267222Y-51067940D01*
X93270000Y-51061606D01*
X93289296Y-51017616D01*
X93344564Y-50799368D01*
X93363156Y-50575000D01*
X93344564Y-50350632D01*
X93289296Y-50132384D01*
X93198860Y-49926209D01*
X93075722Y-49737732D01*
X92924292Y-49573237D01*
X92895519Y-49520484D01*
X92894926Y-49460397D01*
X92922653Y-49407087D01*
X92972189Y-49373072D01*
X93092088Y-49328352D01*
X93207188Y-49242188D01*
X93293352Y-49127089D01*
X93343597Y-48992375D01*
X93350000Y-48932824D01*
X93350000Y-48285000D01*
X88110000Y-48285000D01*
X88110000Y-48932824D01*
X88116402Y-48992375D01*
X88166647Y-49127089D01*
X88252811Y-49242188D01*
X88367911Y-49328352D01*
X88487810Y-49373072D01*
X88537346Y-49407087D01*
X88565073Y-49460397D01*
X88564480Y-49520484D01*
X88535706Y-49573237D01*
X88384281Y-49737726D01*
X88261138Y-49926211D01*
X88170705Y-50132381D01*
X88115435Y-50350636D01*
X88096843Y-50575000D01*
X88115435Y-50799363D01*
X88115435Y-50799366D01*
X88115436Y-50799368D01*
X88169438Y-51012618D01*
X88170705Y-51017618D01*
X88261138Y-51223788D01*
X88261140Y-51223791D01*
X88384278Y-51412268D01*
X88536760Y-51577906D01*
X88714424Y-51716189D01*
X88912426Y-51823342D01*
X89125365Y-51896444D01*
X89347431Y-51933500D01*
X89572569Y-51933500D01*
X89794635Y-51896444D01*
X90007574Y-51823342D01*
X90205576Y-51716189D01*
X90383240Y-51577906D01*
X90535722Y-51412268D01*
X90626190Y-51273795D01*
X90670982Y-51232561D01*
X90730000Y-51217616D01*
X90789018Y-51232561D01*
X90833809Y-51273795D01*
X90921010Y-51407267D01*
X90924278Y-51412268D01*
X91076760Y-51577906D01*
X91254424Y-51716189D01*
X91452426Y-51823342D01*
X91665365Y-51896444D01*
X91887431Y-51933500D01*
X92112569Y-51933500D01*
X92334635Y-51896444D01*
X92362142Y-51887000D01*
X92423486Y-51882087D01*
X92479639Y-51907273D01*
X92516768Y-51956355D01*
X92525725Y-52017243D01*
X92511746Y-52150249D01*
X92531708Y-52340179D01*
X92590722Y-52521806D01*
X92686207Y-52687191D01*
X92686210Y-52687194D01*
X92813997Y-52829116D01*
X92968498Y-52941368D01*
X93142962Y-53019044D01*
X93142963Y-53019044D01*
X93152567Y-53023320D01*
X93199511Y-53059832D01*
X93224056Y-53114002D01*
X93220555Y-53173371D01*
X93189814Y-53224280D01*
X93033911Y-53380183D01*
X92993686Y-53407061D01*
X92946233Y-53416500D01*
X91273628Y-53416500D01*
X91252892Y-53414211D01*
X91250091Y-53414299D01*
X91182001Y-53416439D01*
X91178106Y-53416500D01*
X91150144Y-53416500D01*
X91146032Y-53417019D01*
X91134401Y-53417934D01*
X91090110Y-53419326D01*
X91070507Y-53425022D01*
X91051456Y-53428967D01*
X91031203Y-53431525D01*
X90990008Y-53447835D01*
X90978962Y-53451616D01*
X90936405Y-53463981D01*
X90918827Y-53474376D01*
X90901360Y-53482933D01*
X90882384Y-53490446D01*
X90846544Y-53516485D01*
X90836786Y-53522895D01*
X90798637Y-53545457D01*
X90784196Y-53559898D01*
X90769409Y-53572527D01*
X90752892Y-53584528D01*
X90724652Y-53618663D01*
X90716792Y-53627301D01*
X90357040Y-53987053D01*
X90297321Y-54020178D01*
X90245229Y-54017492D01*
X90244770Y-54020247D01*
X90012569Y-53981500D01*
X89787431Y-53981500D01*
X89565363Y-54018556D01*
X89352427Y-54091657D01*
X89154424Y-54198811D01*
X88976760Y-54337094D01*
X88824279Y-54502730D01*
X88733809Y-54641205D01*
X88689017Y-54682438D01*
X88630000Y-54697383D01*
X88570983Y-54682438D01*
X88526191Y-54641205D01*
X88490131Y-54586012D01*
X88435722Y-54502732D01*
X88283240Y-54337094D01*
X88105576Y-54198811D01*
X87907574Y-54091658D01*
X87907573Y-54091657D01*
X87907572Y-54091657D01*
X87694636Y-54018556D01*
X87472569Y-53981500D01*
X87247431Y-53981500D01*
X87025363Y-54018556D01*
X86812427Y-54091657D01*
X86614424Y-54198811D01*
X86436760Y-54337094D01*
X86284279Y-54502730D01*
X86161138Y-54691211D01*
X86085827Y-54862906D01*
X86070704Y-54897384D01*
X86046963Y-54991134D01*
X86015435Y-55115636D01*
X85996843Y-55340000D01*
X86015435Y-55564363D01*
X86015435Y-55564366D01*
X86015436Y-55564368D01*
X86070704Y-55782616D01*
X86070705Y-55782618D01*
X86161138Y-55988788D01*
X86161140Y-55988791D01*
X86284278Y-56177268D01*
X86436760Y-56342906D01*
X86614424Y-56481189D01*
X86614426Y-56481190D01*
X86650931Y-56500946D01*
X86698436Y-56546527D01*
X86715913Y-56610000D01*
X86698436Y-56673473D01*
X86650931Y-56719054D01*
X86614426Y-56738809D01*
X86436760Y-56877094D01*
X86284279Y-57042730D01*
X86161138Y-57231211D01*
X86071685Y-57435147D01*
X86070704Y-57437384D01*
X86047108Y-57530564D01*
X86015435Y-57655636D01*
X85996843Y-57879999D01*
X86015435Y-58104363D01*
X86015435Y-58104366D01*
X86015436Y-58104368D01*
X86060497Y-58282311D01*
X86070705Y-58322618D01*
X86161138Y-58528788D01*
X86166521Y-58537028D01*
X86284278Y-58717268D01*
X86373885Y-58814606D01*
X86435706Y-58881761D01*
X86464480Y-58934514D01*
X86465073Y-58994601D01*
X86437346Y-59047912D01*
X86387811Y-59081927D01*
X86267911Y-59126647D01*
X86152811Y-59212811D01*
X86066647Y-59327910D01*
X86016402Y-59462624D01*
X86010000Y-59522176D01*
X86010000Y-60170000D01*
X93790000Y-60170000D01*
X93790000Y-59522176D01*
X93783597Y-59462624D01*
X93733352Y-59327910D01*
X93647188Y-59212811D01*
X93532089Y-59126647D01*
X93412188Y-59081927D01*
X93362653Y-59047912D01*
X93334926Y-58994601D01*
X93335519Y-58934514D01*
X93364291Y-58881763D01*
X93515722Y-58717268D01*
X93518433Y-58713119D01*
X93612147Y-58569679D01*
X93656938Y-58528445D01*
X93715956Y-58513500D01*
X94218652Y-58513500D01*
X94274251Y-58526663D01*
X94318046Y-58563359D01*
X94340738Y-58615795D01*
X94337509Y-58672840D01*
X94309046Y-58722382D01*
X94283414Y-58749678D01*
X94273582Y-58767563D01*
X94262901Y-58783823D01*
X94250385Y-58799959D01*
X94232786Y-58840628D01*
X94227648Y-58851117D01*
X94206303Y-58889943D01*
X94201226Y-58909718D01*
X94194925Y-58928123D01*
X94186818Y-58946856D01*
X94179888Y-58990610D01*
X94177520Y-59002046D01*
X94166500Y-59044970D01*
X94166500Y-59065384D01*
X94164972Y-59084783D01*
X94161780Y-59104943D01*
X94163335Y-59121389D01*
X94165950Y-59149057D01*
X94166500Y-59160726D01*
X94166500Y-65992835D01*
X94151858Y-66051288D01*
X94111391Y-66095937D01*
X94054654Y-66116238D01*
X93995047Y-66107396D01*
X93839089Y-66042795D01*
X93585250Y-65981854D01*
X93325000Y-65961372D01*
X93064749Y-65981854D01*
X92810910Y-66042795D01*
X92569727Y-66142698D01*
X92347141Y-66279098D01*
X92148636Y-66448636D01*
X91979098Y-66647141D01*
X91842698Y-66869727D01*
X91742795Y-67110910D01*
X91681854Y-67364749D01*
X91666500Y-67559845D01*
X91666500Y-69196234D01*
X91652985Y-69252529D01*
X91615385Y-69296552D01*
X91561898Y-69318707D01*
X91504182Y-69314165D01*
X91454819Y-69283915D01*
X87506380Y-65335476D01*
X83456038Y-61285133D01*
X83426438Y-61237714D01*
X83420671Y-61182113D01*
X83439908Y-61129634D01*
X83518860Y-61008791D01*
X83609296Y-60802616D01*
X83642879Y-60670000D01*
X86010000Y-60670000D01*
X86010000Y-61317824D01*
X86016402Y-61377375D01*
X86066647Y-61512089D01*
X86152811Y-61627188D01*
X86267910Y-61713352D01*
X86402624Y-61763597D01*
X86462176Y-61770000D01*
X87110000Y-61770000D01*
X87110000Y-60670000D01*
X87610000Y-60670000D01*
X87610000Y-61770000D01*
X88257824Y-61770000D01*
X88317375Y-61763597D01*
X88452088Y-61713352D01*
X88555689Y-61635797D01*
X88603642Y-61613898D01*
X88656358Y-61613898D01*
X88704311Y-61635797D01*
X88807911Y-61713352D01*
X88942624Y-61763597D01*
X89002176Y-61770000D01*
X89650000Y-61770000D01*
X89650000Y-60670000D01*
X90150000Y-60670000D01*
X90150000Y-61770000D01*
X90797824Y-61770000D01*
X90857375Y-61763597D01*
X90992088Y-61713352D01*
X91095689Y-61635797D01*
X91143642Y-61613898D01*
X91196358Y-61613898D01*
X91244311Y-61635797D01*
X91347911Y-61713352D01*
X91482624Y-61763597D01*
X91542176Y-61770000D01*
X92190000Y-61770000D01*
X92190000Y-60670000D01*
X92690000Y-60670000D01*
X92690000Y-61770000D01*
X93337824Y-61770000D01*
X93397375Y-61763597D01*
X93532089Y-61713352D01*
X93647188Y-61627188D01*
X93733352Y-61512089D01*
X93783597Y-61377375D01*
X93790000Y-61317824D01*
X93790000Y-60670000D01*
X92690000Y-60670000D01*
X92190000Y-60670000D01*
X90150000Y-60670000D01*
X89650000Y-60670000D01*
X87610000Y-60670000D01*
X87110000Y-60670000D01*
X86010000Y-60670000D01*
X83642879Y-60670000D01*
X83664564Y-60584368D01*
X83683156Y-60360000D01*
X83664564Y-60135632D01*
X83609296Y-59917384D01*
X83518860Y-59711209D01*
X83395722Y-59522732D01*
X83243240Y-59357094D01*
X83065576Y-59218811D01*
X83018482Y-59193325D01*
X82970977Y-59147745D01*
X82953500Y-59084271D01*
X82953500Y-55135729D01*
X82970977Y-55072255D01*
X83018483Y-55026674D01*
X83065576Y-55001189D01*
X83243240Y-54862906D01*
X83395722Y-54697268D01*
X83518860Y-54508791D01*
X83609296Y-54302616D01*
X83664564Y-54084368D01*
X83683156Y-53860000D01*
X83664564Y-53635632D01*
X83609296Y-53417384D01*
X83518860Y-53211209D01*
X83395722Y-53022732D01*
X83243240Y-52857094D01*
X83065576Y-52718811D01*
X82867574Y-52611658D01*
X82867573Y-52611657D01*
X82867572Y-52611657D01*
X82654636Y-52538556D01*
X82432569Y-52501500D01*
X82207431Y-52501500D01*
X81985363Y-52538556D01*
X81772427Y-52611657D01*
X81574424Y-52718811D01*
X81396760Y-52857094D01*
X81244279Y-53022730D01*
X81121138Y-53211211D01*
X81030864Y-53417019D01*
X81030704Y-53417384D01*
X80992868Y-53566796D01*
X80975435Y-53635636D01*
X80956843Y-53859999D01*
X80975435Y-54084363D01*
X80975435Y-54084366D01*
X80975436Y-54084368D01*
X81026578Y-54286323D01*
X81030705Y-54302618D01*
X81121138Y-54508788D01*
X81121140Y-54508791D01*
X81244278Y-54697268D01*
X81396760Y-54862906D01*
X81574424Y-55001189D01*
X81621517Y-55026674D01*
X81669023Y-55072255D01*
X81686500Y-55135729D01*
X81686500Y-59084271D01*
X81669023Y-59147745D01*
X81621517Y-59193325D01*
X81585511Y-59212811D01*
X81574424Y-59218811D01*
X81396760Y-59357094D01*
X81244279Y-59522730D01*
X81121138Y-59711211D01*
X81030705Y-59917381D01*
X80975435Y-60135636D01*
X80956843Y-60360000D01*
X80975435Y-60584363D01*
X80975435Y-60584366D01*
X80975436Y-60584368D01*
X81022324Y-60769526D01*
X81030705Y-60802618D01*
X81121138Y-61008788D01*
X81121139Y-61008789D01*
X81121140Y-61008791D01*
X81244278Y-61197268D01*
X81396760Y-61362906D01*
X81574424Y-61501189D01*
X81772426Y-61608342D01*
X81827323Y-61627188D01*
X81985363Y-61681444D01*
X82036413Y-61689962D01*
X82072755Y-61702019D01*
X82103686Y-61724590D01*
X93441414Y-73062319D01*
X93471664Y-73111682D01*
X93476206Y-73169398D01*
X93454051Y-73222885D01*
X93410028Y-73260485D01*
X93353733Y-73274000D01*
X90876133Y-73274000D01*
X90855390Y-73271710D01*
X90784469Y-73273939D01*
X90780574Y-73274000D01*
X90752641Y-73274000D01*
X90748537Y-73274518D01*
X90736905Y-73275433D01*
X90692610Y-73276825D01*
X90673001Y-73282522D01*
X90653961Y-73286465D01*
X90633705Y-73289025D01*
X90592505Y-73305336D01*
X90581461Y-73309117D01*
X90538910Y-73321481D01*
X90538907Y-73321482D01*
X90521327Y-73331877D01*
X90503870Y-73340430D01*
X90484878Y-73347949D01*
X90449034Y-73373991D01*
X90439277Y-73380401D01*
X90401138Y-73402957D01*
X90386700Y-73417395D01*
X90371911Y-73430025D01*
X90355394Y-73442025D01*
X90327144Y-73476173D01*
X90319283Y-73484811D01*
X89299871Y-74504222D01*
X89244283Y-74536316D01*
X89180097Y-74536316D01*
X89145068Y-74526930D01*
X89145067Y-74526929D01*
X89145064Y-74526929D01*
X88924999Y-74507676D01*
X88704934Y-74526929D01*
X88491548Y-74584106D01*
X88291338Y-74677466D01*
X88110379Y-74804174D01*
X87954173Y-74960380D01*
X87903974Y-75032072D01*
X87859132Y-75071209D01*
X87801219Y-75084942D01*
X87743578Y-75070108D01*
X87699489Y-75030124D01*
X87679110Y-74974202D01*
X87672597Y-74913624D01*
X87622352Y-74778910D01*
X87536188Y-74663811D01*
X87421089Y-74577647D01*
X87286375Y-74527402D01*
X87226824Y-74521000D01*
X86675000Y-74521000D01*
X86675000Y-77029000D01*
X87226824Y-77029000D01*
X87286375Y-77022597D01*
X87421089Y-76972352D01*
X87536188Y-76886188D01*
X87622352Y-76771089D01*
X87672597Y-76636375D01*
X87679110Y-76575797D01*
X87699489Y-76519875D01*
X87743578Y-76479891D01*
X87801219Y-76465057D01*
X87859132Y-76478790D01*
X87903974Y-76517927D01*
X87954174Y-76589620D01*
X88110380Y-76745826D01*
X88291338Y-76872534D01*
X88491550Y-76965894D01*
X88704932Y-77023070D01*
X88925000Y-77042323D01*
X89145068Y-77023070D01*
X89358450Y-76965894D01*
X89558662Y-76872534D01*
X89739620Y-76745826D01*
X89895826Y-76589620D01*
X90022534Y-76408662D01*
X90062618Y-76322700D01*
X90108375Y-76270525D01*
X90175000Y-76251106D01*
X90241625Y-76270525D01*
X90287381Y-76322700D01*
X90327466Y-76408662D01*
X90454174Y-76589620D01*
X90610380Y-76745826D01*
X90791338Y-76872534D01*
X90991550Y-76965894D01*
X91204932Y-77023070D01*
X91425000Y-77042323D01*
X91645068Y-77023070D01*
X91858450Y-76965894D01*
X91892535Y-76950000D01*
X98811843Y-76950000D01*
X98830435Y-77174363D01*
X98885705Y-77392618D01*
X98976138Y-77598788D01*
X98976140Y-77598791D01*
X99099278Y-77787268D01*
X99251760Y-77952906D01*
X99429424Y-78091189D01*
X99627426Y-78198342D01*
X99840365Y-78271444D01*
X100062431Y-78308500D01*
X100287569Y-78308500D01*
X100509635Y-78271444D01*
X100722574Y-78198342D01*
X100920576Y-78091189D01*
X101098240Y-77952906D01*
X101250722Y-77787268D01*
X101373860Y-77598791D01*
X101464296Y-77392616D01*
X101519564Y-77174368D01*
X101538156Y-76950000D01*
X105311843Y-76950000D01*
X105330435Y-77174363D01*
X105385705Y-77392618D01*
X105476138Y-77598788D01*
X105476140Y-77598791D01*
X105599278Y-77787268D01*
X105751760Y-77952906D01*
X105929424Y-78091189D01*
X106127426Y-78198342D01*
X106340365Y-78271444D01*
X106562431Y-78308500D01*
X106787569Y-78308500D01*
X107009635Y-78271444D01*
X107222574Y-78198342D01*
X107420576Y-78091189D01*
X107598240Y-77952906D01*
X107750722Y-77787268D01*
X107873860Y-77598791D01*
X107964296Y-77392616D01*
X108019564Y-77174368D01*
X108038156Y-76950000D01*
X108019564Y-76725632D01*
X107964296Y-76507384D01*
X107873860Y-76301209D01*
X107750722Y-76112732D01*
X107598240Y-75947094D01*
X107420576Y-75808811D01*
X107222574Y-75701658D01*
X107222573Y-75701657D01*
X107222572Y-75701657D01*
X107009636Y-75628556D01*
X106787569Y-75591500D01*
X106562431Y-75591500D01*
X106340363Y-75628556D01*
X106127427Y-75701657D01*
X105929424Y-75808811D01*
X105751760Y-75947094D01*
X105599279Y-76112730D01*
X105476138Y-76301211D01*
X105404270Y-76465057D01*
X105385704Y-76507384D01*
X105364879Y-76589620D01*
X105330435Y-76725636D01*
X105311843Y-76950000D01*
X101538156Y-76950000D01*
X101519564Y-76725632D01*
X101464296Y-76507384D01*
X101373860Y-76301209D01*
X101250722Y-76112732D01*
X101098240Y-75947094D01*
X100920576Y-75808811D01*
X100722574Y-75701658D01*
X100722573Y-75701657D01*
X100722572Y-75701657D01*
X100509636Y-75628556D01*
X100287569Y-75591500D01*
X100062431Y-75591500D01*
X99840363Y-75628556D01*
X99627427Y-75701657D01*
X99429424Y-75808811D01*
X99251760Y-75947094D01*
X99099279Y-76112730D01*
X98976138Y-76301211D01*
X98904270Y-76465057D01*
X98885704Y-76507384D01*
X98864879Y-76589620D01*
X98830435Y-76725636D01*
X98811843Y-76950000D01*
X91892535Y-76950000D01*
X92058662Y-76872534D01*
X92239620Y-76745826D01*
X92395826Y-76589620D01*
X92522534Y-76408662D01*
X92615894Y-76208450D01*
X92673070Y-75995068D01*
X92692323Y-75775000D01*
X92673070Y-75554932D01*
X92615894Y-75341550D01*
X92522534Y-75141339D01*
X92395826Y-74960380D01*
X92239620Y-74804174D01*
X92185920Y-74766573D01*
X92145595Y-74719358D01*
X92133216Y-74658510D01*
X92151888Y-74599290D01*
X92196930Y-74556547D01*
X92257046Y-74541000D01*
X116281367Y-74541000D01*
X116302108Y-74543289D01*
X116304905Y-74543201D01*
X116304909Y-74543202D01*
X116373017Y-74541060D01*
X116376913Y-74541000D01*
X116404854Y-74541000D01*
X116404856Y-74541000D01*
X116408956Y-74540481D01*
X116420606Y-74539564D01*
X116464889Y-74538173D01*
X116484498Y-74532475D01*
X116503531Y-74528533D01*
X116523797Y-74525974D01*
X116565006Y-74509657D01*
X116576037Y-74505880D01*
X116618593Y-74493518D01*
X116636160Y-74483128D01*
X116653632Y-74474568D01*
X116672617Y-74467052D01*
X116708475Y-74440998D01*
X116718223Y-74434596D01*
X116756362Y-74412042D01*
X116770800Y-74397603D01*
X116785588Y-74384972D01*
X116802107Y-74372972D01*
X116830359Y-74338819D01*
X116838203Y-74330199D01*
X118195128Y-72973274D01*
X118254858Y-72940148D01*
X118323069Y-72943675D01*
X118440365Y-72983944D01*
X118662431Y-73021000D01*
X118887569Y-73021000D01*
X119109635Y-72983944D01*
X119322574Y-72910842D01*
X119520576Y-72803689D01*
X119698240Y-72665406D01*
X119850722Y-72499768D01*
X119973860Y-72311291D01*
X120064296Y-72105116D01*
X120119564Y-71886868D01*
X120138156Y-71662500D01*
X120119564Y-71438132D01*
X120064296Y-71219884D01*
X119992899Y-71057114D01*
X119973859Y-71013706D01*
X119956049Y-70986446D01*
X119936354Y-70929715D01*
X119945625Y-70870383D01*
X119981688Y-70822366D01*
X120036085Y-70796924D01*
X120096057Y-70800026D01*
X120147538Y-70830943D01*
X120212912Y-70896317D01*
X120225956Y-70912598D01*
X120227999Y-70914516D01*
X120228000Y-70914518D01*
X120277685Y-70961175D01*
X120280448Y-70963853D01*
X120300230Y-70983635D01*
X120303511Y-70986180D01*
X120312370Y-70993747D01*
X120344679Y-71024086D01*
X120362564Y-71033918D01*
X120378825Y-71044599D01*
X120394959Y-71057114D01*
X120435625Y-71074710D01*
X120446112Y-71079848D01*
X120484940Y-71101195D01*
X120503177Y-71105877D01*
X120504708Y-71106270D01*
X120523119Y-71112573D01*
X120541855Y-71120681D01*
X120585626Y-71127613D01*
X120597041Y-71129977D01*
X120639970Y-71141000D01*
X120660384Y-71141000D01*
X120679783Y-71142527D01*
X120699943Y-71145720D01*
X120744056Y-71141550D01*
X120755726Y-71141000D01*
X124461367Y-71141000D01*
X124482108Y-71143289D01*
X124484905Y-71143201D01*
X124484909Y-71143202D01*
X124553017Y-71141060D01*
X124556913Y-71141000D01*
X124584854Y-71141000D01*
X124584856Y-71141000D01*
X124588956Y-71140481D01*
X124600606Y-71139564D01*
X124644889Y-71138173D01*
X124664498Y-71132475D01*
X124683531Y-71128533D01*
X124703797Y-71125974D01*
X124745006Y-71109657D01*
X124756037Y-71105880D01*
X124798593Y-71093518D01*
X124816160Y-71083128D01*
X124833632Y-71074568D01*
X124852617Y-71067052D01*
X124888475Y-71040998D01*
X124898223Y-71034596D01*
X124936362Y-71012042D01*
X124950800Y-70997603D01*
X124965588Y-70984972D01*
X124982107Y-70972972D01*
X125010359Y-70938819D01*
X125018203Y-70930199D01*
X125658813Y-70289589D01*
X125675099Y-70276544D01*
X125723656Y-70224834D01*
X125726340Y-70222063D01*
X125746135Y-70202270D01*
X125748679Y-70198988D01*
X125756251Y-70190124D01*
X125786586Y-70157821D01*
X125796419Y-70139932D01*
X125807100Y-70123672D01*
X125819614Y-70107541D01*
X125837207Y-70066881D01*
X125842343Y-70056395D01*
X125863695Y-70017560D01*
X125868773Y-69997777D01*
X125875070Y-69979385D01*
X125883181Y-69960645D01*
X125890112Y-69916876D01*
X125892478Y-69905453D01*
X125903500Y-69862530D01*
X125903500Y-69842116D01*
X125905027Y-69822717D01*
X125905252Y-69821295D01*
X125908220Y-69802557D01*
X125904050Y-69758443D01*
X125903500Y-69746774D01*
X125903500Y-69475000D01*
X133400000Y-69475000D01*
X133400000Y-70287049D01*
X133415386Y-70472732D01*
X133476413Y-70713721D01*
X133576266Y-70941365D01*
X133712233Y-71149477D01*
X133880596Y-71332368D01*
X134076766Y-71485053D01*
X134295393Y-71603368D01*
X134530508Y-71684083D01*
X134649999Y-71704023D01*
X134650000Y-71704023D01*
X134650000Y-69475000D01*
X135150000Y-69475000D01*
X135150000Y-71704023D01*
X135269491Y-71684083D01*
X135504606Y-71603368D01*
X135723233Y-71485053D01*
X135919403Y-71332368D01*
X136087766Y-71149477D01*
X136223733Y-70941365D01*
X136323586Y-70713721D01*
X136384613Y-70472732D01*
X136400000Y-70287049D01*
X136400000Y-69475000D01*
X135150000Y-69475000D01*
X134650000Y-69475000D01*
X133400000Y-69475000D01*
X125903500Y-69475000D01*
X125903500Y-63806266D01*
X125912939Y-63758813D01*
X125939819Y-63718585D01*
X127213272Y-62445132D01*
X128488710Y-61169692D01*
X128548442Y-61136565D01*
X128616654Y-61140093D01*
X128721969Y-61176247D01*
X128795365Y-61201444D01*
X129017431Y-61238500D01*
X129242569Y-61238500D01*
X129464635Y-61201444D01*
X129677574Y-61128342D01*
X129875576Y-61021189D01*
X130053240Y-60882906D01*
X130205722Y-60717268D01*
X130296190Y-60578795D01*
X130340982Y-60537561D01*
X130400000Y-60522616D01*
X130459018Y-60537561D01*
X130503809Y-60578795D01*
X130548499Y-60647199D01*
X130594278Y-60717268D01*
X130746760Y-60882906D01*
X130758663Y-60892171D01*
X130793900Y-60935562D01*
X130806500Y-60990023D01*
X130806500Y-61458734D01*
X130797061Y-61506187D01*
X130770181Y-61546415D01*
X129536759Y-62779834D01*
X129477027Y-62812962D01*
X129408815Y-62809434D01*
X129209636Y-62741056D01*
X128987569Y-62704000D01*
X128762431Y-62704000D01*
X128540363Y-62741056D01*
X128327427Y-62814157D01*
X128129424Y-62921311D01*
X127951760Y-63059594D01*
X127799279Y-63225230D01*
X127676138Y-63413711D01*
X127585705Y-63619881D01*
X127585704Y-63619884D01*
X127551512Y-63754904D01*
X127530435Y-63838136D01*
X127511843Y-64062500D01*
X127530435Y-64286863D01*
X127530435Y-64286866D01*
X127530436Y-64286868D01*
X127585704Y-64505116D01*
X127589043Y-64512729D01*
X127676138Y-64711288D01*
X127676140Y-64711291D01*
X127799278Y-64899768D01*
X127951760Y-65065406D01*
X128129424Y-65203689D01*
X128165930Y-65223445D01*
X128213435Y-65269024D01*
X128230913Y-65332497D01*
X128213437Y-65395971D01*
X128165933Y-65441552D01*
X128129427Y-65461309D01*
X128129425Y-65461310D01*
X128129424Y-65461311D01*
X127991784Y-65568442D01*
X127951760Y-65599594D01*
X127799279Y-65765230D01*
X127676138Y-65953711D01*
X127593242Y-66142698D01*
X127585704Y-66159884D01*
X127538789Y-66345147D01*
X127530435Y-66378136D01*
X127511843Y-66602500D01*
X127530435Y-66826863D01*
X127530435Y-66826866D01*
X127530436Y-66826868D01*
X127575431Y-67004550D01*
X127585705Y-67045118D01*
X127676138Y-67251288D01*
X127676140Y-67251291D01*
X127799278Y-67439768D01*
X127951760Y-67605406D01*
X128129424Y-67743689D01*
X128327426Y-67850842D01*
X128540365Y-67923944D01*
X128762431Y-67961000D01*
X128987569Y-67961000D01*
X129209635Y-67923944D01*
X129422574Y-67850842D01*
X129620576Y-67743689D01*
X129798240Y-67605406D01*
X129950722Y-67439768D01*
X130073860Y-67251291D01*
X130164296Y-67045116D01*
X130207375Y-66875000D01*
X130700000Y-66875000D01*
X130700000Y-67687049D01*
X130715386Y-67872732D01*
X130776413Y-68113721D01*
X130876266Y-68341365D01*
X131012233Y-68549477D01*
X131180596Y-68732368D01*
X131376766Y-68885053D01*
X131595393Y-69003368D01*
X131830508Y-69084083D01*
X131949999Y-69104023D01*
X131950000Y-69104023D01*
X132450000Y-69104023D01*
X132569491Y-69084083D01*
X132804606Y-69003368D01*
X133023233Y-68885053D01*
X133199837Y-68747597D01*
X133263208Y-68722112D01*
X133330460Y-68734049D01*
X133381188Y-68779788D01*
X133400000Y-68845450D01*
X133400000Y-68975000D01*
X134650000Y-68975000D01*
X134650000Y-66745978D01*
X134649999Y-66745976D01*
X135150000Y-66745976D01*
X135150000Y-68975000D01*
X136400000Y-68975000D01*
X136400000Y-68162951D01*
X136384613Y-67977267D01*
X136323586Y-67736278D01*
X136223733Y-67508634D01*
X136087766Y-67300522D01*
X135919403Y-67117631D01*
X135723233Y-66964946D01*
X135504606Y-66846631D01*
X135269491Y-66765916D01*
X135150000Y-66745976D01*
X134649999Y-66745976D01*
X134530508Y-66765916D01*
X134295393Y-66846631D01*
X134076766Y-66964946D01*
X133900163Y-67102403D01*
X133836792Y-67127888D01*
X133769540Y-67115951D01*
X133718812Y-67070212D01*
X133700000Y-67004550D01*
X133700000Y-66875000D01*
X132450000Y-66875000D01*
X132450000Y-69104023D01*
X131950000Y-69104023D01*
X131950000Y-66875000D01*
X130700000Y-66875000D01*
X130207375Y-66875000D01*
X130219564Y-66826868D01*
X130238156Y-66602500D01*
X130219564Y-66378132D01*
X130218771Y-66375000D01*
X130700000Y-66375000D01*
X131950000Y-66375000D01*
X131950000Y-64145978D01*
X131949999Y-64145976D01*
X132450000Y-64145976D01*
X132450000Y-66375000D01*
X133700000Y-66375000D01*
X133700000Y-65562951D01*
X133684613Y-65377267D01*
X133623586Y-65136278D01*
X133523733Y-64908634D01*
X133387766Y-64700522D01*
X133219403Y-64517631D01*
X133023233Y-64364946D01*
X132804606Y-64246631D01*
X132569491Y-64165916D01*
X132450000Y-64145976D01*
X131949999Y-64145976D01*
X131830508Y-64165916D01*
X131595393Y-64246631D01*
X131376766Y-64364946D01*
X131180596Y-64517631D01*
X131012233Y-64700522D01*
X130876266Y-64908634D01*
X130776413Y-65136278D01*
X130715386Y-65377267D01*
X130700000Y-65562951D01*
X130700000Y-66375000D01*
X130218771Y-66375000D01*
X130164296Y-66159884D01*
X130073860Y-65953709D01*
X129950722Y-65765232D01*
X129798240Y-65599594D01*
X129620576Y-65461311D01*
X129620575Y-65461310D01*
X129584067Y-65441553D01*
X129536562Y-65395971D01*
X129519086Y-65332497D01*
X129536564Y-65269023D01*
X129584067Y-65223446D01*
X129620576Y-65203689D01*
X129798240Y-65065406D01*
X129950722Y-64899768D01*
X130073860Y-64711291D01*
X130164296Y-64505116D01*
X130219564Y-64286868D01*
X130238156Y-64062500D01*
X130228190Y-63942236D01*
X130235342Y-63889321D01*
X130264083Y-63844319D01*
X130433402Y-63675000D01*
X134936449Y-63675000D01*
X134956622Y-63931327D01*
X135016644Y-64181340D01*
X135060354Y-64286863D01*
X135115040Y-64418887D01*
X135249384Y-64638116D01*
X135416369Y-64833631D01*
X135611884Y-65000616D01*
X135831113Y-65134960D01*
X135997040Y-65203689D01*
X136068659Y-65233355D01*
X136146626Y-65252073D01*
X136318674Y-65293378D01*
X136510820Y-65308500D01*
X138889177Y-65308500D01*
X138889180Y-65308500D01*
X139081326Y-65293378D01*
X139331340Y-65233355D01*
X139568887Y-65134960D01*
X139788116Y-65000616D01*
X139983631Y-64833631D01*
X140150616Y-64638116D01*
X140284960Y-64418887D01*
X140383355Y-64181340D01*
X140443378Y-63931326D01*
X140463551Y-63675000D01*
X140443378Y-63418674D01*
X140396936Y-63225230D01*
X140383355Y-63168659D01*
X140346887Y-63080619D01*
X140284960Y-62931113D01*
X140150616Y-62711884D01*
X139983631Y-62516369D01*
X139788116Y-62349384D01*
X139568887Y-62215040D01*
X139481138Y-62178693D01*
X139331340Y-62116644D01*
X139081327Y-62056622D01*
X139016371Y-62051510D01*
X138889180Y-62041500D01*
X136510820Y-62041500D01*
X136395532Y-62050573D01*
X136318672Y-62056622D01*
X136068659Y-62116644D01*
X135856812Y-62204394D01*
X135831611Y-62214834D01*
X135831111Y-62215041D01*
X135611885Y-62349383D01*
X135416369Y-62516369D01*
X135249383Y-62711885D01*
X135115041Y-62931111D01*
X135016644Y-63168659D01*
X134956622Y-63418672D01*
X134936449Y-63675000D01*
X130433402Y-63675000D01*
X131828817Y-62279585D01*
X131845097Y-62266544D01*
X131847014Y-62264502D01*
X131847018Y-62264500D01*
X131893691Y-62214796D01*
X131896339Y-62212064D01*
X131916135Y-62192270D01*
X131918679Y-62188988D01*
X131926251Y-62180124D01*
X131956586Y-62147821D01*
X131966419Y-62129932D01*
X131977100Y-62113672D01*
X131989614Y-62097541D01*
X132007207Y-62056881D01*
X132012343Y-62046395D01*
X132033695Y-62007560D01*
X132038773Y-61987777D01*
X132045070Y-61969385D01*
X132053181Y-61950645D01*
X132060112Y-61906876D01*
X132062478Y-61895453D01*
X132073500Y-61852530D01*
X132073500Y-61832116D01*
X132075027Y-61812717D01*
X132077050Y-61799941D01*
X132078220Y-61792557D01*
X132074050Y-61748443D01*
X132073500Y-61736774D01*
X132073500Y-61266337D01*
X132083944Y-61216527D01*
X132113517Y-61175107D01*
X132157237Y-61149056D01*
X132167585Y-61145503D01*
X132217574Y-61128342D01*
X132415576Y-61021189D01*
X132593240Y-60882906D01*
X132745722Y-60717268D01*
X132836190Y-60578795D01*
X132880982Y-60537561D01*
X132940000Y-60522616D01*
X132999018Y-60537561D01*
X133043809Y-60578795D01*
X133088499Y-60647199D01*
X133134278Y-60717268D01*
X133286760Y-60882906D01*
X133464424Y-61021189D01*
X133662426Y-61128342D01*
X133875365Y-61201444D01*
X134097431Y-61238500D01*
X134322569Y-61238500D01*
X134544635Y-61201444D01*
X134757574Y-61128342D01*
X134955576Y-61021189D01*
X135133240Y-60882906D01*
X135285722Y-60717268D01*
X135376190Y-60578795D01*
X135420982Y-60537561D01*
X135480000Y-60522616D01*
X135539018Y-60537561D01*
X135583809Y-60578795D01*
X135628499Y-60647199D01*
X135674278Y-60717268D01*
X135826760Y-60882906D01*
X136004424Y-61021189D01*
X136202426Y-61128342D01*
X136415365Y-61201444D01*
X136637431Y-61238500D01*
X136862569Y-61238500D01*
X137084635Y-61201444D01*
X137297574Y-61128342D01*
X137495576Y-61021189D01*
X137673240Y-60882906D01*
X137727935Y-60823492D01*
X137742908Y-60807228D01*
X137795531Y-60773374D01*
X137857986Y-60769526D01*
X137914367Y-60796664D01*
X137950319Y-60847877D01*
X137996647Y-60972089D01*
X138082811Y-61087188D01*
X138197910Y-61173352D01*
X138332624Y-61223597D01*
X138392176Y-61230000D01*
X139040000Y-61230000D01*
X139040000Y-59754000D01*
X139056613Y-59692000D01*
X139102000Y-59646613D01*
X139164000Y-59630000D01*
X139416000Y-59630000D01*
X139478000Y-59646613D01*
X139523387Y-59692000D01*
X139540000Y-59754000D01*
X139540000Y-61230000D01*
X140187824Y-61230000D01*
X140247375Y-61223597D01*
X140382089Y-61173352D01*
X140497188Y-61087188D01*
X140583352Y-60972088D01*
X140629680Y-60847878D01*
X140665631Y-60796665D01*
X140722013Y-60769526D01*
X140784467Y-60773374D01*
X140837091Y-60807227D01*
X140895651Y-60870839D01*
X140906760Y-60882906D01*
X141084424Y-61021189D01*
X141282426Y-61128342D01*
X141495365Y-61201444D01*
X141717431Y-61238500D01*
X141942569Y-61238500D01*
X142164635Y-61201444D01*
X142377574Y-61128342D01*
X142575576Y-61021189D01*
X142753240Y-60882906D01*
X142905722Y-60717268D01*
X142996190Y-60578795D01*
X143040982Y-60537561D01*
X143100000Y-60522616D01*
X143159018Y-60537561D01*
X143203809Y-60578795D01*
X143248499Y-60647199D01*
X143294278Y-60717268D01*
X143446760Y-60882906D01*
X143624424Y-61021189D01*
X143822426Y-61128342D01*
X144035365Y-61201444D01*
X144257431Y-61238500D01*
X144482569Y-61238500D01*
X144704635Y-61201444D01*
X144917574Y-61128342D01*
X145115576Y-61021189D01*
X145291337Y-60884386D01*
X145354708Y-60858902D01*
X145421960Y-60870839D01*
X145472688Y-60916578D01*
X145491500Y-60982240D01*
X145491500Y-61717500D01*
X145474887Y-61779500D01*
X145429500Y-61824887D01*
X145367500Y-61841500D01*
X143926362Y-61841500D01*
X143902578Y-61844057D01*
X143865794Y-61848011D01*
X143728796Y-61899110D01*
X143611738Y-61986738D01*
X143524110Y-62103796D01*
X143473011Y-62240794D01*
X143470463Y-62264500D01*
X143466500Y-62301362D01*
X143466500Y-64198638D01*
X143469755Y-64228919D01*
X143473011Y-64259205D01*
X143524110Y-64396203D01*
X143611738Y-64513261D01*
X143728796Y-64600889D01*
X143880392Y-64657433D01*
X143879924Y-64658686D01*
X143921793Y-64674969D01*
X143962067Y-64725567D01*
X143971389Y-64789561D01*
X143947222Y-64849545D01*
X143882387Y-64935400D01*
X143786356Y-65128257D01*
X143727398Y-65335473D01*
X143707520Y-65550000D01*
X143727398Y-65764526D01*
X143786356Y-65971742D01*
X143882385Y-66164596D01*
X144012222Y-66336527D01*
X144145870Y-66458363D01*
X144181598Y-66516066D01*
X144181598Y-66583934D01*
X144145870Y-66641637D01*
X144012222Y-66763472D01*
X143882385Y-66935403D01*
X143786356Y-67128257D01*
X143727398Y-67335473D01*
X143707520Y-67550000D01*
X143727398Y-67764526D01*
X143786356Y-67971742D01*
X143882385Y-68164596D01*
X143976049Y-68288626D01*
X144000176Y-68348287D01*
X143991152Y-68412006D01*
X143951406Y-68462620D01*
X143857737Y-68532740D01*
X143770110Y-68649796D01*
X143719011Y-68786794D01*
X143712500Y-68847366D01*
X143712500Y-70249240D01*
X143699384Y-70304744D01*
X143662811Y-70348506D01*
X143611741Y-70386737D01*
X143611740Y-70386738D01*
X143611739Y-70386739D01*
X143585677Y-70421554D01*
X143524109Y-70503798D01*
X143473011Y-70640794D01*
X143470990Y-70659594D01*
X143466647Y-70700000D01*
X143466500Y-70701366D01*
X143466500Y-72598634D01*
X143473011Y-72659205D01*
X143524110Y-72796203D01*
X143611738Y-72913261D01*
X143728796Y-73000889D01*
X143865794Y-73051988D01*
X143865797Y-73051988D01*
X143865799Y-73051989D01*
X143926362Y-73058500D01*
X145823634Y-73058500D01*
X145823638Y-73058500D01*
X145884201Y-73051989D01*
X145884203Y-73051988D01*
X145884205Y-73051988D01*
X145984194Y-73014693D01*
X146021204Y-73000889D01*
X146138261Y-72913261D01*
X146225889Y-72796204D01*
X146276989Y-72659201D01*
X146283500Y-72598638D01*
X146283500Y-70701362D01*
X146276989Y-70640799D01*
X146276988Y-70640797D01*
X146276988Y-70640794D01*
X146225889Y-70503796D01*
X146138260Y-70386737D01*
X146087189Y-70348505D01*
X146050616Y-70304743D01*
X146037500Y-70249239D01*
X146037500Y-68847366D01*
X146037294Y-68845450D01*
X146030989Y-68786799D01*
X146030988Y-68786797D01*
X146030988Y-68786794D01*
X145979889Y-68649796D01*
X145892262Y-68532740D01*
X145798593Y-68462620D01*
X145758847Y-68412006D01*
X145749823Y-68348287D01*
X145773949Y-68288627D01*
X145867612Y-68164599D01*
X145867612Y-68164597D01*
X145867614Y-68164596D01*
X145963643Y-67971742D01*
X145971468Y-67944240D01*
X146022601Y-67764524D01*
X146042480Y-67550000D01*
X146042479Y-67549997D01*
X146042487Y-67549919D01*
X146053711Y-67508667D01*
X146078274Y-67473682D01*
X146943662Y-66608294D01*
X146958451Y-66595663D01*
X146969434Y-66587685D01*
X147005513Y-66547613D01*
X147054507Y-66514338D01*
X147113349Y-66507582D01*
X147168613Y-66528891D01*
X147207689Y-66573401D01*
X147221661Y-66630959D01*
X147175161Y-82096337D01*
X147164814Y-82145555D01*
X147135769Y-82186615D01*
X145335449Y-83866913D01*
X145296623Y-83891501D01*
X145251509Y-83900260D01*
X132662683Y-83967972D01*
X132603219Y-83953148D01*
X132558117Y-83911657D01*
X132538393Y-83853633D01*
X132548865Y-83793251D01*
X132586971Y-83745262D01*
X132727440Y-83638481D01*
X132991837Y-83388031D01*
X133227606Y-83110463D01*
X133431982Y-82809031D01*
X133530292Y-82623599D01*
X133602569Y-82487270D01*
X133737369Y-82148948D01*
X133834796Y-81798046D01*
X133834795Y-81798046D01*
X133834798Y-81798039D01*
X133893716Y-81438651D01*
X133913433Y-81075000D01*
X133893716Y-80711349D01*
X133834798Y-80351961D01*
X133834796Y-80351953D01*
X133737369Y-80001051D01*
X133602569Y-79662729D01*
X133582566Y-79624999D01*
X137611835Y-79624999D01*
X137630465Y-79861712D01*
X137685894Y-80092593D01*
X137720678Y-80176569D01*
X137776760Y-80311963D01*
X137900824Y-80514416D01*
X138055031Y-80694969D01*
X138235584Y-80849176D01*
X138438037Y-80973240D01*
X138657406Y-81064105D01*
X138888289Y-81119535D01*
X139125000Y-81138165D01*
X139361711Y-81119535D01*
X139592594Y-81064105D01*
X139811963Y-80973240D01*
X140014416Y-80849176D01*
X140015079Y-80848610D01*
X143254942Y-80848610D01*
X143301766Y-80885055D01*
X143520393Y-81003368D01*
X143755506Y-81084083D01*
X144000707Y-81125000D01*
X144249293Y-81125000D01*
X144494493Y-81084083D01*
X144729606Y-81003368D01*
X144948233Y-80885053D01*
X144995056Y-80848609D01*
X144125000Y-79978553D01*
X143254942Y-80848609D01*
X143254942Y-80848610D01*
X140015079Y-80848610D01*
X140194969Y-80694969D01*
X140349176Y-80514416D01*
X140473240Y-80311963D01*
X140564105Y-80092594D01*
X140619535Y-79861711D01*
X140638165Y-79625000D01*
X142619858Y-79625000D01*
X142640386Y-79872732D01*
X142701413Y-80113721D01*
X142801268Y-80341370D01*
X142901563Y-80494882D01*
X142901564Y-80494882D01*
X143771447Y-79625001D01*
X143771447Y-79625000D01*
X144478553Y-79625000D01*
X145348434Y-80494882D01*
X145448730Y-80341369D01*
X145548586Y-80113721D01*
X145609613Y-79872732D01*
X145630141Y-79625000D01*
X145609613Y-79377267D01*
X145548586Y-79136278D01*
X145448730Y-78908630D01*
X145348434Y-78755116D01*
X144478553Y-79625000D01*
X143771447Y-79625000D01*
X142901564Y-78755116D01*
X142801266Y-78908634D01*
X142701413Y-79136278D01*
X142640386Y-79377267D01*
X142619858Y-79625000D01*
X140638165Y-79625000D01*
X140619535Y-79388289D01*
X140564105Y-79157406D01*
X140473240Y-78938037D01*
X140349176Y-78735584D01*
X140194969Y-78555031D01*
X140015079Y-78401390D01*
X143254942Y-78401390D01*
X144125000Y-79271447D01*
X144125001Y-79271447D01*
X144995057Y-78401390D01*
X144995056Y-78401388D01*
X144948235Y-78364947D01*
X144729606Y-78246631D01*
X144494493Y-78165916D01*
X144249293Y-78125000D01*
X144000707Y-78125000D01*
X143755506Y-78165916D01*
X143520393Y-78246631D01*
X143301764Y-78364946D01*
X143254942Y-78401388D01*
X143254942Y-78401390D01*
X140015079Y-78401390D01*
X140014416Y-78400824D01*
X139811963Y-78276760D01*
X139702278Y-78231327D01*
X139592593Y-78185894D01*
X139361712Y-78130465D01*
X139243355Y-78121150D01*
X139125000Y-78111835D01*
X139124999Y-78111835D01*
X138888287Y-78130465D01*
X138657406Y-78185894D01*
X138510775Y-78246631D01*
X138450874Y-78271443D01*
X138438035Y-78276761D01*
X138235585Y-78400823D01*
X138055031Y-78555031D01*
X137900823Y-78735585D01*
X137776761Y-78938035D01*
X137685894Y-79157406D01*
X137630465Y-79388287D01*
X137611835Y-79624999D01*
X133582566Y-79624999D01*
X133431981Y-79340966D01*
X133227608Y-79039540D01*
X133227606Y-79039537D01*
X132991837Y-78761969D01*
X132963983Y-78735584D01*
X132727441Y-78511519D01*
X132437514Y-78291123D01*
X132125457Y-78103364D01*
X131794940Y-77950451D01*
X131794937Y-77950450D01*
X131794935Y-77950449D01*
X131449814Y-77834164D01*
X131449813Y-77834163D01*
X131449811Y-77834163D01*
X131140441Y-77766066D01*
X131094143Y-77755875D01*
X130871571Y-77731669D01*
X130732094Y-77716500D01*
X130732093Y-77716500D01*
X130367907Y-77716500D01*
X130367906Y-77716500D01*
X130005857Y-77755875D01*
X129650188Y-77834163D01*
X129305059Y-77950451D01*
X128974542Y-78103364D01*
X128662485Y-78291123D01*
X128372558Y-78511519D01*
X128108163Y-78761968D01*
X127872391Y-79039540D01*
X127668018Y-79340966D01*
X127497430Y-79662729D01*
X127362630Y-80001051D01*
X127265203Y-80351953D01*
X127206283Y-80711355D01*
X127186566Y-81075000D01*
X127206283Y-81438644D01*
X127206283Y-81438649D01*
X127206284Y-81438651D01*
X127208145Y-81450000D01*
X127265203Y-81798046D01*
X127362630Y-82148948D01*
X127497430Y-82487270D01*
X127668018Y-82809033D01*
X127872391Y-83110459D01*
X128108163Y-83388031D01*
X128372558Y-83638480D01*
X128373232Y-83638992D01*
X128542702Y-83767819D01*
X128580702Y-83815568D01*
X128591324Y-83875662D01*
X128571994Y-83933545D01*
X128527394Y-83975198D01*
X128468327Y-83990532D01*
X124904897Y-84009699D01*
X124838814Y-83991042D01*
X124792791Y-83940082D01*
X124780940Y-83872447D01*
X124783500Y-83848634D01*
X124783500Y-81951366D01*
X124781467Y-81932453D01*
X124776989Y-81890799D01*
X124776988Y-81890797D01*
X124776988Y-81890794D01*
X124725889Y-81753796D01*
X124638260Y-81636737D01*
X124587189Y-81598505D01*
X124550616Y-81554743D01*
X124537500Y-81499239D01*
X124537500Y-80097366D01*
X124530988Y-80036794D01*
X124479889Y-79899796D01*
X124392262Y-79782740D01*
X124298593Y-79712620D01*
X124258847Y-79662006D01*
X124249823Y-79598287D01*
X124273949Y-79538627D01*
X124367612Y-79414599D01*
X124367612Y-79414597D01*
X124367614Y-79414596D01*
X124463643Y-79221742D01*
X124522601Y-79014526D01*
X124525709Y-78980984D01*
X124542480Y-78800000D01*
X124522601Y-78585476D01*
X124522601Y-78585473D01*
X124463643Y-78378257D01*
X124367614Y-78185403D01*
X124237777Y-78013473D01*
X124104129Y-77891637D01*
X124068401Y-77833934D01*
X124068401Y-77766066D01*
X124104129Y-77708363D01*
X124237778Y-77586526D01*
X124367612Y-77414599D01*
X124367612Y-77414597D01*
X124367614Y-77414596D01*
X124463643Y-77221742D01*
X124522601Y-77014526D01*
X124534493Y-76886188D01*
X124542480Y-76800000D01*
X124522601Y-76585476D01*
X124522601Y-76585473D01*
X124463644Y-76378259D01*
X124396584Y-76243585D01*
X124384162Y-76176353D01*
X124409261Y-76112758D01*
X124464247Y-76072132D01*
X124521204Y-76050889D01*
X124638261Y-75963261D01*
X124725889Y-75846204D01*
X124776989Y-75709201D01*
X124783500Y-75648638D01*
X124783500Y-73751362D01*
X124776989Y-73690799D01*
X124776988Y-73690797D01*
X124776988Y-73690794D01*
X124725889Y-73553796D01*
X124638261Y-73436738D01*
X124521203Y-73349110D01*
X124384205Y-73298011D01*
X124353919Y-73294755D01*
X124323638Y-73291500D01*
X122426362Y-73291500D01*
X122399445Y-73294393D01*
X122365794Y-73298011D01*
X122228796Y-73349110D01*
X122111738Y-73436738D01*
X122024110Y-73553796D01*
X121973011Y-73690794D01*
X121966500Y-73751366D01*
X121966500Y-75648634D01*
X121973011Y-75709205D01*
X122024110Y-75846203D01*
X122111738Y-75963261D01*
X122194212Y-76025000D01*
X122228796Y-76050889D01*
X122285750Y-76072132D01*
X122340738Y-76112758D01*
X122365837Y-76176353D01*
X122353416Y-76243584D01*
X122286355Y-76378261D01*
X122227398Y-76585473D01*
X122207520Y-76800000D01*
X122227398Y-77014526D01*
X122286356Y-77221742D01*
X122382385Y-77414596D01*
X122512222Y-77586527D01*
X122645870Y-77708363D01*
X122681598Y-77766066D01*
X122681598Y-77833934D01*
X122645870Y-77891637D01*
X122512222Y-78013472D01*
X122382385Y-78185403D01*
X122286356Y-78378257D01*
X122227398Y-78585473D01*
X122207520Y-78800000D01*
X122227398Y-79014526D01*
X122286356Y-79221742D01*
X122382385Y-79414596D01*
X122476049Y-79538626D01*
X122500176Y-79598287D01*
X122491152Y-79662006D01*
X122451406Y-79712620D01*
X122357737Y-79782740D01*
X122270110Y-79899796D01*
X122219011Y-80036794D01*
X122212500Y-80097366D01*
X122212500Y-81499240D01*
X122199384Y-81554744D01*
X122162811Y-81598506D01*
X122111741Y-81636737D01*
X122111740Y-81636738D01*
X122111739Y-81636739D01*
X122081895Y-81676606D01*
X122024109Y-81753798D01*
X121973011Y-81890794D01*
X121966500Y-81951366D01*
X121966500Y-83848636D01*
X121970827Y-83888890D01*
X121959170Y-83956125D01*
X121913706Y-84007013D01*
X121848204Y-84026141D01*
X89552384Y-84199852D01*
X89500099Y-84188599D01*
X87481182Y-83264276D01*
X87430585Y-83221731D01*
X86979499Y-82564925D01*
X99413625Y-82564925D01*
X99497420Y-82623599D01*
X99711507Y-82723430D01*
X99939681Y-82784569D01*
X100175000Y-82805157D01*
X100410318Y-82784569D01*
X100638492Y-82723430D01*
X100852576Y-82623600D01*
X100936373Y-82564925D01*
X105913625Y-82564925D01*
X105997420Y-82623599D01*
X106211507Y-82723430D01*
X106439681Y-82784569D01*
X106675000Y-82805157D01*
X106910318Y-82784569D01*
X107138492Y-82723430D01*
X107352576Y-82623600D01*
X107436373Y-82564925D01*
X106675000Y-81803553D01*
X105913625Y-82564925D01*
X100936373Y-82564925D01*
X100175000Y-81803553D01*
X99413625Y-82564925D01*
X86979499Y-82564925D01*
X86818972Y-82331188D01*
X86035220Y-81190000D01*
X87816843Y-81190000D01*
X87835435Y-81414363D01*
X87835435Y-81414366D01*
X87835436Y-81414368D01*
X87882066Y-81598506D01*
X87890705Y-81632618D01*
X87981138Y-81838788D01*
X87981140Y-81838791D01*
X88104278Y-82027268D01*
X88256760Y-82192906D01*
X88434424Y-82331189D01*
X88632426Y-82438342D01*
X88845365Y-82511444D01*
X89067431Y-82548500D01*
X89292569Y-82548500D01*
X89514635Y-82511444D01*
X89727574Y-82438342D01*
X89925576Y-82331189D01*
X90103240Y-82192906D01*
X90255722Y-82027268D01*
X90325097Y-81921080D01*
X90346191Y-81888795D01*
X90390982Y-81847561D01*
X90450000Y-81832616D01*
X90509018Y-81847561D01*
X90553809Y-81888795D01*
X90569944Y-81913492D01*
X90644278Y-82027268D01*
X90796760Y-82192906D01*
X90974424Y-82331189D01*
X91172426Y-82438342D01*
X91385365Y-82511444D01*
X91607431Y-82548500D01*
X91832569Y-82548500D01*
X92054635Y-82511444D01*
X92267574Y-82438342D01*
X92465576Y-82331189D01*
X92643240Y-82192906D01*
X92795722Y-82027268D01*
X92865097Y-81921080D01*
X92886191Y-81888795D01*
X92930982Y-81847561D01*
X92990000Y-81832616D01*
X93049018Y-81847561D01*
X93093809Y-81888795D01*
X93109944Y-81913492D01*
X93184278Y-82027268D01*
X93336760Y-82192906D01*
X93514424Y-82331189D01*
X93712426Y-82438342D01*
X93925365Y-82511444D01*
X94147431Y-82548500D01*
X94372569Y-82548500D01*
X94594635Y-82511444D01*
X94807574Y-82438342D01*
X95005576Y-82331189D01*
X95183240Y-82192906D01*
X95335722Y-82027268D01*
X95405097Y-81921080D01*
X95426191Y-81888795D01*
X95470982Y-81847561D01*
X95530000Y-81832616D01*
X95589018Y-81847561D01*
X95633809Y-81888795D01*
X95649944Y-81913492D01*
X95724278Y-82027268D01*
X95876760Y-82192906D01*
X96054424Y-82331189D01*
X96252426Y-82438342D01*
X96465365Y-82511444D01*
X96687431Y-82548500D01*
X96912569Y-82548500D01*
X97134635Y-82511444D01*
X97347574Y-82438342D01*
X97545576Y-82331189D01*
X97723240Y-82192906D01*
X97875722Y-82027268D01*
X97998860Y-81838791D01*
X98089296Y-81632616D01*
X98135541Y-81450000D01*
X98819842Y-81450000D01*
X98840430Y-81685318D01*
X98901569Y-81913492D01*
X99001400Y-82127580D01*
X99060073Y-82211373D01*
X99821447Y-81450001D01*
X100528553Y-81450001D01*
X101289925Y-82211373D01*
X101348600Y-82127576D01*
X101448430Y-81913492D01*
X101509569Y-81685318D01*
X101530157Y-81450000D01*
X105319842Y-81450000D01*
X105340430Y-81685318D01*
X105401569Y-81913492D01*
X105501400Y-82127580D01*
X105560073Y-82211373D01*
X106321447Y-81450001D01*
X107028553Y-81450001D01*
X107789925Y-82211373D01*
X107848600Y-82127576D01*
X107948430Y-81913492D01*
X108009569Y-81685318D01*
X108030157Y-81450000D01*
X108009569Y-81214681D01*
X107948430Y-80986507D01*
X107848599Y-80772421D01*
X107789926Y-80688626D01*
X107789925Y-80688625D01*
X107028553Y-81450000D01*
X107028553Y-81450001D01*
X106321447Y-81450001D01*
X106321447Y-81449999D01*
X105560073Y-80688625D01*
X105560072Y-80688625D01*
X105501399Y-80772422D01*
X105401569Y-80986507D01*
X105340430Y-81214681D01*
X105319842Y-81450000D01*
X101530157Y-81450000D01*
X101509569Y-81214681D01*
X101448430Y-80986507D01*
X101348599Y-80772421D01*
X101289926Y-80688626D01*
X101289925Y-80688625D01*
X100528553Y-81450000D01*
X100528553Y-81450001D01*
X99821447Y-81450001D01*
X99821447Y-81450000D01*
X99060072Y-80688625D01*
X99001399Y-80772422D01*
X98901569Y-80986507D01*
X98840430Y-81214681D01*
X98819842Y-81450000D01*
X98135541Y-81450000D01*
X98144564Y-81414368D01*
X98163156Y-81190000D01*
X98144564Y-80965632D01*
X98089296Y-80747384D01*
X97998860Y-80541209D01*
X97875722Y-80352732D01*
X97859465Y-80335072D01*
X99413625Y-80335072D01*
X100175000Y-81096447D01*
X100175001Y-81096447D01*
X100936373Y-80335073D01*
X100936373Y-80335072D01*
X105913625Y-80335072D01*
X106675000Y-81096447D01*
X106675001Y-81096447D01*
X107436373Y-80335073D01*
X107436373Y-80335072D01*
X107352580Y-80276400D01*
X107138492Y-80176569D01*
X106910318Y-80115430D01*
X106675000Y-80094842D01*
X106439681Y-80115430D01*
X106211507Y-80176569D01*
X105997422Y-80276399D01*
X105913625Y-80335072D01*
X100936373Y-80335072D01*
X100852580Y-80276400D01*
X100638492Y-80176569D01*
X100410318Y-80115430D01*
X100175000Y-80094842D01*
X99939681Y-80115430D01*
X99711507Y-80176569D01*
X99497422Y-80276399D01*
X99413625Y-80335072D01*
X97859465Y-80335072D01*
X97723240Y-80187094D01*
X97545576Y-80048811D01*
X97347574Y-79941658D01*
X97347573Y-79941657D01*
X97347572Y-79941657D01*
X97134636Y-79868556D01*
X96912569Y-79831500D01*
X96687431Y-79831500D01*
X96465363Y-79868556D01*
X96252427Y-79941657D01*
X96054424Y-80048811D01*
X95876760Y-80187094D01*
X95724279Y-80352730D01*
X95633809Y-80491205D01*
X95589017Y-80532438D01*
X95530000Y-80547383D01*
X95470983Y-80532438D01*
X95426191Y-80491205D01*
X95406043Y-80460367D01*
X95335722Y-80352732D01*
X95183240Y-80187094D01*
X95005576Y-80048811D01*
X94807574Y-79941658D01*
X94807573Y-79941657D01*
X94807572Y-79941657D01*
X94594636Y-79868556D01*
X94372569Y-79831500D01*
X94147431Y-79831500D01*
X93925363Y-79868556D01*
X93712427Y-79941657D01*
X93514424Y-80048811D01*
X93336760Y-80187094D01*
X93184279Y-80352730D01*
X93093809Y-80491205D01*
X93049017Y-80532438D01*
X92990000Y-80547383D01*
X92930983Y-80532438D01*
X92886191Y-80491205D01*
X92866043Y-80460367D01*
X92795722Y-80352732D01*
X92643240Y-80187094D01*
X92465576Y-80048811D01*
X92267574Y-79941658D01*
X92267573Y-79941657D01*
X92267572Y-79941657D01*
X92054636Y-79868556D01*
X91832569Y-79831500D01*
X91607431Y-79831500D01*
X91385363Y-79868556D01*
X91172427Y-79941657D01*
X90974424Y-80048811D01*
X90796760Y-80187094D01*
X90644279Y-80352730D01*
X90553809Y-80491205D01*
X90509017Y-80532438D01*
X90450000Y-80547383D01*
X90390983Y-80532438D01*
X90346191Y-80491205D01*
X90326043Y-80460367D01*
X90255722Y-80352732D01*
X90103240Y-80187094D01*
X89925576Y-80048811D01*
X89727574Y-79941658D01*
X89727573Y-79941657D01*
X89727572Y-79941657D01*
X89514636Y-79868556D01*
X89292569Y-79831500D01*
X89067431Y-79831500D01*
X88845363Y-79868556D01*
X88632427Y-79941657D01*
X88434424Y-80048811D01*
X88256760Y-80187094D01*
X88104279Y-80352730D01*
X87981138Y-80541211D01*
X87890705Y-80747381D01*
X87890704Y-80747384D01*
X87855841Y-80885055D01*
X87835435Y-80965636D01*
X87816843Y-81190000D01*
X86035220Y-81190000D01*
X82487968Y-76025000D01*
X85171000Y-76025000D01*
X85171000Y-76576824D01*
X85177402Y-76636375D01*
X85227647Y-76771089D01*
X85313811Y-76886188D01*
X85428910Y-76972352D01*
X85563624Y-77022597D01*
X85623176Y-77029000D01*
X86175000Y-77029000D01*
X86175000Y-76025000D01*
X85171000Y-76025000D01*
X82487968Y-76025000D01*
X82144575Y-75525000D01*
X85171000Y-75525000D01*
X86175000Y-75525000D01*
X86175000Y-74521000D01*
X85623176Y-74521000D01*
X85563624Y-74527402D01*
X85428910Y-74577647D01*
X85313811Y-74663811D01*
X85227647Y-74778910D01*
X85177402Y-74913624D01*
X85171000Y-74973176D01*
X85171000Y-75525000D01*
X82144575Y-75525000D01*
X80062644Y-72493589D01*
X80040923Y-72427338D01*
X80058384Y-72359837D01*
X80109509Y-72312429D01*
X80170526Y-72301468D01*
X80170526Y-72300000D01*
X80825000Y-72300000D01*
X80825000Y-71200000D01*
X81325000Y-71200000D01*
X81325000Y-72300000D01*
X81972824Y-72300000D01*
X82032375Y-72293597D01*
X82167089Y-72243352D01*
X82282188Y-72157188D01*
X82368352Y-72042089D01*
X82418597Y-71907375D01*
X82425000Y-71847824D01*
X82425000Y-71200000D01*
X81325000Y-71200000D01*
X80825000Y-71200000D01*
X79725000Y-71200000D01*
X79725000Y-71602378D01*
X79709344Y-71662691D01*
X79666328Y-71707773D01*
X79606816Y-71726242D01*
X79545835Y-71713431D01*
X79498785Y-71672578D01*
X79385208Y-71507204D01*
X78830831Y-70700000D01*
X79725000Y-70700000D01*
X80825000Y-70700000D01*
X80825000Y-69600000D01*
X81325000Y-69600000D01*
X81325000Y-70700000D01*
X82425000Y-70700000D01*
X82425000Y-70052176D01*
X82418597Y-69992624D01*
X82368352Y-69857910D01*
X82282188Y-69742811D01*
X82167089Y-69656647D01*
X82032375Y-69606402D01*
X81972824Y-69600000D01*
X81325000Y-69600000D01*
X80825000Y-69600000D01*
X80177176Y-69600000D01*
X80117624Y-69606402D01*
X79982910Y-69656647D01*
X79867811Y-69742811D01*
X79781647Y-69857910D01*
X79731402Y-69992624D01*
X79725000Y-70052176D01*
X79725000Y-70700000D01*
X78830831Y-70700000D01*
X77397753Y-68613356D01*
X77376764Y-68557178D01*
X77384594Y-68497720D01*
X77419411Y-68448890D01*
X77473071Y-68422109D01*
X77533023Y-68423644D01*
X77585244Y-68453133D01*
X77622563Y-68488484D01*
X77786830Y-68613356D01*
X77912485Y-68708876D01*
X78224540Y-68896634D01*
X78555065Y-69049551D01*
X78900186Y-69165836D01*
X79255857Y-69244125D01*
X79582393Y-69279637D01*
X79617906Y-69283500D01*
X79617907Y-69283500D01*
X79982093Y-69283500D01*
X79982094Y-69283500D01*
X80014434Y-69279982D01*
X80344143Y-69244125D01*
X80699814Y-69165836D01*
X81044935Y-69049551D01*
X81375460Y-68896634D01*
X81687515Y-68708876D01*
X81977440Y-68488481D01*
X82241837Y-68238031D01*
X82477606Y-67960463D01*
X82581379Y-67807409D01*
X82639867Y-67721147D01*
X82686805Y-67679946D01*
X82747872Y-67666850D01*
X82807576Y-67685183D01*
X82850771Y-67730292D01*
X82866500Y-67790734D01*
X82866500Y-69990158D01*
X82875145Y-70099999D01*
X82881854Y-70185250D01*
X82942795Y-70439089D01*
X82988639Y-70549764D01*
X83042697Y-70680271D01*
X83042698Y-70680272D01*
X83179098Y-70902858D01*
X83348636Y-71101363D01*
X83547141Y-71270901D01*
X83547143Y-71270902D01*
X83547144Y-71270903D01*
X83769729Y-71407303D01*
X83947911Y-71481108D01*
X84010910Y-71507204D01*
X84061011Y-71519232D01*
X84264751Y-71568146D01*
X84525000Y-71588628D01*
X84785249Y-71568146D01*
X85039089Y-71507204D01*
X85280271Y-71407303D01*
X85502856Y-71270903D01*
X85701363Y-71101363D01*
X85870903Y-70902856D01*
X86007303Y-70680271D01*
X86107204Y-70439089D01*
X86168146Y-70185249D01*
X86183500Y-69990158D01*
X86183500Y-67559842D01*
X86168146Y-67364751D01*
X86111369Y-67128258D01*
X86107204Y-67110910D01*
X86071646Y-67025066D01*
X86007303Y-66869729D01*
X85870903Y-66647144D01*
X85870902Y-66647143D01*
X85870901Y-66647141D01*
X85701363Y-66448636D01*
X85502858Y-66279098D01*
X85338714Y-66178511D01*
X85280271Y-66142697D01*
X85150645Y-66089004D01*
X85039089Y-66042795D01*
X84785250Y-65981854D01*
X84525000Y-65961372D01*
X84264749Y-65981854D01*
X84010910Y-66042795D01*
X83769727Y-66142698D01*
X83547141Y-66279098D01*
X83341216Y-66454975D01*
X83339926Y-66453465D01*
X83298680Y-66481930D01*
X83235222Y-66487315D01*
X83177461Y-66460490D01*
X83140633Y-66408533D01*
X83134453Y-66345151D01*
X83143716Y-66288651D01*
X83163433Y-65925000D01*
X83143716Y-65561349D01*
X83084798Y-65201961D01*
X83078994Y-65181056D01*
X82987369Y-64851051D01*
X82852569Y-64512729D01*
X82681981Y-64190966D01*
X82477608Y-63889540D01*
X82477606Y-63889537D01*
X82241837Y-63611969D01*
X82147254Y-63522375D01*
X81977441Y-63361519D01*
X81687514Y-63141123D01*
X81375457Y-62953364D01*
X81044940Y-62800451D01*
X81044937Y-62800450D01*
X81044935Y-62800449D01*
X80699814Y-62684164D01*
X80699813Y-62684163D01*
X80699811Y-62684163D01*
X80480566Y-62635904D01*
X80344143Y-62605875D01*
X80163118Y-62586187D01*
X79982094Y-62566500D01*
X79982093Y-62566500D01*
X79617907Y-62566500D01*
X79617906Y-62566500D01*
X79255857Y-62605875D01*
X78900188Y-62684163D01*
X78555059Y-62800451D01*
X78224542Y-62953364D01*
X77912485Y-63141123D01*
X77622558Y-63361519D01*
X77358163Y-63611968D01*
X77122391Y-63889540D01*
X76918018Y-64190966D01*
X76747432Y-64512727D01*
X76714883Y-64594417D01*
X76673639Y-64648056D01*
X76610377Y-64672058D01*
X76543933Y-64659276D01*
X76494091Y-64613517D01*
X76475690Y-64548407D01*
X76478515Y-61474925D01*
X77058625Y-61474925D01*
X77142420Y-61533599D01*
X77356507Y-61633430D01*
X77584681Y-61694569D01*
X77820000Y-61715157D01*
X78055318Y-61694569D01*
X78283492Y-61633430D01*
X78497576Y-61533600D01*
X78581373Y-61474925D01*
X77820000Y-60713553D01*
X77058625Y-61474925D01*
X76478515Y-61474925D01*
X76478776Y-61191345D01*
X76494366Y-61131269D01*
X76537123Y-61086271D01*
X76596331Y-61067633D01*
X76657153Y-61080024D01*
X76704350Y-61120341D01*
X76705073Y-61121373D01*
X77466447Y-60360001D01*
X78173553Y-60360001D01*
X78934925Y-61121373D01*
X78993600Y-61037576D01*
X79093430Y-60823492D01*
X79154569Y-60595318D01*
X79175157Y-60359999D01*
X79154569Y-60124681D01*
X79093430Y-59896507D01*
X78993599Y-59682421D01*
X78934926Y-59598626D01*
X78934925Y-59598625D01*
X78173553Y-60360000D01*
X78173553Y-60360001D01*
X77466447Y-60360001D01*
X77466447Y-60360000D01*
X76705072Y-59598625D01*
X76704466Y-59598679D01*
X76658644Y-59637808D01*
X76597771Y-59650176D01*
X76538538Y-59631470D01*
X76495809Y-59586385D01*
X76480306Y-59526236D01*
X76480564Y-59245072D01*
X77058625Y-59245072D01*
X77820000Y-60006447D01*
X77820001Y-60006447D01*
X78581373Y-59245073D01*
X78581373Y-59245072D01*
X78497580Y-59186400D01*
X78283492Y-59086569D01*
X78055318Y-59025430D01*
X77820000Y-59004842D01*
X77584681Y-59025430D01*
X77356507Y-59086569D01*
X77142422Y-59186399D01*
X77058625Y-59245072D01*
X76480564Y-59245072D01*
X76484489Y-54974925D01*
X77058625Y-54974925D01*
X77142420Y-55033599D01*
X77356507Y-55133430D01*
X77584681Y-55194569D01*
X77820000Y-55215157D01*
X78055318Y-55194569D01*
X78283492Y-55133430D01*
X78497576Y-55033600D01*
X78581373Y-54974925D01*
X77820000Y-54213553D01*
X77058625Y-54974925D01*
X76484489Y-54974925D01*
X76484742Y-54699865D01*
X76500332Y-54639790D01*
X76543089Y-54594792D01*
X76602296Y-54576154D01*
X76663119Y-54588545D01*
X76701146Y-54621030D01*
X76705073Y-54621373D01*
X77466447Y-53860001D01*
X78173553Y-53860001D01*
X78934925Y-54621373D01*
X78993600Y-54537576D01*
X79093430Y-54323492D01*
X79154569Y-54095318D01*
X79175157Y-53860000D01*
X79154569Y-53624681D01*
X79093430Y-53396507D01*
X78993599Y-53182421D01*
X78934926Y-53098626D01*
X78934925Y-53098625D01*
X78173553Y-53860000D01*
X78173553Y-53860001D01*
X77466447Y-53860001D01*
X77466447Y-53860000D01*
X76705072Y-53098625D01*
X76699983Y-53099071D01*
X76664624Y-53129264D01*
X76603752Y-53141631D01*
X76544520Y-53122924D01*
X76501791Y-53077839D01*
X76486288Y-53017692D01*
X76486539Y-52745072D01*
X77058625Y-52745072D01*
X77820000Y-53506447D01*
X77820001Y-53506447D01*
X78581373Y-52745073D01*
X78581373Y-52745072D01*
X78497580Y-52686400D01*
X78283492Y-52586569D01*
X78055318Y-52525430D01*
X77820000Y-52504842D01*
X77584681Y-52525430D01*
X77356507Y-52586569D01*
X77142422Y-52686399D01*
X77058625Y-52745072D01*
X76486539Y-52745072D01*
X76488538Y-50570000D01*
X81456843Y-50570000D01*
X81475435Y-50794363D01*
X81475435Y-50794366D01*
X81475436Y-50794368D01*
X81527225Y-50998879D01*
X81530705Y-51012618D01*
X81621138Y-51218788D01*
X81621140Y-51218791D01*
X81744278Y-51407268D01*
X81896760Y-51572906D01*
X82074424Y-51711189D01*
X82272426Y-51818342D01*
X82485365Y-51891444D01*
X82707431Y-51928500D01*
X82932569Y-51928500D01*
X83154635Y-51891444D01*
X83367574Y-51818342D01*
X83565576Y-51711189D01*
X83743240Y-51572906D01*
X83895722Y-51407268D01*
X83986190Y-51268795D01*
X84030982Y-51227561D01*
X84090000Y-51212616D01*
X84149018Y-51227561D01*
X84193809Y-51268795D01*
X84199141Y-51276957D01*
X84284278Y-51407268D01*
X84436760Y-51572906D01*
X84614424Y-51711189D01*
X84812426Y-51818342D01*
X85025365Y-51891444D01*
X85247431Y-51928500D01*
X85472569Y-51928500D01*
X85694635Y-51891444D01*
X85907574Y-51818342D01*
X86105576Y-51711189D01*
X86283240Y-51572906D01*
X86435722Y-51407268D01*
X86558860Y-51218791D01*
X86649296Y-51012616D01*
X86704564Y-50794368D01*
X86723156Y-50570000D01*
X86704564Y-50345632D01*
X86649296Y-50127384D01*
X86558860Y-49921209D01*
X86435722Y-49732732D01*
X86284292Y-49568237D01*
X86255519Y-49515484D01*
X86254926Y-49455397D01*
X86282653Y-49402087D01*
X86332189Y-49368072D01*
X86452088Y-49323352D01*
X86567188Y-49237188D01*
X86653352Y-49122089D01*
X86703597Y-48987375D01*
X86710000Y-48927824D01*
X86710000Y-48280000D01*
X81470000Y-48280000D01*
X81470000Y-48927824D01*
X81476402Y-48987375D01*
X81526647Y-49122089D01*
X81612811Y-49237188D01*
X81727911Y-49323352D01*
X81847810Y-49368072D01*
X81897346Y-49402087D01*
X81925073Y-49455397D01*
X81924480Y-49515484D01*
X81895706Y-49568237D01*
X81744281Y-49732726D01*
X81621138Y-49921211D01*
X81530705Y-50127381D01*
X81475435Y-50345636D01*
X81456843Y-50570000D01*
X76488538Y-50570000D01*
X76493207Y-45489999D01*
X81456843Y-45489999D01*
X81475435Y-45714363D01*
X81530705Y-45932618D01*
X81621138Y-46138788D01*
X81621140Y-46138791D01*
X81744277Y-46327267D01*
X81744279Y-46327269D01*
X81895706Y-46491761D01*
X81924480Y-46544514D01*
X81925073Y-46604601D01*
X81897346Y-46657912D01*
X81847811Y-46691927D01*
X81727911Y-46736647D01*
X81612811Y-46822811D01*
X81526647Y-46937910D01*
X81476402Y-47072624D01*
X81470000Y-47132176D01*
X81470000Y-47780000D01*
X86710000Y-47780000D01*
X86710000Y-47132176D01*
X86703597Y-47072624D01*
X86653352Y-46937910D01*
X86567188Y-46822811D01*
X86452089Y-46736647D01*
X86332188Y-46691927D01*
X86282653Y-46657912D01*
X86254926Y-46604601D01*
X86255519Y-46544514D01*
X86284291Y-46491763D01*
X86435722Y-46327268D01*
X86435723Y-46327267D01*
X86532147Y-46179679D01*
X86576938Y-46138445D01*
X86635956Y-46123500D01*
X88180778Y-46123500D01*
X88239796Y-46138445D01*
X88284587Y-46179679D01*
X88384277Y-46332267D01*
X88535706Y-46496761D01*
X88564480Y-46549514D01*
X88565073Y-46609601D01*
X88537346Y-46662912D01*
X88487811Y-46696927D01*
X88367911Y-46741647D01*
X88252811Y-46827811D01*
X88166647Y-46942910D01*
X88116402Y-47077624D01*
X88110000Y-47137176D01*
X88110000Y-47785000D01*
X93350000Y-47785000D01*
X93350000Y-47137176D01*
X93343597Y-47077624D01*
X93293352Y-46942910D01*
X93207188Y-46827811D01*
X93092089Y-46741647D01*
X92972188Y-46696927D01*
X92922653Y-46662912D01*
X92894926Y-46609601D01*
X92895519Y-46549514D01*
X92924291Y-46496763D01*
X93075722Y-46332268D01*
X93198860Y-46143791D01*
X93289296Y-45937616D01*
X93344564Y-45719368D01*
X93363156Y-45495000D01*
X93344564Y-45270632D01*
X93289296Y-45052384D01*
X93198860Y-44846209D01*
X93075722Y-44657732D01*
X92923240Y-44492094D01*
X92745576Y-44353811D01*
X92709067Y-44334053D01*
X92661563Y-44288474D01*
X92644086Y-44225000D01*
X92661563Y-44161526D01*
X92709067Y-44115946D01*
X92745576Y-44096189D01*
X92923240Y-43957906D01*
X93075722Y-43792268D01*
X93198860Y-43603791D01*
X93289296Y-43397616D01*
X93344564Y-43179368D01*
X93363156Y-42955000D01*
X93344564Y-42730632D01*
X93289296Y-42512384D01*
X93198860Y-42306209D01*
X93078690Y-42122274D01*
X93063655Y-42089837D01*
X93058500Y-42054455D01*
X93058500Y-39439000D01*
X93075113Y-39377000D01*
X93120500Y-39331613D01*
X93182500Y-39315000D01*
X93735000Y-39315000D01*
X93735000Y-37839000D01*
X93751613Y-37777000D01*
X93797000Y-37731613D01*
X93859000Y-37715000D01*
X94502500Y-37715000D01*
X94564500Y-37731613D01*
X94609887Y-37777000D01*
X94626500Y-37839000D01*
X94626500Y-38091000D01*
X94609887Y-38153000D01*
X94564500Y-38198387D01*
X94502500Y-38215000D01*
X94235000Y-38215000D01*
X94235000Y-39315000D01*
X94502500Y-39315000D01*
X94564500Y-39331613D01*
X94609887Y-39377000D01*
X94626500Y-39439000D01*
X94626500Y-41166367D01*
X94624210Y-41187108D01*
X94624298Y-41189908D01*
X94624298Y-41189909D01*
X94626387Y-41256362D01*
X94626439Y-41258017D01*
X94626500Y-41261913D01*
X94626500Y-41289855D01*
X94627018Y-41293956D01*
X94627934Y-41305597D01*
X94629326Y-41349888D01*
X94635022Y-41369492D01*
X94638967Y-41388544D01*
X94641525Y-41408798D01*
X94657838Y-41450001D01*
X94661621Y-41461049D01*
X94673982Y-41503593D01*
X94684374Y-41521166D01*
X94692931Y-41538633D01*
X94700448Y-41557618D01*
X94726491Y-41593463D01*
X94732905Y-41603227D01*
X94755458Y-41641362D01*
X94760936Y-41646840D01*
X94792806Y-41701602D01*
X94793461Y-41764960D01*
X94765435Y-41875635D01*
X94746843Y-42100000D01*
X94765435Y-42324363D01*
X94765435Y-42324366D01*
X94765436Y-42324368D01*
X94813048Y-42512384D01*
X94820705Y-42542618D01*
X94911138Y-42748788D01*
X94911140Y-42748791D01*
X95034278Y-42937268D01*
X95186760Y-43102906D01*
X95364424Y-43241189D01*
X95562426Y-43348342D01*
X95775365Y-43421444D01*
X95997431Y-43458500D01*
X96222569Y-43458500D01*
X96444635Y-43421444D01*
X96657574Y-43348342D01*
X96855576Y-43241189D01*
X97033240Y-43102906D01*
X97185722Y-42937268D01*
X97276190Y-42798795D01*
X97320982Y-42757561D01*
X97380000Y-42742616D01*
X97439018Y-42757561D01*
X97483809Y-42798795D01*
X97574278Y-42937268D01*
X97726760Y-43102906D01*
X97904424Y-43241189D01*
X98102426Y-43348342D01*
X98315365Y-43421444D01*
X98537431Y-43458500D01*
X98762569Y-43458500D01*
X98984635Y-43421444D01*
X99197574Y-43348342D01*
X99395576Y-43241189D01*
X99573240Y-43102906D01*
X99606847Y-43066398D01*
X99642908Y-43027228D01*
X99695531Y-42993374D01*
X99757986Y-42989526D01*
X99814367Y-43016664D01*
X99850319Y-43067877D01*
X99896647Y-43192089D01*
X99982811Y-43307188D01*
X100097910Y-43393352D01*
X100232624Y-43443597D01*
X100292176Y-43450000D01*
X100940000Y-43450000D01*
X101440000Y-43450000D01*
X102087824Y-43450000D01*
X102147375Y-43443597D01*
X102282089Y-43393352D01*
X102397188Y-43307188D01*
X102483352Y-43192088D01*
X102529680Y-43067878D01*
X102565631Y-43016665D01*
X102622013Y-42989526D01*
X102684467Y-42993374D01*
X102737091Y-43027227D01*
X102774513Y-43067877D01*
X102806760Y-43102906D01*
X102984424Y-43241189D01*
X103182426Y-43348342D01*
X103395365Y-43421444D01*
X103617431Y-43458500D01*
X103842569Y-43458500D01*
X104064635Y-43421444D01*
X104277574Y-43348342D01*
X104475576Y-43241189D01*
X104653240Y-43102906D01*
X104805722Y-42937268D01*
X104896190Y-42798795D01*
X104940982Y-42757561D01*
X105000000Y-42742616D01*
X105059018Y-42757561D01*
X105103809Y-42798795D01*
X105194278Y-42937268D01*
X105346760Y-43102906D01*
X105524424Y-43241189D01*
X105722426Y-43348342D01*
X105935365Y-43421444D01*
X106157431Y-43458500D01*
X106382569Y-43458500D01*
X106604635Y-43421444D01*
X106817574Y-43348342D01*
X107015576Y-43241189D01*
X107193240Y-43102906D01*
X107345722Y-42937268D01*
X107436190Y-42798795D01*
X107480982Y-42757561D01*
X107540000Y-42742616D01*
X107599018Y-42757561D01*
X107643809Y-42798795D01*
X107734278Y-42937268D01*
X107886760Y-43102906D01*
X108064424Y-43241189D01*
X108262426Y-43348342D01*
X108475365Y-43421444D01*
X108697431Y-43458500D01*
X108922569Y-43458500D01*
X109144635Y-43421444D01*
X109357574Y-43348342D01*
X109555576Y-43241189D01*
X109733240Y-43102906D01*
X109885722Y-42937268D01*
X109976190Y-42798795D01*
X110020982Y-42757561D01*
X110080000Y-42742616D01*
X110139018Y-42757561D01*
X110183809Y-42798795D01*
X110274278Y-42937268D01*
X110426760Y-43102906D01*
X110604424Y-43241189D01*
X110802426Y-43348342D01*
X111015365Y-43421444D01*
X111237431Y-43458500D01*
X111462569Y-43458500D01*
X111684635Y-43421444D01*
X111897574Y-43348342D01*
X112095576Y-43241189D01*
X112273240Y-43102906D01*
X112306847Y-43066398D01*
X112342908Y-43027228D01*
X112395531Y-42993374D01*
X112457986Y-42989526D01*
X112514367Y-43016664D01*
X112550319Y-43067877D01*
X112596647Y-43192089D01*
X112682811Y-43307188D01*
X112797910Y-43393352D01*
X112932624Y-43443597D01*
X112992176Y-43450000D01*
X113640000Y-43450000D01*
X113640000Y-40750000D01*
X112992176Y-40750000D01*
X112932624Y-40756402D01*
X112797910Y-40806647D01*
X112682811Y-40892811D01*
X112596647Y-41007911D01*
X112550319Y-41132122D01*
X112514367Y-41183335D01*
X112457986Y-41210473D01*
X112395532Y-41206625D01*
X112342908Y-41172772D01*
X112273240Y-41097094D01*
X112260630Y-41087279D01*
X112095576Y-40958811D01*
X111897574Y-40851658D01*
X111897573Y-40851657D01*
X111897572Y-40851657D01*
X111684636Y-40778556D01*
X111462569Y-40741500D01*
X111237431Y-40741500D01*
X111072907Y-40768953D01*
X111019582Y-40766196D01*
X110972359Y-40741267D01*
X110939998Y-40698791D01*
X110928500Y-40646645D01*
X110928500Y-39264000D01*
X110945113Y-39202000D01*
X110990500Y-39156613D01*
X111052500Y-39140000D01*
X111220000Y-39140000D01*
X111220000Y-38040000D01*
X111720000Y-38040000D01*
X111720000Y-39140000D01*
X112367824Y-39140000D01*
X112427375Y-39133597D01*
X112562088Y-39083352D01*
X112665689Y-39005797D01*
X112713642Y-38983898D01*
X112766358Y-38983898D01*
X112814311Y-39005797D01*
X112917911Y-39083352D01*
X113052624Y-39133597D01*
X113112176Y-39140000D01*
X113760000Y-39140000D01*
X113760000Y-38040000D01*
X111720000Y-38040000D01*
X111220000Y-38040000D01*
X111052500Y-38040000D01*
X110990500Y-38023387D01*
X110945113Y-37978000D01*
X110928500Y-37916000D01*
X110928500Y-37664000D01*
X110945113Y-37602000D01*
X110990500Y-37556613D01*
X111052500Y-37540000D01*
X114437500Y-37540000D01*
X114499500Y-37556613D01*
X114544887Y-37602000D01*
X114561500Y-37664000D01*
X114561500Y-37916000D01*
X114544887Y-37978000D01*
X114499500Y-38023387D01*
X114437500Y-38040000D01*
X114260000Y-38040000D01*
X114260000Y-39140000D01*
X114437500Y-39140000D01*
X114499500Y-39156613D01*
X114544887Y-39202000D01*
X114561500Y-39264000D01*
X114561500Y-40626000D01*
X114544887Y-40688000D01*
X114499500Y-40733387D01*
X114437500Y-40750000D01*
X114140000Y-40750000D01*
X114140000Y-43450000D01*
X114787824Y-43450000D01*
X114847375Y-43443597D01*
X114982089Y-43393352D01*
X115097188Y-43307188D01*
X115183352Y-43192088D01*
X115229680Y-43067878D01*
X115265631Y-43016665D01*
X115322013Y-42989526D01*
X115384467Y-42993374D01*
X115437091Y-43027227D01*
X115474513Y-43067877D01*
X115506760Y-43102906D01*
X115684424Y-43241189D01*
X115882426Y-43348342D01*
X116095365Y-43421444D01*
X116317431Y-43458500D01*
X116542569Y-43458500D01*
X116764635Y-43421444D01*
X116977574Y-43348342D01*
X117175576Y-43241189D01*
X117353240Y-43102906D01*
X117505722Y-42937268D01*
X117596190Y-42798795D01*
X117640982Y-42757561D01*
X117700000Y-42742616D01*
X117759018Y-42757561D01*
X117803809Y-42798795D01*
X117894278Y-42937268D01*
X118046760Y-43102906D01*
X118224424Y-43241189D01*
X118422426Y-43348342D01*
X118635365Y-43421444D01*
X118857431Y-43458500D01*
X119082569Y-43458500D01*
X119304635Y-43421444D01*
X119517574Y-43348342D01*
X119715576Y-43241189D01*
X119893240Y-43102906D01*
X120045722Y-42937268D01*
X120136190Y-42798795D01*
X120180982Y-42757561D01*
X120240000Y-42742616D01*
X120299018Y-42757561D01*
X120343809Y-42798795D01*
X120434278Y-42937268D01*
X120586760Y-43102906D01*
X120764424Y-43241189D01*
X120962426Y-43348342D01*
X121175365Y-43421444D01*
X121397431Y-43458500D01*
X121622569Y-43458500D01*
X121844635Y-43421444D01*
X122057574Y-43348342D01*
X122255576Y-43241189D01*
X122433240Y-43102906D01*
X122585722Y-42937268D01*
X122676190Y-42798795D01*
X122720982Y-42757561D01*
X122780000Y-42742616D01*
X122839018Y-42757561D01*
X122883809Y-42798795D01*
X122974278Y-42937268D01*
X123126760Y-43102906D01*
X123304424Y-43241189D01*
X123502426Y-43348342D01*
X123715365Y-43421444D01*
X123937431Y-43458500D01*
X124162569Y-43458500D01*
X124384635Y-43421444D01*
X124597574Y-43348342D01*
X124795576Y-43241189D01*
X124973240Y-43102906D01*
X125006847Y-43066398D01*
X125042908Y-43027228D01*
X125095531Y-42993374D01*
X125157986Y-42989526D01*
X125214367Y-43016664D01*
X125250319Y-43067877D01*
X125296647Y-43192089D01*
X125382811Y-43307188D01*
X125497910Y-43393352D01*
X125632624Y-43443597D01*
X125692176Y-43450000D01*
X126340000Y-43450000D01*
X126340000Y-41974000D01*
X126356613Y-41912000D01*
X126402000Y-41866613D01*
X126464000Y-41850000D01*
X126716000Y-41850000D01*
X126778000Y-41866613D01*
X126823387Y-41912000D01*
X126840000Y-41974000D01*
X126840000Y-43450000D01*
X127487824Y-43450000D01*
X127547375Y-43443597D01*
X127682089Y-43393352D01*
X127797188Y-43307188D01*
X127883352Y-43192088D01*
X127929680Y-43067878D01*
X127965631Y-43016665D01*
X128022013Y-42989526D01*
X128084467Y-42993374D01*
X128137091Y-43027227D01*
X128174513Y-43067877D01*
X128206760Y-43102906D01*
X128384424Y-43241189D01*
X128582426Y-43348342D01*
X128795365Y-43421444D01*
X129017431Y-43458500D01*
X129242569Y-43458500D01*
X129464635Y-43421444D01*
X129677574Y-43348342D01*
X129875576Y-43241189D01*
X130053240Y-43102906D01*
X130205722Y-42937268D01*
X130296190Y-42798795D01*
X130340982Y-42757561D01*
X130400000Y-42742616D01*
X130459018Y-42757561D01*
X130503809Y-42798795D01*
X130594278Y-42937268D01*
X130746760Y-43102906D01*
X130924424Y-43241189D01*
X131122426Y-43348342D01*
X131335365Y-43421444D01*
X131557431Y-43458500D01*
X131782569Y-43458500D01*
X132004635Y-43421444D01*
X132217574Y-43348342D01*
X132415576Y-43241189D01*
X132593240Y-43102906D01*
X132745722Y-42937268D01*
X132836190Y-42798795D01*
X132880982Y-42757561D01*
X132940000Y-42742616D01*
X132999018Y-42757561D01*
X133043809Y-42798795D01*
X133134278Y-42937268D01*
X133286760Y-43102906D01*
X133464424Y-43241189D01*
X133662426Y-43348342D01*
X133875365Y-43421444D01*
X134097431Y-43458500D01*
X134322569Y-43458500D01*
X134544635Y-43421444D01*
X134757574Y-43348342D01*
X134955576Y-43241189D01*
X135133240Y-43102906D01*
X135285722Y-42937268D01*
X135376190Y-42798795D01*
X135420982Y-42757561D01*
X135480000Y-42742616D01*
X135539018Y-42757561D01*
X135583809Y-42798795D01*
X135674278Y-42937268D01*
X135826760Y-43102906D01*
X136004424Y-43241189D01*
X136202426Y-43348342D01*
X136415365Y-43421444D01*
X136637431Y-43458500D01*
X136862569Y-43458500D01*
X137084635Y-43421444D01*
X137297574Y-43348342D01*
X137495576Y-43241189D01*
X137673240Y-43102906D01*
X137706847Y-43066398D01*
X137742908Y-43027228D01*
X137795531Y-42993374D01*
X137857986Y-42989526D01*
X137914367Y-43016664D01*
X137950319Y-43067877D01*
X137996647Y-43192089D01*
X138082811Y-43307188D01*
X138197910Y-43393352D01*
X138332624Y-43443597D01*
X138392176Y-43450000D01*
X139040000Y-43450000D01*
X139040000Y-40750000D01*
X139035424Y-40745424D01*
X138990500Y-40733387D01*
X138945113Y-40688000D01*
X138928500Y-40626000D01*
X138928500Y-40614616D01*
X138930027Y-40595217D01*
X138931220Y-40587682D01*
X138933220Y-40575057D01*
X138929050Y-40530943D01*
X138928500Y-40519274D01*
X138928500Y-39364000D01*
X138945113Y-39302000D01*
X138990500Y-39256613D01*
X139052500Y-39240000D01*
X139220000Y-39240000D01*
X139220000Y-38140000D01*
X139052500Y-38140000D01*
X138990500Y-38123387D01*
X138945113Y-38078000D01*
X138928500Y-38016000D01*
X138928500Y-37764000D01*
X138945113Y-37702000D01*
X138990500Y-37656613D01*
X139052500Y-37640000D01*
X139992500Y-37640000D01*
X140054500Y-37656613D01*
X140099887Y-37702000D01*
X140116500Y-37764000D01*
X140116500Y-38016000D01*
X140099887Y-38078000D01*
X140054500Y-38123387D01*
X139992500Y-38140000D01*
X139720000Y-38140000D01*
X139720000Y-39240000D01*
X139992500Y-39240000D01*
X140054500Y-39256613D01*
X140099887Y-39302000D01*
X140116500Y-39364000D01*
X140116500Y-40626000D01*
X140099887Y-40688000D01*
X140054500Y-40733387D01*
X139992500Y-40750000D01*
X139540000Y-40750000D01*
X139540000Y-43450000D01*
X140187824Y-43450000D01*
X140247375Y-43443597D01*
X140382089Y-43393352D01*
X140497188Y-43307188D01*
X140583352Y-43192088D01*
X140629680Y-43067878D01*
X140665631Y-43016665D01*
X140722013Y-42989526D01*
X140784467Y-42993374D01*
X140837091Y-43027227D01*
X140874513Y-43067877D01*
X140906760Y-43102906D01*
X141084424Y-43241189D01*
X141282426Y-43348342D01*
X141495365Y-43421444D01*
X141717431Y-43458500D01*
X141942569Y-43458500D01*
X142164635Y-43421444D01*
X142377574Y-43348342D01*
X142575576Y-43241189D01*
X142753240Y-43102906D01*
X142905722Y-42937268D01*
X142996190Y-42798795D01*
X143040982Y-42757561D01*
X143100000Y-42742616D01*
X143159018Y-42757561D01*
X143203809Y-42798795D01*
X143294278Y-42937268D01*
X143446760Y-43102906D01*
X143624424Y-43241189D01*
X143822426Y-43348342D01*
X144035365Y-43421444D01*
X144257431Y-43458500D01*
X144482569Y-43458500D01*
X144704635Y-43421444D01*
X144917574Y-43348342D01*
X145115576Y-43241189D01*
X145293240Y-43102906D01*
X145445722Y-42937268D01*
X145568860Y-42748791D01*
X145659296Y-42542616D01*
X145714564Y-42324368D01*
X145733156Y-42100000D01*
X145714564Y-41875632D01*
X145659296Y-41657384D01*
X145571447Y-41457107D01*
X145568861Y-41451211D01*
X145568860Y-41451209D01*
X145445722Y-41262732D01*
X145293240Y-41097094D01*
X145115576Y-40958811D01*
X144917574Y-40851658D01*
X144917573Y-40851657D01*
X144917572Y-40851657D01*
X144704636Y-40778556D01*
X144482569Y-40741500D01*
X144257431Y-40741500D01*
X144152909Y-40758941D01*
X144099581Y-40756183D01*
X144052359Y-40731254D01*
X144019998Y-40688778D01*
X144008500Y-40636632D01*
X144008500Y-39364000D01*
X144025113Y-39302000D01*
X144070500Y-39256613D01*
X144132500Y-39240000D01*
X144300000Y-39240000D01*
X144300000Y-38140000D01*
X144800000Y-38140000D01*
X144800000Y-39240000D01*
X145447824Y-39240000D01*
X145507375Y-39233597D01*
X145642089Y-39183352D01*
X145757188Y-39097188D01*
X145843352Y-38982089D01*
X145893597Y-38847375D01*
X145900000Y-38787824D01*
X145900000Y-38140000D01*
X144800000Y-38140000D01*
X144300000Y-38140000D01*
X144132500Y-38140000D01*
X144070500Y-38123387D01*
X144025113Y-38078000D01*
X144008500Y-38016000D01*
X144008500Y-37764000D01*
X144025113Y-37702000D01*
X144070500Y-37656613D01*
X144132500Y-37640000D01*
X145900000Y-37640000D01*
X145900000Y-36992176D01*
X145893597Y-36932624D01*
X145843352Y-36797910D01*
X145757188Y-36682811D01*
X145642089Y-36596647D01*
X145522188Y-36551927D01*
X145472653Y-36517912D01*
X145444926Y-36464601D01*
X145445519Y-36404514D01*
X145474291Y-36351763D01*
X145625722Y-36187268D01*
X145748860Y-35998791D01*
X145839296Y-35792616D01*
X145894564Y-35574368D01*
X145913156Y-35350000D01*
X145894564Y-35125632D01*
X145839296Y-34907384D01*
X145748860Y-34701209D01*
X145625722Y-34512732D01*
X145473240Y-34347094D01*
X145295576Y-34208811D01*
X145295575Y-34208810D01*
X145259067Y-34189053D01*
X145211562Y-34143471D01*
X145194086Y-34079997D01*
X145211564Y-34016523D01*
X145259067Y-33970946D01*
X145295576Y-33951189D01*
X145473240Y-33812906D01*
X145625722Y-33647268D01*
X145748860Y-33458791D01*
X145839296Y-33252616D01*
X145894564Y-33034368D01*
X145913156Y-32810000D01*
X145894564Y-32585632D01*
X145839296Y-32367384D01*
X145748860Y-32161209D01*
X145625722Y-31972732D01*
X145473240Y-31807094D01*
X145295576Y-31668811D01*
X145097574Y-31561658D01*
X145097573Y-31561657D01*
X145097572Y-31561657D01*
X144884636Y-31488556D01*
X144662569Y-31451500D01*
X144437431Y-31451500D01*
X144215363Y-31488556D01*
X144002427Y-31561657D01*
X143804424Y-31668811D01*
X143626760Y-31807094D01*
X143474279Y-31972730D01*
X143383809Y-32111205D01*
X143339017Y-32152438D01*
X143280000Y-32167383D01*
X143220983Y-32152438D01*
X143176191Y-32111205D01*
X143134722Y-32047732D01*
X143085722Y-31972732D01*
X142933240Y-31807094D01*
X142755576Y-31668811D01*
X142557574Y-31561658D01*
X142557573Y-31561657D01*
X142557572Y-31561657D01*
X142344636Y-31488556D01*
X142122569Y-31451500D01*
X141897431Y-31451500D01*
X141675363Y-31488556D01*
X141462427Y-31561657D01*
X141264424Y-31668811D01*
X141086760Y-31807094D01*
X140934279Y-31972730D01*
X140843809Y-32111205D01*
X140799017Y-32152438D01*
X140740000Y-32167383D01*
X140680983Y-32152438D01*
X140636191Y-32111205D01*
X140594722Y-32047732D01*
X140545722Y-31972732D01*
X140393240Y-31807094D01*
X140215576Y-31668811D01*
X140017574Y-31561658D01*
X140017573Y-31561657D01*
X140017572Y-31561657D01*
X139804636Y-31488556D01*
X139582569Y-31451500D01*
X139357431Y-31451500D01*
X139135363Y-31488556D01*
X138922427Y-31561657D01*
X138724424Y-31668811D01*
X138546760Y-31807094D01*
X138394279Y-31972730D01*
X138303809Y-32111205D01*
X138259017Y-32152438D01*
X138200000Y-32167383D01*
X138140983Y-32152438D01*
X138096191Y-32111205D01*
X138054722Y-32047732D01*
X138005722Y-31972732D01*
X137853240Y-31807094D01*
X137675576Y-31668811D01*
X137477574Y-31561658D01*
X137477573Y-31561657D01*
X137477572Y-31561657D01*
X137264636Y-31488556D01*
X137042569Y-31451500D01*
X136817431Y-31451500D01*
X136595363Y-31488556D01*
X136382427Y-31561657D01*
X136184424Y-31668811D01*
X136006760Y-31807094D01*
X135854279Y-31972730D01*
X135731138Y-32161211D01*
X135660000Y-32323393D01*
X135640704Y-32367384D01*
X135609652Y-32490004D01*
X135585435Y-32585636D01*
X135566843Y-32810000D01*
X135585435Y-33034363D01*
X135585435Y-33034366D01*
X135585436Y-33034368D01*
X135602620Y-33102225D01*
X135613461Y-33145036D01*
X135612806Y-33208394D01*
X135580936Y-33263157D01*
X135340735Y-33503358D01*
X135287520Y-33534791D01*
X135225742Y-33536632D01*
X135170750Y-33508424D01*
X135136204Y-33457175D01*
X135130687Y-33395618D01*
X135168716Y-33163651D01*
X135188433Y-32800000D01*
X135168716Y-32436349D01*
X135109798Y-32076961D01*
X135105425Y-32061211D01*
X135012369Y-31726051D01*
X134877569Y-31387729D01*
X134706981Y-31065966D01*
X134502608Y-30764540D01*
X134502606Y-30764537D01*
X134266837Y-30486969D01*
X134195989Y-30419858D01*
X134002441Y-30236519D01*
X133712514Y-30016123D01*
X133400457Y-29828364D01*
X133069940Y-29675451D01*
X133069937Y-29675450D01*
X133069935Y-29675449D01*
X132724814Y-29559164D01*
X132724813Y-29559163D01*
X132724811Y-29559163D01*
X132491147Y-29507730D01*
X132369143Y-29480875D01*
X132188117Y-29461187D01*
X132007094Y-29441500D01*
X132007093Y-29441500D01*
X131642907Y-29441500D01*
X131642906Y-29441500D01*
X131280857Y-29480875D01*
X130925188Y-29559163D01*
X130580059Y-29675451D01*
X130249542Y-29828364D01*
X129937485Y-30016123D01*
X129647558Y-30236519D01*
X129383163Y-30486968D01*
X129147391Y-30764540D01*
X128943018Y-31065966D01*
X128772430Y-31387729D01*
X128637630Y-31726051D01*
X128540203Y-32076953D01*
X128481283Y-32436355D01*
X128461566Y-32799999D01*
X128481283Y-33163646D01*
X128499704Y-33276010D01*
X128494187Y-33337568D01*
X128459641Y-33388817D01*
X128404649Y-33417025D01*
X128342871Y-33415184D01*
X128289656Y-33383751D01*
X128069062Y-33163157D01*
X128037192Y-33108393D01*
X128036538Y-33045037D01*
X128064564Y-32934368D01*
X128083156Y-32710000D01*
X128064564Y-32485632D01*
X128009296Y-32267384D01*
X127918860Y-32061209D01*
X127795722Y-31872732D01*
X127643240Y-31707094D01*
X127465576Y-31568811D01*
X127267574Y-31461658D01*
X127267573Y-31461657D01*
X127267572Y-31461657D01*
X127054636Y-31388556D01*
X126832569Y-31351500D01*
X126607431Y-31351500D01*
X126385363Y-31388556D01*
X126172427Y-31461657D01*
X125974424Y-31568811D01*
X125796760Y-31707094D01*
X125644279Y-31872730D01*
X125553809Y-32011205D01*
X125509017Y-32052438D01*
X125450000Y-32067383D01*
X125390983Y-32052438D01*
X125346191Y-32011205D01*
X125299778Y-31940165D01*
X125255722Y-31872732D01*
X125103240Y-31707094D01*
X124925576Y-31568811D01*
X124727574Y-31461658D01*
X124727573Y-31461657D01*
X124727572Y-31461657D01*
X124514636Y-31388556D01*
X124292569Y-31351500D01*
X124067431Y-31351500D01*
X123845363Y-31388556D01*
X123632427Y-31461657D01*
X123434424Y-31568811D01*
X123256760Y-31707094D01*
X123104279Y-31872730D01*
X123013809Y-32011205D01*
X122969017Y-32052438D01*
X122910000Y-32067383D01*
X122850983Y-32052438D01*
X122806191Y-32011205D01*
X122759778Y-31940165D01*
X122715722Y-31872732D01*
X122563240Y-31707094D01*
X122385576Y-31568811D01*
X122187574Y-31461658D01*
X122187573Y-31461657D01*
X122187572Y-31461657D01*
X121974636Y-31388556D01*
X121752569Y-31351500D01*
X121527431Y-31351500D01*
X121305363Y-31388556D01*
X121092427Y-31461657D01*
X120894424Y-31568811D01*
X120716760Y-31707094D01*
X120564279Y-31872730D01*
X120473809Y-32011205D01*
X120429017Y-32052438D01*
X120370000Y-32067383D01*
X120310983Y-32052438D01*
X120266191Y-32011205D01*
X120219778Y-31940165D01*
X120175722Y-31872732D01*
X120023240Y-31707094D01*
X119845576Y-31568811D01*
X119647574Y-31461658D01*
X119647573Y-31461657D01*
X119647572Y-31461657D01*
X119434636Y-31388556D01*
X119212569Y-31351500D01*
X118987431Y-31351500D01*
X118765363Y-31388556D01*
X118552427Y-31461657D01*
X118354424Y-31568811D01*
X118176760Y-31707094D01*
X118024279Y-31872730D01*
X117933809Y-32011205D01*
X117889017Y-32052438D01*
X117830000Y-32067383D01*
X117770983Y-32052438D01*
X117726191Y-32011205D01*
X117679778Y-31940165D01*
X117635722Y-31872732D01*
X117483240Y-31707094D01*
X117305576Y-31568811D01*
X117107574Y-31461658D01*
X117107573Y-31461657D01*
X117107572Y-31461657D01*
X116894636Y-31388556D01*
X116672569Y-31351500D01*
X116447431Y-31351500D01*
X116225363Y-31388556D01*
X116012427Y-31461657D01*
X115814424Y-31568811D01*
X115636760Y-31707094D01*
X115484279Y-31872730D01*
X115393809Y-32011205D01*
X115349017Y-32052438D01*
X115290000Y-32067383D01*
X115230983Y-32052438D01*
X115186191Y-32011205D01*
X115139778Y-31940165D01*
X115095722Y-31872732D01*
X114943240Y-31707094D01*
X114765576Y-31568811D01*
X114567574Y-31461658D01*
X114567573Y-31461657D01*
X114567572Y-31461657D01*
X114354636Y-31388556D01*
X114132569Y-31351500D01*
X113907431Y-31351500D01*
X113685363Y-31388556D01*
X113472427Y-31461657D01*
X113274424Y-31568811D01*
X113096760Y-31707094D01*
X112944279Y-31872730D01*
X112853809Y-32011205D01*
X112809017Y-32052438D01*
X112750000Y-32067383D01*
X112690983Y-32052438D01*
X112646191Y-32011205D01*
X112599778Y-31940165D01*
X112555722Y-31872732D01*
X112403240Y-31707094D01*
X112225576Y-31568811D01*
X112027574Y-31461658D01*
X112027573Y-31461657D01*
X112027572Y-31461657D01*
X111814636Y-31388556D01*
X111592569Y-31351500D01*
X111367431Y-31351500D01*
X111145363Y-31388556D01*
X110932427Y-31461657D01*
X110734424Y-31568811D01*
X110556760Y-31707094D01*
X110404279Y-31872730D01*
X110313809Y-32011205D01*
X110269017Y-32052438D01*
X110210000Y-32067383D01*
X110150983Y-32052438D01*
X110106191Y-32011205D01*
X110059778Y-31940165D01*
X110015722Y-31872732D01*
X109863240Y-31707094D01*
X109685576Y-31568811D01*
X109487574Y-31461658D01*
X109487573Y-31461657D01*
X109487572Y-31461657D01*
X109274636Y-31388556D01*
X109052569Y-31351500D01*
X108827431Y-31351500D01*
X108605363Y-31388556D01*
X108392427Y-31461657D01*
X108194424Y-31568811D01*
X108016760Y-31707094D01*
X107864279Y-31872730D01*
X107773809Y-32011205D01*
X107729017Y-32052438D01*
X107670000Y-32067383D01*
X107610983Y-32052438D01*
X107566191Y-32011205D01*
X107519778Y-31940165D01*
X107475722Y-31872732D01*
X107323240Y-31707094D01*
X107145576Y-31568811D01*
X106947574Y-31461658D01*
X106947573Y-31461657D01*
X106947572Y-31461657D01*
X106734636Y-31388556D01*
X106512569Y-31351500D01*
X106287431Y-31351500D01*
X106065363Y-31388556D01*
X105852427Y-31461657D01*
X105654424Y-31568811D01*
X105476760Y-31707094D01*
X105324279Y-31872730D01*
X105233809Y-32011205D01*
X105189017Y-32052438D01*
X105130000Y-32067383D01*
X105070983Y-32052438D01*
X105026191Y-32011205D01*
X104979778Y-31940165D01*
X104935722Y-31872732D01*
X104783240Y-31707094D01*
X104605576Y-31568811D01*
X104407574Y-31461658D01*
X104407573Y-31461657D01*
X104407572Y-31461657D01*
X104194636Y-31388556D01*
X103972569Y-31351500D01*
X103747431Y-31351500D01*
X103525363Y-31388556D01*
X103312427Y-31461657D01*
X103114424Y-31568811D01*
X102936760Y-31707094D01*
X102784279Y-31872730D01*
X102661138Y-32061211D01*
X102573496Y-32261018D01*
X102570704Y-32267384D01*
X102527916Y-32436349D01*
X102515435Y-32485636D01*
X102496843Y-32709999D01*
X102515435Y-32934363D01*
X102515436Y-32934365D01*
X102515436Y-32934368D01*
X102543460Y-33045034D01*
X102543461Y-33045036D01*
X102542806Y-33108394D01*
X102510936Y-33163157D01*
X102286180Y-33387913D01*
X102269895Y-33400961D01*
X102221338Y-33452669D01*
X102218632Y-33455462D01*
X102198861Y-33475233D01*
X102196321Y-33478508D01*
X102188752Y-33487369D01*
X102158414Y-33519677D01*
X102148582Y-33537563D01*
X102137901Y-33553823D01*
X102125385Y-33569959D01*
X102107786Y-33610628D01*
X102102648Y-33621117D01*
X102081303Y-33659943D01*
X102076226Y-33679718D01*
X102069925Y-33698123D01*
X102061818Y-33716856D01*
X102054888Y-33760610D01*
X102052520Y-33772046D01*
X102041500Y-33814970D01*
X102041500Y-33835384D01*
X102039972Y-33854783D01*
X102036780Y-33874943D01*
X102037864Y-33886407D01*
X102040950Y-33919057D01*
X102041500Y-33930726D01*
X102041500Y-40626000D01*
X102024887Y-40688000D01*
X101979500Y-40733387D01*
X101917500Y-40750000D01*
X101440000Y-40750000D01*
X101440000Y-43450000D01*
X100940000Y-43450000D01*
X100940000Y-40750000D01*
X100292176Y-40750000D01*
X100232624Y-40756402D01*
X100097910Y-40806647D01*
X99982811Y-40892811D01*
X99896647Y-41007911D01*
X99850319Y-41132122D01*
X99814367Y-41183335D01*
X99757986Y-41210473D01*
X99695532Y-41206625D01*
X99642908Y-41172772D01*
X99573240Y-41097094D01*
X99560630Y-41087279D01*
X99395576Y-40958811D01*
X99197574Y-40851658D01*
X99197573Y-40851657D01*
X99197572Y-40851657D01*
X98984636Y-40778556D01*
X98762569Y-40741500D01*
X98707500Y-40741500D01*
X98645500Y-40724887D01*
X98600113Y-40679500D01*
X98583500Y-40617500D01*
X98583500Y-34223633D01*
X98585789Y-34202891D01*
X98585701Y-34200094D01*
X98585702Y-34200091D01*
X98583560Y-34131982D01*
X98583500Y-34128087D01*
X98583500Y-34100146D01*
X98582982Y-34096049D01*
X98582064Y-34084390D01*
X98581926Y-34079997D01*
X98580673Y-34040110D01*
X98574978Y-34020511D01*
X98571033Y-34001462D01*
X98568474Y-33981203D01*
X98557951Y-33954626D01*
X98552162Y-33940004D01*
X98548377Y-33928950D01*
X98545503Y-33919057D01*
X98536018Y-33886407D01*
X98533007Y-33881316D01*
X98525624Y-33868831D01*
X98517064Y-33851357D01*
X98509552Y-33832384D01*
X98509552Y-33832383D01*
X98483510Y-33796540D01*
X98477095Y-33786773D01*
X98454544Y-33748639D01*
X98447482Y-33741577D01*
X98440101Y-33734196D01*
X98427469Y-33719405D01*
X98415474Y-33702895D01*
X98409706Y-33698123D01*
X98381324Y-33674643D01*
X98372696Y-33666791D01*
X97906051Y-33200146D01*
X97877308Y-33155143D01*
X97870156Y-33102225D01*
X97888156Y-32884999D01*
X97881941Y-32809999D01*
X97869564Y-32660632D01*
X97814296Y-32442384D01*
X97732380Y-32255632D01*
X97723861Y-32236211D01*
X97715487Y-32223393D01*
X97600722Y-32047732D01*
X97448240Y-31882094D01*
X97270576Y-31743811D01*
X97234067Y-31724053D01*
X97186563Y-31678474D01*
X97169086Y-31615000D01*
X97186563Y-31551526D01*
X97234067Y-31505946D01*
X97270576Y-31486189D01*
X97448240Y-31347906D01*
X97600722Y-31182268D01*
X97723860Y-30993791D01*
X97814296Y-30787616D01*
X97869564Y-30569368D01*
X97888156Y-30345000D01*
X97869564Y-30120632D01*
X97814296Y-29902384D01*
X97723860Y-29696209D01*
X97600722Y-29507732D01*
X97448240Y-29342094D01*
X97270576Y-29203811D01*
X97072574Y-29096658D01*
X97072573Y-29096657D01*
X97072572Y-29096657D01*
X96859636Y-29023556D01*
X96637569Y-28986500D01*
X96412431Y-28986500D01*
X96190363Y-29023556D01*
X95977427Y-29096657D01*
X95779424Y-29203811D01*
X95601760Y-29342094D01*
X95449279Y-29507730D01*
X95358809Y-29646205D01*
X95314017Y-29687438D01*
X95255000Y-29702383D01*
X95195983Y-29687438D01*
X95151191Y-29646205D01*
X95094324Y-29559164D01*
X95060722Y-29507732D01*
X94908240Y-29342094D01*
X94730576Y-29203811D01*
X94532574Y-29096658D01*
X94532573Y-29096657D01*
X94532572Y-29096657D01*
X94319636Y-29023556D01*
X94097569Y-28986500D01*
X93872431Y-28986500D01*
X93650363Y-29023556D01*
X93437427Y-29096657D01*
X93239424Y-29203811D01*
X93061760Y-29342094D01*
X92909279Y-29507730D01*
X92786138Y-29696211D01*
X92695705Y-29902381D01*
X92640435Y-30120636D01*
X92621843Y-30345000D01*
X92636293Y-30519378D01*
X92629141Y-30572296D01*
X92600398Y-30617299D01*
X91502675Y-31715022D01*
X91484697Y-31729896D01*
X91477726Y-31734633D01*
X91440541Y-31776810D01*
X91435216Y-31782481D01*
X91423867Y-31793830D01*
X91414020Y-31806525D01*
X91409059Y-31812521D01*
X91371881Y-31854692D01*
X91368055Y-31862201D01*
X91355556Y-31881896D01*
X91350387Y-31888560D01*
X91328055Y-31940165D01*
X91324740Y-31947210D01*
X91299214Y-31997308D01*
X91297375Y-32005537D01*
X91290169Y-32027717D01*
X91286818Y-32035460D01*
X91278026Y-32090973D01*
X91276567Y-32098623D01*
X91264297Y-32153515D01*
X91264562Y-32161942D01*
X91263097Y-32185228D01*
X91261779Y-32193545D01*
X91267071Y-32249526D01*
X91267560Y-32257297D01*
X91269326Y-32313496D01*
X91271677Y-32321586D01*
X91276049Y-32344504D01*
X91276842Y-32352895D01*
X91284169Y-32373245D01*
X91291500Y-32415249D01*
X91291500Y-41054533D01*
X91282061Y-41101986D01*
X91255181Y-41142214D01*
X90495567Y-41901825D01*
X90444901Y-41932490D01*
X90385792Y-41936160D01*
X90331725Y-41911998D01*
X90205576Y-41813811D01*
X90007574Y-41706658D01*
X90007573Y-41706657D01*
X90007572Y-41706657D01*
X89794636Y-41633556D01*
X89572569Y-41596500D01*
X89347431Y-41596500D01*
X89125363Y-41633556D01*
X88912427Y-41706657D01*
X88714424Y-41813811D01*
X88536760Y-41952094D01*
X88384279Y-42117730D01*
X88261138Y-42306211D01*
X88172897Y-42507384D01*
X88170704Y-42512384D01*
X88116702Y-42725632D01*
X88115435Y-42730636D01*
X88096843Y-42954999D01*
X88115435Y-43179363D01*
X88115435Y-43179366D01*
X88115436Y-43179368D01*
X88169624Y-43393352D01*
X88170705Y-43397618D01*
X88261138Y-43603788D01*
X88261140Y-43603791D01*
X88384278Y-43792268D01*
X88536760Y-43957906D01*
X88714424Y-44096189D01*
X88714426Y-44096190D01*
X88750931Y-44115946D01*
X88798436Y-44161527D01*
X88815913Y-44225000D01*
X88798436Y-44288473D01*
X88750931Y-44334054D01*
X88714426Y-44353809D01*
X88536760Y-44492094D01*
X88384277Y-44657732D01*
X88291120Y-44800321D01*
X88246329Y-44841555D01*
X88187311Y-44856500D01*
X86635956Y-44856500D01*
X86576938Y-44841555D01*
X86532147Y-44800321D01*
X86435723Y-44652732D01*
X86359480Y-44569912D01*
X86283240Y-44487094D01*
X86105576Y-44348811D01*
X86069067Y-44329053D01*
X86021563Y-44283474D01*
X86004086Y-44220000D01*
X86021563Y-44156526D01*
X86069067Y-44110946D01*
X86105576Y-44091189D01*
X86283240Y-43952906D01*
X86435722Y-43787268D01*
X86558860Y-43598791D01*
X86649296Y-43392616D01*
X86704564Y-43174368D01*
X86723156Y-42950000D01*
X86704564Y-42725632D01*
X86649296Y-42507384D01*
X86558860Y-42301209D01*
X86435722Y-42112732D01*
X86283240Y-41947094D01*
X86105576Y-41808811D01*
X85907574Y-41701658D01*
X85907573Y-41701657D01*
X85907572Y-41701657D01*
X85694636Y-41628556D01*
X85472569Y-41591500D01*
X85247431Y-41591500D01*
X85025363Y-41628556D01*
X84812427Y-41701657D01*
X84614424Y-41808811D01*
X84436760Y-41947094D01*
X84284279Y-42112730D01*
X84193809Y-42251205D01*
X84149017Y-42292438D01*
X84090000Y-42307383D01*
X84030983Y-42292438D01*
X83986191Y-42251205D01*
X83966043Y-42220367D01*
X83895722Y-42112732D01*
X83743240Y-41947094D01*
X83565576Y-41808811D01*
X83367574Y-41701658D01*
X83367573Y-41701657D01*
X83367572Y-41701657D01*
X83154636Y-41628556D01*
X82932569Y-41591500D01*
X82707431Y-41591500D01*
X82485363Y-41628556D01*
X82272427Y-41701657D01*
X82074424Y-41808811D01*
X81896760Y-41947094D01*
X81744279Y-42112730D01*
X81621138Y-42301211D01*
X81530705Y-42507381D01*
X81475435Y-42725636D01*
X81456843Y-42950000D01*
X81475435Y-43174363D01*
X81475435Y-43174366D01*
X81475436Y-43174368D01*
X81519492Y-43348342D01*
X81530705Y-43392618D01*
X81621138Y-43598788D01*
X81621140Y-43598791D01*
X81744278Y-43787268D01*
X81896760Y-43952906D01*
X82074424Y-44091189D01*
X82074426Y-44091190D01*
X82110931Y-44110946D01*
X82158436Y-44156527D01*
X82175913Y-44220000D01*
X82158436Y-44283473D01*
X82110931Y-44329054D01*
X82074426Y-44348809D01*
X81896760Y-44487094D01*
X81744279Y-44652730D01*
X81621138Y-44841211D01*
X81530705Y-45047381D01*
X81475435Y-45265636D01*
X81456843Y-45489999D01*
X76493207Y-45489999D01*
X76498769Y-39438893D01*
X76515878Y-39376161D01*
X76562385Y-39330708D01*
X76625500Y-39315043D01*
X76687863Y-39333473D01*
X76732323Y-39380930D01*
X76893018Y-39684033D01*
X77097391Y-39985459D01*
X77333163Y-40263031D01*
X77597558Y-40513480D01*
X77841331Y-40698791D01*
X77887485Y-40733876D01*
X78187781Y-40914559D01*
X78199542Y-40921635D01*
X78279897Y-40958811D01*
X78530065Y-41074551D01*
X78875186Y-41190836D01*
X79230857Y-41269125D01*
X79557393Y-41304637D01*
X79592906Y-41308500D01*
X79592907Y-41308500D01*
X79957093Y-41308500D01*
X79957094Y-41308500D01*
X79989434Y-41304982D01*
X80319143Y-41269125D01*
X80674814Y-41190836D01*
X81019935Y-41074551D01*
X81350460Y-40921634D01*
X81662515Y-40733876D01*
X81952440Y-40513481D01*
X82216837Y-40263031D01*
X82452606Y-39985463D01*
X82656982Y-39684031D01*
X82774868Y-39461674D01*
X82827569Y-39362270D01*
X82962369Y-39023948D01*
X83059796Y-38673046D01*
X83059795Y-38673046D01*
X83059798Y-38673039D01*
X83118716Y-38313651D01*
X83138433Y-37950000D01*
X83118716Y-37586349D01*
X83059798Y-37226961D01*
X83058669Y-37222893D01*
X82962369Y-36876051D01*
X82827569Y-36537729D01*
X82656981Y-36215966D01*
X82452608Y-35914540D01*
X82452606Y-35914537D01*
X82216837Y-35636969D01*
X82216836Y-35636968D01*
X81952441Y-35386519D01*
X81662514Y-35166123D01*
X81350457Y-34978364D01*
X81019940Y-34825451D01*
X81019937Y-34825450D01*
X81019935Y-34825449D01*
X80674814Y-34709164D01*
X80674813Y-34709163D01*
X80674811Y-34709163D01*
X80407505Y-34650325D01*
X80319143Y-34630875D01*
X80103136Y-34607383D01*
X79957094Y-34591500D01*
X79957093Y-34591500D01*
X79592907Y-34591500D01*
X79592906Y-34591500D01*
X79230857Y-34630875D01*
X78989628Y-34683973D01*
X78920604Y-34679410D01*
X78864766Y-34638579D01*
X78839489Y-34574188D01*
X78852641Y-34506276D01*
X78900126Y-34455977D01*
X80016648Y-33799578D01*
X82146517Y-33799578D01*
X82165109Y-34023942D01*
X82165109Y-34023945D01*
X82165110Y-34023947D01*
X82215677Y-34223633D01*
X82220379Y-34242197D01*
X82310812Y-34448367D01*
X82310814Y-34448370D01*
X82433952Y-34636847D01*
X82586434Y-34802485D01*
X82764098Y-34940768D01*
X82962100Y-35047921D01*
X83175039Y-35121023D01*
X83397105Y-35158079D01*
X83512110Y-35158079D01*
X83571127Y-35173024D01*
X83615918Y-35214257D01*
X83635686Y-35271839D01*
X83625666Y-35331889D01*
X83559109Y-35483626D01*
X83539957Y-35527288D01*
X83528556Y-35572309D01*
X83484688Y-35745540D01*
X83466096Y-35969904D01*
X83484688Y-36194267D01*
X83484688Y-36194270D01*
X83484689Y-36194272D01*
X83536484Y-36398807D01*
X83539958Y-36412522D01*
X83630391Y-36618692D01*
X83630393Y-36618695D01*
X83753531Y-36807172D01*
X83906013Y-36972810D01*
X84083677Y-37111093D01*
X84281679Y-37218246D01*
X84494618Y-37291348D01*
X84716684Y-37328404D01*
X84831690Y-37328404D01*
X84890707Y-37343349D01*
X84935499Y-37384582D01*
X84955266Y-37442164D01*
X84945246Y-37502212D01*
X84859536Y-37697614D01*
X84843743Y-37759980D01*
X84804267Y-37915866D01*
X84785675Y-38140229D01*
X84804267Y-38364593D01*
X84804267Y-38364596D01*
X84804268Y-38364598D01*
X84847434Y-38535058D01*
X84859537Y-38582848D01*
X84949970Y-38789018D01*
X84949972Y-38789021D01*
X85073110Y-38977498D01*
X85225592Y-39143136D01*
X85403256Y-39281419D01*
X85601258Y-39388572D01*
X85814197Y-39461674D01*
X86036263Y-39498730D01*
X86261401Y-39498730D01*
X86483467Y-39461674D01*
X86696406Y-39388572D01*
X86894408Y-39281419D01*
X87072072Y-39143136D01*
X87224554Y-38977498D01*
X87347692Y-38789021D01*
X87438128Y-38582846D01*
X87493396Y-38364598D01*
X87510930Y-38153000D01*
X87512837Y-38129990D01*
X87515685Y-38130225D01*
X87524712Y-38082227D01*
X87568289Y-38032872D01*
X87630990Y-38012782D01*
X87695132Y-38027620D01*
X87771583Y-38068993D01*
X87984522Y-38142095D01*
X88206588Y-38179151D01*
X88431726Y-38179151D01*
X88653792Y-38142095D01*
X88866731Y-38068993D01*
X89064733Y-37961840D01*
X89242397Y-37823557D01*
X89394879Y-37657919D01*
X89518017Y-37469442D01*
X89608453Y-37263267D01*
X89663721Y-37045019D01*
X89682313Y-36820651D01*
X89682158Y-36818786D01*
X89676164Y-36746444D01*
X89663721Y-36596283D01*
X89608453Y-36378035D01*
X89518017Y-36171860D01*
X89394879Y-35983383D01*
X89242397Y-35817745D01*
X89064733Y-35679462D01*
X88866731Y-35572309D01*
X88866730Y-35572308D01*
X88866729Y-35572308D01*
X88653793Y-35499207D01*
X88431726Y-35462151D01*
X88316721Y-35462151D01*
X88257704Y-35447206D01*
X88212913Y-35405973D01*
X88193145Y-35348391D01*
X88203165Y-35288341D01*
X88219983Y-35250000D01*
X88288874Y-35092942D01*
X88344142Y-34874694D01*
X88362734Y-34650326D01*
X88344142Y-34425958D01*
X88288874Y-34207710D01*
X88208267Y-34023942D01*
X88198439Y-34001537D01*
X88185152Y-33981200D01*
X88075300Y-33813058D01*
X87922818Y-33647420D01*
X87745154Y-33509137D01*
X87547152Y-33401984D01*
X87547151Y-33401983D01*
X87547150Y-33401983D01*
X87334214Y-33328882D01*
X87112147Y-33291826D01*
X86997143Y-33291826D01*
X86938126Y-33276881D01*
X86893335Y-33235648D01*
X86873567Y-33178066D01*
X86883587Y-33118016D01*
X86951884Y-32962311D01*
X86969296Y-32922616D01*
X87024564Y-32704368D01*
X87043156Y-32480000D01*
X87043001Y-32478135D01*
X87032624Y-32352896D01*
X87024564Y-32255632D01*
X86969296Y-32037384D01*
X86878860Y-31831209D01*
X86755722Y-31642732D01*
X86603240Y-31477094D01*
X86425576Y-31338811D01*
X86227574Y-31231658D01*
X86227573Y-31231657D01*
X86227572Y-31231657D01*
X86014636Y-31158556D01*
X85792569Y-31121500D01*
X85567431Y-31121500D01*
X85345363Y-31158556D01*
X85132427Y-31231657D01*
X84934424Y-31338811D01*
X84756760Y-31477094D01*
X84604279Y-31642730D01*
X84481138Y-31831211D01*
X84394944Y-32027717D01*
X84390704Y-32037384D01*
X84376156Y-32094832D01*
X84335435Y-32255636D01*
X84315995Y-32490240D01*
X84313150Y-32490004D01*
X84304109Y-32538023D01*
X84260529Y-32587365D01*
X84197834Y-32607447D01*
X84133696Y-32592608D01*
X84057247Y-32551236D01*
X83844310Y-32478135D01*
X83622243Y-32441079D01*
X83397105Y-32441079D01*
X83175037Y-32478135D01*
X82962101Y-32551236D01*
X82764098Y-32658390D01*
X82586434Y-32796673D01*
X82433953Y-32962309D01*
X82310812Y-33150790D01*
X82220379Y-33356960D01*
X82220378Y-33356963D01*
X82205168Y-33417025D01*
X82165109Y-33575215D01*
X82146517Y-33799578D01*
X80016648Y-33799578D01*
X87068948Y-29653557D01*
X87081418Y-29647147D01*
X89300989Y-28660671D01*
X89351276Y-28649985D01*
X144584429Y-28620022D01*
X144622991Y-28626149D01*
G37*
%TD.AperFunction*%
%TA.AperFunction,Conductor*%
G36*
X125214367Y-60796664D02*
G01*
X125250319Y-60847877D01*
X125296647Y-60972089D01*
X125382811Y-61087188D01*
X125497910Y-61173352D01*
X125632624Y-61223597D01*
X125692176Y-61230000D01*
X126337232Y-61230000D01*
X126393527Y-61243515D01*
X126437550Y-61281115D01*
X126459705Y-61334602D01*
X126455163Y-61392318D01*
X126424913Y-61441681D01*
X125120490Y-62746102D01*
X125070566Y-62776533D01*
X125012247Y-62780704D01*
X124958499Y-62757689D01*
X124947089Y-62749147D01*
X124812375Y-62698902D01*
X124752824Y-62692500D01*
X124105000Y-62692500D01*
X124105000Y-64168500D01*
X124088387Y-64230500D01*
X124043000Y-64275887D01*
X123981000Y-64292500D01*
X123437500Y-64292500D01*
X123375500Y-64275887D01*
X123330113Y-64230500D01*
X123313500Y-64168500D01*
X123313500Y-63916500D01*
X123330113Y-63854500D01*
X123375500Y-63809113D01*
X123437500Y-63792500D01*
X123605000Y-63792500D01*
X123605000Y-62692500D01*
X123437500Y-62692500D01*
X123375500Y-62675887D01*
X123330113Y-62630500D01*
X123313500Y-62568500D01*
X123313500Y-61985891D01*
X123315026Y-61966496D01*
X123317536Y-61950645D01*
X123320112Y-61934376D01*
X123322476Y-61922962D01*
X123333500Y-61880030D01*
X123333500Y-61859616D01*
X123335027Y-61840217D01*
X123336310Y-61832116D01*
X123338220Y-61820057D01*
X123334050Y-61775943D01*
X123333500Y-61764274D01*
X123333500Y-61543766D01*
X123342939Y-61496314D01*
X123369816Y-61456087D01*
X123592960Y-61232942D01*
X123652692Y-61199816D01*
X123704768Y-61202511D01*
X123705229Y-61199753D01*
X123937431Y-61238500D01*
X124162569Y-61238500D01*
X124384635Y-61201444D01*
X124597574Y-61128342D01*
X124795576Y-61021189D01*
X124973240Y-60882906D01*
X125027935Y-60823492D01*
X125042908Y-60807228D01*
X125095531Y-60773374D01*
X125157986Y-60769526D01*
X125214367Y-60796664D01*
G37*
%TD.AperFunction*%
%TA.AperFunction,Conductor*%
G36*
X122014554Y-61198034D02*
G01*
X122052751Y-61242200D01*
X122066500Y-61298951D01*
X122066500Y-61634110D01*
X122064973Y-61653511D01*
X122059888Y-61685611D01*
X122057520Y-61697045D01*
X122046500Y-61739969D01*
X122046500Y-61760384D01*
X122044973Y-61779783D01*
X122042950Y-61792558D01*
X122041780Y-61799943D01*
X122043899Y-61822358D01*
X122045950Y-61844057D01*
X122046500Y-61855726D01*
X122046500Y-62568500D01*
X122029887Y-62630500D01*
X121984500Y-62675887D01*
X121922500Y-62692500D01*
X121565000Y-62692500D01*
X121565000Y-63792500D01*
X121922500Y-63792500D01*
X121984500Y-63809113D01*
X122029887Y-63854500D01*
X122046500Y-63916500D01*
X122046500Y-64168500D01*
X122029887Y-64230500D01*
X121984500Y-64275887D01*
X121922500Y-64292500D01*
X120707500Y-64292500D01*
X120645500Y-64275887D01*
X120600113Y-64230500D01*
X120583500Y-64168500D01*
X120583500Y-63916500D01*
X120600113Y-63854500D01*
X120645500Y-63809113D01*
X120707500Y-63792500D01*
X121065000Y-63792500D01*
X121065000Y-62692500D01*
X120707500Y-62692500D01*
X120645500Y-62675887D01*
X120600113Y-62630500D01*
X120583500Y-62568500D01*
X120583500Y-61753766D01*
X120592939Y-61706313D01*
X120619819Y-61666085D01*
X120677562Y-61608342D01*
X121052959Y-61232943D01*
X121112693Y-61199816D01*
X121164768Y-61202511D01*
X121165229Y-61199753D01*
X121397431Y-61238500D01*
X121622569Y-61238500D01*
X121844635Y-61201444D01*
X121900091Y-61182406D01*
X121902238Y-61181669D01*
X121960378Y-61176247D01*
X122014554Y-61198034D01*
G37*
%TD.AperFunction*%
%TA.AperFunction,Conductor*%
G36*
X118226513Y-61022320D02*
G01*
X118422426Y-61128342D01*
X118635365Y-61201444D01*
X118857431Y-61238500D01*
X119082567Y-61238500D01*
X119082569Y-61238500D01*
X119172093Y-61223561D01*
X119225418Y-61226319D01*
X119272641Y-61251247D01*
X119305002Y-61293723D01*
X119316500Y-61345870D01*
X119316500Y-61380384D01*
X119314973Y-61399783D01*
X119311780Y-61419941D01*
X119315950Y-61464057D01*
X119316500Y-61475726D01*
X119316500Y-62568500D01*
X119299887Y-62630500D01*
X119254500Y-62675887D01*
X119192500Y-62692500D01*
X119025000Y-62692500D01*
X119025000Y-63792500D01*
X119192500Y-63792500D01*
X119254500Y-63809113D01*
X119299887Y-63854500D01*
X119316500Y-63916500D01*
X119316500Y-64168500D01*
X119299887Y-64230500D01*
X119254500Y-64275887D01*
X119192500Y-64292500D01*
X118167500Y-64292500D01*
X118105500Y-64275887D01*
X118060113Y-64230500D01*
X118043500Y-64168500D01*
X118043500Y-63916500D01*
X118060113Y-63854500D01*
X118105500Y-63809113D01*
X118167500Y-63792500D01*
X118525000Y-63792500D01*
X118525000Y-62692500D01*
X118167500Y-62692500D01*
X118105500Y-62675887D01*
X118060113Y-62630500D01*
X118043500Y-62568500D01*
X118043500Y-61131376D01*
X118059688Y-61070117D01*
X118104026Y-61024853D01*
X118164937Y-61007402D01*
X118226513Y-61022320D01*
G37*
%TD.AperFunction*%
%TA.AperFunction,Conductor*%
G36*
X115972763Y-61159355D02*
G01*
X116029303Y-61178765D01*
X116095365Y-61201444D01*
X116317431Y-61238500D01*
X116542569Y-61238500D01*
X116632091Y-61223562D01*
X116685419Y-61226320D01*
X116732641Y-61251249D01*
X116765002Y-61293725D01*
X116776500Y-61345871D01*
X116776500Y-62568500D01*
X116759887Y-62630500D01*
X116714500Y-62675887D01*
X116652500Y-62692500D01*
X116485000Y-62692500D01*
X116485000Y-63792500D01*
X116652500Y-63792500D01*
X116714500Y-63809113D01*
X116759887Y-63854500D01*
X116776500Y-63916500D01*
X116776500Y-64168500D01*
X116759887Y-64230500D01*
X116714500Y-64275887D01*
X116652500Y-64292500D01*
X116109000Y-64292500D01*
X116047000Y-64275887D01*
X116001613Y-64230500D01*
X115985000Y-64168500D01*
X115985000Y-62692500D01*
X115932500Y-62692500D01*
X115870500Y-62675887D01*
X115825113Y-62630500D01*
X115808500Y-62568500D01*
X115808500Y-62534609D01*
X115810027Y-62515210D01*
X115813219Y-62495057D01*
X115809050Y-62450951D01*
X115808500Y-62439282D01*
X115808500Y-61276636D01*
X115822249Y-61219885D01*
X115860447Y-61175719D01*
X115914622Y-61153932D01*
X115972763Y-61159355D01*
G37*
%TD.AperFunction*%
%TA.AperFunction,Conductor*%
G36*
X110139018Y-60537561D02*
G01*
X110183809Y-60578795D01*
X110228499Y-60647199D01*
X110274278Y-60717268D01*
X110426760Y-60882906D01*
X110604424Y-61021189D01*
X110651517Y-61046674D01*
X110699023Y-61092255D01*
X110716500Y-61155729D01*
X110716500Y-62540686D01*
X110702376Y-62598161D01*
X110663220Y-62642542D01*
X110607953Y-62663719D01*
X110549166Y-62656868D01*
X110447375Y-62618902D01*
X110387824Y-62612500D01*
X109740000Y-62612500D01*
X109740000Y-64088500D01*
X109723387Y-64150500D01*
X109678000Y-64195887D01*
X109616000Y-64212500D01*
X109072500Y-64212500D01*
X109010500Y-64195887D01*
X108965113Y-64150500D01*
X108948500Y-64088500D01*
X108948500Y-63836500D01*
X108965113Y-63774500D01*
X109010500Y-63729113D01*
X109072500Y-63712500D01*
X109240000Y-63712500D01*
X109240000Y-62612500D01*
X109072500Y-62612500D01*
X109010500Y-62595887D01*
X108965113Y-62550500D01*
X108948500Y-62488500D01*
X108948500Y-61339196D01*
X108961860Y-61283206D01*
X108999063Y-61239281D01*
X109052090Y-61216887D01*
X109057113Y-61216048D01*
X109144635Y-61201444D01*
X109357574Y-61128342D01*
X109555576Y-61021189D01*
X109733240Y-60882906D01*
X109885722Y-60717268D01*
X109976190Y-60578795D01*
X110020982Y-60537561D01*
X110080000Y-60522616D01*
X110139018Y-60537561D01*
G37*
%TD.AperFunction*%
%TA.AperFunction,Conductor*%
G36*
X107599014Y-60537560D02*
G01*
X107643806Y-60578792D01*
X107661307Y-60605578D01*
X107676345Y-60638019D01*
X107681500Y-60673402D01*
X107681500Y-62488500D01*
X107664887Y-62550500D01*
X107619500Y-62595887D01*
X107557500Y-62612500D01*
X107200000Y-62612500D01*
X107200000Y-63712500D01*
X107557500Y-63712500D01*
X107619500Y-63729113D01*
X107664887Y-63774500D01*
X107681500Y-63836500D01*
X107681500Y-64088500D01*
X107664887Y-64150500D01*
X107619500Y-64195887D01*
X107557500Y-64212500D01*
X106342500Y-64212500D01*
X106280500Y-64195887D01*
X106235113Y-64150500D01*
X106218500Y-64088500D01*
X106218500Y-63836500D01*
X106235113Y-63774500D01*
X106280500Y-63729113D01*
X106342500Y-63712500D01*
X106700000Y-63712500D01*
X106700000Y-62612500D01*
X106342500Y-62612500D01*
X106280500Y-62595887D01*
X106235113Y-62550500D01*
X106218500Y-62488500D01*
X106218500Y-61362500D01*
X106235113Y-61300500D01*
X106280500Y-61255113D01*
X106342500Y-61238500D01*
X106382569Y-61238500D01*
X106604635Y-61201444D01*
X106817574Y-61128342D01*
X107015576Y-61021189D01*
X107193240Y-60882906D01*
X107345722Y-60717268D01*
X107436193Y-60578792D01*
X107480980Y-60537562D01*
X107539997Y-60522616D01*
X107599014Y-60537560D01*
G37*
%TD.AperFunction*%
%TA.AperFunction,Conductor*%
G36*
X104898717Y-60775186D02*
G01*
X104937516Y-60819489D01*
X104951500Y-60876695D01*
X104951500Y-62488500D01*
X104934887Y-62550500D01*
X104889500Y-62595887D01*
X104827500Y-62612500D01*
X104660000Y-62612500D01*
X104660000Y-63712500D01*
X104827500Y-63712500D01*
X104889500Y-63729113D01*
X104934887Y-63774500D01*
X104951500Y-63836500D01*
X104951500Y-64088500D01*
X104934887Y-64150500D01*
X104889500Y-64195887D01*
X104827500Y-64212500D01*
X103802500Y-64212500D01*
X103740500Y-64195887D01*
X103695113Y-64150500D01*
X103678500Y-64088500D01*
X103678500Y-63836500D01*
X103695113Y-63774500D01*
X103740500Y-63729113D01*
X103802500Y-63712500D01*
X104160000Y-63712500D01*
X104160000Y-62712265D01*
X104169440Y-62664810D01*
X104196320Y-62624582D01*
X104206134Y-62614770D01*
X104208672Y-62611497D01*
X104216241Y-62602634D01*
X104246586Y-62570321D01*
X104256422Y-62552427D01*
X104267102Y-62536168D01*
X104279613Y-62520041D01*
X104297211Y-62479372D01*
X104302341Y-62468900D01*
X104323695Y-62430060D01*
X104328772Y-62410282D01*
X104335072Y-62391882D01*
X104343181Y-62373145D01*
X104350112Y-62329376D01*
X104352478Y-62317953D01*
X104363500Y-62275030D01*
X104363500Y-62254616D01*
X104365027Y-62235217D01*
X104366184Y-62227913D01*
X104368220Y-62215057D01*
X104364050Y-62170943D01*
X104363500Y-62159274D01*
X104363500Y-61155729D01*
X104380977Y-61092255D01*
X104428483Y-61046674D01*
X104475576Y-61021189D01*
X104653240Y-60882906D01*
X104711620Y-60819489D01*
X104736271Y-60792712D01*
X104785304Y-60760095D01*
X104843855Y-60753778D01*
X104898717Y-60775186D01*
G37*
%TD.AperFunction*%
%TA.AperFunction,Conductor*%
G36*
X103045385Y-61238448D02*
G01*
X103082985Y-61282471D01*
X103096500Y-61338766D01*
X103096500Y-61881233D01*
X103087061Y-61928686D01*
X103060181Y-61968914D01*
X102656180Y-62372913D01*
X102639896Y-62385961D01*
X102591339Y-62437668D01*
X102588633Y-62440461D01*
X102568861Y-62460233D01*
X102566321Y-62463508D01*
X102558752Y-62472369D01*
X102528414Y-62504677D01*
X102518582Y-62522563D01*
X102507900Y-62538824D01*
X102487985Y-62564499D01*
X102444558Y-62599855D01*
X102390005Y-62612500D01*
X102120000Y-62612500D01*
X102120000Y-63712500D01*
X102287500Y-63712500D01*
X102349500Y-63729113D01*
X102394887Y-63774500D01*
X102411500Y-63836500D01*
X102411500Y-64088500D01*
X102394887Y-64150500D01*
X102349500Y-64195887D01*
X102287500Y-64212500D01*
X101262500Y-64212500D01*
X101200500Y-64195887D01*
X101155113Y-64150500D01*
X101138500Y-64088500D01*
X101138500Y-63836500D01*
X101155113Y-63774500D01*
X101200500Y-63729113D01*
X101262500Y-63712500D01*
X101620000Y-63712500D01*
X101620000Y-62567266D01*
X101629439Y-62519813D01*
X101656319Y-62479585D01*
X102884819Y-61251085D01*
X102934182Y-61220835D01*
X102991898Y-61216293D01*
X103045385Y-61238448D01*
G37*
%TD.AperFunction*%
%TA.AperFunction,Conductor*%
G36*
X99814367Y-60796664D02*
G01*
X99850319Y-60847877D01*
X99896647Y-60972089D01*
X99982811Y-61087188D01*
X100097910Y-61173352D01*
X100232624Y-61223597D01*
X100292176Y-61230000D01*
X100814733Y-61230000D01*
X100871028Y-61243515D01*
X100915051Y-61281115D01*
X100937206Y-61334602D01*
X100932664Y-61392318D01*
X100902414Y-61441681D01*
X100116180Y-62227913D01*
X100099895Y-62240961D01*
X100051338Y-62292669D01*
X100048632Y-62295462D01*
X100028861Y-62315233D01*
X100026321Y-62318508D01*
X100018752Y-62327369D01*
X99988414Y-62359677D01*
X99978582Y-62377563D01*
X99967901Y-62393823D01*
X99955385Y-62409959D01*
X99937786Y-62450628D01*
X99932648Y-62461115D01*
X99911305Y-62499940D01*
X99906322Y-62519343D01*
X99881762Y-62567542D01*
X99839016Y-62600699D01*
X99786220Y-62612500D01*
X99580000Y-62612500D01*
X99580000Y-63712500D01*
X99747500Y-63712500D01*
X99809500Y-63729113D01*
X99854887Y-63774500D01*
X99871500Y-63836500D01*
X99871500Y-64088500D01*
X99854887Y-64150500D01*
X99809500Y-64195887D01*
X99747500Y-64212500D01*
X98912500Y-64212500D01*
X98850500Y-64195887D01*
X98805113Y-64150500D01*
X98788500Y-64088500D01*
X98788500Y-63836500D01*
X98805113Y-63774500D01*
X98850500Y-63729113D01*
X98912500Y-63712500D01*
X99080000Y-63712500D01*
X99080000Y-62612500D01*
X98912500Y-62612500D01*
X98850500Y-62595887D01*
X98805113Y-62550500D01*
X98788500Y-62488500D01*
X98788500Y-61339196D01*
X98801860Y-61283206D01*
X98839063Y-61239281D01*
X98892090Y-61216887D01*
X98897113Y-61216048D01*
X98984635Y-61201444D01*
X99197574Y-61128342D01*
X99395576Y-61021189D01*
X99573240Y-60882906D01*
X99627935Y-60823492D01*
X99642908Y-60807228D01*
X99695531Y-60773374D01*
X99757986Y-60769526D01*
X99814367Y-60796664D01*
G37*
%TD.AperFunction*%
%TA.AperFunction,Conductor*%
G36*
X97439014Y-60537560D02*
G01*
X97483806Y-60578792D01*
X97501307Y-60605578D01*
X97516345Y-60638019D01*
X97521500Y-60673402D01*
X97521500Y-62488500D01*
X97504887Y-62550500D01*
X97459500Y-62595887D01*
X97397500Y-62612500D01*
X97040000Y-62612500D01*
X97040000Y-63712500D01*
X97397500Y-63712500D01*
X97459500Y-63729113D01*
X97504887Y-63774500D01*
X97521500Y-63836500D01*
X97521500Y-64088500D01*
X97504887Y-64150500D01*
X97459500Y-64195887D01*
X97397500Y-64212500D01*
X96664000Y-64212500D01*
X96602000Y-64195887D01*
X96556613Y-64150500D01*
X96540000Y-64088500D01*
X96540000Y-62612500D01*
X96372500Y-62612500D01*
X96310500Y-62595887D01*
X96265113Y-62550500D01*
X96248500Y-62488500D01*
X96248500Y-61339196D01*
X96261860Y-61283206D01*
X96299063Y-61239281D01*
X96352090Y-61216887D01*
X96357113Y-61216048D01*
X96444635Y-61201444D01*
X96657574Y-61128342D01*
X96855576Y-61021189D01*
X97033240Y-60882906D01*
X97185722Y-60717268D01*
X97276193Y-60578792D01*
X97320980Y-60537562D01*
X97379997Y-60522616D01*
X97439014Y-60537560D01*
G37*
%TD.AperFunction*%
%TA.AperFunction,Conductor*%
G36*
X102560121Y-52178838D02*
G01*
X102605081Y-52221057D01*
X102624139Y-52279714D01*
X102612583Y-52340297D01*
X102573269Y-52387818D01*
X102548750Y-52405631D01*
X102420957Y-52547558D01*
X102325472Y-52712943D01*
X102266458Y-52894570D01*
X102252988Y-53022730D01*
X102246496Y-53084500D01*
X102251201Y-53129264D01*
X102266458Y-53274429D01*
X102325472Y-53456056D01*
X102420957Y-53621441D01*
X102450355Y-53654091D01*
X102548747Y-53763366D01*
X102681752Y-53860000D01*
X102703248Y-53875618D01*
X102877714Y-53953295D01*
X103064511Y-53993000D01*
X103064513Y-53993000D01*
X103255487Y-53993000D01*
X103255489Y-53993000D01*
X103442285Y-53953295D01*
X103442286Y-53953294D01*
X103442288Y-53953294D01*
X103616752Y-53875618D01*
X103771253Y-53763366D01*
X103775158Y-53759028D01*
X103816873Y-53728721D01*
X103867309Y-53718000D01*
X104000734Y-53718000D01*
X104048187Y-53727439D01*
X104088414Y-53754318D01*
X104891032Y-54556937D01*
X104915270Y-54591232D01*
X104926669Y-54631651D01*
X104933566Y-54697268D01*
X104946458Y-54819929D01*
X105005472Y-55001556D01*
X105100957Y-55166941D01*
X105125834Y-55194569D01*
X105228747Y-55308866D01*
X105383248Y-55421118D01*
X105557712Y-55498794D01*
X105614361Y-55510835D01*
X105673462Y-55541732D01*
X105708011Y-55598778D01*
X105708011Y-55665470D01*
X105673464Y-55722516D01*
X105614361Y-55753415D01*
X105577713Y-55761204D01*
X105403248Y-55838881D01*
X105248748Y-55951133D01*
X105120957Y-56093058D01*
X105025472Y-56258443D01*
X104966458Y-56440070D01*
X104949019Y-56605995D01*
X104937619Y-56646416D01*
X104913379Y-56680714D01*
X103558914Y-58035181D01*
X103518686Y-58062061D01*
X103471233Y-58071500D01*
X103326933Y-58071500D01*
X103306190Y-58069210D01*
X103235269Y-58071439D01*
X103231374Y-58071500D01*
X103203440Y-58071500D01*
X103199336Y-58072018D01*
X103187704Y-58072933D01*
X103143409Y-58074325D01*
X103123800Y-58080022D01*
X103104760Y-58083965D01*
X103084504Y-58086525D01*
X103043304Y-58102836D01*
X103032260Y-58106617D01*
X102989709Y-58118981D01*
X102989706Y-58118982D01*
X102972126Y-58129377D01*
X102954669Y-58137930D01*
X102935677Y-58145449D01*
X102899833Y-58171491D01*
X102890076Y-58177901D01*
X102851937Y-58200457D01*
X102837499Y-58214895D01*
X102822710Y-58227525D01*
X102806193Y-58239525D01*
X102777943Y-58273673D01*
X102770082Y-58282311D01*
X102463096Y-58589296D01*
X102413171Y-58619727D01*
X102354852Y-58623898D01*
X102301105Y-58600882D01*
X102282091Y-58586648D01*
X102147375Y-58536402D01*
X102087824Y-58530000D01*
X101440000Y-58530000D01*
X101440000Y-60006000D01*
X101423387Y-60068000D01*
X101378000Y-60113387D01*
X101316000Y-60130000D01*
X101064000Y-60130000D01*
X101002000Y-60113387D01*
X100956613Y-60068000D01*
X100940000Y-60006000D01*
X100940000Y-58530000D01*
X100292176Y-58530000D01*
X100232624Y-58536402D01*
X100097910Y-58586647D01*
X99982811Y-58672811D01*
X99896647Y-58787911D01*
X99850319Y-58912122D01*
X99814367Y-58963335D01*
X99757986Y-58990473D01*
X99695532Y-58986625D01*
X99642908Y-58952772D01*
X99573240Y-58877094D01*
X99518160Y-58834223D01*
X99395576Y-58738811D01*
X99197574Y-58631658D01*
X99174970Y-58623898D01*
X99151860Y-58615964D01*
X99098884Y-58580428D01*
X99070584Y-58523259D01*
X99074449Y-58459585D01*
X99109457Y-58406259D01*
X99166343Y-58377393D01*
X99298535Y-58349295D01*
X99298536Y-58349294D01*
X99298538Y-58349294D01*
X99473002Y-58271618D01*
X99627503Y-58159366D01*
X99755290Y-58017444D01*
X99757290Y-58013981D01*
X99850777Y-57852056D01*
X99871341Y-57788766D01*
X99909792Y-57670428D01*
X99929754Y-57480500D01*
X99909792Y-57290572D01*
X99875930Y-57186357D01*
X99850777Y-57108943D01*
X99755292Y-56943558D01*
X99695447Y-56877094D01*
X99627503Y-56801634D01*
X99473002Y-56689382D01*
X99473001Y-56689381D01*
X99298535Y-56611704D01*
X99111739Y-56572000D01*
X99111737Y-56572000D01*
X98920763Y-56572000D01*
X98920761Y-56572000D01*
X98733964Y-56611704D01*
X98559498Y-56689381D01*
X98404998Y-56801633D01*
X98277207Y-56943558D01*
X98181722Y-57108943D01*
X98122708Y-57290570D01*
X98105269Y-57456496D01*
X98093869Y-57496917D01*
X98069628Y-57531215D01*
X97859532Y-57741313D01*
X97650664Y-57950181D01*
X97610436Y-57977061D01*
X97562983Y-57986500D01*
X96185867Y-57986500D01*
X96120157Y-57967658D01*
X96074417Y-57916858D01*
X96062546Y-57849539D01*
X96063004Y-57845183D01*
X96043042Y-57655255D01*
X95992205Y-57498795D01*
X95984027Y-57473626D01*
X95888540Y-57308239D01*
X95882744Y-57301802D01*
X95793613Y-57202812D01*
X95765447Y-57149839D01*
X95765447Y-57089842D01*
X95793613Y-57036870D01*
X95888540Y-56931444D01*
X95984027Y-56766056D01*
X96043042Y-56584428D01*
X96063004Y-56394500D01*
X96043042Y-56204572D01*
X96005183Y-56088056D01*
X95984027Y-56022943D01*
X95888542Y-55857558D01*
X95867223Y-55833881D01*
X95760753Y-55715634D01*
X95647479Y-55633335D01*
X95606251Y-55603381D01*
X95431785Y-55525704D01*
X95244989Y-55486000D01*
X95244987Y-55486000D01*
X95054013Y-55486000D01*
X95054011Y-55486000D01*
X94867214Y-55525704D01*
X94692748Y-55603381D01*
X94538248Y-55715633D01*
X94410457Y-55857558D01*
X94389130Y-55894500D01*
X94343743Y-55939887D01*
X94281743Y-55956500D01*
X93842819Y-55956500D01*
X93783801Y-55941554D01*
X93739009Y-55900320D01*
X93719242Y-55842737D01*
X93727580Y-55792781D01*
X93726773Y-55792577D01*
X93729240Y-55782833D01*
X93729265Y-55782686D01*
X93729295Y-55782618D01*
X93729296Y-55782616D01*
X93784564Y-55564368D01*
X93803156Y-55340000D01*
X93784564Y-55115632D01*
X93729296Y-54897384D01*
X93665454Y-54751838D01*
X93635034Y-54682485D01*
X93624602Y-54634383D01*
X93633705Y-54586012D01*
X93660907Y-54544995D01*
X93665797Y-54540106D01*
X93680588Y-54527472D01*
X93697107Y-54515472D01*
X93725359Y-54481319D01*
X93733203Y-54472699D01*
X95176585Y-53029319D01*
X95216814Y-53002439D01*
X95264267Y-52993000D01*
X96385229Y-52993000D01*
X96443443Y-53007514D01*
X96488030Y-53047660D01*
X96508549Y-53104036D01*
X96519814Y-53211211D01*
X96526458Y-53274429D01*
X96585472Y-53456056D01*
X96680957Y-53621441D01*
X96710355Y-53654091D01*
X96808747Y-53763366D01*
X96941752Y-53860000D01*
X96963248Y-53875618D01*
X97137714Y-53953295D01*
X97324511Y-53993000D01*
X97324513Y-53993000D01*
X97515487Y-53993000D01*
X97515489Y-53993000D01*
X97702285Y-53953295D01*
X97702286Y-53953294D01*
X97702288Y-53953294D01*
X97876752Y-53875618D01*
X97972340Y-53806168D01*
X98025823Y-53784015D01*
X98083540Y-53788557D01*
X98132903Y-53818807D01*
X99038236Y-54724140D01*
X99062475Y-54758437D01*
X99073876Y-54798859D01*
X99093958Y-54989929D01*
X99152972Y-55171556D01*
X99248457Y-55336941D01*
X99277855Y-55369591D01*
X99376247Y-55478866D01*
X99493923Y-55564363D01*
X99530748Y-55591118D01*
X99705214Y-55668795D01*
X99892011Y-55708500D01*
X99892013Y-55708500D01*
X100082987Y-55708500D01*
X100082989Y-55708500D01*
X100269785Y-55668795D01*
X100269786Y-55668794D01*
X100269788Y-55668794D01*
X100349432Y-55633334D01*
X100406354Y-55622784D01*
X100461864Y-55639226D01*
X100503860Y-55679078D01*
X100523186Y-55733652D01*
X100536458Y-55859929D01*
X100595472Y-56041556D01*
X100690957Y-56206941D01*
X100697730Y-56214463D01*
X100818747Y-56348866D01*
X100881557Y-56394500D01*
X100973248Y-56461118D01*
X101147714Y-56538795D01*
X101334511Y-56578500D01*
X101334513Y-56578500D01*
X101525487Y-56578500D01*
X101525489Y-56578500D01*
X101712285Y-56538795D01*
X101712286Y-56538794D01*
X101712288Y-56538794D01*
X101886752Y-56461118D01*
X102041253Y-56348866D01*
X102169040Y-56206944D01*
X102170410Y-56204572D01*
X102264527Y-56041556D01*
X102270575Y-56022943D01*
X102323542Y-55859928D01*
X102343504Y-55670000D01*
X102323542Y-55480072D01*
X102292931Y-55385862D01*
X102264527Y-55298443D01*
X102169040Y-55133055D01*
X102032533Y-54981449D01*
X102033427Y-54980643D01*
X102012482Y-54957623D01*
X102005625Y-54946028D01*
X101997066Y-54928556D01*
X101989552Y-54909579D01*
X101989552Y-54909578D01*
X101963503Y-54873725D01*
X101957099Y-54863975D01*
X101934542Y-54825833D01*
X101920107Y-54811398D01*
X101907469Y-54796601D01*
X101895472Y-54780088D01*
X101861324Y-54751838D01*
X101852685Y-54743976D01*
X99483891Y-52375181D01*
X99453641Y-52325818D01*
X99449099Y-52268102D01*
X99471254Y-52214615D01*
X99515277Y-52177015D01*
X99571572Y-52163500D01*
X102500384Y-52163500D01*
X102560121Y-52178838D01*
G37*
%TD.AperFunction*%
%TD*%
M02*
