M48
; DRILL file {KiCad 7.0.1-0} date 2023 May 05, Friday 03:57:07
; FORMAT={-:-/ absolute / inch / decimal}
; #@! TF.CreationDate,2023-05-05T03:57:07-04:00
; #@! TF.GenerationSoftware,Kicad,Pcbnew,7.0.1-0
; #@! TF.FileFunction,Plated,1,2,PTH
FMAT,2
INCH
; #@! TA.AperFunction,Plated,PTH,ViaDrill
T1C0.0157
; #@! TA.AperFunction,Plated,PTH,ComponentDrill
T2C0.0315
; #@! TA.AperFunction,Plated,PTH,ComponentDrill
T3C0.0394
; #@! TA.AperFunction,Plated,PTH,ComponentDrill
T4C0.0402
; #@! TA.AperFunction,Plated,PTH,ComponentDrill
T5C0.0433
; #@! TA.AperFunction,Plated,PTH,ComponentDrill
T6C0.0591
; #@! TA.AperFunction,Plated,PTH,ComponentDrill
T7C0.0709
; #@! TA.AperFunction,Plated,PTH,ComponentDrill
T8C0.1260
%
G90
G05
T1
X3.6782Y-2.0532
X3.746Y-2.2203
X3.746Y-2.2774
X3.8354Y-2.0899
X3.8622Y-2.1913
X3.8983Y-2.263
X3.9365Y-2.1575
X3.99Y-1.8
X3.99Y-1.85
X3.99Y-1.9
X3.99Y-1.95
X3.9933Y-2.1917
X4.05Y-1.8
X4.05Y-1.85
X4.05Y-1.9
X4.05Y-1.95
X4.0614Y-2.0899
X4.0909Y-2.189
X4.1669Y-2.1508
X4.1677Y-2.2295
X4.2187Y-2.1774
X4.3319Y-2.1882
X4.3937Y-2.2293
X4.5187Y-2.7598
X4.5679Y-2.2677
X4.6073Y-2.2677
X4.6467Y-2.2677
X4.686Y-2.2677
X4.7254Y-2.2677
X4.7648Y-2.2677
X4.8041Y-2.2677
X4.8435Y-2.2677
X4.8829Y-2.2677
X4.8874Y-1.9972
X4.8874Y-2.0372
X4.8874Y-2.0772
X4.9222Y-2.2677
X4.9236Y-2.0189
X4.9236Y-2.0589
X4.9236Y-2.0989
X4.96Y-2.0
X4.96Y-2.04
X4.96Y-2.08
X4.9783Y-3.2854
X4.9846Y-1.8094
X4.9846Y-1.8494
X4.9846Y-1.8894
X5.0177Y-3.2854
X5.0232Y-1.8098
X5.0232Y-1.8498
X5.0232Y-1.8898
X5.06Y-1.83
X5.06Y-1.87
X5.06Y-1.91
X5.1398Y-2.1529
X5.14Y-2.07
X5.14Y-2.11
X5.1754Y-2.1732
X5.1756Y-2.0903
X5.1756Y-2.1303
X5.2156Y-2.1732
X5.2157Y-2.0903
X5.2157Y-2.1303
X5.31Y-1.86
X5.31Y-1.9
X5.31Y-1.94
X5.31Y-1.98
X5.31Y-2.02
X5.4633Y-2.8768
X5.4633Y-2.9169
X5.4734Y-2.2913
X5.5033Y-2.8768
X5.5033Y-2.9169
X5.5463Y-2.877
X5.5463Y-2.9171
T2
X4.8573Y-3.0236
X4.8573Y-3.1024
X4.8573Y-3.1811
X5.7037Y-2.5807
X5.7037Y-2.6594
X5.7037Y-2.7382
T3
X3.0638Y-2.1205
X3.0638Y-2.3764
X3.1919Y-2.7933
X3.2409Y-2.1205
X3.2409Y-2.3764
X3.2606Y-1.6909
X3.2606Y-1.7909
X3.2606Y-1.8909
X3.2606Y-1.9909
X3.2878Y-1.3307
X3.3397Y-1.4161
X3.3606Y-1.6909
X3.3606Y-1.7909
X3.3606Y-1.8909
X3.3606Y-1.9909
X3.3732Y-1.2787
X3.3917Y-1.5016
X3.4026Y-2.9833
X3.4252Y-1.3642
X3.4394Y-2.1787
X3.4394Y-2.2787
X3.4394Y-2.3787
X3.4771Y-1.4496
X3.501Y-2.9833
X3.511Y-3.1965
X3.522Y-1.6911
X3.522Y-1.7911
X3.522Y-1.8911
X3.522Y-1.9911
X3.5394Y-2.1787
X3.5394Y-2.2787
X3.5394Y-2.3787
X3.5994Y-2.9833
X3.611Y-3.1965
X3.622Y-1.6911
X3.622Y-1.7911
X3.622Y-1.8911
X3.622Y-1.9911
X3.6394Y-2.1787
X3.6394Y-2.2787
X3.6394Y-2.3787
X3.7002Y-1.1947
X3.7002Y-1.2947
X3.7002Y-1.3947
X3.7002Y-1.4947
X3.711Y-3.1965
X3.8002Y-1.1947
X3.8002Y-1.2947
X3.8002Y-1.3947
X3.8002Y-1.4947
X3.8106Y-2.5182
X3.8106Y-2.6182
X3.8106Y-2.7182
X3.8106Y-2.8182
X3.811Y-3.1965
X3.9106Y-2.5182
X3.9106Y-2.6182
X3.9106Y-2.7182
X3.9106Y-2.8182
X3.9439Y-3.0295
X3.9439Y-3.2067
X4.0106Y-2.5182
X4.0106Y-2.6182
X4.0106Y-2.7182
X4.0106Y-2.8182
X4.0886Y-1.4878
X4.089Y-1.2878
X4.089Y-1.3878
X4.1106Y-2.5182
X4.1106Y-2.6182
X4.1106Y-2.7182
X4.1886Y-1.4878
X4.189Y-1.2878
X4.189Y-1.3878
X4.1998Y-3.0295
X4.1998Y-3.2067
X4.2106Y-2.5182
X4.2106Y-2.6182
X4.2106Y-2.7182
X4.2886Y-1.4878
X4.289Y-1.2878
X4.289Y-1.3878
X4.3106Y-2.5182
X4.3106Y-2.6182
X4.3106Y-2.7182
X4.3886Y-1.4878
X4.389Y-1.2878
X4.389Y-1.3878
X4.4886Y-1.4878
X4.489Y-1.2878
X4.489Y-1.3878
X4.5762Y-2.5214
X4.5762Y-2.6214
X4.5762Y-2.7214
X4.5762Y-2.8214
X4.5886Y-1.4878
X4.589Y-1.2878
X4.589Y-1.3878
X4.6762Y-2.5214
X4.6762Y-2.6214
X4.6762Y-2.7214
X4.6762Y-2.8214
X4.6886Y-1.4878
X4.689Y-1.2878
X4.689Y-1.3878
X4.7762Y-2.5214
X4.7762Y-2.6214
X4.7762Y-2.7214
X4.7886Y-1.4878
X4.789Y-1.2878
X4.789Y-1.3878
X4.8762Y-2.5214
X4.8762Y-2.6214
X4.8762Y-2.7214
X4.8886Y-1.4878
X4.889Y-1.2878
X4.889Y-1.3878
X4.9886Y-1.4878
X4.989Y-1.2878
X4.989Y-1.3878
X5.0738Y-2.5221
X5.0738Y-2.6221
X5.3909Y-1.2917
X5.3909Y-1.3917
X5.3909Y-1.4917
X5.4909Y-1.2917
X5.4909Y-1.3917
X5.4909Y-1.4917
X5.5909Y-1.2917
X5.5909Y-1.3917
X5.5909Y-1.4917
X5.6909Y-1.2917
X5.6909Y-1.3917
X5.6909Y-1.4917
T4
X3.7839Y-1.6575
X3.7839Y-2.3575
X3.8839Y-1.6575
X3.8839Y-2.3575
X3.9839Y-1.6575
X3.9839Y-2.3575
X4.0839Y-1.6575
X4.0839Y-2.3575
X4.1839Y-1.6575
X4.1839Y-2.3575
X4.2839Y-1.6575
X4.2839Y-2.3575
X4.3839Y-1.6575
X4.3839Y-2.3575
X4.4839Y-1.6575
X4.4839Y-2.3575
X4.5839Y-1.6575
X4.5839Y-2.3575
X4.6839Y-1.6575
X4.6839Y-2.3575
X4.7839Y-1.6575
X4.7839Y-2.3575
X4.8839Y-1.6575
X4.8839Y-2.3575
X4.9839Y-1.6575
X4.9839Y-2.3575
X5.0839Y-1.6575
X5.0839Y-2.3575
X5.1839Y-1.6575
X5.1839Y-2.3575
X5.2839Y-1.6575
X5.2839Y-2.3575
X5.3839Y-1.6575
X5.3839Y-2.3575
X5.4839Y-1.6575
X5.4839Y-2.3575
X5.5839Y-1.6575
X5.5839Y-2.3575
X5.6839Y-1.6575
X5.6839Y-2.3575
T5
X5.4774Y-3.1348
X5.6742Y-3.1348
T6
X4.8573Y-2.9409
X4.8573Y-3.2638
X5.7037Y-2.4902
X5.7037Y-2.8209
T8
X3.1407Y-1.4941
X3.1417Y-2.5955
X5.1398Y-3.1919
X5.19Y-1.2913
T3
G00X5.2047Y-2.5837
M15
G01X5.2047Y-2.6624
M16
G05
G00X5.311Y-2.686
M15
G01X5.311Y-2.7648
M16
G05
G00X5.372Y-2.5069
M15
G01X5.4705Y-2.5069
M16
G05
T7
G00X3.3278Y-2.6998
M15
G01X3.3278Y-2.7156
M16
G05
G00X3.6742Y-2.6998
M15
G01X3.6742Y-2.7156
M16
G05
T0
M30
