%TF.GenerationSoftware,KiCad,Pcbnew,7.0.1-0*%
%TF.CreationDate,2023-04-18T16:08:46-04:00*%
%TF.ProjectId,rcc-pico,7263632d-7069-4636-9f2e-6b696361645f,rev?*%
%TF.SameCoordinates,Original*%
%TF.FileFunction,Soldermask,Bot*%
%TF.FilePolarity,Negative*%
%FSLAX46Y46*%
G04 Gerber Fmt 4.6, Leading zero omitted, Abs format (unit mm)*
G04 Created by KiCad (PCBNEW 7.0.1-0) date 2023-04-18 16:08:46*
%MOMM*%
%LPD*%
G01*
G04 APERTURE LIST*
G04 Aperture macros list*
%AMHorizOval*
0 Thick line with rounded ends*
0 $1 width*
0 $2 $3 position (X,Y) of the first rounded end (center of the circle)*
0 $4 $5 position (X,Y) of the second rounded end (center of the circle)*
0 Add line between two ends*
20,1,$1,$2,$3,$4,$5,0*
0 Add two circle primitives to create the rounded ends*
1,1,$1,$2,$3*
1,1,$1,$4,$5*%
G04 Aperture macros list end*
%ADD10R,1.800000X1.800000*%
%ADD11C,1.308000*%
%ADD12R,1.308000X1.308000*%
%ADD13R,1.700000X1.700000*%
%ADD14C,1.700000*%
%ADD15O,1.700000X1.700000*%
%ADD16C,2.000000*%
%ADD17C,5.700000*%
%ADD18O,2.250000X4.500000*%
%ADD19O,4.000000X2.000000*%
%ADD20R,1.508000X1.508000*%
%ADD21C,1.508000*%
%ADD22O,2.300000X4.600000*%
%ADD23HorizOval,1.700000X0.000000X0.000000X0.000000X0.000000X0*%
G04 APERTURE END LIST*
D10*
%TO.C,SW-on/off2*%
X123500000Y-82900000D03*
X123500000Y-74700000D03*
D11*
X123500000Y-76800000D03*
X123500000Y-78800000D03*
D12*
X123500000Y-80800000D03*
%TD*%
D10*
%TO.C,SW-on/off1*%
X144777500Y-71625000D03*
X144777500Y-63225000D03*
D12*
X144777500Y-69525000D03*
D11*
X144777500Y-67525000D03*
X144777500Y-65525000D03*
%TD*%
D13*
%TO.C,TP1*%
X81075000Y-70950000D03*
%TD*%
D14*
%TO.C,SW1*%
X119440000Y-81490000D03*
X112940000Y-81490000D03*
X119440000Y-76990000D03*
X112940000Y-76990000D03*
%TD*%
%TO.C,SW2*%
X82320000Y-53860000D03*
X82320000Y-60360000D03*
X77820000Y-53860000D03*
X77820000Y-60360000D03*
%TD*%
D15*
%TO.C,U3*%
X144370000Y-42100000D03*
X141830000Y-42100000D03*
D13*
X139290000Y-42100000D03*
D15*
X136750000Y-42100000D03*
X134210000Y-42100000D03*
X131670000Y-42100000D03*
X129130000Y-42100000D03*
D13*
X126590000Y-42100000D03*
D15*
X124050000Y-42100000D03*
X121510000Y-42100000D03*
X118970000Y-42100000D03*
X116430000Y-42100000D03*
D13*
X113890000Y-42100000D03*
D15*
X111350000Y-42100000D03*
X108810000Y-42100000D03*
X106270000Y-42100000D03*
X103730000Y-42100000D03*
D13*
X101190000Y-42100000D03*
D15*
X98650000Y-42100000D03*
X96110000Y-42100000D03*
X96110000Y-59880000D03*
X98650000Y-59880000D03*
D13*
X101190000Y-59880000D03*
D15*
X103730000Y-59880000D03*
X106270000Y-59880000D03*
X108810000Y-59880000D03*
X111350000Y-59880000D03*
D13*
X113890000Y-59880000D03*
D15*
X116430000Y-59880000D03*
X118970000Y-59880000D03*
X121510000Y-59880000D03*
X124050000Y-59880000D03*
D13*
X126590000Y-59880000D03*
D15*
X129130000Y-59880000D03*
X131670000Y-59880000D03*
X134210000Y-59880000D03*
X136750000Y-59880000D03*
D13*
X139290000Y-59880000D03*
D15*
X141830000Y-59880000D03*
X144370000Y-59880000D03*
%TD*%
D13*
%TO.C,J17*%
X96790000Y-63962500D03*
X99330000Y-63962500D03*
X101870000Y-63962500D03*
D15*
X96790000Y-66502500D03*
X99330000Y-66502500D03*
X101870000Y-66502500D03*
D14*
X96790000Y-69042500D03*
X99330000Y-69042500D03*
X101870000Y-69042500D03*
X96790000Y-71582500D03*
X99330000Y-71582500D03*
X101870000Y-71582500D03*
D13*
X104410000Y-63962500D03*
D15*
X104410000Y-66502500D03*
D14*
X104410000Y-69042500D03*
D13*
X106950000Y-63962500D03*
D15*
X106950000Y-66502500D03*
D14*
X106950000Y-69042500D03*
D13*
X109490000Y-63962500D03*
D15*
X109490000Y-66502500D03*
D14*
X109490000Y-69042500D03*
%TD*%
%TO.C,J4*%
X119005000Y-71680000D03*
D15*
X116465000Y-71680000D03*
X119005000Y-69140000D03*
X116465000Y-69140000D03*
D14*
X119005000Y-66600000D03*
X116465000Y-66600000D03*
D13*
X119005000Y-64060000D03*
X116465000Y-64060000D03*
X121545000Y-64060000D03*
X124085000Y-64060000D03*
D14*
X121545000Y-66600000D03*
X124085000Y-66600000D03*
D15*
X121545000Y-69140000D03*
X124085000Y-69140000D03*
%TD*%
D16*
%TO.C,J8*%
X138200000Y-79625000D03*
X143200000Y-79625000D03*
%TD*%
D17*
%TO.C,H4*%
X131825000Y-32800000D03*
%TD*%
D18*
%TO.C,J3*%
X139575000Y-69375000D03*
D19*
X136625000Y-63875000D03*
X134025000Y-66575000D03*
%TD*%
D14*
%TO.C,J5*%
X144550000Y-32810000D03*
D15*
X142010000Y-32810000D03*
D14*
X139470000Y-32810000D03*
X136930000Y-32810000D03*
X144550000Y-35350000D03*
D15*
X142010000Y-35350000D03*
D14*
X139470000Y-35350000D03*
X136930000Y-35350000D03*
D13*
X144550000Y-37890000D03*
X142010000Y-37890000D03*
X139470000Y-37890000D03*
X136930000Y-37890000D03*
%TD*%
D20*
%TO.C,R11*%
X86425000Y-75775000D03*
D21*
X88925000Y-75775000D03*
X91425000Y-75775000D03*
D22*
X84525000Y-68775000D03*
X93325000Y-68775000D03*
%TD*%
D17*
%TO.C,H3*%
X130550000Y-81075000D03*
%TD*%
D14*
%TO.C,J12*%
X89460000Y-42955000D03*
D15*
X92000000Y-42955000D03*
X89460000Y-45495000D03*
X92000000Y-45495000D03*
D13*
X89460000Y-48035000D03*
X92000000Y-48035000D03*
D15*
X89460000Y-50575000D03*
X92000000Y-50575000D03*
%TD*%
D17*
%TO.C,H2*%
X79775000Y-37950000D03*
%TD*%
%TO.C,H1*%
X79800000Y-65925000D03*
%TD*%
D14*
%TO.C,J11*%
X82820000Y-42950000D03*
D15*
X85360000Y-42950000D03*
X82820000Y-45490000D03*
X85360000Y-45490000D03*
D13*
X82820000Y-48030000D03*
X85360000Y-48030000D03*
D15*
X82820000Y-50570000D03*
X85360000Y-50570000D03*
%TD*%
D14*
%TO.C,J14*%
X88319157Y-36820651D03*
D23*
X86148832Y-38140230D03*
X86999578Y-34650326D03*
X84829253Y-35969904D03*
X85680000Y-32480000D03*
X83509674Y-33799579D03*
%TD*%
D13*
%TO.C,J13*%
X92440000Y-60420000D03*
X89900000Y-60420000D03*
X87360000Y-60420000D03*
D15*
X92440000Y-57880000D03*
X89900000Y-57880000D03*
X87360000Y-57880000D03*
D14*
X92440000Y-55340000D03*
X89900000Y-55340000D03*
X87360000Y-55340000D03*
%TD*%
%TO.C,J1*%
X96800000Y-81190000D03*
D15*
X94260000Y-81190000D03*
X91720000Y-81190000D03*
X89180000Y-81190000D03*
%TD*%
D14*
%TO.C,J16*%
X128700000Y-64075000D03*
D15*
X128700000Y-66615000D03*
%TD*%
D14*
%TO.C,J10*%
X93985000Y-30345000D03*
D15*
X96525000Y-30345000D03*
X93985000Y-32885000D03*
X96525000Y-32885000D03*
D14*
X93985000Y-35425000D03*
X96525000Y-35425000D03*
D13*
X93985000Y-37965000D03*
X96525000Y-37965000D03*
%TD*%
D14*
%TO.C,J7*%
X126720000Y-32710000D03*
D15*
X124180000Y-32710000D03*
X121640000Y-32710000D03*
X119100000Y-32710000D03*
X116560000Y-32710000D03*
X114020000Y-32710000D03*
X111480000Y-32710000D03*
X108940000Y-32710000D03*
X106400000Y-32710000D03*
X103860000Y-32710000D03*
X126720000Y-35250000D03*
X124180000Y-35250000D03*
X121640000Y-35250000D03*
X119100000Y-35250000D03*
X116560000Y-35250000D03*
X114020000Y-35250000D03*
X111480000Y-35250000D03*
X108940000Y-35250000D03*
X106400000Y-35250000D03*
X103860000Y-35250000D03*
D13*
X126710000Y-37790000D03*
X124170000Y-37790000D03*
X121630000Y-37790000D03*
X119090000Y-37790000D03*
X116550000Y-37790000D03*
X114010000Y-37790000D03*
X111470000Y-37790000D03*
X108930000Y-37790000D03*
X106390000Y-37790000D03*
X103850000Y-37790000D03*
%TD*%
M02*
