M48
; DRILL file {KiCad (6.0.9-0)} date Monday, April 03, 2023 at 03:52:07 PM
; FORMAT={-:-/ absolute / inch / decimal}
; #@! TF.CreationDate,2023-04-03T15:52:07-04:00
; #@! TF.GenerationSoftware,Kicad,Pcbnew,(6.0.9-0)
; #@! TF.FileFunction,Plated,1,2,PTH
FMAT,2
INCH
; #@! TA.AperFunction,Plated,PTH,ViaDrill
T1C0.0157
; #@! TA.AperFunction,Plated,PTH,ComponentDrill
T2C0.0394
; #@! TA.AperFunction,Plated,PTH,ComponentDrill
T3C0.0402
; #@! TA.AperFunction,Plated,PTH,ComponentDrill
T4C0.0433
; #@! TA.AperFunction,Plated,PTH,ComponentDrill
T5C0.0610
; #@! TA.AperFunction,Plated,PTH,ComponentDrill
T6C0.1260
%
G90
G05
T1
X3.3248Y-4.9488
X3.3748Y-4.9488
X3.4248Y-4.9488
X3.5502Y-4.503
X3.5502Y-4.7677
X3.5965Y-5.3474
X3.5965Y-5.3974
X3.5965Y-5.4474
X3.624Y-4.812
X3.628Y-4.5049
X3.6634Y-4.6289
X3.6634Y-4.6789
X3.6634Y-4.7289
X3.678Y-4.5049
X3.7687Y-4.4911
X3.7726Y-5.2421
X3.7726Y-5.2921
X3.7726Y-5.3421
X3.814Y-4.4419
X3.815Y-5.2411
X3.815Y-5.2911
X3.815Y-5.3411
X3.8297Y-4.5217
X3.8666Y-5.4848
X3.8668Y-5.3653
X3.9026Y-4.4833
X4.0108Y-5.3415
X4.0118Y-5.3839
X4.0197Y-4.4843
X4.0608Y-5.3415
X4.0618Y-5.3839
X4.0797Y-4.5276
X4.0915Y-4.4419
X4.1108Y-5.3415
X4.1118Y-5.3839
X4.1545Y-4.4075
X4.1545Y-4.4823
X4.2707Y-4.4813
X4.3268Y-4.5246
X4.3356Y-4.4409
X4.3957Y-4.4833
X4.4065Y-4.3986
X4.7Y-4.5
X4.75Y-4.5
X4.8Y-4.5
X4.85Y-4.5
X4.9Y-4.5
X4.95Y-4.5
X5.0Y-4.5
X5.05Y-4.5
X5.1Y-4.5
X5.15Y-4.5
X5.2Y-4.5
X5.25Y-4.5
X5.3Y-4.5
X5.35Y-4.5
X5.4Y-4.5
T2
X3.2362Y-3.9495
X3.2362Y-4.0495
X3.2362Y-4.1495
X3.2362Y-4.2495
X3.2746Y-4.5419
X3.2746Y-4.6419
X3.275Y-4.4419
X3.3362Y-3.9495
X3.3362Y-4.0495
X3.3362Y-4.1495
X3.3362Y-4.2495
X3.3746Y-4.5419
X3.3746Y-4.6419
X3.375Y-4.4419
X3.4746Y-4.5419
X3.4746Y-4.6419
X3.475Y-4.4419
X3.4823Y-3.9495
X3.4823Y-4.0495
X3.4823Y-4.1495
X3.4823Y-4.2495
X3.5823Y-3.9495
X3.5823Y-4.0495
X3.5823Y-4.1495
X3.5823Y-4.2495
X3.6929Y-3.4774
X3.6929Y-3.5774
X3.6929Y-3.6774
X3.6929Y-3.7774
X3.7766Y-4.9963
X3.777Y-4.7963
X3.777Y-4.8963
X3.777Y-5.0963
X3.7929Y-3.4774
X3.7929Y-3.5774
X3.7929Y-3.6774
X3.7929Y-3.7774
X3.8766Y-4.9963
X3.877Y-4.7963
X3.877Y-4.8963
X3.877Y-5.0963
X3.9766Y-4.9963
X3.977Y-4.7963
X3.977Y-4.8963
X3.977Y-5.0963
X4.0766Y-4.9963
X4.077Y-4.7963
X4.077Y-4.8963
X4.0781Y-3.7722
X4.0785Y-3.5722
X4.0785Y-3.6722
X4.1766Y-4.9963
X4.177Y-4.7963
X4.177Y-4.8963
X4.1781Y-3.7722
X4.1785Y-3.5722
X4.1785Y-3.6722
X4.2766Y-4.9963
X4.277Y-4.7963
X4.277Y-4.8963
X4.2781Y-3.7722
X4.2785Y-3.5722
X4.2785Y-3.6722
X4.3766Y-4.9963
X4.377Y-4.7963
X4.377Y-4.8963
X4.3781Y-3.7722
X4.3785Y-3.5722
X4.3785Y-3.6722
X4.4781Y-3.7722
X4.4785Y-3.5722
X4.4785Y-3.6722
X4.5781Y-3.7722
X4.5785Y-3.5722
X4.5785Y-3.6722
X4.6602Y-5.0006
X4.6606Y-4.8006
X4.6606Y-4.9006
X4.6781Y-3.7722
X4.6785Y-3.5722
X4.6785Y-3.6722
X4.7602Y-5.0006
X4.7606Y-4.8006
X4.7606Y-4.9006
X4.7781Y-3.7722
X4.7785Y-3.5722
X4.7785Y-3.6722
X4.8602Y-5.0006
X4.8606Y-4.8006
X4.8606Y-4.9006
X4.8781Y-3.7722
X4.8785Y-3.5722
X4.8785Y-3.6722
X4.9781Y-3.7722
X4.9785Y-3.5722
X4.9785Y-3.6722
X5.0325Y-4.7756
X5.0325Y-5.0315
X5.2096Y-4.7756
X5.2096Y-5.0315
X5.3823Y-3.7728
X5.3827Y-3.5728
X5.3827Y-3.6728
X5.4823Y-3.7728
X5.4827Y-3.5728
X5.4827Y-3.6728
X5.5823Y-3.7728
X5.5827Y-3.5728
X5.5827Y-3.6728
X5.6122Y-4.8012
X5.6823Y-3.7728
X5.6827Y-3.5728
X5.6827Y-3.6728
T3
X3.7783Y-3.9376
X3.7783Y-4.6376
X3.8783Y-3.9376
X3.8783Y-4.6376
X3.9783Y-3.9376
X3.9783Y-4.6376
X4.0783Y-3.9376
X4.0783Y-4.6376
X4.1783Y-3.9376
X4.1783Y-4.6376
X4.2783Y-3.9376
X4.2783Y-4.6376
X4.3783Y-3.9376
X4.3783Y-4.6376
X4.4783Y-3.9376
X4.4783Y-4.6376
X4.5783Y-3.9376
X4.5783Y-4.6376
X4.6783Y-3.9376
X4.6783Y-4.6376
X4.7783Y-3.9376
X4.7783Y-4.6376
X4.8783Y-3.9376
X4.8783Y-4.6376
X4.9783Y-3.9376
X4.9783Y-4.6376
X5.0783Y-3.9376
X5.0783Y-4.6376
X5.1783Y-3.9376
X5.1783Y-4.6376
X5.2783Y-3.9376
X5.2783Y-4.6376
X5.3783Y-3.9376
X5.3783Y-4.6376
X5.4783Y-3.9376
X5.4783Y-4.6376
X5.5783Y-3.9376
X5.5783Y-4.6376
X5.6783Y-3.9376
X5.6783Y-4.6376
T4
X4.3711Y-5.3479
X4.5679Y-5.3479
T5
X4.8307Y-5.2918
X4.8307Y-5.3903
X4.8307Y-5.4887
X5.4557Y-5.4094
X5.5541Y-5.4094
X5.6526Y-5.4094
T6
X3.1348Y-3.751
X3.1368Y-4.8504
X5.1388Y-5.4508
X5.189Y-3.5512
T2
G00X5.501Y-5.2283
M15
G01X5.4026Y-5.2283
M16
G05
G00X5.562Y-5.0492
M15
G01X5.562Y-4.9705
M16
G05
G00X5.6683Y-5.1516
M15
G01X5.6683Y-5.0728
M16
G05
T0
M30
