%TF.GenerationSoftware,KiCad,Pcbnew,(6.0.9-0)*%
%TF.CreationDate,2023-04-03T15:52:03-04:00*%
%TF.ProjectId,rcc-pico,7263632d-7069-4636-9f2e-6b696361645f,rev?*%
%TF.SameCoordinates,Original*%
%TF.FileFunction,Paste,Top*%
%TF.FilePolarity,Positive*%
%FSLAX46Y46*%
G04 Gerber Fmt 4.6, Leading zero omitted, Abs format (unit mm)*
G04 Created by KiCad (PCBNEW (6.0.9-0)) date 2023-04-03 15:52:03*
%MOMM*%
%LPD*%
G01*
G04 APERTURE LIST*
G04 Aperture macros list*
%AMRoundRect*
0 Rectangle with rounded corners*
0 $1 Rounding radius*
0 $2 $3 $4 $5 $6 $7 $8 $9 X,Y pos of 4 corners*
0 Add a 4 corners polygon primitive as box body*
4,1,4,$2,$3,$4,$5,$6,$7,$8,$9,$2,$3,0*
0 Add four circle primitives for the rounded corners*
1,1,$1+$1,$2,$3*
1,1,$1+$1,$4,$5*
1,1,$1+$1,$6,$7*
1,1,$1+$1,$8,$9*
0 Add four rect primitives between the rounded corners*
20,1,$1+$1,$2,$3,$4,$5,0*
20,1,$1+$1,$4,$5,$6,$7,0*
20,1,$1+$1,$6,$7,$8,$9,0*
20,1,$1+$1,$8,$9,$2,$3,0*%
G04 Aperture macros list end*
%ADD10RoundRect,0.140000X-0.170000X0.140000X-0.170000X-0.140000X0.170000X-0.140000X0.170000X0.140000X0*%
%ADD11RoundRect,0.218750X0.218750X0.256250X-0.218750X0.256250X-0.218750X-0.256250X0.218750X-0.256250X0*%
%ADD12RoundRect,0.150000X0.587500X0.150000X-0.587500X0.150000X-0.587500X-0.150000X0.587500X-0.150000X0*%
%ADD13RoundRect,0.250000X0.250000X0.475000X-0.250000X0.475000X-0.250000X-0.475000X0.250000X-0.475000X0*%
%ADD14RoundRect,0.250000X-0.475000X0.250000X-0.475000X-0.250000X0.475000X-0.250000X0.475000X0.250000X0*%
%ADD15RoundRect,0.150000X0.512500X0.150000X-0.512500X0.150000X-0.512500X-0.150000X0.512500X-0.150000X0*%
%ADD16RoundRect,0.135000X-0.135000X-0.185000X0.135000X-0.185000X0.135000X0.185000X-0.135000X0.185000X0*%
%ADD17RoundRect,0.135000X0.185000X-0.135000X0.185000X0.135000X-0.185000X0.135000X-0.185000X-0.135000X0*%
%ADD18RoundRect,0.135000X-0.185000X0.135000X-0.185000X-0.135000X0.185000X-0.135000X0.185000X0.135000X0*%
%ADD19RoundRect,0.250000X-0.250000X-0.475000X0.250000X-0.475000X0.250000X0.475000X-0.250000X0.475000X0*%
%ADD20RoundRect,0.140000X0.140000X0.170000X-0.140000X0.170000X-0.140000X-0.170000X0.140000X-0.170000X0*%
%ADD21R,0.558800X1.460500*%
%ADD22RoundRect,0.225000X-0.250000X0.225000X-0.250000X-0.225000X0.250000X-0.225000X0.250000X0.225000X0*%
%ADD23R,2.225000X5.950000*%
G04 APERTURE END LIST*
D10*
%TO.C,C9*%
X140425000Y-114970000D03*
X140425000Y-115930000D03*
%TD*%
D11*
%TO.C,D1*%
X136775000Y-122725000D03*
X135200000Y-122725000D03*
%TD*%
D12*
%TO.C,Q2*%
X105537500Y-114825000D03*
X105537500Y-112925000D03*
X103662500Y-113875000D03*
%TD*%
D13*
%TO.C,C2*%
X100200000Y-134675000D03*
X98300000Y-134675000D03*
%TD*%
D14*
%TO.C,C1*%
X135150000Y-135550000D03*
X135150000Y-137450000D03*
%TD*%
D15*
%TO.C,U1*%
X99350000Y-138750000D03*
X99350000Y-137800000D03*
X99350000Y-136850000D03*
X97075000Y-136850000D03*
X97075000Y-137800000D03*
X97075000Y-138750000D03*
%TD*%
D16*
%TO.C,R3*%
X138190000Y-122700000D03*
X139210000Y-122700000D03*
%TD*%
%TO.C,R2*%
X101090000Y-138125000D03*
X102110000Y-138125000D03*
%TD*%
D10*
%TO.C,C8*%
X87650000Y-129845000D03*
X87650000Y-130805000D03*
%TD*%
D17*
%TO.C,R8*%
X100750000Y-114845000D03*
X100750000Y-113825000D03*
%TD*%
D18*
%TO.C,R5*%
X108450000Y-111865000D03*
X108450000Y-112885000D03*
%TD*%
D19*
%TO.C,C5*%
X90700000Y-132425000D03*
X92600000Y-132425000D03*
%TD*%
D20*
%TO.C,C3*%
X96860000Y-140075000D03*
X95900000Y-140075000D03*
%TD*%
D17*
%TO.C,R6*%
X107100000Y-114810000D03*
X107100000Y-113790000D03*
%TD*%
D18*
%TO.C,R9*%
X95725000Y-112015000D03*
X95725000Y-113035000D03*
%TD*%
D12*
%TO.C,Q1*%
X111900000Y-114800000D03*
X111900000Y-112900000D03*
X110025000Y-113850000D03*
%TD*%
D13*
%TO.C,C6*%
X89075000Y-132425000D03*
X87175000Y-132425000D03*
%TD*%
D12*
%TO.C,Q3*%
X99137500Y-114850000D03*
X99137500Y-112950000D03*
X97262500Y-113900000D03*
%TD*%
D20*
%TO.C,C7*%
X87680000Y-121150000D03*
X86720000Y-121150000D03*
%TD*%
D21*
%TO.C,U2*%
X87677500Y-122940975D03*
X86407500Y-122940975D03*
X85137500Y-122940975D03*
X83867500Y-122940975D03*
X83867500Y-128389275D03*
X85137500Y-128389275D03*
X86407500Y-128389275D03*
X87677500Y-128389275D03*
%TD*%
D17*
%TO.C,R4*%
X113537500Y-114770000D03*
X113537500Y-113750000D03*
%TD*%
D18*
%TO.C,R7*%
X102125000Y-111765000D03*
X102125000Y-112785000D03*
%TD*%
D22*
%TO.C,C4*%
X102425000Y-139450000D03*
X102425000Y-141000000D03*
%TD*%
D23*
%TO.C,L1*%
X93625000Y-137137500D03*
X89025000Y-137137500D03*
%TD*%
D18*
%TO.C,R1*%
X101025000Y-140040000D03*
X101025000Y-141060000D03*
%TD*%
M02*
