%TF.GenerationSoftware,KiCad,Pcbnew,(6.0.9-0)*%
%TF.CreationDate,2023-04-03T15:52:03-04:00*%
%TF.ProjectId,rcc-pico,7263632d-7069-4636-9f2e-6b696361645f,rev?*%
%TF.SameCoordinates,Original*%
%TF.FileFunction,Soldermask,Bot*%
%TF.FilePolarity,Negative*%
%FSLAX46Y46*%
G04 Gerber Fmt 4.6, Leading zero omitted, Abs format (unit mm)*
G04 Created by KiCad (PCBNEW (6.0.9-0)) date 2023-04-03 15:52:03*
%MOMM*%
%LPD*%
G01*
G04 APERTURE LIST*
%ADD10C,1.700000*%
%ADD11O,1.700000X1.700000*%
%ADD12R,1.700000X1.700000*%
%ADD13C,5.700000*%
%ADD14R,2.000000X2.550000*%
%ADD15R,2.550000X2.000000*%
%ADD16C,2.000000*%
%ADD17O,4.500000X2.250000*%
%ADD18O,2.000000X4.000000*%
G04 APERTURE END LIST*
D10*
%TO.C,J10*%
X82200000Y-100317500D03*
D11*
X82200000Y-102857500D03*
X82200000Y-105397500D03*
X82200000Y-107937500D03*
X84740000Y-100317500D03*
X84740000Y-102857500D03*
X84740000Y-105397500D03*
X84740000Y-107937500D03*
%TD*%
%TO.C,J4*%
X144340000Y-90750000D03*
X141800000Y-90750000D03*
X139260000Y-90750000D03*
X136720000Y-90750000D03*
X144340000Y-93290000D03*
X141800000Y-93290000D03*
X139260000Y-93290000D03*
X136720000Y-93290000D03*
X144330000Y-95830000D03*
X141790000Y-95830000D03*
X139250000Y-95830000D03*
X136710000Y-95830000D03*
%TD*%
D10*
%TO.C,J9*%
X111175000Y-121825000D03*
D11*
X108635000Y-121825000D03*
X106095000Y-121825000D03*
X103555000Y-121825000D03*
X101015000Y-121825000D03*
X98475000Y-121825000D03*
X95935000Y-121825000D03*
X111175000Y-124365000D03*
X108635000Y-124365000D03*
X106095000Y-124365000D03*
X103555000Y-124365000D03*
X101015000Y-124365000D03*
X98475000Y-124365000D03*
X95935000Y-124365000D03*
X111165000Y-126905000D03*
X108625000Y-126905000D03*
X106085000Y-126905000D03*
X103545000Y-126905000D03*
X101005000Y-126905000D03*
X98465000Y-126905000D03*
X95925000Y-126905000D03*
X101015000Y-129445000D03*
X98475000Y-129445000D03*
X95935000Y-129445000D03*
%TD*%
%TO.C,U4*%
X144230000Y-100015200D03*
X141690000Y-100015200D03*
D12*
X139150000Y-100015200D03*
D11*
X136610000Y-100015200D03*
X134070000Y-100015200D03*
X131530000Y-100015200D03*
X128990000Y-100015200D03*
D10*
X126450000Y-100015200D03*
D11*
X123910000Y-100015200D03*
X121370000Y-100015200D03*
X118830000Y-100015200D03*
X116290000Y-100015200D03*
D12*
X113750000Y-100015200D03*
D11*
X111210000Y-100015200D03*
X108670000Y-100015200D03*
X106130000Y-100015200D03*
X103590000Y-100015200D03*
D12*
X101050000Y-100015200D03*
D11*
X98510000Y-100015200D03*
X95970000Y-100015200D03*
X95970000Y-117795200D03*
X98510000Y-117795200D03*
D12*
X101050000Y-117795200D03*
D11*
X103590000Y-117795200D03*
X106130000Y-117795200D03*
X108670000Y-117795200D03*
X111210000Y-117795200D03*
D12*
X113750000Y-117795200D03*
D11*
X116290000Y-117795200D03*
X118830000Y-117795200D03*
X121370000Y-117795200D03*
X123910000Y-117795200D03*
D12*
X126450000Y-117795200D03*
D11*
X128990000Y-117795200D03*
X131530000Y-117795200D03*
X134070000Y-117795200D03*
X136610000Y-117795200D03*
D12*
X139150000Y-117795200D03*
D11*
X141690000Y-117795200D03*
X144230000Y-117795200D03*
%TD*%
D13*
%TO.C,H1*%
X131800000Y-90200000D03*
%TD*%
D11*
%TO.C,J8*%
X123460000Y-121935000D03*
X120920000Y-121935000D03*
X118380000Y-121935000D03*
X123460000Y-124475000D03*
X120920000Y-124475000D03*
X118380000Y-124475000D03*
X123450000Y-127015000D03*
X120910000Y-127015000D03*
X118370000Y-127015000D03*
%TD*%
D12*
%TO.C,J7*%
X88450000Y-100317500D03*
D11*
X88450000Y-102857500D03*
X88450000Y-105397500D03*
X88450000Y-107937500D03*
X90990000Y-100317500D03*
X90990000Y-102857500D03*
X90990000Y-105397500D03*
X90990000Y-107937500D03*
%TD*%
D14*
%TO.C,SW-on/off1*%
X143575000Y-137400000D03*
X141075000Y-137400000D03*
X138575000Y-137400000D03*
%TD*%
D13*
%TO.C,H2*%
X130525000Y-138450000D03*
%TD*%
%TO.C,H3*%
X79625000Y-95275000D03*
%TD*%
D10*
%TO.C,SW1*%
X127825000Y-121300000D03*
D12*
X127825000Y-127800000D03*
D10*
X132325000Y-127800000D03*
X132325000Y-121300000D03*
%TD*%
%TO.C,J5*%
X126455000Y-90735000D03*
D11*
X123915000Y-90735000D03*
X121375000Y-90735000D03*
X118835000Y-90735000D03*
X116295000Y-90735000D03*
X113755000Y-90735000D03*
X111215000Y-90735000D03*
X108675000Y-90735000D03*
X106135000Y-90735000D03*
X103595000Y-90735000D03*
X126455000Y-93275000D03*
X123915000Y-93275000D03*
X121375000Y-93275000D03*
X118835000Y-93275000D03*
X116295000Y-93275000D03*
X113755000Y-93275000D03*
X111215000Y-93275000D03*
X108675000Y-93275000D03*
X106135000Y-93275000D03*
X103595000Y-93275000D03*
X126445000Y-95815000D03*
X123905000Y-95815000D03*
X121365000Y-95815000D03*
X118825000Y-95815000D03*
X116285000Y-95815000D03*
X113745000Y-95815000D03*
X111205000Y-95815000D03*
X108665000Y-95815000D03*
X106125000Y-95815000D03*
X103585000Y-95815000D03*
%TD*%
D15*
%TO.C,SW-on/off2*%
X122700000Y-139412500D03*
X122700000Y-136912500D03*
X122700000Y-134412500D03*
%TD*%
D11*
%TO.C,J3*%
X83175000Y-117905000D03*
X85715000Y-117905000D03*
X88255000Y-117905000D03*
X83175000Y-115365000D03*
X85715000Y-115365000D03*
X88255000Y-115365000D03*
X83185000Y-112825000D03*
X85725000Y-112825000D03*
X88265000Y-112825000D03*
%TD*%
D13*
%TO.C,H4*%
X79675000Y-123200000D03*
%TD*%
D10*
%TO.C,J6*%
X93800000Y-88325000D03*
D11*
X96340000Y-88325000D03*
X93800000Y-90865000D03*
X96340000Y-90865000D03*
X93800000Y-93405000D03*
X96340000Y-93405000D03*
X93800000Y-95945000D03*
X96340000Y-95945000D03*
%TD*%
D12*
%TO.C,TP1*%
X142550000Y-121950000D03*
%TD*%
D16*
%TO.C,J2*%
X116025000Y-135837500D03*
X111025000Y-135837500D03*
%TD*%
D17*
%TO.C,J1*%
X138475000Y-132800000D03*
D18*
X143975000Y-129850000D03*
X141275000Y-127250000D03*
%TD*%
M02*
